<svg width="90" height="135" viewBox="0 0 90 135" fill="none" xmlns="http://www.w3.org/2000/svg">
<rect width="90" height="135" fill="#000500"/>
<rect x="63.5" y="111.683" width="8.18292" height="16.7683" fill="#BFE0D1"/>
<rect x="74.3658" y="111.683" width="8.18292" height="19.3171" fill="#BFE0D1"/>
<rect x="58.0001" y="109" width="30.3171" height="2.68293" fill="#BFE0D1"/>
<rect x="58" y="128.317" width="16.3658" height="2.68293" fill="#BFE0D1"/>
<path d="M6.44 24C6.34 24 6.262 23.972 6.206 23.916C6.15 23.86 6.122 23.782 6.122 23.682V16.578C6.122 16.478 6.15 16.4 6.206 16.344C6.262 16.288 6.34 16.26 6.44 16.26C6.536 16.26 6.612 16.288 6.668 16.344C6.724 16.4 6.752 16.478 6.752 16.578V23.682C6.752 23.782 6.724 23.86 6.668 23.916C6.612 23.972 6.536 24 6.44 24ZM9.31109 24C9.09909 24 8.99309 23.894 8.99309 23.682V18.642C8.99309 18.434 9.09909 18.33 9.31109 18.33C9.51909 18.33 9.62309 18.434 9.62309 18.642V19.218C10.0031 18.626 10.6911 18.33 11.6871 18.33H12.0231C12.7711 18.33 13.3171 18.504 13.6611 18.852C14.0091 19.196 14.1831 19.742 14.1831 20.49V23.682C14.1831 23.894 14.0791 24 13.8711 24C13.6591 24 13.5531 23.894 13.5531 23.682V20.49C13.5531 19.918 13.4391 19.52 13.2111 19.296C12.9871 19.072 12.5911 18.96 12.0231 18.96H11.6871C11.0671 18.96 10.5791 19.058 10.2231 19.254C9.86709 19.45 9.66709 19.756 9.62309 20.172V23.682C9.62309 23.894 9.51909 24 9.31109 24ZM17.5593 23.988C17.0673 23.988 16.6913 23.884 16.4313 23.676C16.1713 23.464 16.0153 23.142 15.9633 22.71C15.9513 22.606 15.9733 22.526 16.0293 22.47C16.0853 22.41 16.1673 22.38 16.2753 22.38C16.3753 22.38 16.4493 22.406 16.4973 22.458C16.5493 22.51 16.5833 22.588 16.5993 22.692C16.6353 22.94 16.7253 23.114 16.8693 23.214C17.0173 23.31 17.2473 23.358 17.5593 23.358H19.5273C19.8993 23.358 20.1553 23.288 20.2953 23.148C20.4353 23.008 20.5053 22.752 20.5053 22.38C20.5053 22.004 20.4353 21.746 20.2953 21.606C20.1553 21.466 19.8993 21.396 19.5273 21.396H17.5833C17.0633 21.396 16.6753 21.272 16.4193 21.024C16.1673 20.772 16.0413 20.386 16.0413 19.866C16.0413 19.334 16.1673 18.944 16.4193 18.696C16.6713 18.444 17.0593 18.318 17.5833 18.318H19.4673C20.3713 18.318 20.8733 18.718 20.9733 19.518C20.9893 19.622 20.9673 19.704 20.9073 19.764C20.8513 19.82 20.7713 19.848 20.6673 19.848C20.5673 19.848 20.4913 19.822 20.4393 19.77C20.3913 19.718 20.3573 19.642 20.3373 19.542C20.3093 19.318 20.2273 19.164 20.0913 19.08C19.9593 18.992 19.7513 18.948 19.4673 18.948H17.5833C17.2353 18.948 16.9953 19.012 16.8633 19.14C16.7353 19.268 16.6713 19.51 16.6713 19.866C16.6713 20.206 16.7373 20.442 16.8693 20.574C17.0013 20.702 17.2393 20.766 17.5833 20.766H19.5273C20.0793 20.766 20.4853 20.898 20.7453 21.162C21.0053 21.422 21.1353 21.828 21.1353 22.38C21.1353 22.928 21.0053 23.334 20.7453 23.598C20.4853 23.858 20.0793 23.988 19.5273 23.988H17.5593ZM23.3384 26.4C23.1264 26.4 23.0204 26.294 23.0204 26.082V18.642C23.0204 18.434 23.1264 18.33 23.3384 18.33C23.5464 18.33 23.6504 18.434 23.6504 18.642V19.176C23.8304 18.896 24.0884 18.686 24.4244 18.546C24.7604 18.402 25.1904 18.33 25.7144 18.33H26.1704C26.9184 18.33 27.4644 18.504 27.8084 18.852C28.1564 19.196 28.3304 19.742 28.3304 20.49V21.834C28.3304 22.582 28.1564 23.13 27.8084 23.478C27.4644 23.826 26.9184 24 26.1704 24H23.6504V26.082C23.6504 26.294 23.5464 26.4 23.3384 26.4ZM23.6504 23.37H26.1704C26.7424 23.37 27.1404 23.258 27.3644 23.034C27.5884 22.806 27.7004 22.406 27.7004 21.834V20.49C27.7004 19.918 27.5884 19.52 27.3644 19.296C27.1404 19.072 26.7424 18.96 26.1704 18.96H25.7144C25.0744 18.96 24.5824 19.06 24.2384 19.26C23.8984 19.46 23.7024 19.768 23.6504 20.184V23.37ZM30.595 17.238C30.319 17.238 30.181 17.096 30.181 16.812V16.542C30.181 16.266 30.319 16.128 30.595 16.128H30.865C31.133 16.128 31.267 16.266 31.267 16.542V16.812C31.267 17.096 31.133 17.238 30.865 17.238H30.595ZM30.733 24C30.521 24 30.415 23.894 30.415 23.682V18.642C30.415 18.434 30.521 18.33 30.733 18.33C30.941 18.33 31.045 18.434 31.045 18.642V23.682C31.045 23.894 30.941 24 30.733 24ZM33.6041 24C33.3921 24 33.2861 23.894 33.2861 23.682V18.642C33.2861 18.434 33.3921 18.33 33.6041 18.33C33.8121 18.33 33.9161 18.434 33.9161 18.642V19.566C34.1241 19.166 34.4241 18.86 34.8161 18.648C35.2121 18.436 35.6801 18.33 36.2201 18.33C36.4321 18.33 36.5381 18.434 36.5381 18.642C36.5381 18.854 36.4321 18.96 36.2201 18.96C35.5081 18.96 34.9561 19.122 34.5641 19.446C34.1721 19.766 33.9561 20.224 33.9161 20.82V23.682C33.9161 23.894 33.8121 24 33.6041 24ZM39.1322 24C38.5082 24 38.0502 23.856 37.7582 23.568C37.4702 23.276 37.3262 22.818 37.3262 22.194C37.3262 21.57 37.4722 21.112 37.7642 20.82C38.0562 20.528 38.5122 20.382 39.1322 20.382H41.8622C41.8542 19.854 41.7342 19.486 41.5022 19.278C41.2742 19.066 40.8842 18.96 40.3322 18.96H39.6362C39.1282 18.96 38.7562 19.014 38.5202 19.122C38.2842 19.23 38.1382 19.414 38.0822 19.674C38.0542 19.774 38.0162 19.848 37.9682 19.896C37.9242 19.94 37.8522 19.962 37.7522 19.962C37.6482 19.962 37.5662 19.934 37.5062 19.878C37.4502 19.818 37.4302 19.738 37.4462 19.638C37.4982 19.182 37.7042 18.85 38.0642 18.642C38.4282 18.434 38.9522 18.33 39.6362 18.33H40.3322C41.0802 18.33 41.6262 18.504 41.9702 18.852C42.3182 19.196 42.4922 19.742 42.4922 20.49V23.682C42.4922 23.894 42.3882 24 42.1802 24C41.9682 24 41.8622 23.894 41.8622 23.682V23.088C41.4782 23.696 40.7922 24 39.8042 24H39.1322ZM39.1322 23.37H39.8042C40.1922 23.37 40.5322 23.328 40.8242 23.244C41.1202 23.156 41.3582 23.016 41.5382 22.824C41.7182 22.632 41.8262 22.376 41.8622 22.056V21.012H39.1322C38.6882 21.012 38.3802 21.098 38.2082 21.27C38.0402 21.438 37.9562 21.746 37.9562 22.194C37.9562 22.638 38.0402 22.946 38.2082 23.118C38.3802 23.286 38.6882 23.37 39.1322 23.37ZM46.9458 24C46.2098 24 45.6718 23.83 45.3318 23.49C44.9918 23.15 44.8218 22.614 44.8218 21.882V18.96H44.1078C43.8958 18.96 43.7898 18.854 43.7898 18.642C43.7898 18.434 43.8958 18.33 44.1078 18.33H44.8218V17.04C44.8218 16.828 44.9258 16.722 45.1338 16.722C45.3458 16.722 45.4518 16.828 45.4518 17.04V18.33H46.9578C47.1658 18.33 47.2698 18.434 47.2698 18.642C47.2698 18.854 47.1658 18.96 46.9578 18.96H45.4518V21.882C45.4518 22.442 45.5598 22.83 45.7758 23.046C45.9958 23.262 46.3858 23.37 46.9458 23.37C47.0618 23.37 47.1438 23.396 47.1918 23.448C47.2438 23.5 47.2698 23.578 47.2698 23.682C47.2698 23.894 47.1618 24 46.9458 24ZM49.1106 17.238C48.8346 17.238 48.6966 17.096 48.6966 16.812V16.542C48.6966 16.266 48.8346 16.128 49.1106 16.128H49.3806C49.6486 16.128 49.7826 16.266 49.7826 16.542V16.812C49.7826 17.096 49.6486 17.238 49.3806 17.238H49.1106ZM49.2486 24C49.0366 24 48.9306 23.894 48.9306 23.682V18.642C48.9306 18.434 49.0366 18.33 49.2486 18.33C49.4566 18.33 49.5606 18.434 49.5606 18.642V23.682C49.5606 23.894 49.4566 24 49.2486 24ZM53.8057 24C53.0577 24 52.5097 23.828 52.1617 23.484C51.8137 23.136 51.6397 22.59 51.6397 21.846V20.49C51.6397 19.734 51.8137 19.184 52.1617 18.84C52.5097 18.492 53.0577 18.322 53.8057 18.33H54.7897C55.5377 18.33 56.0837 18.504 56.4277 18.852C56.7757 19.196 56.9497 19.742 56.9497 20.49V21.834C56.9497 22.582 56.7757 23.13 56.4277 23.478C56.0837 23.826 55.5377 24 54.7897 24H53.8057ZM52.2697 21.846C52.2697 22.41 52.3817 22.806 52.6057 23.034C52.8337 23.258 53.2337 23.37 53.8057 23.37H54.7897C55.3617 23.37 55.7597 23.258 55.9837 23.034C56.2077 22.806 56.3197 22.406 56.3197 21.834V20.49C56.3197 19.918 56.2077 19.52 55.9837 19.296C55.7597 19.072 55.3617 18.96 54.7897 18.96H53.8057C53.4217 18.956 53.1177 19.002 52.8937 19.098C52.6697 19.194 52.5097 19.354 52.4137 19.578C52.3177 19.802 52.2697 20.106 52.2697 20.49V21.846ZM59.3502 24C59.1382 24 59.0322 23.894 59.0322 23.682V18.642C59.0322 18.434 59.1382 18.33 59.3502 18.33C59.5582 18.33 59.6622 18.434 59.6622 18.642V19.218C60.0422 18.626 60.7302 18.33 61.7262 18.33H62.0622C62.8102 18.33 63.3562 18.504 63.7002 18.852C64.0482 19.196 64.2222 19.742 64.2222 20.49V23.682C64.2222 23.894 64.1182 24 63.9102 24C63.6982 24 63.5922 23.894 63.5922 23.682V20.49C63.5922 19.918 63.4782 19.52 63.2502 19.296C63.0262 19.072 62.6302 18.96 62.0622 18.96H61.7262C61.1062 18.96 60.6182 19.058 60.2622 19.254C59.9062 19.45 59.7062 19.756 59.6622 20.172V23.682C59.6622 23.894 59.5582 24 59.3502 24ZM6.44 38C6.34 38 6.262 37.972 6.206 37.916C6.15 37.86 6.122 37.782 6.122 37.682V30.578C6.122 30.478 6.15 30.4 6.206 30.344C6.262 30.288 6.34 30.26 6.44 30.26C6.536 30.26 6.612 30.288 6.668 30.344C6.724 30.4 6.752 30.478 6.752 30.578V37.682C6.752 37.782 6.724 37.86 6.668 37.916C6.612 37.972 6.536 38 6.44 38ZM9.31109 38C9.09909 38 8.99309 37.894 8.99309 37.682V32.642C8.99309 32.434 9.09909 32.33 9.31109 32.33C9.51909 32.33 9.62309 32.434 9.62309 32.642V33.218C10.0031 32.626 10.6911 32.33 11.6871 32.33H12.0231C12.7711 32.33 13.3171 32.504 13.6611 32.852C14.0091 33.196 14.1831 33.742 14.1831 34.49V37.682C14.1831 37.894 14.0791 38 13.8711 38C13.6591 38 13.5531 37.894 13.5531 37.682V34.49C13.5531 33.918 13.4391 33.52 13.2111 33.296C12.9871 33.072 12.5911 32.96 12.0231 32.96H11.6871C11.0671 32.96 10.5791 33.058 10.2231 33.254C9.86709 33.45 9.66709 33.756 9.62309 34.172V37.682C9.62309 37.894 9.51909 38 9.31109 38ZM18.6333 38C17.8973 38 17.3593 37.83 17.0193 37.49C16.6793 37.15 16.5093 36.614 16.5093 35.882V32.96H15.7953C15.5833 32.96 15.4773 32.854 15.4773 32.642C15.4773 32.434 15.5833 32.33 15.7953 32.33H16.5093V31.04C16.5093 30.828 16.6133 30.722 16.8213 30.722C17.0333 30.722 17.1393 30.828 17.1393 31.04V32.33H18.6453C18.8533 32.33 18.9573 32.434 18.9573 32.642C18.9573 32.854 18.8533 32.96 18.6453 32.96H17.1393V35.882C17.1393 36.442 17.2473 36.83 17.4633 37.046C17.6833 37.262 18.0733 37.37 18.6333 37.37C18.7493 37.37 18.8313 37.396 18.8793 37.448C18.9313 37.5 18.9573 37.578 18.9573 37.682C18.9573 37.894 18.8493 38 18.6333 38ZM25.3821 32.33C25.5941 32.33 25.7001 32.434 25.7001 32.642V37.682C25.7001 37.894 25.5941 38 25.3821 38C25.1741 38 25.0701 37.894 25.0701 37.682V37.112C24.6901 37.704 24.0021 38 23.0061 38H22.6701C21.9221 38 21.3741 37.826 21.0261 37.478C20.6821 37.13 20.5101 36.582 20.5101 35.834V32.642C20.5101 32.434 20.6141 32.33 20.8221 32.33C21.0341 32.33 21.1401 32.434 21.1401 32.642V35.834C21.1401 36.406 21.2521 36.806 21.4761 37.034C21.7041 37.258 22.1021 37.37 22.6701 37.37H23.0061C23.6261 37.37 24.1141 37.27 24.4701 37.07C24.8261 36.87 25.0261 36.564 25.0701 36.152V32.642C25.0701 32.434 25.1741 32.33 25.3821 32.33ZM28.1223 31.238C27.8463 31.238 27.7083 31.096 27.7083 30.812V30.542C27.7083 30.266 27.8463 30.128 28.1223 30.128H28.3923C28.6603 30.128 28.7943 30.266 28.7943 30.542V30.812C28.7943 31.096 28.6603 31.238 28.3923 31.238H28.1223ZM28.2603 38C28.0483 38 27.9423 37.894 27.9423 37.682V32.642C27.9423 32.434 28.0483 32.33 28.2603 32.33C28.4683 32.33 28.5723 32.434 28.5723 32.642V37.682C28.5723 37.894 28.4683 38 28.2603 38ZM33.1294 38C32.3934 38 31.8554 37.83 31.5154 37.49C31.1754 37.15 31.0054 36.614 31.0054 35.882V32.96H30.2914C30.0794 32.96 29.9734 32.854 29.9734 32.642C29.9734 32.434 30.0794 32.33 30.2914 32.33H31.0054V31.04C31.0054 30.828 31.1094 30.722 31.3174 30.722C31.5294 30.722 31.6354 30.828 31.6354 31.04V32.33H33.1414C33.3494 32.33 33.4534 32.434 33.4534 32.642C33.4534 32.854 33.3494 32.96 33.1414 32.96H31.6354V35.882C31.6354 36.442 31.7434 36.83 31.9594 37.046C32.1794 37.262 32.5694 37.37 33.1294 37.37C33.2454 37.37 33.3274 37.396 33.3754 37.448C33.4274 37.5 33.4534 37.578 33.4534 37.682C33.4534 37.894 33.3454 38 33.1294 38ZM35.2942 31.238C35.0182 31.238 34.8802 31.096 34.8802 30.812V30.542C34.8802 30.266 35.0182 30.128 35.2942 30.128H35.5642C35.8322 30.128 35.9662 30.266 35.9662 30.542V30.812C35.9662 31.096 35.8322 31.238 35.5642 31.238H35.2942ZM35.4322 38C35.2202 38 35.1142 37.894 35.1142 37.682V32.642C35.1142 32.434 35.2202 32.33 35.4322 32.33C35.6402 32.33 35.7442 32.434 35.7442 32.642V37.682C35.7442 37.894 35.6402 38 35.4322 38ZM39.9893 38C39.2413 38 38.6933 37.828 38.3453 37.484C37.9973 37.136 37.8233 36.59 37.8233 35.846V34.49C37.8233 33.734 37.9973 33.184 38.3453 32.84C38.6933 32.492 39.2413 32.322 39.9893 32.33H40.9733C41.7213 32.33 42.2673 32.504 42.6113 32.852C42.9593 33.196 43.1333 33.742 43.1333 34.49V35.834C43.1333 36.582 42.9593 37.13 42.6113 37.478C42.2673 37.826 41.7213 38 40.9733 38H39.9893ZM38.4533 35.846C38.4533 36.41 38.5653 36.806 38.7893 37.034C39.0173 37.258 39.4173 37.37 39.9893 37.37H40.9733C41.5453 37.37 41.9433 37.258 42.1673 37.034C42.3913 36.806 42.5033 36.406 42.5033 35.834V34.49C42.5033 33.918 42.3913 33.52 42.1673 33.296C41.9433 33.072 41.5453 32.96 40.9733 32.96H39.9893C39.6053 32.956 39.3013 33.002 39.0773 33.098C38.8533 33.194 38.6933 33.354 38.5973 33.578C38.5013 33.802 38.4533 34.106 38.4533 34.49V35.846ZM45.5338 38C45.3218 38 45.2158 37.894 45.2158 37.682V32.642C45.2158 32.434 45.3218 32.33 45.5338 32.33C45.7418 32.33 45.8458 32.434 45.8458 32.642V33.218C46.2258 32.626 46.9138 32.33 47.9098 32.33H48.2458C48.9938 32.33 49.5398 32.504 49.8838 32.852C50.2318 33.196 50.4058 33.742 50.4058 34.49V37.682C50.4058 37.894 50.3018 38 50.0938 38C49.8818 38 49.7758 37.894 49.7758 37.682V34.49C49.7758 33.918 49.6618 33.52 49.4338 33.296C49.2098 33.072 48.8138 32.96 48.2458 32.96H47.9098C47.2898 32.96 46.8018 33.058 46.4458 33.254C46.0898 33.45 45.8898 33.756 45.8458 34.172V37.682C45.8458 37.894 45.7418 38 45.5338 38ZM6.44 52C6.34 52 6.262 51.972 6.206 51.916C6.15 51.86 6.122 51.782 6.122 51.682V44.578C6.122 44.478 6.15 44.4 6.206 44.344C6.262 44.288 6.34 44.26 6.44 44.26C6.536 44.26 6.612 44.288 6.668 44.344C6.724 44.4 6.752 44.478 6.752 44.578V51.682C6.752 51.782 6.724 51.86 6.668 51.916C6.612 51.972 6.536 52 6.44 52ZM9.31109 52C9.09909 52 8.99309 51.894 8.99309 51.682V46.642C8.99309 46.434 9.09909 46.33 9.31109 46.33C9.51909 46.33 9.62309 46.434 9.62309 46.642V47.218C10.0031 46.626 10.6911 46.33 11.6871 46.33H12.0231C12.7711 46.33 13.3171 46.504 13.6611 46.852C14.0091 47.196 14.1831 47.742 14.1831 48.49V51.682C14.1831 51.894 14.0791 52 13.8711 52C13.6591 52 13.5531 51.894 13.5531 51.682V48.49C13.5531 47.918 13.4391 47.52 13.2111 47.296C12.9871 47.072 12.5911 46.96 12.0231 46.96H11.6871C11.0671 46.96 10.5791 47.058 10.2231 47.254C9.86709 47.45 9.66709 47.756 9.62309 48.172V51.682C9.62309 51.894 9.51909 52 9.31109 52ZM18.6333 52C17.8973 52 17.3593 51.83 17.0193 51.49C16.6793 51.15 16.5093 50.614 16.5093 49.882V46.96H15.7953C15.5833 46.96 15.4773 46.854 15.4773 46.642C15.4773 46.434 15.5833 46.33 15.7953 46.33H16.5093V45.04C16.5093 44.828 16.6133 44.722 16.8213 44.722C17.0333 44.722 17.1393 44.828 17.1393 45.04V46.33H18.6453C18.8533 46.33 18.9573 46.434 18.9573 46.642C18.9573 46.854 18.8533 46.96 18.6453 46.96H17.1393V49.882C17.1393 50.442 17.2473 50.83 17.4633 51.046C17.6833 51.262 18.0733 51.37 18.6333 51.37C18.7493 51.37 18.8313 51.396 18.8793 51.448C18.9313 51.5 18.9573 51.578 18.9573 51.682C18.9573 51.894 18.8493 52 18.6333 52ZM20.6056 49.408V49.846C20.6056 50.41 20.7176 50.806 20.9416 51.034C21.1696 51.258 21.5696 51.37 22.1416 51.37H23.1256C23.6296 51.37 23.9956 51.306 24.2236 51.178C24.4556 51.046 24.5936 50.82 24.6376 50.5C24.6536 50.4 24.6856 50.324 24.7336 50.272C24.7856 50.22 24.8636 50.194 24.9676 50.194C25.0716 50.194 25.1496 50.224 25.2016 50.284C25.2576 50.34 25.2796 50.42 25.2676 50.524C25.2156 51.028 25.0136 51.4 24.6616 51.64C24.3096 51.88 23.7976 52 23.1256 52H22.1416C21.3936 52 20.8456 51.828 20.4976 51.484C20.1496 51.136 19.9756 50.59 19.9756 49.846V48.49C19.9756 47.734 20.1496 47.184 20.4976 46.84C20.8456 46.492 21.3936 46.322 22.1416 46.33H23.1256C23.8736 46.33 24.4196 46.504 24.7636 46.852C25.1116 47.196 25.2856 47.742 25.2856 48.49V49.09C25.2856 49.302 25.1816 49.408 24.9736 49.408H20.6056ZM22.1416 46.96C21.5696 46.952 21.1696 47.062 20.9416 47.29C20.7176 47.514 20.6056 47.914 20.6056 48.49V48.778H24.6556V48.49C24.6556 47.918 24.5436 47.52 24.3196 47.296C24.0956 47.072 23.6976 46.96 23.1256 46.96H22.1416ZM29.0181 52C28.4501 52 28.0321 51.868 27.7641 51.604C27.5001 51.34 27.3681 50.926 27.3681 50.362V43.99C27.3681 43.782 27.4741 43.678 27.6861 43.678C27.8941 43.678 27.9981 43.782 27.9981 43.99V50.362C27.9981 50.75 28.0701 51.016 28.2141 51.16C28.3581 51.3 28.6241 51.37 29.0121 51.37C29.2281 51.37 29.3361 51.474 29.3361 51.682C29.3401 51.894 29.2341 52 29.0181 52ZM32.5103 52C31.9423 52 31.5243 51.868 31.2563 51.604C30.9923 51.34 30.8603 50.926 30.8603 50.362V43.99C30.8603 43.782 30.9663 43.678 31.1783 43.678C31.3863 43.678 31.4903 43.782 31.4903 43.99V50.362C31.4903 50.75 31.5623 51.016 31.7063 51.16C31.8503 51.3 32.1163 51.37 32.5043 51.37C32.7203 51.37 32.8283 51.474 32.8283 51.682C32.8323 51.894 32.7263 52 32.5103 52ZM34.5325 45.238C34.2565 45.238 34.1185 45.096 34.1185 44.812V44.542C34.1185 44.266 34.2565 44.128 34.5325 44.128H34.8025C35.0705 44.128 35.2045 44.266 35.2045 44.542V44.812C35.2045 45.096 35.0705 45.238 34.8025 45.238H34.5325ZM34.6705 52C34.4585 52 34.3525 51.894 34.3525 51.682V46.642C34.3525 46.434 34.4585 46.33 34.6705 46.33C34.8785 46.33 34.9825 46.434 34.9825 46.642V51.682C34.9825 51.894 34.8785 52 34.6705 52ZM38.6036 54.4C38.1316 54.4 37.7716 54.302 37.5236 54.106C37.2756 53.914 37.1296 53.61 37.0856 53.194C37.0736 53.09 37.0956 53.008 37.1516 52.948C37.2076 52.888 37.2856 52.858 37.3856 52.858C37.4856 52.858 37.5616 52.884 37.6136 52.936C37.6656 52.988 37.6996 53.066 37.7156 53.17C37.7436 53.402 37.8256 53.56 37.9616 53.644C38.0976 53.728 38.3116 53.77 38.6036 53.77H40.8356C41.1876 53.77 41.4256 53.706 41.5496 53.578C41.6776 53.45 41.7416 53.21 41.7416 52.858V51.142C41.5576 51.422 41.2976 51.636 40.9616 51.784C40.6256 51.928 40.1996 52 39.6836 52H39.2276C38.4796 52 37.9316 51.828 37.5836 51.484C37.2356 51.136 37.0616 50.59 37.0616 49.846V48.49C37.0616 47.734 37.2336 47.186 37.5776 46.846C37.9256 46.502 38.4756 46.33 39.2276 46.33H40.2116C40.6036 46.33 40.9216 46.382 41.1656 46.486C41.4096 46.59 41.6016 46.752 41.7416 46.972V46.642C41.7416 46.434 41.8476 46.33 42.0596 46.33C42.2676 46.33 42.3716 46.434 42.3716 46.642V52.858C42.3716 53.386 42.2476 53.774 41.9996 54.022C41.7516 54.274 41.3636 54.4 40.8356 54.4H38.6036ZM39.2276 51.37H39.6836C40.3076 51.37 40.8056 51.272 41.1776 51.076C41.5536 50.88 41.7416 50.582 41.7416 50.182V48.178C41.7416 47.726 41.6156 47.41 41.3636 47.23C41.1116 47.05 40.7276 46.96 40.2116 46.96H39.2276C38.6556 46.96 38.2556 47.072 38.0276 47.296C37.8036 47.516 37.6916 47.914 37.6916 48.49V49.846C37.6916 50.41 37.8036 50.806 38.0276 51.034C38.2556 51.258 38.6556 51.37 39.2276 51.37ZM44.9806 49.408V49.846C44.9806 50.41 45.0926 50.806 45.3166 51.034C45.5446 51.258 45.9446 51.37 46.5166 51.37H47.5006C48.0046 51.37 48.3706 51.306 48.5986 51.178C48.8306 51.046 48.9686 50.82 49.0126 50.5C49.0286 50.4 49.0606 50.324 49.1086 50.272C49.1606 50.22 49.2386 50.194 49.3426 50.194C49.4466 50.194 49.5246 50.224 49.5766 50.284C49.6326 50.34 49.6546 50.42 49.6426 50.524C49.5906 51.028 49.3886 51.4 49.0366 51.64C48.6846 51.88 48.1726 52 47.5006 52H46.5166C45.7686 52 45.2206 51.828 44.8726 51.484C44.5246 51.136 44.3506 50.59 44.3506 49.846V48.49C44.3506 47.734 44.5246 47.184 44.8726 46.84C45.2206 46.492 45.7686 46.322 46.5166 46.33H47.5006C48.2486 46.33 48.7946 46.504 49.1386 46.852C49.4866 47.196 49.6606 47.742 49.6606 48.49V49.09C49.6606 49.302 49.5566 49.408 49.3486 49.408H44.9806ZM46.5166 46.96C45.9446 46.952 45.5446 47.062 45.3166 47.29C45.0926 47.514 44.9806 47.914 44.9806 48.49V48.778H49.0306V48.49C49.0306 47.918 48.9186 47.52 48.6946 47.296C48.4706 47.072 48.0726 46.96 47.5006 46.96H46.5166ZM52.0611 52C51.8491 52 51.7431 51.894 51.7431 51.682V46.642C51.7431 46.434 51.8491 46.33 52.0611 46.33C52.2691 46.33 52.3731 46.434 52.3731 46.642V47.218C52.7531 46.626 53.4411 46.33 54.4371 46.33H54.7731C55.5211 46.33 56.0671 46.504 56.4111 46.852C56.7591 47.196 56.9331 47.742 56.9331 48.49V51.682C56.9331 51.894 56.8291 52 56.6211 52C56.4091 52 56.3031 51.894 56.3031 51.682V48.49C56.3031 47.918 56.1891 47.52 55.9611 47.296C55.7371 47.072 55.3411 46.96 54.7731 46.96H54.4371C53.8171 46.96 53.3291 47.058 52.9731 47.254C52.6171 47.45 52.4171 47.756 52.3731 48.172V51.682C52.3731 51.894 52.2691 52 52.0611 52ZM61.0713 52C60.3233 52 59.7753 51.826 59.4273 51.478C59.0793 51.13 58.9053 50.582 58.9053 49.834V48.478C58.9053 47.73 59.0773 47.184 59.4213 46.84C59.7693 46.492 60.3193 46.322 61.0713 46.33H62.0553C62.6433 46.33 63.0913 46.43 63.3993 46.63C63.7113 46.826 63.8973 47.136 63.9573 47.56C63.9693 47.668 63.9453 47.75 63.8853 47.806C63.8293 47.862 63.7493 47.89 63.6453 47.89C63.5493 47.89 63.4773 47.866 63.4293 47.818C63.3813 47.766 63.3453 47.692 63.3213 47.596C63.2773 47.364 63.1593 47.2 62.9673 47.104C62.7753 47.008 62.4713 46.96 62.0553 46.96H61.0713C60.4993 46.952 60.0993 47.06 59.8713 47.284C59.6473 47.504 59.5353 47.902 59.5353 48.478V49.834C59.5353 50.406 59.6473 50.806 59.8713 51.034C60.0993 51.258 60.4993 51.37 61.0713 51.37H62.0553C62.4713 51.37 62.7753 51.322 62.9673 51.226C63.1593 51.13 63.2773 50.964 63.3213 50.728C63.3453 50.632 63.3813 50.56 63.4293 50.512C63.4773 50.46 63.5493 50.434 63.6453 50.434C63.7493 50.434 63.8293 50.464 63.8853 50.524C63.9453 50.58 63.9693 50.66 63.9573 50.764C63.8973 51.188 63.7113 51.5 63.3993 51.7C63.0913 51.9 62.6433 52 62.0553 52H61.0713ZM66.3908 49.408V49.846C66.3908 50.41 66.5028 50.806 66.7268 51.034C66.9548 51.258 67.3548 51.37 67.9268 51.37H68.9108C69.4148 51.37 69.7808 51.306 70.0088 51.178C70.2408 51.046 70.3788 50.82 70.4228 50.5C70.4388 50.4 70.4708 50.324 70.5188 50.272C70.5708 50.22 70.6488 50.194 70.7528 50.194C70.8568 50.194 70.9348 50.224 70.9868 50.284C71.0428 50.34 71.0648 50.42 71.0528 50.524C71.0008 51.028 70.7988 51.4 70.4468 51.64C70.0948 51.88 69.5828 52 68.9108 52H67.9268C67.1788 52 66.6308 51.828 66.2828 51.484C65.9348 51.136 65.7608 50.59 65.7608 49.846V48.49C65.7608 47.734 65.9348 47.184 66.2828 46.84C66.6308 46.492 67.1788 46.322 67.9268 46.33H68.9108C69.6588 46.33 70.2048 46.504 70.5488 46.852C70.8968 47.196 71.0708 47.742 71.0708 48.49V49.09C71.0708 49.302 70.9668 49.408 70.7588 49.408H66.3908ZM67.9268 46.96C67.3548 46.952 66.9548 47.062 66.7268 47.29C66.5028 47.514 66.3908 47.914 66.3908 48.49V48.778H70.4408V48.49C70.4408 47.918 70.3288 47.52 70.1048 47.296C69.8808 47.072 69.4828 46.96 68.9108 46.96H67.9268ZM6.44 66C6.34 66 6.262 65.972 6.206 65.916C6.15 65.86 6.122 65.782 6.122 65.682V58.578C6.122 58.478 6.15 58.4 6.206 58.344C6.262 58.288 6.34 58.26 6.44 58.26C6.536 58.26 6.612 58.288 6.668 58.344C6.724 58.4 6.752 58.478 6.752 58.578V65.682C6.752 65.782 6.724 65.86 6.668 65.916C6.612 65.972 6.536 66 6.44 66ZM9.31109 66C9.09909 66 8.99309 65.894 8.99309 65.682V60.642C8.99309 60.434 9.09909 60.33 9.31109 60.33C9.51909 60.33 9.62309 60.434 9.62309 60.642V61.218C10.0031 60.626 10.6911 60.33 11.6871 60.33H12.0231C12.7711 60.33 13.3171 60.504 13.6611 60.852C14.0091 61.196 14.1831 61.742 14.1831 62.49V65.682C14.1831 65.894 14.0791 66 13.8711 66C13.6591 66 13.5531 65.894 13.5531 65.682V62.49C13.5531 61.918 13.4391 61.52 13.2111 61.296C12.9871 61.072 12.5911 60.96 12.0231 60.96H11.6871C11.0671 60.96 10.5791 61.058 10.2231 61.254C9.86709 61.45 9.66709 61.756 9.62309 62.172V65.682C9.62309 65.894 9.51909 66 9.31109 66ZM18.3213 66C17.5733 66 17.0253 65.826 16.6773 65.478C16.3293 65.13 16.1553 64.582 16.1553 63.834V62.49C16.1553 61.742 16.3293 61.196 16.6773 60.852C17.0253 60.504 17.5733 60.33 18.3213 60.33H20.8353V57.99C20.8353 57.782 20.9413 57.678 21.1533 57.678C21.3613 57.678 21.4653 57.782 21.4653 57.99V65.682C21.4653 65.894 21.3613 66 21.1533 66C20.9413 66 20.8353 65.894 20.8353 65.682V65.166C20.6633 65.442 20.4113 65.65 20.0793 65.79C19.7473 65.93 19.3133 66 18.7773 66H18.3213ZM18.3213 65.37H18.7773C19.4013 65.37 19.8993 65.272 20.2713 65.076C20.6473 64.876 20.8353 64.578 20.8353 64.182V60.96H18.3213C17.7493 60.96 17.3493 61.074 17.1213 61.302C16.8973 61.526 16.7853 61.922 16.7853 62.49V63.834C16.7853 64.406 16.8973 64.806 17.1213 65.034C17.3493 65.258 17.7493 65.37 18.3213 65.37ZM24.0744 63.408V63.846C24.0744 64.41 24.1864 64.806 24.4104 65.034C24.6384 65.258 25.0384 65.37 25.6104 65.37H26.5944C27.0984 65.37 27.4644 65.306 27.6924 65.178C27.9244 65.046 28.0624 64.82 28.1064 64.5C28.1224 64.4 28.1544 64.324 28.2024 64.272C28.2544 64.22 28.3324 64.194 28.4364 64.194C28.5404 64.194 28.6184 64.224 28.6704 64.284C28.7264 64.34 28.7484 64.42 28.7364 64.524C28.6844 65.028 28.4824 65.4 28.1304 65.64C27.7784 65.88 27.2664 66 26.5944 66H25.6104C24.8624 66 24.3144 65.828 23.9664 65.484C23.6184 65.136 23.4444 64.59 23.4444 63.846V62.49C23.4444 61.734 23.6184 61.184 23.9664 60.84C24.3144 60.492 24.8624 60.322 25.6104 60.33H26.5944C27.3424 60.33 27.8884 60.504 28.2324 60.852C28.5804 61.196 28.7544 61.742 28.7544 62.49V63.09C28.7544 63.302 28.6504 63.408 28.4424 63.408H24.0744ZM25.6104 60.96C25.0384 60.952 24.6384 61.062 24.4104 61.29C24.1864 61.514 24.0744 61.914 24.0744 62.49V62.778H28.1244V62.49C28.1244 61.918 28.0124 61.52 27.7884 61.296C27.5644 61.072 27.1664 60.96 26.5944 60.96H25.6104ZM31.1548 68.4C30.9428 68.4 30.8368 68.294 30.8368 68.082V60.642C30.8368 60.434 30.9428 60.33 31.1548 60.33C31.3628 60.33 31.4668 60.434 31.4668 60.642V61.176C31.6468 60.896 31.9048 60.686 32.2408 60.546C32.5768 60.402 33.0068 60.33 33.5308 60.33H33.9868C34.7348 60.33 35.2808 60.504 35.6248 60.852C35.9728 61.196 36.1468 61.742 36.1468 62.49V63.834C36.1468 64.582 35.9728 65.13 35.6248 65.478C35.2808 65.826 34.7348 66 33.9868 66H31.4668V68.082C31.4668 68.294 31.3628 68.4 31.1548 68.4ZM31.4668 65.37H33.9868C34.5588 65.37 34.9568 65.258 35.1808 65.034C35.4048 64.806 35.5168 64.406 35.5168 63.834V62.49C35.5168 61.918 35.4048 61.52 35.1808 61.296C34.9568 61.072 34.5588 60.96 33.9868 60.96H33.5308C32.8908 60.96 32.3988 61.06 32.0548 61.26C31.7148 61.46 31.5188 61.768 31.4668 62.184V65.37ZM38.6994 63.408V63.846C38.6994 64.41 38.8114 64.806 39.0354 65.034C39.2634 65.258 39.6634 65.37 40.2354 65.37H41.2194C41.7234 65.37 42.0894 65.306 42.3174 65.178C42.5494 65.046 42.6874 64.82 42.7314 64.5C42.7474 64.4 42.7794 64.324 42.8274 64.272C42.8794 64.22 42.9574 64.194 43.0614 64.194C43.1654 64.194 43.2434 64.224 43.2954 64.284C43.3514 64.34 43.3734 64.42 43.3614 64.524C43.3094 65.028 43.1074 65.4 42.7554 65.64C42.4034 65.88 41.8914 66 41.2194 66H40.2354C39.4874 66 38.9394 65.828 38.5914 65.484C38.2434 65.136 38.0694 64.59 38.0694 63.846V62.49C38.0694 61.734 38.2434 61.184 38.5914 60.84C38.9394 60.492 39.4874 60.322 40.2354 60.33H41.2194C41.9674 60.33 42.5134 60.504 42.8574 60.852C43.2054 61.196 43.3794 61.742 43.3794 62.49V63.09C43.3794 63.302 43.2754 63.408 43.0674 63.408H38.6994ZM40.2354 60.96C39.6634 60.952 39.2634 61.062 39.0354 61.29C38.8114 61.514 38.6994 61.914 38.6994 62.49V62.778H42.7494V62.49C42.7494 61.918 42.6374 61.52 42.4134 61.296C42.1894 61.072 41.7914 60.96 41.2194 60.96H40.2354ZM45.7798 66C45.5678 66 45.4618 65.894 45.4618 65.682V60.642C45.4618 60.434 45.5678 60.33 45.7798 60.33C45.9878 60.33 46.0918 60.434 46.0918 60.642V61.218C46.4718 60.626 47.1598 60.33 48.1558 60.33H48.4918C49.2398 60.33 49.7858 60.504 50.1298 60.852C50.4778 61.196 50.6518 61.742 50.6518 62.49V65.682C50.6518 65.894 50.5478 66 50.3398 66C50.1278 66 50.0218 65.894 50.0218 65.682V62.49C50.0218 61.918 49.9078 61.52 49.6798 61.296C49.4558 61.072 49.0598 60.96 48.4918 60.96H48.1558C47.5358 60.96 47.0478 61.058 46.6918 61.254C46.3358 61.45 46.1358 61.756 46.0918 62.172V65.682C46.0918 65.894 45.9878 66 45.7798 66ZM54.7901 66C54.0421 66 53.4941 65.826 53.1461 65.478C52.7981 65.13 52.6241 64.582 52.6241 63.834V62.49C52.6241 61.742 52.7981 61.196 53.1461 60.852C53.4941 60.504 54.0421 60.33 54.7901 60.33H57.3041V57.99C57.3041 57.782 57.4101 57.678 57.6221 57.678C57.8301 57.678 57.9341 57.782 57.9341 57.99V65.682C57.9341 65.894 57.8301 66 57.6221 66C57.4101 66 57.3041 65.894 57.3041 65.682V65.166C57.1321 65.442 56.8801 65.65 56.5481 65.79C56.2161 65.93 55.7821 66 55.2461 66H54.7901ZM54.7901 65.37H55.2461C55.8701 65.37 56.3681 65.272 56.7401 65.076C57.1161 64.876 57.3041 64.578 57.3041 64.182V60.96H54.7901C54.2181 60.96 53.8181 61.074 53.5901 61.302C53.3661 61.526 53.2541 61.922 53.2541 62.49V63.834C53.2541 64.406 53.3661 64.806 53.5901 65.034C53.8181 65.258 54.2181 65.37 54.7901 65.37ZM60.5431 63.408V63.846C60.5431 64.41 60.6551 64.806 60.8791 65.034C61.1071 65.258 61.5071 65.37 62.0791 65.37H63.0631C63.5671 65.37 63.9331 65.306 64.1611 65.178C64.3931 65.046 64.5311 64.82 64.5751 64.5C64.5911 64.4 64.6231 64.324 64.6711 64.272C64.7231 64.22 64.8011 64.194 64.9051 64.194C65.0091 64.194 65.0871 64.224 65.1391 64.284C65.1951 64.34 65.2171 64.42 65.2051 64.524C65.1531 65.028 64.9511 65.4 64.5991 65.64C64.2471 65.88 63.7351 66 63.0631 66H62.0791C61.3311 66 60.7831 65.828 60.4351 65.484C60.0871 65.136 59.9131 64.59 59.9131 63.846V62.49C59.9131 61.734 60.0871 61.184 60.4351 60.84C60.7831 60.492 61.3311 60.322 62.0791 60.33H63.0631C63.8111 60.33 64.3571 60.504 64.7011 60.852C65.0491 61.196 65.2231 61.742 65.2231 62.49V63.09C65.2231 63.302 65.1191 63.408 64.9111 63.408H60.5431ZM62.0791 60.96C61.5071 60.952 61.1071 61.062 60.8791 61.29C60.6551 61.514 60.5431 61.914 60.5431 62.49V62.778H64.5931V62.49C64.5931 61.918 64.4811 61.52 64.2571 61.296C64.0331 61.072 63.6351 60.96 63.0631 60.96H62.0791ZM67.6236 66C67.4116 66 67.3056 65.894 67.3056 65.682V60.642C67.3056 60.434 67.4116 60.33 67.6236 60.33C67.8316 60.33 67.9356 60.434 67.9356 60.642V61.218C68.3156 60.626 69.0036 60.33 69.9996 60.33H70.3356C71.0836 60.33 71.6296 60.504 71.9736 60.852C72.3216 61.196 72.4956 61.742 72.4956 62.49V65.682C72.4956 65.894 72.3916 66 72.1836 66C71.9716 66 71.8656 65.894 71.8656 65.682V62.49C71.8656 61.918 71.7516 61.52 71.5236 61.296C71.2996 61.072 70.9036 60.96 70.3356 60.96H69.9996C69.3796 60.96 68.8916 61.058 68.5356 61.254C68.1796 61.45 67.9796 61.756 67.9356 62.172V65.682C67.9356 65.894 67.8316 66 67.6236 66ZM76.9458 66C76.2098 66 75.6718 65.83 75.3318 65.49C74.9918 65.15 74.8218 64.614 74.8218 63.882V60.96H74.1078C73.8958 60.96 73.7898 60.854 73.7898 60.642C73.7898 60.434 73.8958 60.33 74.1078 60.33H74.8218V59.04C74.8218 58.828 74.9258 58.722 75.1338 58.722C75.3458 58.722 75.4518 58.828 75.4518 59.04V60.33H76.9578C77.1658 60.33 77.2698 60.434 77.2698 60.642C77.2698 60.854 77.1658 60.96 76.9578 60.96H75.4518V63.882C75.4518 64.442 75.5598 64.83 75.7758 65.046C75.9958 65.262 76.3858 65.37 76.9458 65.37C77.0618 65.37 77.1438 65.396 77.1918 65.448C77.2438 65.5 77.2698 65.578 77.2698 65.682C77.2698 65.894 77.1618 66 76.9458 66ZM6.752 80C6.58 80 6.452 79.96 6.368 79.88C6.288 79.796 6.248 79.668 6.248 79.496V72.38C6.248 72.204 6.288 72.076 6.368 71.996C6.452 71.916 6.58 71.876 6.752 71.876C6.928 71.876 7.056 71.916 7.136 71.996C7.216 72.076 7.256 72.204 7.256 72.38V79.496C7.256 79.668 7.216 79.796 7.136 79.88C7.056 79.96 6.928 80 6.752 80ZM10.2559 80C9.91991 80 9.75191 79.832 9.75191 79.496V74.42C9.75191 74.084 9.91991 73.916 10.2559 73.916C10.5919 73.916 10.7599 74.084 10.7599 74.42V74.618C11.1839 74.15 11.8079 73.916 12.6319 73.916H12.9679C13.7679 73.916 14.3599 74.108 14.7439 74.492C15.1279 74.876 15.3199 75.468 15.3199 76.268V79.496C15.3199 79.832 15.1519 80 14.8159 80C14.4799 80 14.3119 79.832 14.3119 79.496V76.268C14.3119 75.744 14.2159 75.39 14.0239 75.206C13.8359 75.018 13.4839 74.924 12.9679 74.924H12.6319C12.1519 74.924 11.7339 74.98 11.3779 75.092C11.0219 75.2 10.8159 75.372 10.7599 75.608V79.496C10.7599 79.832 10.5919 80 10.2559 80ZM18.2012 80C17.8652 80 17.6972 79.832 17.6972 79.496V74.42C17.6972 74.084 17.8652 73.916 18.2012 73.916C18.5372 73.916 18.7052 74.084 18.7052 74.42V74.618C19.1292 74.15 19.7532 73.916 20.5772 73.916H20.9132C21.7132 73.916 22.3052 74.108 22.6892 74.492C23.0732 74.876 23.2652 75.468 23.2652 76.268V79.496C23.2652 79.832 23.0972 80 22.7612 80C22.4252 80 22.2572 79.832 22.2572 79.496V76.268C22.2572 75.744 22.1612 75.39 21.9692 75.206C21.7812 75.018 21.4292 74.924 20.9132 74.924H20.5772C20.0972 74.924 19.6792 74.98 19.3232 75.092C18.9672 75.2 18.7612 75.372 18.7052 75.608V79.496C18.7052 79.832 18.5372 80 18.2012 80ZM27.7065 80C26.9105 80 26.3185 79.808 25.9305 79.424C25.5465 79.04 25.3545 78.452 25.3545 77.66V76.268C25.3545 75.464 25.5465 74.872 25.9305 74.492C26.3185 74.108 26.9105 73.916 27.7065 73.916H28.6905C29.4905 73.916 30.0825 74.108 30.4665 74.492C30.8505 74.876 31.0425 75.468 31.0425 76.268V77.648C31.0425 78.444 30.8505 79.036 30.4665 79.424C30.0825 79.808 29.4905 80 28.6905 80H27.7065ZM26.3625 77.66C26.3625 78.176 26.4565 78.528 26.6445 78.716C26.8325 78.9 27.1865 78.992 27.7065 78.992H28.6905C29.2145 78.992 29.5685 78.898 29.7525 78.71C29.9405 78.522 30.0345 78.168 30.0345 77.648V76.268C30.0345 75.744 29.9405 75.39 29.7525 75.206C29.5685 75.018 29.2145 74.924 28.6905 74.924H27.7065C27.3585 74.924 27.0865 74.964 26.8905 75.044C26.6985 75.12 26.5625 75.256 26.4825 75.452C26.4025 75.644 26.3625 75.916 26.3625 76.268V77.66ZM33.752 80C33.416 80 33.248 79.832 33.248 79.496V72.056C33.248 71.72 33.416 71.552 33.752 71.552C34.088 71.552 34.256 71.72 34.256 72.056V74.558C34.464 74.346 34.724 74.186 35.036 74.078C35.348 73.97 35.712 73.916 36.128 73.916H36.584C37.384 73.916 37.976 74.108 38.36 74.492C38.744 74.876 38.936 75.468 38.936 76.268V77.648C38.936 78.444 38.744 79.036 38.36 79.424C37.976 79.808 37.384 80 36.584 80H36.128C35.712 80 35.348 79.946 35.036 79.838C34.724 79.73 34.464 79.572 34.256 79.364V79.496C34.256 79.832 34.088 80 33.752 80ZM36.128 78.992H36.584C37.108 78.992 37.462 78.898 37.646 78.71C37.834 78.518 37.928 78.164 37.928 77.648V76.268C37.928 75.744 37.832 75.39 37.64 75.206C37.452 75.018 37.1 74.924 36.584 74.924H36.128C35.6 74.924 35.156 74.992 34.796 75.128C34.436 75.26 34.256 75.468 34.256 75.752V78.164C34.256 78.444 34.436 78.652 34.796 78.788C35.156 78.924 35.6 78.992 36.128 78.992ZM43.0184 80C42.3464 80 41.8464 79.836 41.5184 79.508C41.1904 79.18 41.0264 78.68 41.0264 78.008C41.0264 77.336 41.1884 76.836 41.5124 76.508C41.8404 76.18 42.3424 76.016 43.0184 76.016H45.5564C45.5324 75.596 45.4224 75.31 45.2264 75.158C45.0304 75.002 44.6944 74.924 44.2184 74.924H43.5224C43.1224 74.924 42.8244 74.952 42.6284 75.008C42.4324 75.06 42.2944 75.156 42.2144 75.296C42.1424 75.464 42.0684 75.58 41.9924 75.644C41.9164 75.708 41.8024 75.74 41.6504 75.74C41.4824 75.74 41.3504 75.694 41.2544 75.602C41.1584 75.506 41.1304 75.38 41.1704 75.224C41.2904 74.772 41.5404 74.442 41.9204 74.234C42.3044 74.022 42.8384 73.916 43.5224 73.916H44.2184C45.0184 73.916 45.6104 74.108 45.9944 74.492C46.3784 74.876 46.5704 75.468 46.5704 76.268V79.496C46.5704 79.832 46.4024 80 46.0664 80C45.7304 80 45.5624 79.832 45.5624 79.496V79.226C45.1344 79.742 44.5104 80 43.6904 80H43.0184ZM43.0184 78.992H43.6904C43.9864 78.992 44.2644 78.966 44.5244 78.914C44.7844 78.858 45.0064 78.758 45.1904 78.614C45.3784 78.47 45.5024 78.264 45.5624 77.996V77.024H43.0184C42.6224 77.024 42.3584 77.09 42.2264 77.222C42.0984 77.354 42.0344 77.616 42.0344 78.008C42.0344 78.404 42.0984 78.668 42.2264 78.8C42.3584 78.928 42.6224 78.992 43.0184 78.992ZM50.6723 80C50.5043 80 50.3783 79.958 50.2943 79.874C50.2103 79.79 50.1683 79.664 50.1683 79.496V72.884H47.8403C47.6723 72.884 47.5463 72.842 47.4623 72.758C47.3783 72.674 47.3363 72.548 47.3363 72.38C47.3363 72.212 47.3783 72.086 47.4623 72.002C47.5463 71.918 47.6723 71.876 47.8403 71.876H53.5043C53.6723 71.876 53.7983 71.918 53.8823 72.002C53.9663 72.086 54.0083 72.212 54.0083 72.38C54.0083 72.548 53.9663 72.674 53.8823 72.758C53.7983 72.842 53.6723 72.884 53.5043 72.884H51.1763V79.496C51.1763 79.656 51.1323 79.78 51.0443 79.868C50.9603 79.956 50.8363 80 50.6723 80ZM55.0032 77.372V77.66C55.0032 78.176 55.0972 78.528 55.2852 78.716C55.4732 78.9 55.8272 78.992 56.3472 78.992H57.3312C57.7392 78.992 58.0412 78.954 58.2372 78.878C58.4332 78.802 58.5632 78.668 58.6272 78.476C58.6712 78.324 58.7312 78.208 58.8072 78.128C58.8872 78.048 59.0072 78.008 59.1672 78.008C59.3352 78.008 59.4632 78.052 59.5512 78.14C59.6392 78.228 59.6672 78.356 59.6352 78.524C59.5472 79.02 59.3112 79.39 58.9272 79.634C58.5432 79.878 58.0112 80 57.3312 80H56.3472C55.5512 80 54.9592 79.808 54.5712 79.424C54.1872 79.04 53.9952 78.452 53.9952 77.66V76.268C53.9952 75.456 54.1872 74.86 54.5712 74.48C54.9592 74.096 55.5512 73.908 56.3472 73.916H57.3312C58.1312 73.916 58.7232 74.108 59.1072 74.492C59.4912 74.872 59.6832 75.464 59.6832 76.268V76.868C59.6832 77.204 59.5152 77.372 59.1792 77.372H55.0032ZM56.3472 74.924C55.8272 74.916 55.4732 75.006 55.2852 75.194C55.0972 75.382 55.0032 75.74 55.0032 76.268V76.364H58.6752V76.268C58.6752 75.744 58.5812 75.39 58.3932 75.206C58.2092 75.018 57.8552 74.924 57.3312 74.924H56.3472ZM62.3926 80C62.0566 80 61.8886 79.832 61.8886 79.496V72.056C61.8886 71.72 62.0566 71.552 62.3926 71.552C62.7286 71.552 62.8966 71.72 62.8966 72.056V76.562L65.7526 74.108C66.0086 73.888 66.2446 73.904 66.4606 74.156C66.6806 74.412 66.6646 74.648 66.4126 74.864L64.2226 76.754L66.3166 79.136C66.5406 79.396 66.5286 79.632 66.2806 79.844C66.0246 80.064 65.7846 80.048 65.5606 79.796L63.4546 77.42L62.8966 77.9V79.496C62.8966 79.832 62.7286 80 62.3926 80Z" fill="#BFE0D1"/>
</svg>
