<svg width="90" height="135" viewBox="0 0 90 135" fill="none" xmlns="http://www.w3.org/2000/svg">
<path d="M0 0H90V135H0V0Z" fill="#000500"/>
<path d="M6.44 24C6.34 24 6.262 23.972 6.206 23.916C6.15 23.86 6.122 23.782 6.122 23.682V16.578C6.122 16.478 6.15 16.4 6.206 16.344C6.262 16.288 6.34 16.26 6.44 16.26C6.536 16.26 6.612 16.288 6.668 16.344C6.724 16.4 6.752 16.478 6.752 16.578V23.682C6.752 23.782 6.724 23.86 6.668 23.916C6.612 23.972 6.536 24 6.44 24Z" fill="#BFE0D1"/>
<path d="M9.31109 24C9.09909 24 8.99309 23.894 8.99309 23.682V18.642C8.99309 18.434 9.09909 18.33 9.31109 18.33C9.51909 18.33 9.62309 18.434 9.62309 18.642V19.218C10.0031 18.626 10.6911 18.33 11.6871 18.33H12.0231C12.7711 18.33 13.3171 18.504 13.6611 18.852C14.0091 19.196 14.1831 19.742 14.1831 20.49V23.682C14.1831 23.894 14.0791 24 13.8711 24C13.6591 24 13.5531 23.894 13.5531 23.682V20.49C13.5531 19.918 13.4391 19.52 13.2111 19.296C12.9871 19.072 12.5911 18.96 12.0231 18.96H11.6871C11.0671 18.96 10.5791 19.058 10.2231 19.254C9.86709 19.45 9.66709 19.756 9.62309 20.172V23.682C9.62309 23.894 9.51909 24 9.31109 24Z" fill="#BFE0D1"/>
<path d="M17.5593 23.988C17.0673 23.988 16.6913 23.884 16.4313 23.676C16.1713 23.464 16.0153 23.142 15.9633 22.71C15.9513 22.606 15.9733 22.526 16.0293 22.47C16.0853 22.41 16.1673 22.38 16.2753 22.38C16.3753 22.38 16.4493 22.406 16.4973 22.458C16.5493 22.51 16.5833 22.588 16.5993 22.692C16.6353 22.94 16.7253 23.114 16.8693 23.214C17.0173 23.31 17.2473 23.358 17.5593 23.358H19.5273C19.8993 23.358 20.1553 23.288 20.2953 23.148C20.4353 23.008 20.5053 22.752 20.5053 22.38C20.5053 22.004 20.4353 21.746 20.2953 21.606C20.1553 21.466 19.8993 21.396 19.5273 21.396H17.5833C17.0633 21.396 16.6753 21.272 16.4193 21.024C16.1673 20.772 16.0413 20.386 16.0413 19.866C16.0413 19.334 16.1673 18.944 16.4193 18.696C16.6713 18.444 17.0593 18.318 17.5833 18.318H19.4673C20.3713 18.318 20.8733 18.718 20.9733 19.518C20.9893 19.622 20.9673 19.704 20.9073 19.764C20.8513 19.82 20.7713 19.848 20.6673 19.848C20.5673 19.848 20.4913 19.822 20.4393 19.77C20.3913 19.718 20.3573 19.642 20.3373 19.542C20.3093 19.318 20.2273 19.164 20.0913 19.08C19.9593 18.992 19.7513 18.948 19.4673 18.948H17.5833C17.2353 18.948 16.9953 19.012 16.8633 19.14C16.7353 19.268 16.6713 19.51 16.6713 19.866C16.6713 20.206 16.7373 20.442 16.8693 20.574C17.0013 20.702 17.2393 20.766 17.5833 20.766H19.5273C20.0793 20.766 20.4853 20.898 20.7453 21.162C21.0053 21.422 21.1353 21.828 21.1353 22.38C21.1353 22.928 21.0053 23.334 20.7453 23.598C20.4853 23.858 20.0793 23.988 19.5273 23.988H17.5593Z" fill="#BFE0D1"/>
<path d="M23.3384 26.4C23.1264 26.4 23.0204 26.294 23.0204 26.082V18.642C23.0204 18.434 23.1264 18.33 23.3384 18.33C23.5464 18.33 23.6504 18.434 23.6504 18.642V19.176C23.8304 18.896 24.0884 18.686 24.4244 18.546C24.7604 18.402 25.1904 18.33 25.7144 18.33H26.1704C26.9184 18.33 27.4644 18.504 27.8084 18.852C28.1564 19.196 28.3304 19.742 28.3304 20.49V21.834C28.3304 22.582 28.1564 23.13 27.8084 23.478C27.4644 23.826 26.9184 24 26.1704 24H23.6504V26.082C23.6504 26.294 23.5464 26.4 23.3384 26.4ZM23.6504 23.37H26.1704C26.7424 23.37 27.1404 23.258 27.3644 23.034C27.5884 22.806 27.7004 22.406 27.7004 21.834V20.49C27.7004 19.918 27.5884 19.52 27.3644 19.296C27.1404 19.072 26.7424 18.96 26.1704 18.96H25.7144C25.0744 18.96 24.5824 19.06 24.2384 19.26C23.8984 19.46 23.7024 19.768 23.6504 20.184V23.37Z" fill="#BFE0D1"/>
<path d="M30.595 17.238C30.319 17.238 30.181 17.096 30.181 16.812V16.542C30.181 16.266 30.319 16.128 30.595 16.128H30.865C31.133 16.128 31.267 16.266 31.267 16.542V16.812C31.267 17.096 31.133 17.238 30.865 17.238H30.595ZM30.733 24C30.521 24 30.415 23.894 30.415 23.682V18.642C30.415 18.434 30.521 18.33 30.733 18.33C30.941 18.33 31.045 18.434 31.045 18.642V23.682C31.045 23.894 30.941 24 30.733 24Z" fill="#BFE0D1"/>
<path d="M33.6041 24C33.3921 24 33.2861 23.894 33.2861 23.682V18.642C33.2861 18.434 33.3921 18.33 33.6041 18.33C33.8121 18.33 33.9161 18.434 33.9161 18.642V19.566C34.1241 19.166 34.4241 18.86 34.8161 18.648C35.2121 18.436 35.6801 18.33 36.2201 18.33C36.4321 18.33 36.5381 18.434 36.5381 18.642C36.5381 18.854 36.4321 18.96 36.2201 18.96C35.5081 18.96 34.9561 19.122 34.5641 19.446C34.1721 19.766 33.9561 20.224 33.9161 20.82V23.682C33.9161 23.894 33.8121 24 33.6041 24Z" fill="#BFE0D1"/>
<path d="M39.1322 24C38.5082 24 38.0502 23.856 37.7582 23.568C37.4702 23.276 37.3262 22.818 37.3262 22.194C37.3262 21.57 37.4722 21.112 37.7642 20.82C38.0562 20.528 38.5122 20.382 39.1322 20.382H41.8622C41.8542 19.854 41.7342 19.486 41.5022 19.278C41.2742 19.066 40.8842 18.96 40.3322 18.96H39.6362C39.1282 18.96 38.7562 19.014 38.5202 19.122C38.2842 19.23 38.1382 19.414 38.0822 19.674C38.0542 19.774 38.0162 19.848 37.9682 19.896C37.9242 19.94 37.8522 19.962 37.7522 19.962C37.6482 19.962 37.5662 19.934 37.5062 19.878C37.4502 19.818 37.4302 19.738 37.4462 19.638C37.4982 19.182 37.7042 18.85 38.0642 18.642C38.4282 18.434 38.9522 18.33 39.6362 18.33H40.3322C41.0802 18.33 41.6262 18.504 41.9702 18.852C42.3182 19.196 42.4922 19.742 42.4922 20.49V23.682C42.4922 23.894 42.3882 24 42.1802 24C41.9682 24 41.8622 23.894 41.8622 23.682V23.088C41.4782 23.696 40.7922 24 39.8042 24H39.1322ZM39.1322 23.37H39.8042C40.1922 23.37 40.5322 23.328 40.8242 23.244C41.1202 23.156 41.3582 23.016 41.5382 22.824C41.7182 22.632 41.8262 22.376 41.8622 22.056V21.012H39.1322C38.6882 21.012 38.3802 21.098 38.2082 21.27C38.0402 21.438 37.9562 21.746 37.9562 22.194C37.9562 22.638 38.0402 22.946 38.2082 23.118C38.3802 23.286 38.6882 23.37 39.1322 23.37Z" fill="#BFE0D1"/>
<path d="M46.9458 24C46.2098 24 45.6718 23.83 45.3318 23.49C44.9918 23.15 44.8218 22.614 44.8218 21.882V18.96H44.1078C43.8958 18.96 43.7898 18.854 43.7898 18.642C43.7898 18.434 43.8958 18.33 44.1078 18.33H44.8218V17.04C44.8218 16.828 44.9258 16.722 45.1338 16.722C45.3458 16.722 45.4518 16.828 45.4518 17.04V18.33H46.9578C47.1658 18.33 47.2698 18.434 47.2698 18.642C47.2698 18.854 47.1658 18.96 46.9578 18.96H45.4518V21.882C45.4518 22.442 45.5598 22.83 45.7758 23.046C45.9958 23.262 46.3858 23.37 46.9458 23.37C47.0618 23.37 47.1438 23.396 47.1918 23.448C47.2438 23.5 47.2698 23.578 47.2698 23.682C47.2698 23.894 47.1618 24 46.9458 24Z" fill="#BFE0D1"/>
<path d="M49.1106 17.238C48.8346 17.238 48.6966 17.096 48.6966 16.812V16.542C48.6966 16.266 48.8346 16.128 49.1106 16.128H49.3806C49.6486 16.128 49.7826 16.266 49.7826 16.542V16.812C49.7826 17.096 49.6486 17.238 49.3806 17.238H49.1106ZM49.2486 24C49.0366 24 48.9306 23.894 48.9306 23.682V18.642C48.9306 18.434 49.0366 18.33 49.2486 18.33C49.4566 18.33 49.5606 18.434 49.5606 18.642V23.682C49.5606 23.894 49.4566 24 49.2486 24Z" fill="#BFE0D1"/>
<path d="M53.8057 24C53.0577 24 52.5097 23.828 52.1617 23.484C51.8137 23.136 51.6397 22.59 51.6397 21.846V20.49C51.6397 19.734 51.8137 19.184 52.1617 18.84C52.5097 18.492 53.0577 18.322 53.8057 18.33H54.7897C55.5377 18.33 56.0837 18.504 56.4277 18.852C56.7757 19.196 56.9497 19.742 56.9497 20.49V21.834C56.9497 22.582 56.7757 23.13 56.4277 23.478C56.0837 23.826 55.5377 24 54.7897 24H53.8057ZM52.2697 21.846C52.2697 22.41 52.3817 22.806 52.6057 23.034C52.8337 23.258 53.2337 23.37 53.8057 23.37H54.7897C55.3617 23.37 55.7597 23.258 55.9837 23.034C56.2077 22.806 56.3197 22.406 56.3197 21.834V20.49C56.3197 19.918 56.2077 19.52 55.9837 19.296C55.7597 19.072 55.3617 18.96 54.7897 18.96H53.8057C53.4217 18.956 53.1177 19.002 52.8937 19.098C52.6697 19.194 52.5097 19.354 52.4137 19.578C52.3177 19.802 52.2697 20.106 52.2697 20.49V21.846Z" fill="#BFE0D1"/>
<path d="M59.3502 24C59.1382 24 59.0322 23.894 59.0322 23.682V18.642C59.0322 18.434 59.1382 18.33 59.3502 18.33C59.5582 18.33 59.6622 18.434 59.6622 18.642V19.218C60.0422 18.626 60.7302 18.33 61.7262 18.33H62.0622C62.8102 18.33 63.3562 18.504 63.7002 18.852C64.0482 19.196 64.2222 19.742 64.2222 20.49V23.682C64.2222 23.894 64.1182 24 63.9102 24C63.6982 24 63.5922 23.894 63.5922 23.682V20.49C63.5922 19.918 63.4782 19.52 63.2502 19.296C63.0262 19.072 62.6302 18.96 62.0622 18.96H61.7262C61.1062 18.96 60.6182 19.058 60.2622 19.254C59.9062 19.45 59.7062 19.756 59.6622 20.172V23.682C59.6622 23.894 59.5582 24 59.3502 24Z" fill="#BFE0D1"/>
<path d="M6.44 38C6.34 38 6.262 37.972 6.206 37.916C6.15 37.86 6.122 37.782 6.122 37.682V30.578C6.122 30.478 6.15 30.4 6.206 30.344C6.262 30.288 6.34 30.26 6.44 30.26C6.536 30.26 6.612 30.288 6.668 30.344C6.724 30.4 6.752 30.478 6.752 30.578V37.682C6.752 37.782 6.724 37.86 6.668 37.916C6.612 37.972 6.536 38 6.44 38Z" fill="#BFE0D1"/>
<path d="M9.31109 38C9.09909 38 8.99309 37.894 8.99309 37.682V32.642C8.99309 32.434 9.09909 32.33 9.31109 32.33C9.51909 32.33 9.62309 32.434 9.62309 32.642V33.218C10.0031 32.626 10.6911 32.33 11.6871 32.33H12.0231C12.7711 32.33 13.3171 32.504 13.6611 32.852C14.0091 33.196 14.1831 33.742 14.1831 34.49V37.682C14.1831 37.894 14.0791 38 13.8711 38C13.6591 38 13.5531 37.894 13.5531 37.682V34.49C13.5531 33.918 13.4391 33.52 13.2111 33.296C12.9871 33.072 12.5911 32.96 12.0231 32.96H11.6871C11.0671 32.96 10.5791 33.058 10.2231 33.254C9.86709 33.45 9.66709 33.756 9.62309 34.172V37.682C9.62309 37.894 9.51909 38 9.31109 38Z" fill="#BFE0D1"/>
<path d="M18.6333 38C17.8973 38 17.3593 37.83 17.0193 37.49C16.6793 37.15 16.5093 36.614 16.5093 35.882V32.96H15.7953C15.5833 32.96 15.4773 32.854 15.4773 32.642C15.4773 32.434 15.5833 32.33 15.7953 32.33H16.5093V31.04C16.5093 30.828 16.6133 30.722 16.8213 30.722C17.0333 30.722 17.1393 30.828 17.1393 31.04V32.33H18.6453C18.8533 32.33 18.9573 32.434 18.9573 32.642C18.9573 32.854 18.8533 32.96 18.6453 32.96H17.1393V35.882C17.1393 36.442 17.2473 36.83 17.4633 37.046C17.6833 37.262 18.0733 37.37 18.6333 37.37C18.7493 37.37 18.8313 37.396 18.8793 37.448C18.9313 37.5 18.9573 37.578 18.9573 37.682C18.9573 37.894 18.8493 38 18.6333 38Z" fill="#BFE0D1"/>
<path d="M25.3821 32.33C25.5941 32.33 25.7001 32.434 25.7001 32.642V37.682C25.7001 37.894 25.5941 38 25.3821 38C25.1741 38 25.0701 37.894 25.0701 37.682V37.112C24.6901 37.704 24.0021 38 23.0061 38H22.6701C21.9221 38 21.3741 37.826 21.0261 37.478C20.6821 37.13 20.5101 36.582 20.5101 35.834V32.642C20.5101 32.434 20.6141 32.33 20.8221 32.33C21.0341 32.33 21.1401 32.434 21.1401 32.642V35.834C21.1401 36.406 21.2521 36.806 21.4761 37.034C21.7041 37.258 22.1021 37.37 22.6701 37.37H23.0061C23.6261 37.37 24.1141 37.27 24.4701 37.07C24.8261 36.87 25.0261 36.564 25.0701 36.152V32.642C25.0701 32.434 25.1741 32.33 25.3821 32.33Z" fill="#BFE0D1"/>
<path d="M28.1223 31.238C27.8463 31.238 27.7083 31.096 27.7083 30.812V30.542C27.7083 30.266 27.8463 30.128 28.1223 30.128H28.3923C28.6603 30.128 28.7943 30.266 28.7943 30.542V30.812C28.7943 31.096 28.6603 31.238 28.3923 31.238H28.1223ZM28.2603 38C28.0483 38 27.9423 37.894 27.9423 37.682V32.642C27.9423 32.434 28.0483 32.33 28.2603 32.33C28.4683 32.33 28.5723 32.434 28.5723 32.642V37.682C28.5723 37.894 28.4683 38 28.2603 38Z" fill="#BFE0D1"/>
<path d="M33.1294 38C32.3934 38 31.8554 37.83 31.5154 37.49C31.1754 37.15 31.0054 36.614 31.0054 35.882V32.96H30.2914C30.0794 32.96 29.9734 32.854 29.9734 32.642C29.9734 32.434 30.0794 32.33 30.2914 32.33H31.0054V31.04C31.0054 30.828 31.1094 30.722 31.3174 30.722C31.5294 30.722 31.6354 30.828 31.6354 31.04V32.33H33.1414C33.3494 32.33 33.4534 32.434 33.4534 32.642C33.4534 32.854 33.3494 32.96 33.1414 32.96H31.6354V35.882C31.6354 36.442 31.7434 36.83 31.9594 37.046C32.1794 37.262 32.5694 37.37 33.1294 37.37C33.2454 37.37 33.3274 37.396 33.3754 37.448C33.4274 37.5 33.4534 37.578 33.4534 37.682C33.4534 37.894 33.3454 38 33.1294 38Z" fill="#BFE0D1"/>
<path d="M35.2942 31.238C35.0182 31.238 34.8802 31.096 34.8802 30.812V30.542C34.8802 30.266 35.0182 30.128 35.2942 30.128H35.5642C35.8322 30.128 35.9662 30.266 35.9662 30.542V30.812C35.9662 31.096 35.8322 31.238 35.5642 31.238H35.2942ZM35.4322 38C35.2202 38 35.1142 37.894 35.1142 37.682V32.642C35.1142 32.434 35.2202 32.33 35.4322 32.33C35.6402 32.33 35.7442 32.434 35.7442 32.642V37.682C35.7442 37.894 35.6402 38 35.4322 38Z" fill="#BFE0D1"/>
<path d="M39.9893 38C39.2413 38 38.6933 37.828 38.3453 37.484C37.9973 37.136 37.8233 36.59 37.8233 35.846V34.49C37.8233 33.734 37.9973 33.184 38.3453 32.84C38.6933 32.492 39.2413 32.322 39.9893 32.33H40.9733C41.7213 32.33 42.2673 32.504 42.6113 32.852C42.9593 33.196 43.1333 33.742 43.1333 34.49V35.834C43.1333 36.582 42.9593 37.13 42.6113 37.478C42.2673 37.826 41.7213 38 40.9733 38H39.9893ZM38.4533 35.846C38.4533 36.41 38.5653 36.806 38.7893 37.034C39.0173 37.258 39.4173 37.37 39.9893 37.37H40.9733C41.5453 37.37 41.9433 37.258 42.1673 37.034C42.3913 36.806 42.5033 36.406 42.5033 35.834V34.49C42.5033 33.918 42.3913 33.52 42.1673 33.296C41.9433 33.072 41.5453 32.96 40.9733 32.96H39.9893C39.6053 32.956 39.3013 33.002 39.0773 33.098C38.8533 33.194 38.6933 33.354 38.5973 33.578C38.5013 33.802 38.4533 34.106 38.4533 34.49V35.846Z" fill="#BFE0D1"/>
<path d="M45.5337 38C45.3217 38 45.2158 37.894 45.2158 37.682V32.642C45.2158 32.434 45.3217 32.33 45.5337 32.33C45.7417 32.33 45.8457 32.434 45.8457 32.642V33.218C46.2257 32.626 46.9138 32.33 47.9098 32.33H48.2458C48.9938 32.33 49.5398 32.504 49.8838 32.852C50.2318 33.196 50.4058 33.742 50.4058 34.49V37.682C50.4058 37.894 50.3018 38 50.0938 38C49.8818 38 49.7757 37.894 49.7757 37.682V34.49C49.7757 33.918 49.6618 33.52 49.4338 33.296C49.2098 33.072 48.8138 32.96 48.2458 32.96H47.9098C47.2898 32.96 46.8018 33.058 46.4458 33.254C46.0898 33.45 45.8897 33.756 45.8457 34.172V37.682C45.8457 37.894 45.7417 38 45.5337 38Z" fill="#BFE0D1"/>
<path d="M6.44 52C6.34 52 6.262 51.972 6.206 51.916C6.15 51.86 6.122 51.782 6.122 51.682V44.578C6.122 44.478 6.15 44.4 6.206 44.344C6.262 44.288 6.34 44.26 6.44 44.26C6.536 44.26 6.612 44.288 6.668 44.344C6.724 44.4 6.752 44.478 6.752 44.578V51.682C6.752 51.782 6.724 51.86 6.668 51.916C6.612 51.972 6.536 52 6.44 52Z" fill="#BFE0D1"/>
<path d="M9.31109 52C9.09909 52 8.99309 51.894 8.99309 51.682V46.642C8.99309 46.434 9.09909 46.33 9.31109 46.33C9.51909 46.33 9.62309 46.434 9.62309 46.642V47.218C10.0031 46.626 10.6911 46.33 11.6871 46.33H12.0231C12.7711 46.33 13.3171 46.504 13.6611 46.852C14.0091 47.196 14.1831 47.742 14.1831 48.49V51.682C14.1831 51.894 14.0791 52 13.8711 52C13.6591 52 13.5531 51.894 13.5531 51.682V48.49C13.5531 47.918 13.4391 47.52 13.2111 47.296C12.9871 47.072 12.5911 46.96 12.0231 46.96H11.6871C11.0671 46.96 10.5791 47.058 10.2231 47.254C9.86709 47.45 9.66709 47.756 9.62309 48.172V51.682C9.62309 51.894 9.51909 52 9.31109 52Z" fill="#BFE0D1"/>
<path d="M18.6333 52C17.8973 52 17.3593 51.83 17.0193 51.49C16.6793 51.15 16.5093 50.614 16.5093 49.882V46.96H15.7953C15.5833 46.96 15.4773 46.854 15.4773 46.642C15.4773 46.434 15.5833 46.33 15.7953 46.33H16.5093V45.04C16.5093 44.828 16.6133 44.722 16.8213 44.722C17.0333 44.722 17.1393 44.828 17.1393 45.04V46.33H18.6453C18.8533 46.33 18.9573 46.434 18.9573 46.642C18.9573 46.854 18.8533 46.96 18.6453 46.96H17.1393V49.882C17.1393 50.442 17.2473 50.83 17.4633 51.046C17.6833 51.262 18.0733 51.37 18.6333 51.37C18.7493 51.37 18.8313 51.396 18.8793 51.448C18.9313 51.5 18.9573 51.578 18.9573 51.682C18.9573 51.894 18.8493 52 18.6333 52Z" fill="#BFE0D1"/>
<path d="M20.6056 49.408V49.846C20.6056 50.41 20.7176 50.806 20.9416 51.034C21.1696 51.258 21.5696 51.37 22.1416 51.37H23.1256C23.6296 51.37 23.9956 51.306 24.2236 51.178C24.4556 51.046 24.5936 50.82 24.6376 50.5C24.6536 50.4 24.6856 50.324 24.7336 50.272C24.7856 50.22 24.8636 50.194 24.9676 50.194C25.0716 50.194 25.1496 50.224 25.2016 50.284C25.2576 50.34 25.2796 50.42 25.2676 50.524C25.2156 51.028 25.0136 51.4 24.6616 51.64C24.3096 51.88 23.7976 52 23.1256 52H22.1416C21.3936 52 20.8456 51.828 20.4976 51.484C20.1496 51.136 19.9756 50.59 19.9756 49.846V48.49C19.9756 47.734 20.1496 47.184 20.4976 46.84C20.8456 46.492 21.3936 46.322 22.1416 46.33H23.1256C23.8736 46.33 24.4196 46.504 24.7636 46.852C25.1116 47.196 25.2856 47.742 25.2856 48.49V49.09C25.2856 49.302 25.1816 49.408 24.9736 49.408H20.6056ZM22.1416 46.96C21.5696 46.952 21.1696 47.062 20.9416 47.29C20.7176 47.514 20.6056 47.914 20.6056 48.49V48.778H24.6556V48.49C24.6556 47.918 24.5436 47.52 24.3196 47.296C24.0956 47.072 23.6976 46.96 23.1256 46.96H22.1416Z" fill="#BFE0D1"/>
<path d="M29.0181 52C28.4501 52 28.0321 51.868 27.7641 51.604C27.5001 51.34 27.3681 50.926 27.3681 50.362V43.99C27.3681 43.782 27.4741 43.678 27.6861 43.678C27.8941 43.678 27.9981 43.782 27.9981 43.99V50.362C27.9981 50.75 28.0701 51.016 28.2141 51.16C28.3581 51.3 28.6241 51.37 29.0121 51.37C29.2281 51.37 29.3361 51.474 29.3361 51.682C29.3401 51.894 29.2341 52 29.0181 52Z" fill="#BFE0D1"/>
<path d="M32.5103 52C31.9423 52 31.5243 51.868 31.2563 51.604C30.9923 51.34 30.8603 50.926 30.8603 50.362V43.99C30.8603 43.782 30.9663 43.678 31.1783 43.678C31.3863 43.678 31.4903 43.782 31.4903 43.99V50.362C31.4903 50.75 31.5623 51.016 31.7063 51.16C31.8503 51.3 32.1163 51.37 32.5043 51.37C32.7203 51.37 32.8283 51.474 32.8283 51.682C32.8323 51.894 32.7263 52 32.5103 52Z" fill="#BFE0D1"/>
<path d="M34.5325 45.238C34.2565 45.238 34.1185 45.096 34.1185 44.812V44.542C34.1185 44.266 34.2565 44.128 34.5325 44.128H34.8025C35.0705 44.128 35.2045 44.266 35.2045 44.542V44.812C35.2045 45.096 35.0705 45.238 34.8025 45.238H34.5325ZM34.6705 52C34.4585 52 34.3525 51.894 34.3525 51.682V46.642C34.3525 46.434 34.4585 46.33 34.6705 46.33C34.8785 46.33 34.9825 46.434 34.9825 46.642V51.682C34.9825 51.894 34.8785 52 34.6705 52Z" fill="#BFE0D1"/>
<path d="M38.6036 54.4C38.1316 54.4 37.7716 54.302 37.5236 54.106C37.2756 53.914 37.1296 53.61 37.0856 53.194C37.0736 53.09 37.0956 53.008 37.1516 52.948C37.2076 52.888 37.2856 52.858 37.3856 52.858C37.4856 52.858 37.5616 52.884 37.6136 52.936C37.6656 52.988 37.6996 53.066 37.7156 53.17C37.7436 53.402 37.8256 53.56 37.9616 53.644C38.0976 53.728 38.3116 53.77 38.6036 53.77H40.8356C41.1876 53.77 41.4256 53.706 41.5496 53.578C41.6776 53.45 41.7416 53.21 41.7416 52.858V51.142C41.5576 51.422 41.2976 51.636 40.9616 51.784C40.6256 51.928 40.1996 52 39.6836 52H39.2276C38.4796 52 37.9316 51.828 37.5836 51.484C37.2356 51.136 37.0616 50.59 37.0616 49.846V48.49C37.0616 47.734 37.2336 47.186 37.5776 46.846C37.9256 46.502 38.4756 46.33 39.2276 46.33H40.2116C40.6036 46.33 40.9216 46.382 41.1656 46.486C41.4096 46.59 41.6016 46.752 41.7416 46.972V46.642C41.7416 46.434 41.8476 46.33 42.0596 46.33C42.2676 46.33 42.3716 46.434 42.3716 46.642V52.858C42.3716 53.386 42.2476 53.774 41.9996 54.022C41.7516 54.274 41.3636 54.4 40.8356 54.4H38.6036ZM39.2276 51.37H39.6836C40.3076 51.37 40.8056 51.272 41.1776 51.076C41.5536 50.88 41.7416 50.582 41.7416 50.182V48.178C41.7416 47.726 41.6156 47.41 41.3636 47.23C41.1116 47.05 40.7276 46.96 40.2116 46.96H39.2276C38.6556 46.96 38.2556 47.072 38.0276 47.296C37.8036 47.516 37.6916 47.914 37.6916 48.49V49.846C37.6916 50.41 37.8036 50.806 38.0276 51.034C38.2556 51.258 38.6556 51.37 39.2276 51.37Z" fill="#BFE0D1"/>
<path d="M44.9806 49.408V49.846C44.9806 50.41 45.0926 50.806 45.3166 51.034C45.5446 51.258 45.9446 51.37 46.5166 51.37H47.5006C48.0046 51.37 48.3706 51.306 48.5986 51.178C48.8306 51.046 48.9686 50.82 49.0126 50.5C49.0286 50.4 49.0606 50.324 49.1086 50.272C49.1606 50.22 49.2386 50.194 49.3426 50.194C49.4466 50.194 49.5246 50.224 49.5766 50.284C49.6326 50.34 49.6546 50.42 49.6426 50.524C49.5906 51.028 49.3886 51.4 49.0366 51.64C48.6846 51.88 48.1726 52 47.5006 52H46.5166C45.7686 52 45.2206 51.828 44.8726 51.484C44.5246 51.136 44.3506 50.59 44.3506 49.846V48.49C44.3506 47.734 44.5246 47.184 44.8726 46.84C45.2206 46.492 45.7686 46.322 46.5166 46.33H47.5006C48.2486 46.33 48.7946 46.504 49.1386 46.852C49.4866 47.196 49.6606 47.742 49.6606 48.49V49.09C49.6606 49.302 49.5566 49.408 49.3486 49.408H44.9806ZM46.5166 46.96C45.9446 46.952 45.5446 47.062 45.3166 47.29C45.0926 47.514 44.9806 47.914 44.9806 48.49V48.778H49.0306V48.49C49.0306 47.918 48.9186 47.52 48.6946 47.296C48.4706 47.072 48.0726 46.96 47.5006 46.96H46.5166Z" fill="#BFE0D1"/>
<path d="M52.0611 52C51.8491 52 51.7431 51.894 51.7431 51.682V46.642C51.7431 46.434 51.8491 46.33 52.0611 46.33C52.2691 46.33 52.3731 46.434 52.3731 46.642V47.218C52.7531 46.626 53.4411 46.33 54.4371 46.33H54.7731C55.5211 46.33 56.0671 46.504 56.4111 46.852C56.7591 47.196 56.9331 47.742 56.9331 48.49V51.682C56.9331 51.894 56.8291 52 56.6211 52C56.4091 52 56.3031 51.894 56.3031 51.682V48.49C56.3031 47.918 56.1891 47.52 55.9611 47.296C55.7371 47.072 55.3411 46.96 54.7731 46.96H54.4371C53.8171 46.96 53.3291 47.058 52.9731 47.254C52.6171 47.45 52.4171 47.756 52.3731 48.172V51.682C52.3731 51.894 52.2691 52 52.0611 52Z" fill="#BFE0D1"/>
<path d="M61.0713 52C60.3233 52 59.7753 51.826 59.4273 51.478C59.0793 51.13 58.9053 50.582 58.9053 49.834V48.478C58.9053 47.73 59.0773 47.184 59.4213 46.84C59.7693 46.492 60.3193 46.322 61.0713 46.33H62.0553C62.6433 46.33 63.0913 46.43 63.3993 46.63C63.7113 46.826 63.8973 47.136 63.9573 47.56C63.9693 47.668 63.9453 47.75 63.8853 47.806C63.8293 47.862 63.7493 47.89 63.6453 47.89C63.5493 47.89 63.4773 47.866 63.4293 47.818C63.3813 47.766 63.3453 47.692 63.3213 47.596C63.2773 47.364 63.1593 47.2 62.9673 47.104C62.7753 47.008 62.4713 46.96 62.0553 46.96H61.0713C60.4993 46.952 60.0993 47.06 59.8713 47.284C59.6473 47.504 59.5353 47.902 59.5353 48.478V49.834C59.5353 50.406 59.6473 50.806 59.8713 51.034C60.0993 51.258 60.4993 51.37 61.0713 51.37H62.0553C62.4713 51.37 62.7753 51.322 62.9673 51.226C63.1593 51.13 63.2773 50.964 63.3213 50.728C63.3453 50.632 63.3813 50.56 63.4293 50.512C63.4773 50.46 63.5493 50.434 63.6453 50.434C63.7493 50.434 63.8293 50.464 63.8853 50.524C63.9453 50.58 63.9693 50.66 63.9573 50.764C63.8973 51.188 63.7113 51.5 63.3993 51.7C63.0913 51.9 62.6433 52 62.0553 52H61.0713Z" fill="#BFE0D1"/>
<path d="M66.3908 49.408V49.846C66.3908 50.41 66.5028 50.806 66.7268 51.034C66.9548 51.258 67.3548 51.37 67.9268 51.37H68.9108C69.4148 51.37 69.7808 51.306 70.0088 51.178C70.2408 51.046 70.3788 50.82 70.4228 50.5C70.4388 50.4 70.4708 50.324 70.5188 50.272C70.5708 50.22 70.6488 50.194 70.7528 50.194C70.8568 50.194 70.9348 50.224 70.9868 50.284C71.0428 50.34 71.0648 50.42 71.0528 50.524C71.0008 51.028 70.7988 51.4 70.4468 51.64C70.0948 51.88 69.5828 52 68.9108 52H67.9268C67.1788 52 66.6308 51.828 66.2828 51.484C65.9348 51.136 65.7608 50.59 65.7608 49.846V48.49C65.7608 47.734 65.9348 47.184 66.2828 46.84C66.6308 46.492 67.1788 46.322 67.9268 46.33H68.9108C69.6588 46.33 70.2048 46.504 70.5488 46.852C70.8968 47.196 71.0708 47.742 71.0708 48.49V49.09C71.0708 49.302 70.9668 49.408 70.7588 49.408H66.3908ZM67.9268 46.96C67.3548 46.952 66.9548 47.062 66.7268 47.29C66.5028 47.514 66.3908 47.914 66.3908 48.49V48.778H70.4408V48.49C70.4408 47.918 70.3288 47.52 70.1048 47.296C69.8808 47.072 69.4828 46.96 68.9108 46.96H67.9268Z" fill="#BFE0D1"/>
<path d="M6.44 66C6.34 66 6.262 65.972 6.206 65.916C6.15 65.86 6.122 65.782 6.122 65.682V58.578C6.122 58.478 6.15 58.4 6.206 58.344C6.262 58.288 6.34 58.26 6.44 58.26C6.536 58.26 6.612 58.288 6.668 58.344C6.724 58.4 6.752 58.478 6.752 58.578V65.682C6.752 65.782 6.724 65.86 6.668 65.916C6.612 65.972 6.536 66 6.44 66Z" fill="#BFE0D1"/>
<path d="M9.31109 66C9.09909 66 8.99309 65.894 8.99309 65.682V60.642C8.99309 60.434 9.09909 60.33 9.31109 60.33C9.51909 60.33 9.62309 60.434 9.62309 60.642V61.218C10.0031 60.626 10.6911 60.33 11.6871 60.33H12.0231C12.7711 60.33 13.3171 60.504 13.6611 60.852C14.0091 61.196 14.1831 61.742 14.1831 62.49V65.682C14.1831 65.894 14.0791 66 13.8711 66C13.6591 66 13.5531 65.894 13.5531 65.682V62.49C13.5531 61.918 13.4391 61.52 13.2111 61.296C12.9871 61.072 12.5911 60.96 12.0231 60.96H11.6871C11.0671 60.96 10.5791 61.058 10.2231 61.254C9.86709 61.45 9.66709 61.756 9.62309 62.172V65.682C9.62309 65.894 9.51909 66 9.31109 66Z" fill="#BFE0D1"/>
<path d="M18.3213 66C17.5733 66 17.0253 65.826 16.6773 65.478C16.3293 65.13 16.1553 64.582 16.1553 63.834V62.49C16.1553 61.742 16.3293 61.196 16.6773 60.852C17.0253 60.504 17.5733 60.33 18.3213 60.33H20.8353V57.99C20.8353 57.782 20.9413 57.678 21.1533 57.678C21.3613 57.678 21.4653 57.782 21.4653 57.99V65.682C21.4653 65.894 21.3613 66 21.1533 66C20.9413 66 20.8353 65.894 20.8353 65.682V65.166C20.6633 65.442 20.4113 65.65 20.0793 65.79C19.7473 65.93 19.3133 66 18.7773 66H18.3213ZM18.3213 65.37H18.7773C19.4013 65.37 19.8993 65.272 20.2713 65.076C20.6473 64.876 20.8353 64.578 20.8353 64.182V60.96H18.3213C17.7493 60.96 17.3493 61.074 17.1213 61.302C16.8973 61.526 16.7853 61.922 16.7853 62.49V63.834C16.7853 64.406 16.8973 64.806 17.1213 65.034C17.3493 65.258 17.7493 65.37 18.3213 65.37Z" fill="#BFE0D1"/>
<path d="M24.0744 63.408V63.846C24.0744 64.41 24.1864 64.806 24.4104 65.034C24.6384 65.258 25.0384 65.37 25.6104 65.37H26.5944C27.0984 65.37 27.4644 65.306 27.6924 65.178C27.9244 65.046 28.0624 64.82 28.1064 64.5C28.1224 64.4 28.1544 64.324 28.2024 64.272C28.2544 64.22 28.3324 64.194 28.4364 64.194C28.5404 64.194 28.6184 64.224 28.6704 64.284C28.7264 64.34 28.7484 64.42 28.7364 64.524C28.6844 65.028 28.4824 65.4 28.1304 65.64C27.7784 65.88 27.2664 66 26.5944 66H25.6104C24.8624 66 24.3144 65.828 23.9664 65.484C23.6184 65.136 23.4444 64.59 23.4444 63.846V62.49C23.4444 61.734 23.6184 61.184 23.9664 60.84C24.3144 60.492 24.8624 60.322 25.6104 60.33H26.5944C27.3424 60.33 27.8884 60.504 28.2324 60.852C28.5804 61.196 28.7544 61.742 28.7544 62.49V63.09C28.7544 63.302 28.6504 63.408 28.4424 63.408H24.0744ZM25.6104 60.96C25.0384 60.952 24.6384 61.062 24.4104 61.29C24.1864 61.514 24.0744 61.914 24.0744 62.49V62.778H28.1244V62.49C28.1244 61.918 28.0124 61.52 27.7884 61.296C27.5644 61.072 27.1664 60.96 26.5944 60.96H25.6104Z" fill="#BFE0D1"/>
<path d="M31.1548 68.4C30.9428 68.4 30.8368 68.294 30.8368 68.082V60.642C30.8368 60.434 30.9428 60.33 31.1548 60.33C31.3628 60.33 31.4668 60.434 31.4668 60.642V61.176C31.6468 60.896 31.9048 60.686 32.2408 60.546C32.5768 60.402 33.0068 60.33 33.5308 60.33H33.9868C34.7348 60.33 35.2808 60.504 35.6248 60.852C35.9728 61.196 36.1468 61.742 36.1468 62.49V63.834C36.1468 64.582 35.9728 65.13 35.6248 65.478C35.2808 65.826 34.7348 66 33.9868 66H31.4668V68.082C31.4668 68.294 31.3628 68.4 31.1548 68.4ZM31.4668 65.37H33.9868C34.5588 65.37 34.9568 65.258 35.1808 65.034C35.4048 64.806 35.5168 64.406 35.5168 63.834V62.49C35.5168 61.918 35.4048 61.52 35.1808 61.296C34.9568 61.072 34.5588 60.96 33.9868 60.96H33.5308C32.8908 60.96 32.3988 61.06 32.0548 61.26C31.7148 61.46 31.5188 61.768 31.4668 62.184V65.37Z" fill="#BFE0D1"/>
<path d="M38.6994 63.408V63.846C38.6994 64.41 38.8114 64.806 39.0354 65.034C39.2634 65.258 39.6634 65.37 40.2354 65.37H41.2194C41.7234 65.37 42.0894 65.306 42.3174 65.178C42.5494 65.046 42.6874 64.82 42.7314 64.5C42.7474 64.4 42.7794 64.324 42.8274 64.272C42.8794 64.22 42.9574 64.194 43.0614 64.194C43.1654 64.194 43.2434 64.224 43.2954 64.284C43.3514 64.34 43.3734 64.42 43.3614 64.524C43.3094 65.028 43.1074 65.4 42.7554 65.64C42.4034 65.88 41.8914 66 41.2194 66H40.2354C39.4874 66 38.9394 65.828 38.5914 65.484C38.2434 65.136 38.0694 64.59 38.0694 63.846V62.49C38.0694 61.734 38.2434 61.184 38.5914 60.84C38.9394 60.492 39.4874 60.322 40.2354 60.33H41.2194C41.9674 60.33 42.5134 60.504 42.8574 60.852C43.2054 61.196 43.3794 61.742 43.3794 62.49V63.09C43.3794 63.302 43.2754 63.408 43.0674 63.408H38.6994ZM40.2354 60.96C39.6634 60.952 39.2634 61.062 39.0354 61.29C38.8114 61.514 38.6994 61.914 38.6994 62.49V62.778H42.7494V62.49C42.7494 61.918 42.6374 61.52 42.4134 61.296C42.1894 61.072 41.7914 60.96 41.2194 60.96H40.2354Z" fill="#BFE0D1"/>
<path d="M45.7798 66C45.5678 66 45.4618 65.894 45.4618 65.682V60.642C45.4618 60.434 45.5678 60.33 45.7798 60.33C45.9878 60.33 46.0918 60.434 46.0918 60.642V61.218C46.4718 60.626 47.1598 60.33 48.1558 60.33H48.4918C49.2398 60.33 49.7858 60.504 50.1298 60.852C50.4778 61.196 50.6518 61.742 50.6518 62.49V65.682C50.6518 65.894 50.5478 66 50.3398 66C50.1278 66 50.0218 65.894 50.0218 65.682V62.49C50.0218 61.918 49.9078 61.52 49.6798 61.296C49.4558 61.072 49.0598 60.96 48.4918 60.96H48.1558C47.5358 60.96 47.0478 61.058 46.6918 61.254C46.3358 61.45 46.1358 61.756 46.0918 62.172V65.682C46.0918 65.894 45.9878 66 45.7798 66Z" fill="#BFE0D1"/>
<path d="M54.7901 66C54.0421 66 53.4941 65.826 53.1461 65.478C52.7981 65.13 52.6241 64.582 52.6241 63.834V62.49C52.6241 61.742 52.7981 61.196 53.1461 60.852C53.4941 60.504 54.0421 60.33 54.7901 60.33H57.3041V57.99C57.3041 57.782 57.4101 57.678 57.6221 57.678C57.8301 57.678 57.9341 57.782 57.9341 57.99V65.682C57.9341 65.894 57.8301 66 57.6221 66C57.4101 66 57.3041 65.894 57.3041 65.682V65.166C57.1321 65.442 56.8801 65.65 56.5481 65.79C56.2161 65.93 55.7821 66 55.2461 66H54.7901ZM54.7901 65.37H55.2461C55.8701 65.37 56.3681 65.272 56.7401 65.076C57.1161 64.876 57.3041 64.578 57.3041 64.182V60.96H54.7901C54.2181 60.96 53.8181 61.074 53.5901 61.302C53.3661 61.526 53.2541 61.922 53.2541 62.49V63.834C53.2541 64.406 53.3661 64.806 53.5901 65.034C53.8181 65.258 54.2181 65.37 54.7901 65.37Z" fill="#BFE0D1"/>
<path d="M60.5431 63.408V63.846C60.5431 64.41 60.6551 64.806 60.8791 65.034C61.1071 65.258 61.5071 65.37 62.0791 65.37H63.0631C63.5671 65.37 63.9331 65.306 64.1611 65.178C64.3931 65.046 64.5311 64.82 64.5751 64.5C64.5911 64.4 64.6231 64.324 64.6711 64.272C64.7231 64.22 64.8011 64.194 64.9051 64.194C65.0091 64.194 65.0871 64.224 65.1391 64.284C65.1951 64.34 65.2171 64.42 65.2051 64.524C65.1531 65.028 64.9511 65.4 64.5991 65.64C64.2471 65.88 63.7351 66 63.0631 66H62.0791C61.3311 66 60.7831 65.828 60.4351 65.484C60.0871 65.136 59.9131 64.59 59.9131 63.846V62.49C59.9131 61.734 60.0871 61.184 60.4351 60.84C60.7831 60.492 61.3311 60.322 62.0791 60.33H63.0631C63.8111 60.33 64.3571 60.504 64.7011 60.852C65.0491 61.196 65.2231 61.742 65.2231 62.49V63.09C65.2231 63.302 65.1191 63.408 64.9111 63.408H60.5431ZM62.0791 60.96C61.5071 60.952 61.1071 61.062 60.8791 61.29C60.6551 61.514 60.5431 61.914 60.5431 62.49V62.778H64.5931V62.49C64.5931 61.918 64.4811 61.52 64.2571 61.296C64.0331 61.072 63.6351 60.96 63.0631 60.96H62.0791Z" fill="#BFE0D1"/>
<path d="M67.6236 66C67.4116 66 67.3056 65.894 67.3056 65.682V60.642C67.3056 60.434 67.4116 60.33 67.6236 60.33C67.8316 60.33 67.9356 60.434 67.9356 60.642V61.218C68.3156 60.626 69.0036 60.33 69.9996 60.33H70.3356C71.0836 60.33 71.6296 60.504 71.9736 60.852C72.3216 61.196 72.4956 61.742 72.4956 62.49V65.682C72.4956 65.894 72.3916 66 72.1836 66C71.9716 66 71.8656 65.894 71.8656 65.682V62.49C71.8656 61.918 71.7516 61.52 71.5236 61.296C71.2996 61.072 70.9036 60.96 70.3356 60.96H69.9996C69.3796 60.96 68.8916 61.058 68.5356 61.254C68.1796 61.45 67.9796 61.756 67.9356 62.172V65.682C67.9356 65.894 67.8316 66 67.6236 66Z" fill="#BFE0D1"/>
<path d="M76.9458 66C76.2098 66 75.6718 65.83 75.3318 65.49C74.9918 65.15 74.8218 64.614 74.8218 63.882V60.96H74.1078C73.8958 60.96 73.7898 60.854 73.7898 60.642C73.7898 60.434 73.8958 60.33 74.1078 60.33H74.8218V59.04C74.8218 58.828 74.9258 58.722 75.1338 58.722C75.3458 58.722 75.4518 58.828 75.4518 59.04V60.33H76.9578C77.1658 60.33 77.2698 60.434 77.2698 60.642C77.2698 60.854 77.1658 60.96 76.9578 60.96H75.4518V63.882C75.4518 64.442 75.5598 64.83 75.7758 65.046C75.9958 65.262 76.3858 65.37 76.9458 65.37C77.0618 65.37 77.1438 65.396 77.1918 65.448C77.2438 65.5 77.2698 65.578 77.2698 65.682C77.2698 65.894 77.1618 66 76.9458 66Z" fill="#BFE0D1"/>
<path d="M6.08 74.428C6.08 74.132 6.176 73.904 6.368 73.744C6.568 73.576 6.848 73.492 7.208 73.492V81.172C7.208 81.468 7.108 81.7 6.908 81.868C6.716 82.028 6.44 82.108 6.08 82.108V74.428Z" fill="#000500"/>
<path d="M9.13297 76.78C9.13297 76.188 9.46897 75.892 10.141 75.892V76.66C10.069 76.732 9.98497 76.84 9.88897 76.984L9.93697 77.032C10.177 76.696 10.489 76.424 10.873 76.216C11.257 76 11.673 75.892 12.121 75.892C12.769 75.892 13.281 76.084 13.657 76.468C14.033 76.852 14.221 77.348 14.221 77.956V81.34C14.221 81.604 14.133 81.8 13.957 81.928C13.789 82.048 13.529 82.108 13.177 82.108V78.064C13.177 77.68 13.069 77.376 12.853 77.152C12.637 76.928 12.309 76.816 11.869 76.816C11.573 76.816 11.293 76.88 11.029 77.008C10.773 77.128 10.565 77.296 10.405 77.512C10.253 77.72 10.177 77.948 10.177 78.196V81.34C10.177 81.604 10.089 81.8 9.91297 81.928C9.74497 82.048 9.48497 82.108 9.13297 82.108V76.78Z" fill="#000500"/>
<path d="M15.7775 76.78C15.7775 76.188 16.1135 75.892 16.7855 75.892V76.66C16.7135 76.732 16.6295 76.84 16.5335 76.984L16.5815 77.032C16.8215 76.696 17.1335 76.424 17.5175 76.216C17.9015 76 18.3175 75.892 18.7655 75.892C19.4135 75.892 19.9255 76.084 20.3015 76.468C20.6775 76.852 20.8655 77.348 20.8655 77.956V81.34C20.8655 81.604 20.7775 81.8 20.6015 81.928C20.4335 82.048 20.1735 82.108 19.8215 82.108V78.064C19.8215 77.68 19.7135 77.376 19.4975 77.152C19.2815 76.928 18.9535 76.816 18.5135 76.816C18.2175 76.816 17.9375 76.88 17.6735 77.008C17.4175 77.128 17.2095 77.296 17.0495 77.512C16.8975 77.72 16.8215 77.948 16.8215 78.196V81.34C16.8215 81.604 16.7335 81.8 16.5575 81.928C16.3895 82.048 16.1295 82.108 15.7775 82.108V76.78Z" fill="#000500"/>
<path d="M24.702 82.108C24.214 82.108 23.77 82.016 23.37 81.832C22.978 81.648 22.67 81.4 22.446 81.088C22.23 80.768 22.122 80.412 22.122 80.02V78.052C22.122 77.652 22.23 77.288 22.446 76.96C22.67 76.632 22.978 76.372 23.37 76.18C23.762 75.988 24.206 75.892 24.702 75.892C25.198 75.892 25.642 75.988 26.034 76.18C26.434 76.372 26.742 76.632 26.958 76.96C27.182 77.288 27.294 77.652 27.294 78.052V80.02C27.294 80.412 27.182 80.768 26.958 81.088C26.734 81.4 26.426 81.648 26.034 81.832C25.642 82.016 25.198 82.108 24.702 82.108ZM24.702 81.208C25.182 81.208 25.562 81.096 25.842 80.872C26.13 80.64 26.274 80.34 26.274 79.972V78.088C26.274 77.704 26.13 77.392 25.842 77.152C25.562 76.912 25.182 76.792 24.702 76.792C24.23 76.792 23.85 76.912 23.562 77.152C23.274 77.392 23.13 77.704 23.13 78.088V79.972C23.13 80.34 23.27 80.64 23.55 80.872C23.838 81.096 24.222 81.208 24.702 81.208Z" fill="#000500"/>
<path d="M28.6798 74.308C28.6798 73.764 29.0318 73.492 29.7358 73.492V76.42C29.6158 76.524 29.5318 76.612 29.4838 76.684L29.5198 76.744C29.7598 76.488 30.0518 76.284 30.3958 76.132C30.7478 75.972 31.0918 75.892 31.4278 75.892C32.1398 75.892 32.7078 76.08 33.1318 76.456C33.5558 76.832 33.7678 77.336 33.7678 77.968V80.02C33.7678 80.42 33.6678 80.78 33.4678 81.1C33.2758 81.42 33.0038 81.668 32.6518 81.844C32.2998 82.02 31.8998 82.108 31.4518 82.108C30.6678 82.108 30.0078 81.764 29.4718 81.076L29.4358 81.124C29.4838 81.196 29.5638 81.296 29.6758 81.424C29.6758 81.656 29.5958 81.828 29.4358 81.94C29.2758 82.052 29.0238 82.108 28.6798 82.108V74.308ZM31.2238 81.184C31.7118 81.184 32.0838 81.08 32.3398 80.872C32.6038 80.664 32.7358 80.364 32.7358 79.972V78.016C32.7358 77.64 32.6038 77.348 32.3398 77.14C32.0758 76.924 31.7078 76.816 31.2358 76.816C30.8198 76.816 30.4638 76.928 30.1678 77.152C29.8718 77.376 29.7238 77.644 29.7238 77.956V80.032C29.7238 80.36 29.8678 80.636 30.1558 80.86C30.4438 81.076 30.7998 81.184 31.2238 81.184Z" fill="#000500"/>
<path d="M37.3164 82.108C36.6284 82.108 36.0724 81.924 35.6484 81.556C35.2324 81.188 35.0244 80.704 35.0244 80.104C35.0244 79.496 35.2444 79.008 35.6844 78.64C36.1244 78.264 36.7044 78.076 37.4244 78.076C38.1924 78.076 38.8244 78.348 39.3204 78.892L39.3684 78.844C39.2804 78.748 39.1804 78.648 39.0684 78.544V78.04C39.0684 77.632 38.9404 77.316 38.6844 77.092C38.4284 76.868 38.0644 76.756 37.5924 76.756C36.7524 76.756 36.1524 77.088 35.7924 77.752C35.6644 77.688 35.5564 77.604 35.4684 77.5C35.3884 77.388 35.3484 77.276 35.3484 77.164C35.3484 76.948 35.4564 76.744 35.6724 76.552C35.8884 76.352 36.1724 76.192 36.5244 76.072C36.8844 75.952 37.2604 75.892 37.6524 75.892C38.4124 75.892 39.0084 76.08 39.4404 76.456C39.8804 76.832 40.1004 77.352 40.1004 78.016V81.304C40.1004 81.584 40.0204 81.788 39.8604 81.916C39.7004 82.044 39.4484 82.108 39.1044 82.108V81.544C39.2724 81.368 39.3644 81.264 39.3804 81.232L39.3324 81.184C38.8124 81.8 38.1404 82.108 37.3164 82.108ZM37.4964 81.28C37.9924 81.28 38.3804 81.176 38.6604 80.968C38.9484 80.76 39.0924 80.472 39.0924 80.104C39.0924 79.736 38.9524 79.444 38.6724 79.228C38.3924 79.012 38.0084 78.904 37.5204 78.904C37.0644 78.904 36.7044 79.012 36.4404 79.228C36.1844 79.436 36.0564 79.728 36.0564 80.104C36.0564 80.48 36.1804 80.772 36.4284 80.98C36.6844 81.18 37.0404 81.28 37.4964 81.28Z" fill="#000500"/>
<path d="M43.3285 74.596H40.4005C40.4005 73.932 40.7125 73.6 41.3365 73.6H47.3725C47.3725 74.264 47.0605 74.596 46.4365 74.596H44.4565V81.172C44.4565 81.476 44.3605 81.708 44.1685 81.868C43.9765 82.028 43.6965 82.108 43.3285 82.108V74.596Z" fill="#000500"/>
<path d="M49.3731 82.108C48.8851 82.108 48.4491 82.016 48.0651 81.832C47.6811 81.64 47.3811 81.38 47.1651 81.052C46.9491 80.716 46.8411 80.34 46.8411 79.924V78.148C46.8411 77.724 46.9531 77.34 47.1771 76.996C47.4091 76.652 47.7171 76.384 48.1011 76.192C48.4931 75.992 48.9171 75.892 49.3731 75.892C49.8291 75.892 50.2451 75.988 50.6211 76.18C51.0051 76.372 51.3051 76.636 51.5211 76.972C51.7451 77.308 51.8571 77.688 51.8571 78.112V78.88C51.8571 79.008 51.8091 79.116 51.7131 79.204C51.6171 79.292 51.5011 79.336 51.3651 79.336H47.8611V79.876C47.8611 80.284 47.9891 80.612 48.2451 80.86C48.5091 81.108 48.8851 81.232 49.3731 81.232C49.8611 81.232 50.2331 81.124 50.4891 80.908C50.7451 80.692 50.8731 80.4 50.8731 80.032C51.1131 80.016 51.3131 80.064 51.4731 80.176C51.6411 80.28 51.7251 80.436 51.7251 80.644C51.7251 80.9 51.6131 81.14 51.3891 81.364C51.1731 81.588 50.8851 81.768 50.5251 81.904C50.1651 82.04 49.7811 82.108 49.3731 82.108ZM50.8851 78.52V78.112C50.8851 77.712 50.7451 77.388 50.4651 77.14C50.1931 76.884 49.8291 76.756 49.3731 76.756C48.9171 76.756 48.5491 76.884 48.2691 77.14C47.9971 77.388 47.8611 77.712 47.8611 78.112V78.52H50.8851Z" fill="#000500"/>
<path d="M58.2343 81.844C58.1703 81.924 58.0903 81.988 57.9943 82.036C57.8983 82.084 57.7903 82.108 57.6703 82.108C57.5423 82.108 57.4303 82.084 57.3343 82.036C57.2383 81.988 57.1503 81.9 57.0703 81.772L55.1623 78.784L54.2743 79.576V81.352C54.2743 81.856 53.9303 82.108 53.2423 82.108V74.356C53.2423 73.78 53.5903 73.492 54.2863 73.492L54.2743 78.508L57.1783 75.904C57.4103 76.12 57.5263 76.304 57.5263 76.456C57.5263 76.568 57.4983 76.66 57.4423 76.732C57.3943 76.796 57.2983 76.892 57.1543 77.02L55.8103 78.208L58.2343 81.844Z" fill="#000500"/>
<path d="M62.936 110.646H71.0056V127.182H62.936V110.646Z" fill="#BFE0D1"/>
<path d="M73.6514 110.646H81.721V129.695H73.6514V110.646Z" fill="#BFE0D1"/>
<path d="M57.5122 108H87.4093V110.646H57.5122V108Z" fill="#BFE0D1"/>
<path d="M57.5122 127.049H73.6513L73.6514 129.695L57.5122 129.695V127.049Z" fill="#BFE0D1"/>
</svg>
