<svg width="43" height="36" viewBox="0 0 43 36" fill="none" xmlns="http://www.w3.org/2000/svg">
<path d="M17.272 1.016C14.456 3.576 12.28 6.43466 10.744 9.592C9.208 12.7493 8.44 15.6507 8.44 18.296C9.12267 17.9547 10.0613 17.784 11.256 17.784C13.56 17.784 15.48 18.5947 17.016 20.216C18.552 21.8373 19.32 23.8853 19.32 26.36C19.32 29.0907 18.424 31.3093 16.632 33.016C14.9253 34.7227 12.7493 35.576 10.104 35.576C7.20267 35.576 4.89867 34.68 3.192 32.888C1.57067 31.096 0.76 28.8347 0.76 26.104C0.76 20.728 1.74133 15.864 3.704 11.512C5.752 7.15999 8.44 3.74666 11.768 1.272C12.4507 0.674665 13.4747 0.375999 14.84 0.375999C15.9493 0.375999 16.76 0.589333 17.272 1.016ZM40.184 1.016C37.368 3.576 35.192 6.43466 33.656 9.592C32.12 12.7493 31.352 15.6507 31.352 18.296C32.0347 17.9547 32.9733 17.784 34.168 17.784C36.472 17.784 38.392 18.5947 39.928 20.216C41.464 21.8373 42.232 23.8853 42.232 26.36C42.232 29.0907 41.336 31.3093 39.544 33.016C37.8373 34.7227 35.6613 35.576 33.016 35.576C30.1147 35.576 27.8107 34.68 26.104 32.888C24.4827 31.096 23.672 28.8347 23.672 26.104C23.672 20.728 24.6533 15.864 26.616 11.512C28.664 7.15999 31.352 3.74666 34.68 1.272C35.3627 0.674665 36.3867 0.375999 37.752 0.375999C38.8613 0.375999 39.672 0.589333 40.184 1.016Z" fill="#BFE0D1"/>
</svg>
