<?xml version="1.0" encoding="UTF-8"?>
<svg version="1.1" xmlns="http://www.w3.org/2000/svg" width="80" height="120">
<path d="M0 0 C26.4 0 52.8 0 80 0 C80 39.6 80 79.2 80 120 C53.6 120 27.2 120 0 120 C0 80.4 0 40.8 0 0 Z " fill="#1C2F2F" transform="translate(0,0)"/>
<path d="M0 0 C18.48 0 36.96 0 56 0 C56 0.66 56 1.32 56 2 C57.98 2 59.96 2 62 2 C62 3.98 62 5.96 62 8 C44.18 8 26.36 8 8 8 C8 41.66 8 75.32 8 110 C29.12 110 50.24 110 72 110 C72 85.58 72 61.16 72 36 C72.66 36 73.32 36 74 36 C74 34.02 74 32.04 74 30 C73.34 30 72.68 30 72 30 C72 22.74 72 15.48 72 8 C72.66 8 73.32 8 74 8 C74 7.34 74 6.68 74 6 C73.34 6 72.68 6 72 6 C72 5.34 72 4.68 72 4 C70.68 4 69.36 4 68 4 C68 4.66 68 5.32 68 6 C67.34 6 66.68 6 66 6 C66 4.68 66 3.36 66 2 C69.3 2 72.6 2 76 2 C76 1.34 76 0.68 76 0 C77.32 0 78.64 0 80 0 C80 39.6 80 79.2 80 120 C53.6 120 27.2 120 0 120 C0 80.4 0 40.8 0 0 Z " fill="#A98334" transform="translate(0,0)"/>
<path d="M0 0 C19.8 0 39.6 0 60 0 C60 7.26 60 14.52 60 22 C55.38 22 50.76 22 46 22 C46 21.34 46 20.68 46 20 C45.34 20 44.68 20 44 20 C44 19.34 44 18.68 44 18 C44.66 18 45.32 18 46 18 C46 17.34 46 16.68 46 16 C47.32 16 48.64 16 50 16 C50 15.34 50 14.68 50 14 C48.68 14 47.36 14 46 14 C46 13.34 46 12.68 46 12 C46.66 12 47.32 12 48 12 C48 11.34 48 10.68 48 10 C49.32 10 50.64 10 52 10 C52 9.34 52 8.68 52 8 C50.02 8 48.04 8 46 8 C46 7.34 46 6.68 46 6 C47.32 6 48.64 6 50 6 C50 5.34 50 4.68 50 4 C45.38 4 40.76 4 36 4 C36 3.34 36 2.68 36 2 C31.38 2 26.76 2 22 2 C22 2.66 22 3.32 22 4 C20.68 4 19.36 4 18 4 C18 4.66 18 5.32 18 6 C17.34 6 16.68 6 16 6 C16 7.32 16 8.64 16 10 C16.66 10 17.32 10 18 10 C18 11.98 18 13.96 18 16 C20.64 16 23.28 16 26 16 C26 15.34 26 14.68 26 14 C24.02 14 22.04 14 20 14 C20 13.34 20 12.68 20 12 C20.66 12 21.32 12 22 12 C22 11.34 22 10.68 22 10 C27.28 10 32.56 10 38 10 C38 10.66 38 11.32 38 12 C38.66 12 39.32 12 40 12 C40 12.66 40 13.32 40 14 C40.66 14 41.32 14 42 14 C42 15.32 42 16.64 42 18 C40.68 18 39.36 18 38 18 C38 17.34 38 16.68 38 16 C37.34 16 36.68 16 36 16 C36 15.34 36 14.68 36 14 C33.36 14 30.72 14 28 14 C28 14.66 28 15.32 28 16 C29.134375 15.979375 30.26875 15.95875 31.4375 15.9375 C35 16 35 16 36 17 C36.04063832 18.66617115 36.042721 20.33388095 36 22 C36.66 22 37.32 22 38 22 C38 21.34 38 20.68 38 20 C39.32 20 40.64 20 42 20 C42 20.66 42 21.32 42 22 C42.66 22 43.32 22 44 22 C44 23.98 44 25.96 44 28 C43.34 28 42.68 28 42 28 C42 28.66 42 29.32 42 30 C41.34 30 40.68 30 40 30 C40 31.32 40 32.64 40 34 C39.34 34 38.68 34 38 34 C38 35.32 38 36.64 38 38 C38.66 38 39.32 38 40 38 C40 39.98 40 41.96 40 44 C40.66 44 41.32 44 42 44 C42 45.32 42 46.64 42 48 C41.34 48 40.68 48 40 48 C40 48.66 40 49.32 40 50 C39.34 50 38.68 50 38 50 C38 50.66 38 51.32 38 52 C37.34 52 36.68 52 36 52 C36 52.66 36 53.32 36 54 C34.68 54 33.36 54 32 54 C32 54.66 32 55.32 32 56 C30.68 56 29.36 56 28 56 C28 56.66 28 57.32 28 58 C26.68 58 25.36 58 24 58 C24 58.66 24 59.32 24 60 C22.68 60 21.36 60 20 60 C20 60.66 20 61.32 20 62 C18.02 62 16.04 62 14 62 C14 62.66 14 63.32 14 64 C12.68 64 11.36 64 10 64 C10 63.34 10 62.68 10 62 C9.34 62 8.68 62 8 62 C7.34 60.68 6.68 59.36 6 58 C5.34 58 4.68 58 4 58 C4 59.32 4 60.64 4 62 C3.34 62 2.68 62 2 62 C2 63.32 2 64.64 2 66 C1.34 66 0.68 66 0 66 C0 60.06 0 54.12 0 48 C0.66 48 1.32 48 2 48 C2 47.34 2 46.68 2 46 C1.34 46 0.68 46 0 46 C0 30.82 0 15.64 0 0 Z " fill="#4F7880" transform="translate(10,10)"/>
<path d="M0 0 C6.6 0 13.2 0 20 0 C20 0.66 20 1.32 20 2 C16.7 2 13.4 2 10 2 C10 3.32 10 4.64 10 6 C10.66 6 11.32 6 12 6 C12 5.34 12 4.68 12 4 C13.32 4 14.64 4 16 4 C16 4.66 16 5.32 16 6 C16.66 6 17.32 6 18 6 C18 6.66 18 7.32 18 8 C17.34 8 16.68 8 16 8 C16 15.26 16 22.52 16 30 C16.66 30 17.32 30 18 30 C18 31.98 18 33.96 18 36 C17.34 36 16.68 36 16 36 C16 60.42 16 84.84 16 110 C-5.12 110 -26.24 110 -48 110 C-48 76.34 -48 42.68 -48 8 C-30.18 8 -12.36 8 6 8 C6 6.02 6 4.04 6 2 C4.02 2 2.04 2 0 2 C0 1.34 0 0.68 0 0 Z M-46 10 C-46 25.18 -46 40.36 -46 56 C-45.34 56 -44.68 56 -44 56 C-44 56.66 -44 57.32 -44 58 C-44.66 58 -45.32 58 -46 58 C-46.0994991 63.53176738 -46.17176423 69.06300426 -46.21972656 74.59545898 C-46.2397382 76.47413213 -46.26695637 78.3527438 -46.30175781 80.23120117 C-46.3507397 82.94465373 -46.37307329 85.65727696 -46.390625 88.37109375 C-46.41127014 89.19959335 -46.43191528 90.02809296 -46.45318604 90.88169861 C-46.4554561 96.89378555 -45.16058214 101.83130437 -42 107 C-38.82709287 108.58645357 -35.41174616 108.12078213 -31.9296875 108.09765625 C-31.13345978 108.0962413 -30.33723206 108.09482635 -29.51687622 108.09336853 C-26.9695462 108.08776345 -24.42230353 108.07521014 -21.875 108.0625 C-20.14974085 108.05748565 -18.42448033 108.05292263 -16.69921875 108.04882812 C-12.46611209 108.03779237 -8.23307086 108.02052436 -4 108 C-4 107.34 -4 106.68 -4 106 C-6.64 106 -9.28 106 -12 106 C-12 105.34 -12 104.68 -12 104 C-14.64 104 -17.28 104 -20 104 C-20 103.01 -20 102.02 -20 101 C-20.66 101 -21.32 101 -22 101 C-22 101.99 -22 102.98 -22 104 C-23.65 104 -25.3 104 -27 104 C-27 104.99 -27 105.98 -27 107 C-27.99 107 -28.98 107 -30 107 C-30 106.01 -30 105.02 -30 104 C-29.34 104 -28.68 104 -28 104 C-28 103.34 -28 102.68 -28 102 C-27.34 102 -26.68 102 -26 102 C-26 101.34 -26 100.68 -26 100 C-26.66 100 -27.32 100 -28 100 C-28 99.34 -28 98.68 -28 98 C-26.68 98 -25.36 98 -24 98 C-24 98.66 -24 99.32 -24 100 C-22.02 100 -20.04 100 -18 100 C-18 100.66 -18 101.32 -18 102 C-16.02 102 -14.04 102 -12 102 C-12 101.34 -12 100.68 -12 100 C-13.32 100 -14.64 100 -16 100 C-16 99.34 -16 98.68 -16 98 C-13.0625 98.75 -13.0625 98.75 -10 100 C-9.67 101.32 -9.34 102.64 -9 104 C-6.03 104 -3.06 104 0 104 C0 103.34 0 102.68 0 102 C0.66 102 1.32 102 2 102 C2 100.68 2 99.36 2 98 C2.66 98 3.32 98 4 98 C4 97.34 4 96.68 4 96 C4.66 96 5.32 96 6 96 C6 95.34 6 94.68 6 94 C6.66 94 7.32 94 8 94 C8 93.34 8 92.68 8 92 C9.32 92 10.64 92 12 92 C12 91.34 12 90.68 12 90 C12.66 90 13.32 90 14 90 C14 63.6 14 37.2 14 10 C-5.8 10 -25.6 10 -46 10 Z " fill="#20260B" transform="translate(56,0)"/>
<path d="M0 0 C18.48 0 36.96 0 56 0 C56 0.66 56 1.32 56 2 C57.98 2 59.96 2 62 2 C62 3.98 62 5.96 62 8 C44.18 8 26.36 8 8 8 C8 31.76 8 55.52 8 80 C7.34 79.67 6.68 79.34 6 79 C6 78.01 6 77.02 6 76 C5.01 76.495 5.01 76.495 4 77 C2.66742597 62.21867882 2.66742597 62.21867882 4 56 C3.34 56 2.68 56 2 56 C2 53.36 2 50.72 2 48 C1.34 48 0.68 48 0 48 C0 32.16 0 16.32 0 0 Z " fill="#B19958" transform="translate(0,0)"/>
<path d="M0 0 C0.66 0 1.32 0 2 0 C2 0.66 2 1.32 2 2 C6.62 2 11.24 2 16 2 C16 2.66 16 3.32 16 4 C17.32 4 18.64 4 20 4 C20 4.66 20 5.32 20 6 C20.66 6 21.32 6 22 6 C22 7.98 22 9.96 22 12 C26.62 12 31.24 12 36 12 C36 10.68 36 9.36 36 8 C37.32 8 38.64 8 40 8 C40 9.98 40 11.96 40 14 C40.66 14 41.32 14 42 14 C42 15.32 42 16.64 42 18 C41.34 18 40.68 18 40 18 C40 18.66 40 19.32 40 20 C39.34 20 38.68 20 38 20 C38 20.66 38 21.32 38 22 C37.34 22 36.68 22 36 22 C36 22.66 36 23.32 36 24 C34.68 24 33.36 24 32 24 C32 24.66 32 25.32 32 26 C30.68 26 29.36 26 28 26 C28 26.66 28 27.32 28 28 C26.68 28 25.36 28 24 28 C24 28.66 24 29.32 24 30 C22.68 30 21.36 30 20 30 C20 30.66 20 31.32 20 32 C18.02 32 16.04 32 14 32 C14 32.66 14 33.32 14 34 C12.68 34 11.36 34 10 34 C10 33.34 10 32.68 10 32 C9.34 32 8.68 32 8 32 C7.34 30.68 6.68 29.36 6 28 C5.34 28 4.68 28 4 28 C4 29.32 4 30.64 4 32 C3.34 32 2.68 32 2 32 C2 33.32 2 34.64 2 36 C1.34 36 0.68 36 0 36 C0 30.06 0 24.12 0 18 C0.66 18 1.32 18 2 18 C2 17.34 2 16.68 2 16 C1.34 16 0.68 16 0 16 C0 10.72 0 5.44 0 0 Z " fill="#2D4A4E" transform="translate(10,40)"/>
<path d="M0 0 C1.32 0 2.64 0 4 0 C4 0.66 4 1.32 4 2 C4.66 2 5.32 2 6 2 C6 3.32 6 4.64 6 6 C7.32 6 8.64 6 10 6 C10 6.66 10 7.32 10 8 C11.32 8.66 12.64 9.32 14 10 C14 10.66 14 11.32 14 12 C13.34 12 12.68 12 12 12 C12 12.66 12 13.32 12 14 C10.68 14 9.36 14 8 14 C8 14.66 8 15.32 8 16 C7.34 16 6.68 16 6 16 C6 16.66 6 17.32 6 18 C5.34 18 4.68 18 4 18 C4 18.66 4 19.32 4 20 C3.34 20 2.68 20 2 20 C2 21.32 2 22.64 2 24 C1.34 24 0.68 24 0 24 C0 24.66 0 25.32 0 26 C-2.97 26 -5.94 26 -9 26 C-9.33 24.68 -9.66 23.36 -10 22 C-12.99615946 20.6954344 -12.99615946 20.6954344 -16 20 C-16 20.66 -16 21.32 -16 22 C-14.68 22 -13.36 22 -12 22 C-12 22.66 -12 23.32 -12 24 C-13.98 24 -15.96 24 -18 24 C-18 23.34 -18 22.68 -18 22 C-19.98 22 -21.96 22 -24 22 C-24 21.34 -24 20.68 -24 20 C-25.32 20 -26.64 20 -28 20 C-28 20.66 -28 21.32 -28 22 C-27.34 22 -26.68 22 -26 22 C-26 22.66 -26 23.32 -26 24 C-26.66 24 -27.32 24 -28 24 C-28 24.66 -28 25.32 -28 26 C-28.66 26 -29.32 26 -30 26 C-30 26.66 -30 27.32 -30 28 C-32.64 28 -35.28 28 -38 28 C-38 25.36 -38 22.72 -38 20 C-37.34 20 -36.68 20 -36 20 C-36 17.36 -36 14.72 -36 12 C-36.66 12 -37.32 12 -38 12 C-38 11.34 -38 10.68 -38 10 C-36.68 10 -35.36 10 -34 10 C-34 9.34 -34 8.68 -34 8 C-32.02 8 -30.04 8 -28 8 C-28 8.66 -28 9.32 -28 10 C-26.02 10 -24.04 10 -22 10 C-22 11.32 -22 12.64 -22 14 C-21.34 14 -20.68 14 -20 14 C-20 14.66 -20 15.32 -20 16 C-19.34 16 -18.68 16 -18 16 C-18 15.34 -18 14.68 -18 14 C-17.34 14 -16.68 14 -16 14 C-16 13.34 -16 12.68 -16 12 C-15.34 12 -14.68 12 -14 12 C-14 13.32 -14 14.64 -14 16 C-14.66 16 -15.32 16 -16 16 C-16 16.66 -16 17.32 -16 18 C-13.69 18 -11.38 18 -9 18 C-8.67 16.02 -8.34 14.04 -8 12 C-8.66 12 -9.32 12 -10 12 C-10 11.34 -10 10.68 -10 10 C-9.34 10 -8.68 10 -8 10 C-8 9.34 -8 8.68 -8 8 C-7.34 8 -6.68 8 -6 8 C-6 7.34 -6 6.68 -6 6 C-5.34 6 -4.68 6 -4 6 C-4 5.34 -4 4.68 -4 4 C-3.34 4 -2.68 4 -2 4 C-2 3.34 -2 2.68 -2 2 C-1.34 2 -0.68 2 0 2 C0 1.34 0 0.68 0 0 Z " fill="#2E3F40" transform="translate(56,78)"/>
<path d="M0 0 C19.8 0 39.6 0 60 0 C60 7.26 60 14.52 60 22 C55.38 22 50.76 22 46 22 C46 21.34 46 20.68 46 20 C45.34 20 44.68 20 44 20 C44 19.34 44 18.68 44 18 C44.66 18 45.32 18 46 18 C46 17.34 46 16.68 46 16 C47.32 16 48.64 16 50 16 C50 15.34 50 14.68 50 14 C48.68 14 47.36 14 46 14 C46 13.34 46 12.68 46 12 C46.66 12 47.32 12 48 12 C48 11.34 48 10.68 48 10 C49.32 10 50.64 10 52 10 C52 9.34 52 8.68 52 8 C50.02 8 48.04 8 46 8 C46 7.34 46 6.68 46 6 C47.32 6 48.64 6 50 6 C50 5.34 50 4.68 50 4 C45.38 4 40.76 4 36 4 C36 3.34 36 2.68 36 2 C31.38 2 26.76 2 22 2 C22 2.66 22 3.32 22 4 C20.68 4 19.36 4 18 4 C18 4.66 18 5.32 18 6 C17.34 6 16.68 6 16 6 C16 7.32 16 8.64 16 10 C16.66 10 17.32 10 18 10 C18 11.98 18 13.96 18 16 C17.34 16 16.68 16 16 16 C16 17.32 16 18.64 16 20 C14.02 20 12.04 20 10 20 C10 18.68 10 17.36 10 16 C9.34 16 8.68 16 8 16 C8 15.34 8 14.68 8 14 C7.34 14 6.68 14 6 14 C6 13.34 6 12.68 6 12 C4.68 12 3.36 12 2 12 C2 12.66 2 13.32 2 14 C1.34 14 0.68 14 0 14 C0 9.38 0 4.76 0 0 Z " fill="#86AEAE" transform="translate(10,10)"/>
<path d="M0 0 C1.32 0 2.64 0 4 0 C4 9.24 4 18.48 4 28 C3.34 28 2.68 28 2 28 C2 31.3 2 34.6 2 38 C0.35 38 -1.3 38 -3 38 C-2.34 38.99 -1.68 39.98 -1 41 C-0.67 41 -0.34 41 0 41 C0 43.31 0 45.62 0 48 C0.66 48 1.32 48 2 48 C2 50.64 2 53.28 2 56 C1.34 56 0.68 56 0 56 C0 57.32 0 58.64 0 60 C0.66 60 1.32 60 2 60 C2 63.3 2 66.6 2 70 C1.34 70 0.68 70 0 70 C0 71.98 0 73.96 0 76 C-0.99 76.495 -0.99 76.495 -2 77 C-2 77.99 -2 78.98 -2 80 C-2.66 80 -3.32 80 -4 80 C-4 65.48 -4 50.96 -4 36 C-3.34 36 -2.68 36 -2 36 C-2 34.02 -2 32.04 -2 30 C-2.66 30 -3.32 30 -4 30 C-4 22.74 -4 15.48 -4 8 C-3.34 8 -2.68 8 -2 8 C-2 7.34 -2 6.68 -2 6 C-2.66 6 -3.32 6 -4 6 C-4 5.34 -4 4.68 -4 4 C-5.32 4 -6.64 4 -8 4 C-8 4.66 -8 5.32 -8 6 C-8.66 6 -9.32 6 -10 6 C-10 4.68 -10 3.36 -10 2 C-6.7 2 -3.4 2 0 2 C0 1.34 0 0.68 0 0 Z " fill="#DCCA7C" transform="translate(76,0)"/>
<path d="M0 0 C4.62 0 9.24 0 14 0 C14 0.66 14 1.32 14 2 C18.62 2 23.24 2 28 2 C28 2.66 28 3.32 28 4 C26.68 4 25.36 4 24 4 C24 4.66 24 5.32 24 6 C25.98 6 27.96 6 30 6 C30 6.66 30 7.32 30 8 C28.68 8 27.36 8 26 8 C26 8.66 26 9.32 26 10 C25.34 10 24.68 10 24 10 C24 10.66 24 11.32 24 12 C25.32 12 26.64 12 28 12 C28 12.66 28 13.32 28 14 C26.68 14 25.36 14 24 14 C24 14.66 24 15.32 24 16 C23.34 16 22.68 16 22 16 C22 16.66 22 17.32 22 18 C22.66 18 23.32 18 24 18 C24 20.64 24 23.28 24 26 C24.66 26 25.32 26 26 26 C26 25.34 26 24.68 26 24 C27.32 24 28.64 24 30 24 C30 24.66 30 25.32 30 26 C29.34 26 28.68 26 28 26 C28 26.66 28 27.32 28 28 C27.34 28 26.68 28 26 28 C26 28.66 26 29.32 26 30 C25.34 30 24.68 30 24 30 C24 30.66 24 31.32 24 32 C22.68 32 21.36 32 20 32 C20 32.66 20 33.32 20 34 C19.34 34 18.68 34 18 34 C18 34.66 18 35.32 18 36 C17.34 36 16.68 36 16 36 C16 34.68 16 33.36 16 32 C16.66 32 17.32 32 18 32 C18 30.68 18 29.36 18 28 C18.66 28 19.32 28 20 28 C20 27.34 20 26.68 20 26 C20.66 26 21.32 26 22 26 C22 24.02 22 22.04 22 20 C21.34 20 20.68 20 20 20 C20 19.34 20 18.68 20 18 C18.68 18 17.36 18 16 18 C16 18.66 16 19.32 16 20 C15.34 20 14.68 20 14 20 C13.505 17.525 13.505 17.525 13 15 C10.69 14.67 8.38 14.34 6 14 C6 13.34 6 12.68 6 12 C8.64 12 11.28 12 14 12 C14 12.66 14 13.32 14 14 C14.66 14 15.32 14 16 14 C16 14.66 16 15.32 16 16 C17.32 16 18.64 16 20 16 C20 14.68 20 13.36 20 12 C19.34 12 18.68 12 18 12 C18 11.34 18 10.68 18 10 C17.34 10 16.68 10 16 10 C16 9.34 16 8.68 16 8 C10.72 8 5.44 8 0 8 C0 8.66 0 9.32 0 10 C-0.66 10 -1.32 10 -2 10 C-2 10.66 -2 11.32 -2 12 C-0.02 12 1.96 12 4 12 C4 12.66 4 13.32 4 14 C1.36 14 -1.28 14 -4 14 C-4 12.02 -4 10.04 -4 8 C-4.66 8 -5.32 8 -6 8 C-6 6.68 -6 5.36 -6 4 C-5.34 4 -4.68 4 -4 4 C-4 3.34 -4 2.68 -4 2 C-2.68 2 -1.36 2 0 2 C0 1.34 0 0.68 0 0 Z " fill="#0F2829" transform="translate(32,12)"/>
<path d="M0 0 C0.66 0 1.32 0 2 0 C2 1.98 2 3.96 2 6 C2.66 6 3.32 6 4 6 C4 6.66 4 7.32 4 8 C4.66 8 5.32 8 6 8 C6 9.65 6 11.3 6 13 C6.66 13.33 7.32 13.66 8 14 C7.34 14 6.68 14 6 14 C6 14.66 6 15.32 6 16 C6.66 16.33 7.32 16.66 8 17 C8 17.99 8 18.98 8 20 C6.68 20 5.36 20 4 20 C4 20.66 4 21.32 4 22 C4.66 22 5.32 22 6 22 C6 24.64 6 27.28 6 30 C5.34 30 4.68 30 4 30 C4 32.64 4 35.28 4 38 C5.98567708 37.96744792 7.97135417 37.93489583 9.95703125 37.90234375 C12 38 12 38 15 39 C15 38.01 15 37.02 15 36 C16.65 36 18.3 36 20 36 C20 35.01 20 34.02 20 33 C20.66 33 21.32 33 22 33 C22 33.99 22 34.98 22 36 C24.64 36 27.28 36 30 36 C30 36.66 30 37.32 30 38 C32.64 38 35.28 38 38 38 C38 38.66 38 39.32 38 40 C32.927993 40.04942365 27.85612606 40.08573068 22.78393555 40.10986328 C21.05832477 40.11992326 19.33273105 40.13357276 17.60717773 40.15087891 C15.1273986 40.17512754 12.64784477 40.18648301 10.16796875 40.1953125 C9.39599655 40.20563507 8.62402435 40.21595764 7.82865906 40.22659302 C4.00718524 40.22739422 2.25863893 40.17242595 -1 38 C-4.2256414 31.44345151 -4.37217373 25.71648109 -4.1875 18.5 C-4.17396484 17.48679687 -4.16042969 16.47359375 -4.14648438 15.4296875 C-4.11143063 12.95255596 -4.06229764 10.47657073 -4 8 C-3.34 8 -2.68 8 -2 8 C-2 6.68 -2 5.36 -2 4 C-1.34 4 -0.68 4 0 4 C0 2.68 0 1.36 0 0 Z " fill="#2D4241" transform="translate(14,68)"/>
<path d="M0 0 C3.3 0 6.6 0 10 0 C10 1.32 10 2.64 10 4 C9.34 4 8.68 4 8 4 C8 3.34 8 2.68 8 2 C6.68 2 5.36 2 4 2 C4 2.66 4 3.32 4 4 C3.34 4 2.68 4 2 4 C2 4.66 2 5.32 2 6 C2.66 6 3.32 6 4 6 C4 29.76 4 53.52 4 78 C3.34 77.67 2.68 77.34 2 77 C2 76.01 2 75.02 2 74 C1.01 74.495 1.01 74.495 0 75 C-1.33257403 60.21867882 -1.33257403 60.21867882 0 54 C-0.66 54 -1.32 54 -2 54 C-2 51.36 -2 48.72 -2 46 C-2.66 46 -3.32 46 -4 46 C-4 44.02 -4 42.04 -4 40 C-3.34 40 -2.68 40 -2 40 C-2 36.7 -2 33.4 -2 30 C-1.34 30 -0.68 30 0 30 C0 29.34 0 28.68 0 28 C0.66 28 1.32 28 2 28 C2 27.34 2 26.68 2 26 C1.34 26 0.68 26 0 26 C0 24.02 0 22.04 0 20 C-0.66 20 -1.32 20 -2 20 C-2 16.7 -2 13.4 -2 10 C-1.34 10 -0.68 10 0 10 C0 8.68 0 7.36 0 6 C-0.66 6 -1.32 6 -2 6 C-2 4.68 -2 3.36 -2 2 C-1.34 2 -0.68 2 0 2 C0 1.34 0 0.68 0 0 Z " fill="#C3B368" transform="translate(4,2)"/>
<path d="M0 0 C1.98 0 3.96 0 6 0 C6 0.66 6 1.32 6 2 C7.98 2 9.96 2 12 2 C12 3.32 12 4.64 12 6 C12.66 6 13.32 6 14 6 C14 6.66 14 7.32 14 8 C14.66 8 15.32 8 16 8 C16 7.34 16 6.68 16 6 C16.66 6 17.32 6 18 6 C18 5.34 18 4.68 18 4 C18.66 4 19.32 4 20 4 C20 5.32 20 6.64 20 8 C19.34 8 18.68 8 18 8 C18 8.66 18 9.32 18 10 C19.98 10 21.96 10 24 10 C24 10.66 24 11.32 24 12 C22.02 12 20.04 12 18 12 C18 12.66 18 13.32 18 14 C19.32 14 20.64 14 22 14 C22 14.66 22 15.32 22 16 C20.02 16 18.04 16 16 16 C16 15.34 16 14.68 16 14 C14.02 14 12.04 14 10 14 C10 13.34 10 12.68 10 12 C8.68 12 7.36 12 6 12 C6 12.66 6 13.32 6 14 C6.66 14 7.32 14 8 14 C8 14.66 8 15.32 8 16 C7.34 16 6.68 16 6 16 C6 16.66 6 17.32 6 18 C5.34 18 4.68 18 4 18 C4 18.66 4 19.32 4 20 C1.36 20 -1.28 20 -4 20 C-4 17.36 -4 14.72 -4 12 C-3.34 12 -2.68 12 -2 12 C-2 9.36 -2 6.72 -2 4 C-2.66 4 -3.32 4 -4 4 C-4 3.34 -4 2.68 -4 2 C-2.68 2 -1.36 2 0 2 C0 1.34 0 0.68 0 0 Z " fill="#92E6EA" transform="translate(22,86)"/>
<path d="M0 0 C5.28 0 10.56 0 16 0 C16 0.66 16 1.32 16 2 C18.64 2 21.28 2 24 2 C24 1.34 24 0.68 24 0 C29.28 0 34.56 0 40 0 C40 0.66 40 1.32 40 2 C40.66 2 41.32 2 42 2 C42 3.32 42 4.64 42 6 C40.02 6 38.04 6 36 6 C36 6.66 36 7.32 36 8 C25.44 8 14.88 8 4 8 C4 7.34 4 6.68 4 6 C2.02 6 0.04 6 -2 6 C-2 4.68 -2 3.36 -2 2 C-1.34 2 -0.68 2 0 2 C0 1.34 0 0.68 0 0 Z " fill="#E8CC7A" transform="translate(20,112)"/>
<path d="M0 0 C0.66 0 1.32 0 2 0 C2 26.4 2 52.8 2 80 C1.34 80 0.68 80 0 80 C0 76.04 0 72.08 0 68 C-0.66 68 -1.32 68 -2 68 C-2 65.36 -2 62.72 -2 60 C-2.66 60 -3.32 60 -4 60 C-4 59.34 -4 58.68 -4 58 C-4.66 58 -5.32 58 -6 58 C-6.17942163 54.05272412 -6.09350689 51.4019487 -4 48 C-3.34 48 -2.68 48 -2 48 C-2 46.02 -2 44.04 -2 42 C-1.34 42 -0.68 42 0 42 C0 38.7 0 35.4 0 32 C-0.66 32 -1.32 32 -2 32 C-2 30.68 -2 29.36 -2 28 C-1.34 28 -0.68 28 0 28 C0 25.36 0 22.72 0 20 C-0.66 20 -1.32 20 -2 20 C-2.12375 19.030625 -2.2475 18.06125 -2.375 17.0625 C-2.58125 16.051875 -2.7875 15.04125 -3 14 C-3.66 13.67 -4.32 13.34 -5 13 C-5 12.01 -5 11.02 -5 10 C-3.35 10 -1.7 10 0 10 C0 6.7 0 3.4 0 0 Z " fill="#CCB468" transform="translate(78,28)"/>
<path d="M0 0 C0.66 0 1.32 0 2 0 C2 1.98 2 3.96 2 6 C2.66 6 3.32 6 4 6 C4 7.32 4 8.64 4 10 C3.34 10 2.68 10 2 10 C2 10.66 2 11.32 2 12 C1.34 12 0.68 12 0 12 C0 12.66 0 13.32 0 14 C-0.66 14 -1.32 14 -2 14 C-2 14.66 -2 15.32 -2 16 C-3.32 16 -4.64 16 -6 16 C-6 16.66 -6 17.32 -6 18 C-7.32 18 -8.64 18 -10 18 C-10 18.66 -10 19.32 -10 20 C-11.98 20 -13.96 20 -16 20 C-16 19.34 -16 18.68 -16 18 C-17.32 18 -18.64 18 -20 18 C-20 16.68 -20 15.36 -20 14 C-20.66 14 -21.32 14 -22 14 C-22 12.68 -22 11.36 -22 10 C-21.34 10 -20.68 10 -20 10 C-20 9.34 -20 8.68 -20 8 C-19.34 8 -18.68 8 -18 8 C-18 7.34 -18 6.68 -18 6 C-12.06 6 -6.12 6 0 6 C0 4.02 0 2.04 0 0 Z " fill="#A7EDF1" transform="translate(48,48)"/>
<path d="M0 0 C1.79244141 0.01740234 1.79244141 0.01740234 3.62109375 0.03515625 C5.41740234 0.04869141 5.41740234 0.04869141 7.25 0.0625 C8.17683594 0.07410156 9.10367187 0.08570313 10.05859375 0.09765625 C10.05859375 0.75765625 10.05859375 1.41765625 10.05859375 2.09765625 C10.71859375 2.09765625 11.37859375 2.09765625 12.05859375 2.09765625 C12.05859375 2.75765625 12.05859375 3.41765625 12.05859375 4.09765625 C12.71859375 4.42765625 13.37859375 4.75765625 14.05859375 5.09765625 C13.39859375 5.09765625 12.73859375 5.09765625 12.05859375 5.09765625 C12.05859375 6.41765625 12.05859375 7.73765625 12.05859375 9.09765625 C12.71859375 9.09765625 13.37859375 9.09765625 14.05859375 9.09765625 C14.05859375 11.07765625 14.05859375 13.05765625 14.05859375 15.09765625 C13.39859375 15.09765625 12.73859375 15.09765625 12.05859375 15.09765625 C12.05859375 16.41765625 12.05859375 17.73765625 12.05859375 19.09765625 C10.07859375 19.09765625 8.09859375 19.09765625 6.05859375 19.09765625 C6.05859375 17.77765625 6.05859375 16.45765625 6.05859375 15.09765625 C5.39859375 15.09765625 4.73859375 15.09765625 4.05859375 15.09765625 C4.05859375 14.43765625 4.05859375 13.77765625 4.05859375 13.09765625 C3.39859375 13.09765625 2.73859375 13.09765625 2.05859375 13.09765625 C2.05859375 12.43765625 2.05859375 11.77765625 2.05859375 11.09765625 C0.73859375 11.09765625 -0.58140625 11.09765625 -1.94140625 11.09765625 C-1.94140625 11.75765625 -1.94140625 12.41765625 -1.94140625 13.09765625 C-2.60140625 13.09765625 -3.26140625 13.09765625 -3.94140625 13.09765625 C-3.96827178 11.11856227 -3.98774 9.13936654 -4.00390625 7.16015625 C-4.01550781 6.05800781 -4.02710938 4.95585937 -4.0390625 3.8203125 C-3.90306016 0.02856713 -3.81984841 0.126821 0 0 Z " fill="#78B4BC" transform="translate(13.94140625,10.90234375)"/>
<path d="M0 0 C6.6 0 13.2 0 20 0 C20 0.66 20 1.32 20 2 C16.7 2 13.4 2 10 2 C10 3.32 10 4.64 10 6 C10.66 6 11.32 6 12 6 C12 5.34 12 4.68 12 4 C13.32 4 14.64 4 16 4 C16 4.66 16 5.32 16 6 C16.66 6 17.32 6 18 6 C18 6.66 18 7.32 18 8 C17.34 8 16.68 8 16 8 C16 15.26 16 22.52 16 30 C16.66 30 17.32 30 18 30 C18 31.98 18 33.96 18 36 C17.34 36 16.68 36 16 36 C16.00785522 37.54324951 16.00785522 37.54324951 16.01586914 39.11767578 C16.03403812 42.95311607 16.04547535 46.78855259 16.05493164 50.62402344 C16.05994473 52.28060548 16.06675689 53.93718313 16.07543945 55.59375 C16.08763793 57.98178189 16.09325867 60.36975502 16.09765625 62.7578125 C16.10281754 63.49242706 16.10797882 64.22704163 16.11329651 64.98391724 C16.11374023 69.09778822 15.80210299 72.96450609 15 77 C14.67 77 14.34 77 14 77 C14 75.02 14 73.04 14 71 C12.515 70.505 12.515 70.505 11 70 C11.99 70 12.98 70 14 70 C14 69.34 14 68.68 14 68 C12.68 67.67 11.36 67.34 10 67 C11.32 67 12.64 67 14 67 C13.99214478 65.3771106 13.99214478 65.3771106 13.98413086 63.72143555 C13.96567747 59.60800036 13.9544248 55.49456859 13.94506836 51.38110352 C13.94011835 49.61937846 13.93335665 47.85765732 13.92456055 46.09594727 C13.86426687 33.68609065 14.25109755 21.38932327 15 9 C7.08 9 -0.84 9 -9 9 C-9 8.67 -9 8.34 -9 8 C-4.05 8 0.9 8 6 8 C6 6.02 6 4.04 6 2 C4.02 2 2.04 2 0 2 C0 1.34 0 0.68 0 0 Z " fill="#1D270C" transform="translate(56,0)"/>
<path d="M0 0 C0.66 0 1.32 0 2 0 C2 2.64 2 5.28 2 8 C2.66 8 3.32 8 4 8 C3.98839844 8.60585938 3.97679687 9.21171875 3.96484375 9.8359375 C3.89890039 15.95924948 4.27568567 21.92093331 5 28 C5.66 27.67 6.32 27.34 7 27 C7.33 30.63 7.66 34.26 8 38 C7.34 38 6.68 38 6 38 C6 38.66 6 39.32 6 40 C5.34 40 4.68 40 4 40 C4 42.64 4 45.28 4 48 C3.34 48 2.68 48 2 48 C2 51.96 2 55.92 2 60 C1.34 60 0.68 60 0 60 C0 40.2 0 20.4 0 0 Z " fill="#CDB56B" transform="translate(0,48)"/>
<path d="M0 0 C1.98 0 3.96 0 6 0 C6 0.66 6 1.32 6 2 C6.66 2 7.32 2 8 2 C8 2.66 8 3.32 8 4 C8.66 4 9.32 4 10 4 C10 5.32 10 6.64 10 8 C11.32 8 12.64 8 14 8 C14 8.66 14 9.32 14 10 C14.66 10 15.32 10 16 10 C16 10.66 16 11.32 16 12 C17.32 12 18.64 12 20 12 C20 14.64 20 17.28 20 20 C19.34 20 18.68 20 18 20 C18 18.68 18 17.36 18 16 C16.68 16 15.36 16 14 16 C14 15.34 14 14.68 14 14 C11.36 14 8.72 14 6 14 C6 14.66 6 15.32 6 16 C4.02 16 2.04 16 0 16 C0 16.66 0 17.32 0 18 C-1.32 18 -2.64 18 -4 18 C-4 17.34 -4 16.68 -4 16 C-3.34 16 -2.68 16 -2 16 C-2 15.34 -2 14.68 -2 14 C-1.34 14 -0.68 14 0 14 C0 13.34 0 12.68 0 12 C0.66 12 1.32 12 2 12 C2 10.68 2 9.36 2 8 C1.34 8 0.68 8 0 8 C0 5.36 0 2.72 0 0 Z " fill="#2C4D4F" transform="translate(50,46)"/>
<path d="M0 0 C0.66 0 1.32 0 2 0 C1.67 2.64 1.34 5.28 1 8 C1.66 8 2.32 8 3 8 C2.34 9.65 1.68 11.3 1 13 C-1.97 13 -4.94 13 -8 13 C-8 13.99 -8 14.98 -8 16 C-9.32 16 -10.64 16 -12 16 C-12 15.34 -12 14.68 -12 14 C-14.64 14 -17.28 14 -20 14 C-20 13.34 -20 12.68 -20 12 C-22.64 12 -25.28 12 -28 12 C-28 11.01 -28 10.02 -28 9 C-28.66 9 -29.32 9 -30 9 C-30 9.99 -30 10.98 -30 12 C-31.65 12 -33.3 12 -35 12 C-35 12.99 -35 13.98 -35 15 C-35.99 15 -36.98 15 -38 15 C-38 14.01 -38 13.02 -38 12 C-37.34 12 -36.68 12 -36 12 C-36 11.34 -36 10.68 -36 10 C-35.34 10 -34.68 10 -34 10 C-34 9.34 -34 8.68 -34 8 C-34.66 8 -35.32 8 -36 8 C-36 7.34 -36 6.68 -36 6 C-34.68 6 -33.36 6 -32 6 C-32 6.66 -32 7.32 -32 8 C-30.02 8 -28.04 8 -26 8 C-26 8.66 -26 9.32 -26 10 C-24.02 10 -22.04 10 -20 10 C-20 9.34 -20 8.68 -20 8 C-21.32 8 -22.64 8 -24 8 C-24 7.34 -24 6.68 -24 6 C-18.25 6.75 -18.25 6.75 -16 9 C-16 9.66 -16 10.32 -16 11 C-13.36 11.33 -10.72 11.66 -8 12 C-8 11.34 -8 10.68 -8 10 C-7.34 10 -6.68 10 -6 10 C-6 8.68 -6 7.36 -6 6 C-5.34 6 -4.68 6 -4 6 C-4 5.34 -4 4.68 -4 4 C-3.34 4 -2.68 4 -2 4 C-2 3.34 -2 2.68 -2 2 C-1.34 2 -0.68 2 0 2 C0 1.34 0 0.68 0 0 Z " fill="#182326" transform="translate(64,92)"/>
<path d="M0 0 C0.33 1.32 0.66 2.64 1 4 C2.32 4 3.64 4 5 4 C5 4.66 5 5.32 5 6 C5.66 6 6.32 6 7 6 C8.26237731 8.52475462 8.09856404 10.31200466 8.0625 13.125 C8.05347656 14.03507812 8.04445313 14.94515625 8.03515625 15.8828125 C8.02355469 16.58148438 8.01195312 17.28015625 8 18 C10.97851562 17.95117188 10.97851562 17.95117188 13.95703125 17.90234375 C16 18 16 18 19 19 C19 18.01 19 17.02 19 16 C20.65 16 22.3 16 24 16 C24 15.01 24 14.02 24 13 C24.66 13 25.32 13 26 13 C26 13.99 26 14.98 26 16 C28.64 16 31.28 16 34 16 C34 16.66 34 17.32 34 18 C36.64 18 39.28 18 42 18 C42 18.66 42 19.32 42 20 C36.927993 20.04942365 31.85612606 20.08573068 26.78393555 20.10986328 C25.05832477 20.11992326 23.33273105 20.13357276 21.60717773 20.15087891 C19.1273986 20.17512754 16.64784477 20.18648301 14.16796875 20.1953125 C13.39599655 20.20563507 12.62402435 20.21595764 11.82865906 20.22659302 C8.00718524 20.22739422 6.25863893 20.17242595 3 18 C0.03732852 11.85519989 -0.3740628 6.76083868 0 0 Z " fill="#192E27" transform="translate(10,88)"/>
<path d="M0 0 C3.3 0 6.6 0 10 0 C10 1.32 10 2.64 10 4 C9.34 4 8.68 4 8 4 C8 3.34 8 2.68 8 2 C6.68 2 5.36 2 4 2 C4 2.66 4 3.32 4 4 C3.34 4 2.68 4 2 4 C2 4.66 2 5.32 2 6 C2.66 6 3.32 6 4 6 C4.04946866 10.07507572 4.08575189 14.15003497 4.10986328 18.2253418 C4.1199157 19.61144048 4.1335597 20.99751799 4.15087891 22.38354492 C4.17515952 24.3766975 4.18542031 26.37000533 4.1953125 28.36328125 C4.20578613 29.56251221 4.21625977 30.76174316 4.22705078 31.99731445 C4 35 4 35 2 38 C1.34 38 0.68 38 0 38 C0 37.34 0 36.68 0 36 C-0.66 36 -1.32 36 -2 36 C-2 34.02 -2 32.04 -2 30 C-1.34 30 -0.68 30 0 30 C0 29.34 0 28.68 0 28 C0.66 28 1.32 28 2 28 C2 27.34 2 26.68 2 26 C1.34 26 0.68 26 0 26 C0 24.02 0 22.04 0 20 C-0.66 20 -1.32 20 -2 20 C-2 16.7 -2 13.4 -2 10 C-1.34 10 -0.68 10 0 10 C0 8.68 0 7.36 0 6 C-0.66 6 -1.32 6 -2 6 C-2 4.68 -2 3.36 -2 2 C-1.34 2 -0.68 2 0 2 C0 1.34 0 0.68 0 0 Z " fill="#E2CB82" transform="translate(4,2)"/>
<path d="M0 0 C0.66 0 1.32 0 2 0 C2 0.66 2 1.32 2 2 C2.66 2 3.32 2 4 2 C4 4.64 4 7.28 4 10 C4.66 10 5.32 10 6 10 C6 13.96 6 17.92 6 22 C6.66 22 7.32 22 8 22 C8 23.32 8 24.64 8 26 C7.34 26 6.68 26 6 26 C6 27.32 6 28.64 6 30 C5.34 30 4.68 30 4 30 C4 30.66 4 31.32 4 32 C0.7 32 -2.6 32 -6 32 C-6 30.68 -6 29.36 -6 28 C-5.34 28 -4.68 28 -4 28 C-4 28.66 -4 29.32 -4 30 C-2.68 30 -1.36 30 0 30 C0 29.34 0 28.68 0 28 C0.66 28 1.32 28 2 28 C2 27.34 2 26.68 2 26 C-0.64 25.67 -3.28 25.34 -6 25 C-6 24.67 -6 24.34 -6 24 C-4.02 24 -2.04 24 0 24 C0 16.08 0 8.16 0 0 Z " fill="#E2CB7C" transform="translate(72,86)"/>
<path d="M0 0 C2.31 0 4.62 0 7 0 C7 7.26 7 14.52 7 22 C2.38 22 -2.24 22 -7 22 C-7 21.34 -7 20.68 -7 20 C-7.66 20 -8.32 20 -9 20 C-9 19.34 -9 18.68 -9 18 C-8.34 18 -7.68 18 -7 18 C-7 17.34 -7 16.68 -7 16 C-5.02 16 -3.04 16 -1 16 C-1 14.68 -1 13.36 -1 12 C-1.66 11.67 -2.32 11.34 -3 11 C-1.68 11 -0.36 11 1 11 C1 9.35 1 7.7 1 6 C0.34 6 -0.32 6 -1 6 C-1 5.34 -1 4.68 -1 4 C0.32 4 1.64 4 3 4 C3 4.66 3 5.32 3 6 C3.66 6 4.32 6 5 6 C5 4.35 5 2.7 5 1 C3.35 1.33 1.7 1.66 0 2 C0 1.34 0 0.68 0 0 Z " fill="#8ECACF" transform="translate(63,10)"/>
<path d="M0 0 C0.99 0 1.98 0 3 0 C3.02683987 2.97922593 3.04676037 5.95821295 3.0625 8.9375 C3.07087891 9.78763672 3.07925781 10.63777344 3.08789062 11.51367188 C3.09111328 12.32255859 3.09433594 13.13144531 3.09765625 13.96484375 C3.10289307 14.7137085 3.10812988 15.46257324 3.11352539 16.23413086 C3 18 3 18 2 19 C0.31198015 19.09353163 -1.37995207 19.11744791 -3.07055664 19.11352539 C-4.15160172 19.11344986 -5.23264679 19.11337433 -6.34645081 19.11329651 C-8.110485 19.10555458 -8.110485 19.10555458 -9.91015625 19.09765625 C-11.10732773 19.0962413 -12.30449921 19.09482635 -13.53794861 19.09336853 C-17.37949066 19.08774979 -21.22097543 19.07519411 -25.0625 19.0625 C-27.65950437 19.05748741 -30.25650965 19.05292409 -32.85351562 19.04882812 C-39.23569679 19.03777427 -45.6178443 19.02101792 -52 19 C-52 18.67 -52 18.34 -52 18 C-38.8 18 -25.6 18 -12 18 C-12 17.01 -12 16.02 -12 15 C-11.37351563 14.97421875 -10.74703125 14.9484375 -10.1015625 14.921875 C-9.28429688 14.86515625 -8.46703125 14.8084375 -7.625 14.75 C-6.81289063 14.70359375 -6.00078125 14.6571875 -5.1640625 14.609375 C-2.81161073 14.2077908 -2.81161073 14.2077908 -1.7109375 11.953125 C-1.47632813 11.30859375 -1.24171875 10.6640625 -1 10 C-1.66 10 -2.32 10 -3 10 C-2.67 7.36 -2.34 4.72 -2 2 C-1.34 2 -0.68 2 0 2 C0 1.34 0 0.68 0 0 Z " fill="#182317" transform="translate(68,90)"/>
<path d="M0 0 C1.32 0 2.64 0 4 0 C4 0.66 4 1.32 4 2 C4.66 2 5.32 2 6 2 C6 3.98 6 5.96 6 8 C5.34 8 4.68 8 4 8 C4 8.66 4 9.32 4 10 C3.34 10 2.68 10 2 10 C2 11.32 2 12.64 2 14 C1.34 14 0.68 14 0 14 C0 15.32 0 16.64 0 18 C-0.66 18 -1.32 18 -2 18 C-2 19.32 -2 20.64 -2 22 C-6.62 22 -11.24 22 -16 22 C-16 20.02 -16 18.04 -16 16 C-16.66 16 -17.32 16 -18 16 C-18 15.34 -18 14.68 -18 14 C-19.32 14 -20.64 14 -22 14 C-22 13.34 -22 12.68 -22 12 C-20.02 12 -18.04 12 -16 12 C-16 12.66 -16 13.32 -16 14 C-15.34 14 -14.68 14 -14 14 C-14 15.98 -14 17.96 -14 20 C-11.36 20 -8.72 20 -6 20 C-6 18.02 -6 16.04 -6 14 C-5.34 14 -4.68 14 -4 14 C-4 12.68 -4 11.36 -4 10 C-3.34 10 -2.68 10 -2 10 C-2 9.34 -2 8.68 -2 8 C-1.34 8 -0.68 8 0 8 C0 6.68 0 5.36 0 4 C-0.66 4 -1.32 4 -2 4 C-2 3.34 -2 2.68 -2 2 C-1.34 2 -0.68 2 0 2 C0 1.34 0 0.68 0 0 Z " fill="#B2EEEF" transform="translate(48,30)"/>
<path d="M0 0 C7.92 0 15.84 0 24 0 C24 0.66 24 1.32 24 2 C22.02 2 20.04 2 18 2 C18 2.66 18 3.32 18 4 C16.68 4 15.36 4 14 4 C14 3.34 14 2.68 14 2 C10.7 2 7.4 2 4 2 C4 2.66 4 3.32 4 4 C3.34 4 2.68 4 2 4 C2 5.32 2 6.64 2 8 C2.66 8 3.32 8 4 8 C4 9.32 4 10.64 4 12 C3.34 12 2.68 12 2 12 C2 15.3 2 18.6 2 22 C2.66 22 3.32 22 4 22 C4 23.98 4 25.96 4 28 C4.66 28 5.32 28 6 28 C6 28.66 6 29.32 6 30 C5.34 30 4.68 30 4 30 C4 30.66 4 31.32 4 32 C3.34 32 2.68 32 2 32 C2 35.3 2 38.6 2 42 C1.34 42 0.68 42 0 42 C0 28.14 0 14.28 0 0 Z " fill="#524643" transform="translate(0,0)"/>
<path d="M0 0 C3.96 0 7.92 0 12 0 C12 0.66 12 1.32 12 2 C10.68 2 9.36 2 8 2 C8 2.66 8 3.32 8 4 C9.32 4 10.64 4 12 4 C12 5.32 12 6.64 12 8 C2.1 8 -7.8 8 -18 8 C-18 7.34 -18 6.68 -18 6 C-17.34 6 -16.68 6 -16 6 C-16 5.34 -16 4.68 -16 4 C-14.68 4 -13.36 4 -12 4 C-12 4.66 -12 5.32 -12 6 C-11.34 6 -10.68 6 -10 6 C-10 5.34 -10 4.68 -10 4 C-8.68 4 -7.36 4 -6 4 C-6 3.34 -6 2.68 -6 2 C-4.02 2 -2.04 2 0 2 C0 1.34 0 0.68 0 0 Z " fill="#DAC17A" transform="translate(24,0)"/>
<path d="M0 0 C1.32 0 2.64 0 4 0 C4 7.26 4 14.52 4 22 C3.34 22 2.68 22 2 22 C2 19.36 2 16.72 2 14 C1.01 14.33 0.02 14.66 -1 15 C-1.33 15.99 -1.66 16.98 -2 18 C-2.66 18 -3.32 18 -4 18 C-4 14.7 -4 11.4 -4 8 C-3.34 8 -2.68 8 -2 8 C-2 7.34 -2 6.68 -2 6 C-2.66 6 -3.32 6 -4 6 C-4 5.34 -4 4.68 -4 4 C-5.32 4 -6.64 4 -8 4 C-8 4.66 -8 5.32 -8 6 C-8.66 6 -9.32 6 -10 6 C-10 4.68 -10 3.36 -10 2 C-6.7 2 -3.4 2 0 2 C0 1.34 0 0.68 0 0 Z " fill="#736641" transform="translate(76,0)"/>
<path d="M0 0 C5.28 0 10.56 0 16 0 C16 0.66 16 1.32 16 2 C16.66 2 17.32 2 18 2 C18 3.32 18 4.64 18 6 C16.02 6 14.04 6 12 6 C12 6.66 12 7.32 12 8 C8.04 8 4.08 8 0 8 C0 7.34 0 6.68 0 6 C1.32 6 2.64 6 4 6 C4 5.34 4 4.68 4 4 C-0.62 4 -5.24 4 -10 4 C-10 3.34 -10 2.68 -10 2 C-6.7 2 -3.4 2 0 2 C0 1.34 0 0.68 0 0 Z " fill="#F4D582" transform="translate(44,112)"/>
<path d="M0 0 C2.64 0 5.28 0 8 0 C8 0.66 8 1.32 8 2 C8.66 2 9.32 2 10 2 C10 2.66 10 3.32 10 4 C11.98 4 13.96 4 16 4 C16 4.66 16 5.32 16 6 C16.66 6 17.32 6 18 6 C18 8.64 18 11.28 18 14 C18.66 14 19.32 14 20 14 C20 13.34 20 12.68 20 12 C21.32 12 22.64 12 24 12 C24 12.66 24 13.32 24 14 C23.34 14 22.68 14 22 14 C22 14.66 22 15.32 22 16 C21.34 16 20.68 16 20 16 C20 16.66 20 17.32 20 18 C19.34 18 18.68 18 18 18 C18 18.66 18 19.32 18 20 C16.68 20 15.36 20 14 20 C14 20.66 14 21.32 14 22 C13.34 22 12.68 22 12 22 C12 22.66 12 23.32 12 24 C11.34 24 10.68 24 10 24 C10 22.68 10 21.36 10 20 C10.66 20 11.32 20 12 20 C12 18.68 12 17.36 12 16 C12.66 16 13.32 16 14 16 C14 15.34 14 14.68 14 14 C14.66 14 15.32 14 16 14 C16 12.02 16 10.04 16 8 C15.34 8 14.68 8 14 8 C14 7.34 14 6.68 14 6 C12.68 6 11.36 6 10 6 C10 6.66 10 7.32 10 8 C9.34 8 8.68 8 8 8 C7.67 6.35 7.34 4.7 7 3 C4.69 2.67 2.38 2.34 0 2 C0 1.34 0 0.68 0 0 Z " fill="#062C30" transform="translate(38,24)"/>
<path d="M0 0 C0.66 0 1.32 0 2 0 C2 13.86 2 27.72 2 42 C1.34 42 0.68 42 0 42 C0 38.7 0 35.4 0 32 C-0.66 32 -1.32 32 -2 32 C-2 30.68 -2 29.36 -2 28 C-1.34 28 -0.68 28 0 28 C0 25.36 0 22.72 0 20 C-0.66 20 -1.32 20 -2 20 C-2.12375 19.030625 -2.2475 18.06125 -2.375 17.0625 C-2.58125 16.051875 -2.7875 15.04125 -3 14 C-3.66 13.67 -4.32 13.34 -5 13 C-5 12.01 -5 11.02 -5 10 C-3.35 10 -1.7 10 0 10 C0 6.7 0 3.4 0 0 Z " fill="#6B5D47" transform="translate(78,28)"/>
<path d="M0 0 C1.32 0 2.64 0 4 0 C4 0.66 4 1.32 4 2 C4.66 2 5.32 2 6 2 C6 2.66 6 3.32 6 4 C6.66 4 7.32 4 8 4 C8 5.32 8 6.64 8 8 C8.66 8 9.32 8 10 8 C10 8.66 10 9.32 10 10 C9.34 10 8.68 10 8 10 C8 10.66 8 11.32 8 12 C7.34 12 6.68 12 6 12 C6 12.66 6 13.32 6 14 C3.36 14 0.72 14 -2 14 C-2 11.36 -2 8.72 -2 6 C-1.34 6 -0.68 6 0 6 C0 4.02 0 2.04 0 0 Z " fill="#7AACB0" transform="translate(20,92)"/>
<path d="M0 0 C1.32 0 2.64 0 4 0 C4 0.66 4 1.32 4 2 C5.32 2 6.64 2 8 2 C8 2.66 8 3.32 8 4 C7.34 4 6.68 4 6 4 C6 5.32 6 6.64 6 8 C5.34 8 4.68 8 4 8 C4 9.32 4 10.64 4 12 C3.34 12 2.68 12 2 12 C2 13.32 2 14.64 2 16 C1.34 16 0.68 16 0 16 C0 17.32 0 18.64 0 20 C-0.66 20 -1.32 20 -2 20 C-2 14.06 -2 8.12 -2 2 C-1.34 2 -0.68 2 0 2 C0 1.34 0 0.68 0 0 Z " fill="#93BAC2" transform="translate(12,56)"/>
<path d="M0 0 C0.66 0 1.32 0 2 0 C2 1.32 2 2.64 2 4 C2.66 4 3.32 4 4 4 C4 5.32 4 6.64 4 8 C5.32 8 6.64 8 8 8 C8 8.66 8 9.32 8 10 C8.66 10 9.32 10 10 10 C10 10.66 10 11.32 10 12 C8.68 12 7.36 12 6 12 C6 12.66 6 13.32 6 14 C3.36 14 0.72 14 -2 14 C-2 12.68 -2 11.36 -2 10 C-2.66 10 -3.32 10 -4 10 C-4 8.68 -4 7.36 -4 6 C-3.34 6 -2.68 6 -2 6 C-2 4.68 -2 3.36 -2 2 C-1.34 2 -0.68 2 0 2 C0 1.34 0 0.68 0 0 Z " fill="#486B6E" transform="translate(24,58)"/>
<path d="M0 0 C0.99 0 1.98 0 3 0 C3 2.64 3 5.28 3 8 C3.66 8 4.32 8 5 8 C5 9.98 5 11.96 5 14 C4.34 14 3.68 14 3 14 C3 15.32 3 16.64 3 18 C2.34 18 1.68 18 1 18 C1 17.34 1 16.68 1 16 C-0.32 16 -1.64 16 -3 16 C-3 12.04 -3 8.08 -3 4 C-2.34 4 -1.68 4 -1 4 C-0.67 2.68 -0.34 1.36 0 0 Z " fill="#8F8268" transform="translate(75,14)"/>
<path d="M0 0 C0.66 0 1.32 0 2 0 C2 0.66 2 1.32 2 2 C3.98 2 5.96 2 8 2 C8 3.32 8 4.64 8 6 C7.34 6 6.68 6 6 6 C6 6.66 6 7.32 6 8 C-0.6 8 -7.2 8 -14 8 C-14 7.34 -14 6.68 -14 6 C-12.68 6 -11.36 6 -10 6 C-10 5.34 -10 4.68 -10 4 C-7.36 4 -4.72 4 -2 4 C-2 3.34 -2 2.68 -2 2 C-1.34 2 -0.68 2 0 2 C0 1.34 0 0.68 0 0 Z " fill="#B3ECF1" transform="translate(36,32)"/>
<path d="M0 0 C0.33 0.66 0.66 1.32 1 2 C1.66 2.33 2.32 2.66 3 3 C3.33 3.99 3.66 4.98 4 6 C5.93618425 6.67156616 5.93618425 6.67156616 8 7 C8.66 7.33 9.32 7.66 10 8 C10 8.66 10 9.32 10 10 C11.65 10 13.3 10 15 10 C14.67 12.64 14.34 15.28 14 18 C12.68 18 11.36 18 10 18 C10 16.68 10 15.36 10 14 C9.34 14 8.68 14 8 14 C8 13.34 8 12.68 8 12 C7.34 12 6.68 12 6 12 C6 11.34 6 10.68 6 10 C4.68 10 3.36 10 2 10 C2 10.66 2 11.32 2 12 C1.34 12 0.68 12 0 12 C0 8.04 0 4.08 0 0 Z " fill="#8CCACF" transform="translate(10,12)"/>
<path d="M0 0 C0.66 0 1.32 0 2 0 C2 0.99 2 1.98 2 3 C4.64 3 7.28 3 10 3 C10 3.66 10 4.32 10 5 C12.64 5 15.28 5 18 5 C18 5.66 18 6.32 18 7 C7.44 7 -3.12 7 -14 7 C-14 6.34 -14 5.68 -14 5 C-11.03 5.33 -8.06 5.66 -5 6 C-5 5.01 -5 4.02 -5 3 C-3.35 3 -1.7 3 0 3 C0 2.01 0 1.02 0 0 Z " fill="#34494B" transform="translate(34,101)"/>
<path d="M0 0 C0.66 0 1.32 0 2 0 C2 4.62 2 9.24 2 14 C1.34 14 0.68 14 0 14 C0 17.3 0 20.6 0 24 C-0.66 24 -1.32 24 -2 24 C-2 23.34 -2 22.68 -2 22 C-2.66 22 -3.32 22 -4 22 C-4 18.04 -4 14.08 -4 10 C-3.34 10 -2.68 10 -2 10 C-2 7.36 -2 4.72 -2 2 C-1.34 2 -0.68 2 0 2 C0 1.34 0 0.68 0 0 Z " fill="#E2CA7C" transform="translate(6,86)"/>
<path d="M0 0 C5.28 0 10.56 0 16 0 C16 0.66 16 1.32 16 2 C16.66 2 17.32 2 18 2 C18 2.66 18 3.32 18 4 C18.66 4 19.32 4 20 4 C20 5.32 20 6.64 20 8 C18.68 8 17.36 8 16 8 C16 7.34 16 6.68 16 6 C15.34 6 14.68 6 14 6 C14 5.34 14 4.68 14 4 C11.36 4 8.72 4 6 4 C6 4.66 6 5.32 6 6 C5.34 6 4.68 6 4 6 C4 5.34 4 4.68 4 4 C2.02 4 0.04 4 -2 4 C-2 3.34 -2 2.68 -2 2 C-1.34 2 -0.68 2 0 2 C0 1.34 0 0.68 0 0 Z " fill="#B3F0F2" transform="translate(32,20)"/>
<path d="M0 0 C0.66 0 1.32 0 2 0 C2 3.3 2 6.6 2 10 C2.66 10 3.32 10 4 10 C4 9.34 4 8.68 4 8 C5.32 8 6.64 8 8 8 C8 9.32 8 10.64 8 12 C7.34 12 6.68 12 6 12 C6 13.32 6 14.64 6 16 C5.34 16 4.68 16 4 16 C4 16.66 4 17.32 4 18 C0.7 18 -2.6 18 -6 18 C-6 16.68 -6 15.36 -6 14 C-5.34 14 -4.68 14 -4 14 C-4 14.66 -4 15.32 -4 16 C-2.68 16 -1.36 16 0 16 C0 15.34 0 14.68 0 14 C0.66 14 1.32 14 2 14 C2 13.34 2 12.68 2 12 C-0.64 11.67 -3.28 11.34 -6 11 C-6 10.67 -6 10.34 -6 10 C-4.02 10 -2.04 10 0 10 C0 6.7 0 3.4 0 0 Z " fill="#A18B51" transform="translate(72,100)"/>
<path d="M0 0 C2.76276177 0.52268466 5.3260876 1.10869587 8 2 C8 2.66 8 3.32 8 4 C9.32 4 10.64 4 12 4 C12 4.66 12 5.32 12 6 C13.32 6 14.64 6 16 6 C16 5.34 16 4.68 16 4 C16.66 4 17.32 4 18 4 C18 7.3 18 10.6 18 14 C16.68 14 15.36 14 14 14 C14 13.34 14 12.68 14 12 C13.34 12 12.68 12 12 12 C12 11.34 12 10.68 12 10 C10.68 10 9.36 10 8 10 C8 8.68 8 7.36 8 6 C7.34 6 6.68 6 6 6 C6 5.34 6 4.68 6 4 C5.34 4 4.68 4 4 4 C4 3.34 4 2.68 4 2 C2.68 2 1.36 2 0 2 C0 1.34 0 0.68 0 0 Z " fill="#658F95" transform="translate(52,44)"/>
<path d="M0 0 C0.66 0 1.32 0 2 0 C2 1.32 2 2.64 2 4 C2.66 4 3.32 4 4 4 C4 4.66 4 5.32 4 6 C7.3 6 10.6 6 14 6 C14 4.02 14 2.04 14 0 C15.65 0 17.3 0 19 0 C18.67 1.98 18.34 3.96 18 6 C19.98 6 21.96 6 24 6 C24 6.66 24 7.32 24 8 C16.08 8 8.16 8 0 8 C0 5.36 0 2.72 0 0 Z " fill="#80693F" transform="translate(0,112)"/>
<path d="M0 0 C6.6 0 13.2 0 20 0 C20 0.66 20 1.32 20 2 C16.7 2 13.4 2 10 2 C10 3.32 10 4.64 10 6 C10.66 6 11.32 6 12 6 C12 5.34 12 4.68 12 4 C13.32 4 14.64 4 16 4 C16 4.66 16 5.32 16 6 C16.66 6 17.32 6 18 6 C18 6.66 18 7.32 18 8 C14.04 8 10.08 8 6 8 C6 6.02 6 4.04 6 2 C4.02 2 2.04 2 0 2 C0 1.34 0 0.68 0 0 Z " fill="#36302D" transform="translate(56,0)"/>
<path d="M0 0 C2.64 0 5.28 0 8 0 C8 0.66 8 1.32 8 2 C8.99 2 9.98 2 11 2 C10 5 10 5 8 6 C7.34227572 9.02934491 7.34227572 9.02934491 7 12 C6.34 11.67 5.68 11.34 5 11 C5.33 9.02 5.66 7.04 6 5 C4.68 5.33 3.36 5.66 2 6 C2 5.34 2 4.68 2 4 C0.68 4 -0.64 4 -2 4 C-2 4.66 -2 5.32 -2 6 C-2.66 6 -3.32 6 -4 6 C-4 6.66 -4 7.32 -4 8 C-4.99 8 -5.98 8 -7 8 C-6.67 6.02 -6.34 4.04 -6 2 C-4.02 2 -2.04 2 0 2 C0 1.34 0 0.68 0 0 Z " fill="#122524" transform="translate(56,60)"/>
<path d="M0 0 C1.32 0 2.64 0 4 0 C4 0.66 4 1.32 4 2 C5.98 2 7.96 2 10 2 C10 2.66 10 3.32 10 4 C11.98 4 13.96 4 16 4 C16 3.34 16 2.68 16 2 C14.68 2 13.36 2 12 2 C12 1.34 12 0.68 12 0 C17.75 0.75 17.75 0.75 20 3 C20 3.66 20 4.32 20 5 C19.34 5 18.68 5 18 5 C18.33 5.99 18.66 6.98 19 8 C18.01 8 17.02 8 16 8 C16 7.34 16 6.68 16 6 C13.36 6 10.72 6 8 6 C8 5.01 8 4.02 8 3 C7.34 3 6.68 3 6 3 C6 3.99 6 4.98 6 6 C4.35 6 2.7 6 1 6 C1 6.99 1 7.98 1 9 C0.01 9 -0.98 9 -2 9 C-2 8.01 -2 7.02 -2 6 C-1.34 6 -0.68 6 0 6 C0 5.34 0 4.68 0 4 C0.66 4 1.32 4 2 4 C2 3.34 2 2.68 2 2 C1.34 2 0.68 2 0 2 C0 1.34 0 0.68 0 0 Z " fill="#122F33" transform="translate(28,98)"/>
<path d="M0 0 C0.66 0 1.32 0 2 0 C4 2 4 2 4.1953125 4.3828125 C4.17210937 5.28773437 4.14890625 6.19265625 4.125 7.125 C4.10695313 8.03507812 4.08890625 8.94515625 4.0703125 9.8828125 C4.04710937 10.58148438 4.02390625 11.28015625 4 12 C4.66 12 5.32 12 6 12 C6 17.28 6 22.56 6 28 C5.34 27.67 4.68 27.34 4 27 C4 26.01 4 25.02 4 24 C3.34 24.33 2.68 24.66 2 25 C0.66742597 10.21867882 0.66742597 10.21867882 2 4 C1.34 4 0.68 4 0 4 C0 2.68 0 1.36 0 0 Z " fill="#EFE59A" transform="translate(2,52)"/>
<path d="M0 0 C0.66 0 1.32 0 2 0 C2 1.98 2 3.96 2 6 C5.3 6 8.6 6 12 6 C12 5.34 12 4.68 12 4 C12.66 4 13.32 4 14 4 C14 2.68 14 1.36 14 0 C14.66 0 15.32 0 16 0 C16 2.64 16 5.28 16 8 C8.08 8 0.16 8 -8 8 C-8 7.34 -8 6.68 -8 6 C-6.02 6 -4.04 6 -2 6 C-2 5.01 -2 4.02 -2 3 C-1.34 3 -0.68 3 0 3 C0 2.01 0 1.02 0 0 Z " fill="#3C332E" transform="translate(64,112)"/>
<path d="M0 0 C0.05390357 2.93774463 0.0936255 5.87450232 0.125 8.8125 C0.14175781 9.64587891 0.15851562 10.47925781 0.17578125 11.33789062 C0.18222656 12.14033203 0.18867188 12.94277344 0.1953125 13.76953125 C0.20578613 14.50792236 0.21625977 15.24631348 0.22705078 16.00708008 C0 18 0 18 -2 21 C-2.66 21 -3.32 21 -4 21 C-4 20.34 -4 19.68 -4 19 C-4.66 19 -5.32 19 -6 19 C-6 17.02 -6 15.04 -6 13 C-5.34 13 -4.68 13 -4 13 C-4 12.34 -4 11.68 -4 11 C-3.34 11 -2.68 11 -2 11 C-2 10.34 -2 9.68 -2 9 C-2.66 9 -3.32 9 -4 9 C-4.368 3.48 -4.368 3.48 -2.5625 1.125 C-1 0 -1 0 0 0 Z " fill="#CCB661" transform="translate(8,19)"/>
<path d="M0 0 C0.66 0 1.32 0 2 0 C2 10.56 2 21.12 2 32 C1.34 32 0.68 32 0 32 C0 28.04 0 24.08 0 20 C-0.66 20 -1.32 20 -2 20 C-2 18.02 -2 16.04 -2 14 C-1.34 14 -0.68 14 0 14 C0 9.38 0 4.76 0 0 Z " fill="#362D29" transform="translate(78,76)"/>
<path d="M0 0 C0.66 0 1.32 0 2 0 C2 4.62 2 9.24 2 14 C2.66 14 3.32 14 4 14 C4 15.98 4 17.96 4 20 C3.34 20 2.68 20 2 20 C2 23.96 2 27.92 2 32 C1.34 32 0.68 32 0 32 C0 21.44 0 10.88 0 0 Z " fill="#382B29" transform="translate(0,76)"/>
<path d="M0 0 C1.32 0 2.64 0 4 0 C4 0.66 4 1.32 4 2 C3.34 2 2.68 2 2 2 C2 2.66 2 3.32 2 4 C2.66 4 3.32 4 4 4 C4 5.32 4 6.64 4 8 C2.68 8 1.36 8 0 8 C-0.33 9.65 -0.66 11.3 -1 13 C-1.99 13 -2.98 13 -4 13 C-4 13.99 -4 14.98 -4 16 C-4.66 16 -5.32 16 -6 16 C-6 14.02 -6 12.04 -6 10 C-5.34 10 -4.68 10 -4 10 C-4 9.34 -4 8.68 -4 8 C-3.34 8 -2.68 8 -2 8 C-2 7.34 -2 6.68 -2 6 C-2.66 6 -3.32 6 -4 6 C-4 5.34 -4 4.68 -4 4 C-3.34 4 -2.68 4 -2 4 C-2 3.34 -2 2.68 -2 2 C-1.34 2 -0.68 2 0 2 C0 1.34 0 0.68 0 0 Z " fill="#324547" transform="translate(54,64)"/>
<path d="M0 0 C2.97 0.495 2.97 0.495 6 1 C6 2.65 6 4.3 6 6 C5.34 6 4.68 6 4 6 C4 5.34 4 4.68 4 4 C2.68 4 1.36 4 0 4 C0 4.66 0 5.32 0 6 C0.66 6 1.32 6 2 6 C2 7.65 2 9.3 2 11 C1.01 11.495 1.01 11.495 0 12 C0 13.32 0 14.64 0 16 C-0.66 16 -1.32 16 -2 16 C-2 15.34 -2 14.68 -2 14 C-3.32 14 -4.64 14 -6 14 C-6 13.34 -6 12.68 -6 12 C-5.34 12 -4.68 12 -4 12 C-4 11.34 -4 10.68 -4 10 C-2.68 10 -1.36 10 0 10 C0 9.34 0 8.68 0 8 C-1.98 8 -3.96 8 -6 8 C-6 7.34 -6 6.68 -6 6 C-4.68 6 -3.36 6 -2 6 C-2 4.68 -2 3.36 -2 2 C-1.34 2 -0.68 2 0 2 C0 1.34 0 0.68 0 0 Z " fill="#83AFB4" transform="translate(62,10)"/>
<path d="M0 0 C0.66 0 1.32 0 2 0 C2 0.66 2 1.32 2 2 C2.66 2 3.32 2 4 2 C4 3.98 4 5.96 4 8 C2.35 8 0.7 8 -1 8 C-0.01 9.485 -0.01 9.485 1 11 C1.33 11 1.66 11 2 11 C2 14.3 2 17.6 2 21 C1.34 20.67 0.68 20.34 0 20 C-0.66 20.66 -1.32 21.32 -2 22 C-2 16.72 -2 11.44 -2 6 C-1.34 6 -0.68 6 0 6 C0 4.02 0 2.04 0 0 Z " fill="#F1E69D" transform="translate(74,30)"/>
<path d="M0 0 C0.66 0 1.32 0 2 0 C2 2.64 2 5.28 2 8 C2.66 8 3.32 8 4 8 C4 12.62 4 17.24 4 22 C2.68 22 1.36 22 0 22 C0 14.74 0 7.48 0 0 Z " fill="#584E3D" transform="translate(0,48)"/>
<path d="M0 0 C0.66 0 1.32 0 2 0 C2 1.32 2 2.64 2 4 C1.34 4 0.68 4 0 4 C0 4.66 0 5.32 0 6 C1.98 6 3.96 6 6 6 C6 6.66 6 7.32 6 8 C4.02 8 2.04 8 0 8 C0 8.66 0 9.32 0 10 C1.32 10 2.64 10 4 10 C4 10.66 4 11.32 4 12 C2.02 12 0.04 12 -2 12 C-2 11.34 -2 10.68 -2 10 C-3.98 10 -5.96 10 -8 10 C-8 9.34 -8 8.68 -8 8 C-4.535 7.505 -4.535 7.505 -1 7 C-1 6.34 -1 5.68 -1 5 C-2.32 5.33 -3.64 5.66 -5 6 C-4.67 5.34 -4.34 4.68 -4 4 C-3.34 4 -2.68 4 -2 4 C-2 3.34 -2 2.68 -2 2 C-1.34 2 -0.68 2 0 2 C0 1.34 0 0.68 0 0 Z " fill="#90C5C7" transform="translate(40,90)"/>
<path d="M0 0 C0.33 0 0.66 0 1 0 C1.03738281 1.2065625 1.07476562 2.413125 1.11328125 3.65625 C1.17899219 5.27086178 1.24543771 6.88544378 1.3125 8.5 C1.33505859 9.29148437 1.35761719 10.08296875 1.38085938 10.8984375 C1.66019688 17.09465123 2.42126982 23.42126982 7 28 C4.69 28 2.38 28 0 28 C-1.13067942 18.51036913 -1.40261346 9.46764087 0 0 Z " fill="#232518" transform="translate(9,80)"/>
<path d="M0 0 C2.64 0 5.28 0 8 0 C8 2.64 8 5.28 8 8 C5.36 8 2.72 8 0 8 C0 5.36 0 2.72 0 0 Z " fill="#729DA1" transform="translate(34,42)"/>
<path d="M0 0 C1.32 0 2.64 0 4 0 C4 1.98 4 3.96 4 6 C4.66 6 5.32 6 6 6 C6 6.66 6 7.32 6 8 C5.34 8 4.68 8 4 8 C4 8.66 4 9.32 4 10 C3.34 10 2.68 10 2 10 C2 13.3 2 16.6 2 20 C1.34 20 0.68 20 0 20 C0 13.4 0 6.8 0 0 Z " fill="#594B3B" transform="translate(0,22)"/>
<path d="M0 0 C1.98 0 3.96 0 6 0 C6 1.98 6 3.96 6 6 C0.06 6 -5.88 6 -12 6 C-11.34 5.01 -10.68 4.02 -10 3 C-6.7 3.33 -3.4 3.66 0 4 C0 2.68 0 1.36 0 0 Z " fill="#E6D691" transform="translate(56,2)"/>
<path d="M0 0 C1.32 0 2.64 0 4 0 C4 1.32 4 2.64 4 4 C4.66 4 5.32 4 6 4 C6.33 4.99 6.66 5.98 7 7 C7.66 7 8.32 7 9 7 C9 7.66 9 8.32 9 9 C5.32589215 10.17571451 1.83070817 10.07366746 -2 10 C-1.67 9.0925 -1.34 8.185 -1 7.25 C0.19605723 3.92954193 0.19605723 3.92954193 0 0 Z " fill="#87CFD5" transform="translate(30,88)"/>
<path d="M0 0 C1.47906892 -0.02689216 2.95827483 -0.04634621 4.4375 -0.0625 C5.26121094 -0.07410156 6.08492187 -0.08570312 6.93359375 -0.09765625 C9 0 9 0 10 1 C10 2.65 10 4.3 10 6 C6.7 6 3.4 6 0 6 C0 4.02 0 2.04 0 0 Z " fill="#2E4E53" transform="translate(36,26)"/>
<path d="M0 0 C0.66 0 1.32 0 2 0 C2 1.98 2 3.96 2 6 C6.62 6 11.24 6 16 6 C16 4.68 16 3.36 16 2 C16.66 2 17.32 2 18 2 C18 3.98 18 5.96 18 8 C11.73 8 5.46 8 -1 8 C-0.67 5.36 -0.34 2.72 0 0 Z " fill="#062C32" transform="translate(30,46)"/>
<path d="M0 0 C2.31 0 4.62 0 7 0 C7 7.26 7 14.52 7 22 C6.34 22 5.68 22 5 22 C5 19.03 5 16.06 5 13 C4.34 13 3.68 13 3 13 C3.66 9.04 4.32 5.08 5 1 C3.35 1.33 1.7 1.66 0 2 C0 1.34 0 0.68 0 0 Z " fill="#8FBDB9" transform="translate(63,10)"/>
<path d="M0 0 C3.3 0 6.6 0 10 0 C10 0.66 10 1.32 10 2 C10.66 2 11.32 2 12 2 C12 3.32 12 4.64 12 6 C11.34 6 10.68 6 10 6 C9.67 7.32 9.34 8.64 9 10 C8.01 9.34 7.02 8.68 6 8 C6 7.34 6 6.68 6 6 C6.66 6 7.32 6 8 6 C8 5.34 8 4.68 8 4 C7.34 4 6.68 4 6 4 C6 3.34 6 2.68 6 2 C4.68 2 3.36 2 2 2 C2 2.66 2 3.32 2 4 C1.34 4 0.68 4 0 4 C0 2.68 0 1.36 0 0 Z " fill="#EBD588" transform="translate(66,2)"/>
<path d="M0 0 C3.33333333 0 6.66666667 0 10 0 C10 1.98 10 3.96 10 6 C9.34 6 8.68 6 8 6 C8 6.66 8 7.32 8 8 C7.34 8 6.68 8 6 8 C6 7.34 6 6.68 6 6 C4.68 6 3.36 6 2 6 C2 4.68 2 3.36 2 2 C1.34 2 0.68 2 0 2 C0 1.34 0 0.68 0 0 Z " fill="#59777A" transform="translate(20,46)"/>
<path d="M0 0 C0.66 0 1.32 0 2 0 C2 7.26 2 14.52 2 22 C1.34 22 0.68 22 0 22 C0 18.7 0 15.4 0 12 C-0.66 12 -1.32 12 -2 12 C-2 10.68 -2 9.36 -2 8 C-1.34 8 -0.68 8 0 8 C0 5.36 0 2.72 0 0 Z " fill="#342C28" transform="translate(78,48)"/>
<path d="M0 0 C3.3 0 6.6 0 10 0 C10 1.32 10 2.64 10 4 C9.34 4 8.68 4 8 4 C8 3.34 8 2.68 8 2 C6.68 2 5.36 2 4 2 C4 2.66 4 3.32 4 4 C3.34 4 2.68 4 2 4 C2 4.66 2 5.32 2 6 C2.66 6 3.32 6 4 6 C4 6.66 4 7.32 4 8 C2.68 8 1.36 8 0 8 C0 7.34 0 6.68 0 6 C-0.66 6 -1.32 6 -2 6 C-2 4.68 -2 3.36 -2 2 C-1.34 2 -0.68 2 0 2 C0 1.34 0 0.68 0 0 Z " fill="#EFD895" transform="translate(4,2)"/>
<path d="M0 0 C2.62506802 -0.02690844 5.24986173 -0.04679404 7.875 -0.0625 C8.62136719 -0.07087891 9.36773437 -0.07925781 10.13671875 -0.08789062 C15.7734375 -0.11328125 15.7734375 -0.11328125 18 1 C18 1.66 18 2.32 18 3 C17.34 3 16.68 3 16 3 C16 3.66 16 4.32 16 5 C14.68 5 13.36 5 12 5 C12 4.34 12 3.68 12 3 C11.34 3 10.68 3 10 3 C10 2.34 10 1.68 10 1 C9.34 1 8.68 1 8 1 C8 1.99 8 2.98 8 4 C6.68 3.67 5.36 3.34 4 3 C4 2.34 4 1.68 4 1 C2.68 0.67 1.36 0.34 0 0 Z " fill="#B18415" transform="translate(56,111)"/>
<path d="M0 0 C1.32 0.33 2.64 0.66 4 1 C4 2.32 4 3.64 4 5 C3.01 5.495 3.01 5.495 2 6 C1.30906104 8.57951874 1.30906104 8.57951874 0.875 11.5625 C0.70742187 12.57441406 0.53984375 13.58632813 0.3671875 14.62890625 C0.24601562 15.41136719 0.12484375 16.19382812 0 17 C-0.66 17 -1.32 17 -2 17 C-2.05441656 15.10448978 -2.09298035 13.2085208 -2.125 11.3125 C-2.14820312 10.25675781 -2.17140625 9.20101562 -2.1953125 8.11328125 C-1.99858729 4.97748141 -1.33057654 2.82354627 0 0 Z " fill="#C4AE5D" transform="translate(74,47)"/>
<path d="M0 0 C1.98 0 3.96 0 6 0 C6 0.66 6 1.32 6 2 C6.66 2 7.32 2 8 2 C8 3.98 8 5.96 8 8 C10.64 8 13.28 8 16 8 C16.33 8.66 16.66 9.32 17 10 C13.37 10 9.74 10 6 10 C6 8.02 6 6.04 6 4 C5.34 4 4.68 4 4 4 C4 3.34 4 2.68 4 2 C2.68 2 1.36 2 0 2 C0 1.34 0 0.68 0 0 Z " fill="#B7E4E9" transform="translate(26,42)"/>
<path d="M0 0 C5.28 0 10.56 0 16 0 C16 0.66 16 1.32 16 2 C14.68 2 13.36 2 12 2 C12 2.66 12 3.32 12 4 C9.36 4 6.72 4 4 4 C4 3.34 4 2.68 4 2 C2.68 2 1.36 2 0 2 C0 1.34 0 0.68 0 0 Z " fill="#4A4125" transform="translate(32,116)"/>
<path d="M0 0 C0.66 0 1.32 0 2 0 C2 1.98 2 3.96 2 6 C2.66 6 3.32 6 4 6 C4 7.32 4 8.64 4 10 C3.34 10 2.68 10 2 10 C2 10.66 2 11.32 2 12 C1.34 12 0.68 12 0 12 C0 12.66 0 13.32 0 14 C-0.66 14 -1.32 14 -2 14 C-2 11.36 -2 8.72 -2 6 C-1.34 6 -0.68 6 0 6 C0 4.02 0 2.04 0 0 Z " fill="#79A3A7" transform="translate(48,48)"/>
<path d="M0 0 C2.64 0 5.28 0 8 0 C8 1.98 8 3.96 8 6 C5.36 6 2.72 6 0 6 C0 4.02 0 2.04 0 0 Z " fill="#B3EDF1" transform="translate(28,26)"/>
<path d="M0 0 C6.6 0 13.2 0 20 0 C20 0.66 20 1.32 20 2 C18.02 2 16.04 2 14 2 C14 2.66 14 3.32 14 4 C12.68 4 11.36 4 10 4 C10 3.34 10 2.68 10 2 C6.7 2 3.4 2 0 2 C0 1.34 0 0.68 0 0 Z " fill="#382F2C" transform="translate(4,0)"/>
<path d="M0 0 C0.94101563 0.00322266 1.88203125 0.00644531 2.8515625 0.00976562 C3.83640625 0.01814453 4.82125 0.02652344 5.8359375 0.03515625 C6.82851563 0.03966797 7.82109375 0.04417969 8.84375 0.04882812 C11.2995391 0.0606348 13.75520854 0.07710225 16.2109375 0.09765625 C16.2109375 0.42765625 16.2109375 0.75765625 16.2109375 1.09765625 C13.2409375 1.09765625 10.2709375 1.09765625 7.2109375 1.09765625 C6.8809375 1.75765625 6.5509375 2.41765625 6.2109375 3.09765625 C6.2109375 2.43765625 6.2109375 1.77765625 6.2109375 1.09765625 C4.5609375 1.09765625 2.9109375 1.09765625 1.2109375 1.09765625 C1.2109375 1.75765625 1.2109375 2.41765625 1.2109375 3.09765625 C0.5509375 3.09765625 -0.1090625 3.09765625 -0.7890625 3.09765625 C-0.7890625 3.75765625 -0.7890625 4.41765625 -0.7890625 5.09765625 C-2.1090625 5.09765625 -3.4290625 5.09765625 -4.7890625 5.09765625 C-4.7890625 4.43765625 -4.7890625 3.77765625 -4.7890625 3.09765625 C-5.4490625 3.09765625 -6.1090625 3.09765625 -6.7890625 3.09765625 C-6.7890625 2.43765625 -6.7890625 1.77765625 -6.7890625 1.09765625 C-4.33631109 -0.12871945 -2.7384844 -0.01649689 0 0 Z " fill="#B28318" transform="translate(12.7890625,110.90234375)"/>
<path d="M0 0 C0 1.98 0 3.96 0 6 C-0.99 6 -1.98 6 -3 6 C-3.33 7.65 -3.66 9.3 -4 11 C-5.32 11 -6.64 11 -8 11 C-8 9.02 -8 7.04 -8 5 C-7.34 5 -6.68 5 -6 5 C-6 3.68 -6 2.36 -6 1 C-5.34 1 -4.68 1 -4 1 C-4 1.66 -4 2.32 -4 3 C-3.525625 2.505 -3.05125 2.01 -2.5625 1.5 C-1 0 -1 0 0 0 Z " fill="#AB9F7A" transform="translate(8,37)"/>
<path d="M0 0 C1.65 0.33 3.3 0.66 5 1 C5 2.98 5 4.96 5 7 C5.66 7 6.32 7 7 7 C7 7.66 7 8.32 7 9 C4.125 8.75 4.125 8.75 1 8 C-0.4375 6.1875 -0.4375 6.1875 -1 4 C-0.625 1.75 -0.625 1.75 0 0 Z " fill="#24353E" transform="translate(13,99)"/>
<path d="M0 0 C0.66 0 1.32 0 2 0 C2 4.62 2 9.24 2 14 C0.68 13.34 -0.64 12.68 -2 12 C-2 8.7 -2 5.4 -2 2 C-1.34 2 -0.68 2 0 2 C0 1.34 0 0.68 0 0 Z " fill="#F3E497" transform="translate(6,86)"/>
<path d="M0 0 C1.32 0 2.64 0 4 0 C4 1.32 4 2.64 4 4 C3.34 4 2.68 4 2 4 C2 4.66 2 5.32 2 6 C-1.3 6 -4.6 6 -8 6 C-8 4.68 -8 3.36 -8 2 C-7.34 2 -6.68 2 -6 2 C-6 2.66 -6 3.32 -6 4 C-4.68 4 -3.36 4 -2 4 C-2 3.34 -2 2.68 -2 2 C-1.34 2 -0.68 2 0 2 C0 1.34 0 0.68 0 0 Z " fill="#EED792" transform="translate(74,112)"/>
<path d="M0 0 C1.32 0 2.64 0 4 0 C4 0.66 4 1.32 4 2 C4.66 2 5.32 2 6 2 C6 2.66 6 3.32 6 4 C7.32 4 8.64 4 10 4 C10 3.34 10 2.68 10 2 C10.66 2 11.32 2 12 2 C12 3.32 12 4.64 12 6 C8.7 6 5.4 6 2 6 C2 5.34 2 4.68 2 4 C1.34 4 0.68 4 0 4 C0 2.68 0 1.36 0 0 Z " fill="#ECD591" transform="translate(2,112)"/>
<path d="M0 0 C0.66 0 1.32 0 2 0 C2 1.32 2 2.64 2 4 C2.66 4 3.32 4 4 4 C4 4.66 4 5.32 4 6 C7.3 6 10.6 6 14 6 C14 6.66 14 7.32 14 8 C9.38 8 4.76 8 0 8 C0 5.36 0 2.72 0 0 Z " fill="#3C332E" transform="translate(0,112)"/>
<path d="M0 0 C0.66 0 1.32 0 2 0 C2 3.96 2 7.92 2 12 C-0.64 12 -3.28 12 -6 12 C-6 10.68 -6 9.36 -6 8 C-4.68 8 -3.36 8 -2 8 C-2 8.66 -2 9.32 -2 10 C-1.34 10 -0.68 10 0 10 C0 6.7 0 3.4 0 0 Z " fill="#A08B57" transform="translate(6,100)"/>
<path d="M0 0 C0.66 0 1.32 0 2 0 C2 0.66 2 1.32 2 2 C2.66 2 3.32 2 4 2 C4 4.64 4 7.28 4 10 C3.34 10 2.68 10 2 10 C2 11.32 2 12.64 2 14 C1.34 14 0.68 14 0 14 C0 9.38 0 4.76 0 0 Z " fill="#F2E493" transform="translate(72,86)"/>
<path d="M0 0 C4.62 0 9.24 0 14 0 C14 0.66 14 1.32 14 2 C13.34 2 12.68 2 12 2 C12 2.66 12 3.32 12 4 C9.36 4 6.72 4 4 4 C4 3.34 4 2.68 4 2 C2.68 2 1.36 2 0 2 C0 1.34 0 0.68 0 0 Z " fill="#8DB5B9" transform="translate(48,10)"/>
<path d="M0 0 C1.32 0 2.64 0 4 0 C4 0.66 4 1.32 4 2 C5.32 2 6.64 2 8 2 C8 2.66 8 3.32 8 4 C4.3558226 6.4294516 2.28758728 6.16179575 -2 6 C-2 4.68 -2 3.36 -2 2 C-1.34 2 -0.68 2 0 2 C0 1.34 0 0.68 0 0 Z " fill="#82B4B5" transform="translate(12,56)"/>
<path d="M0 0 C0.66 0 1.32 0 2 0 C2 3.3 2 6.6 2 10 C0.68 10 -0.64 10 -2 10 C-2 9.34 -2 8.68 -2 8 C-2.66 8 -3.32 8 -4 8 C-4 6.35 -4 4.7 -4 3 C-2.68 2.67 -1.36 2.34 0 2 C0 1.34 0 0.68 0 0 Z " fill="#5A878C" transform="translate(68,48)"/>
<path d="M0 0 C1.32 0 2.64 0 4 0 C4 1.32 4 2.64 4 4 C-1.94 4 -7.88 4 -14 4 C-13.01 3.67 -12.02 3.34 -11 3 C-10.67 2.34 -10.34 1.68 -10 1 C-6.7 1.33 -3.4 1.66 0 2 C0 1.34 0 0.68 0 0 Z " fill="#E8DA99" transform="translate(32,4)"/>
<path d="M0 0 C1.32 0 2.64 0 4 0 C4 0.66 4 1.32 4 2 C4.66 2 5.32 2 6 2 C6 2.66 6 3.32 6 4 C6.66 4.33 7.32 4.66 8 5 C7.34 5 6.68 5 6 5 C6 6.65 6 8.3 6 10 C5.67 9.01 5.34 8.02 5 7 C3.35 6.67 1.7 6.34 0 6 C0 4.02 0 2.04 0 0 Z " fill="#7AB7BE" transform="translate(12,22)"/>
<path d="M0 0 C1.32 0 2.64 0 4 0 C4 0.66 4 1.32 4 2 C4.66 2 5.32 2 6 2 C6 1.34 6 0.68 6 0 C7.32 0 8.64 0 10 0 C10 0.66 10 1.32 10 2 C10.66 2 11.32 2 12 2 C12 2.66 12 3.32 12 4 C8.04 4 4.08 4 0 4 C0 2.68 0 1.36 0 0 Z " fill="#B2993D" transform="translate(62,4)"/>
<path d="M0 0 C1.32 0 2.64 0 4 0 C4 0.66 4 1.32 4 2 C4.66 2 5.32 2 6 2 C6 1.34 6 0.68 6 0 C7.32 0 8.64 0 10 0 C10 1.32 10 2.64 10 4 C6.04 4 2.08 4 -2 4 C-2 3.34 -2 2.68 -2 2 C-1.34 2 -0.68 2 0 2 C0 1.34 0 0.68 0 0 Z " fill="#B19130" transform="translate(8,4)"/>
<path d="M0 0 C0.66 0 1.32 0 2 0 C2 2.64 2 5.28 2 8 C-1.3 8 -4.6 8 -8 8 C-8 7.34 -8 6.68 -8 6 C-6.02 6 -4.04 6 -2 6 C-2 5.01 -2 4.02 -2 3 C-1.34 3 -0.68 3 0 3 C0 2.01 0 1.02 0 0 Z " fill="#736646" transform="translate(64,112)"/>
<path d="M0 0 C0.66 0 1.32 0 2 0 C4.77042109 2.77042109 4.39796106 4.76533805 4.625 8.625 C4.69976563 9.81351563 4.77453125 11.00203125 4.8515625 12.2265625 C4.92503906 13.59941406 4.92503906 13.59941406 5 15 C3.68 14.67 2.36 14.34 1 14 C1.33 10.7 1.66 7.4 2 4 C1.34 4 0.68 4 0 4 C0 2.68 0 1.36 0 0 Z " fill="#F4E192" transform="translate(2,52)"/>
<path d="M0 0 C3 1 3 1 4.1875 3.0625 C4.455625 3.701875 4.72375 4.34125 5 5 C5.66 5 6.32 5 7 5 C7 6.32 7 7.64 7 9 C6.34 9 5.68 9 5 9 C5 9.66 5 10.32 5 11 C4.34 11 3.68 11 3 11 C3 10.34 3 9.68 3 9 C2.34 9 1.68 9 1 9 C0.67 6.03 0.34 3.06 0 0 Z " fill="#254D4D" transform="translate(33,83)"/>
<path d="M0 0 C1.32 0 2.64 0 4 0 C4 0.66 4 1.32 4 2 C4.66 2 5.32 2 6 2 C6 2.66 6 3.32 6 4 C6.66 4 7.32 4 8 4 C8 5.32 8 6.64 8 8 C7.34 8 6.68 8 6 8 C6 7.34 6 6.68 6 6 C4.68 6 3.36 6 2 6 C2 5.34 2 4.68 2 4 C1.34 4 0.68 4 0 4 C0 2.68 0 1.36 0 0 Z " fill="#4B898B" transform="translate(20,92)"/>
<path d="M0 0 C1.98 0.99 1.98 0.99 4 2 C4 2.66 4 3.32 4 4 C4.66 4 5.32 4 6 4 C6 5.32 6 6.64 6 8 C6.66 8 7.32 8 8 8 C8 8.66 8 9.32 8 10 C6.68 10 5.36 10 4 10 C4 9.34 4 8.68 4 8 C3.34 8 2.68 8 2 8 C0.74335022 5.09399739 0 3.20395416 0 0 Z " fill="#3D585B" transform="translate(16,64)"/>
<path d="M0 0 C1.98 0 3.96 0 6 0 C6 0.66 6 1.32 6 2 C7.32 2 8.64 2 10 2 C10 2.66 10 3.32 10 4 C6.04 4 2.08 4 -2 4 C-2 3.34 -2 2.68 -2 2 C-1.34 2 -0.68 2 0 2 C0 1.34 0 0.68 0 0 Z " fill="#82AFB8" transform="translate(16,38)"/>
<path d="M0 0 C5.28 0 10.56 0 16 0 C16 0.66 16 1.32 16 2 C13.36 2 10.72 2 8 2 C8 2.66 8 3.32 8 4 C7.34 4 6.68 4 6 4 C6 3.34 6 2.68 6 2 C4.02 2 2.04 2 0 2 C0 1.34 0 0.68 0 0 Z " fill="#042E36" transform="translate(26,40)"/>
<path d="M0 0 C0.99 0 1.98 0 3 0 C3 1.32 3 2.64 3 4 C2.34 4 1.68 4 1 4 C1 5.32 1 6.64 1 8 C1.66 8 2.32 8 3 8 C2.75 9.875 2.75 9.875 2 12 C0.02 12.99 0.02 12.99 -2 14 C-1.34 9.38 -0.68 4.76 0 0 Z " fill="#F8E1A0" transform="translate(75,52)"/>
<path d="M0 0 C1.32 0 2.64 0 4 0 C4 0.66 4 1.32 4 2 C5.32 2 6.64 2 8 2 C8 2.66 8 3.32 8 4 C4.04 4 0.08 4 -4 4 C-4 3.34 -4 2.68 -4 2 C-2.68 2 -1.36 2 0 2 C0 1.34 0 0.68 0 0 Z " fill="#F7FCF3" transform="translate(28,116)"/>
<path d="M0 0 C1.32 0 2.64 0 4 0 C4 0.66 4 1.32 4 2 C5.32 2 6.64 2 8 2 C8 2.66 8 3.32 8 4 C4.04 4 0.08 4 -4 4 C-4 3.34 -4 2.68 -4 2 C-2.68 2 -1.36 2 0 2 C0 1.34 0 0.68 0 0 Z " fill="#FAF9F7" transform="translate(48,116)"/>
<path d="M0 0 C2.64 0 5.28 0 8 0 C8 0.66 8 1.32 8 2 C6.02 2 4.04 2 2 2 C2.33 3.32 2.66 4.64 3 6 C2.01 6 1.02 6 0 6 C0 5.34 0 4.68 0 4 C-1.32 4 -2.64 4 -4 4 C-4 3.34 -4 2.68 -4 2 C-2.68 2 -1.36 2 0 2 C0 1.34 0 0.68 0 0 Z " fill="#3F321C" transform="translate(36,0)"/>
<path d="M0 0 C3.96 0 7.92 0 12 0 C12 0.66 12 1.32 12 2 C10.68 2 9.36 2 8 2 C8 2.66 8 3.32 8 4 C6.68 4 5.36 4 4 4 C4 3.34 4 2.68 4 2 C2.68 2 1.36 2 0 2 C0 1.34 0 0.68 0 0 Z " fill="#F9FAF2" transform="translate(24,0)"/>
<path d="M0 0 C3.96 0 7.92 0 12 0 C12 0.66 12 1.32 12 2 C10.68 2 9.36 2 8 2 C8 2.66 8 3.32 8 4 C6.68 4 5.36 4 4 4 C4 3.34 4 2.68 4 2 C2.68 2 1.36 2 0 2 C0 1.34 0 0.68 0 0 Z " fill="#F9FAF5" transform="translate(44,0)"/>
<path d="M0 0 C4.95 0 9.9 0 15 0 C14.01 0.495 14.01 0.495 13 1 C13 1.66 13 2.32 13 3 C10.36 3 7.72 3 5 3 C5 2.34 5 1.68 5 1 C3.35 1 1.7 1 0 1 C0 0.67 0 0.34 0 0 Z " fill="#B5861D" transform="translate(31,111)"/>
<path d="M0 0 C1.98 0.99 1.98 0.99 4 2 C4 3.98 4 5.96 4 8 C3.01 8.495 3.01 8.495 2 9 C2 9.99 2 10.98 2 12 C1.34 12 0.68 12 0 12 C0 8.04 0 4.08 0 0 Z " fill="#F4E69C" transform="translate(72,68)"/>
<path d="M0 0 C0 3.63 0 7.26 0 11 C-0.66 11 -1.32 11 -2 11 C-2 10.34 -2 9.68 -2 9 C-2.66 9 -3.32 9 -4 9 C-4.368 3.48 -4.368 3.48 -2.5625 1.125 C-1 0 -1 0 0 0 Z " fill="#F3E499" transform="translate(8,19)"/>
<path d="M0 0 C0 1.65 0 3.3 0 5 C-1.65 5.33 -3.3 5.66 -5 6 C-5.33 4.35 -5.66 2.7 -6 1 C-4 0 -4 0 0 0 Z " fill="#6BB0B3" transform="translate(26,98)"/>
<path d="M0 0 C0.66 0 1.32 0 2 0 C2 0.66 2 1.32 2 2 C2.66 2 3.32 2 4 2 C4 3.98 4 5.96 4 8 C2.35 8 0.7 8 -1 8 C-0.67 5.36 -0.34 2.72 0 0 Z " fill="#F7DF8E" transform="translate(74,30)"/>
<path d="M0 0 C0.99 0.33 1.98 0.66 3 1 C3 2.98 3 4.96 3 7 C2.34 7 1.68 7 1 7 C1 8.32 1 9.64 1 11 C0.34 11 -0.32 11 -1 11 C-1.14285714 3.57142857 -1.14285714 3.57142857 0 0 Z " fill="#81ADB5" transform="translate(25,19)"/>
<path d="M0 0 C0.33 0.66 0.66 1.32 1 2 C1.66 2.33 2.32 2.66 3 3 C3.94934202 5.92713788 4.23176473 7.42831368 3.0625 10.3125 C2.5365625 11.1478125 2.5365625 11.1478125 2 12 C1.34 12 0.68 12 0 12 C0 8.04 0 4.08 0 0 Z " fill="#95C4D2" transform="translate(10,12)"/>
<path d="M0 0 C2.875 -0.125 2.875 -0.125 6 0 C6.66 0.66 7.32 1.32 8 2 C7.01 2 6.02 2 5 2 C5 2.66 5 3.32 5 4 C3.35 4.66 1.7 5.32 0 6 C0 4.02 0 2.04 0 0 Z " fill="#1B3C44" transform="translate(36,26)"/>
<path d="M0 0 C1.98 0 3.96 0 6 0 C6 1.32 6 2.64 6 4 C4.68 4 3.36 4 2 4 C2 4.66 2 5.32 2 6 C1.34 6 0.68 6 0 6 C0 4.02 0 2.04 0 0 Z " fill="#4E7779" transform="translate(56,32)"/>
<path d="M0 0 C2.64 0 5.28 0 8 0 C8 0.66 8 1.32 8 2 C9.32 2 10.64 2 12 2 C12 2.66 12 3.32 12 4 C10.02 4 8.04 4 6 4 C6 3.34 6 2.68 6 2 C4.02 2 2.04 2 0 2 C0 1.34 0 0.68 0 0 Z " fill="#7DB0AD" transform="translate(32,98)"/>
<path d="M0 0 C1.32 0 2.64 0 4 0 C4 1.98 4 3.96 4 6 C2.68 6 1.36 6 0 6 C0 5.34 0 4.68 0 4 C-0.66 4 -1.32 4 -2 4 C-2 3.34 -2 2.68 -2 2 C-1.34 2 -0.68 2 0 2 C0 1.34 0 0.68 0 0 Z " fill="#8EBEBD" transform="translate(56,26)"/>
<path d="M0 0 C1.32 0 2.64 0 4 0 C4 2.64 4 5.28 4 8 C3.34 8 2.68 8 2 8 C1.67 6.68 1.34 5.36 1 4 C0.01 4 -0.98 4 -2 4 C-2 3.34 -2 2.68 -2 2 C-1.34 2 -0.68 2 0 2 C0 1.34 0 0.68 0 0 Z " fill="#BFB067" transform="translate(4,10)"/>
<path d="M0 0 C0.33 0.66 0.66 1.32 1 2 C3.64 2 6.28 2 9 2 C9 2.66 9 3.32 9 4 C5.04 4 1.08 4 -3 4 C-3 3.34 -3 2.68 -3 2 C-2.01 2 -1.02 2 0 2 C0 1.34 0 0.68 0 0 Z " fill="#304241" transform="translate(43,104)"/>
<path d="M0 0 C1.32 0.33 2.64 0.66 4 1 C3.01 1.495 3.01 1.495 2 2 C2 3.32 2 4.64 2 6 C1.34 6 0.68 6 0 6 C-0.33 6.66 -0.66 7.32 -1 8 C-2 7 -2 7 -2.0625 4.4375 C-2.041875 3.633125 -2.02125 2.82875 -2 2 C-1.34 2 -0.68 2 0 2 C0 1.34 0 0.68 0 0 Z " fill="#15393C" transform="translate(20,58)"/>
<path d="M0 0 C1.65 0 3.3 0 5 0 C4.67 1.98 4.34 3.96 4 6 C3.34 6 2.68 6 2 6 C2 6.66 2 7.32 2 8 C1.34 8 0.68 8 0 8 C0 6.68 0 5.36 0 4 C0.66 4 1.32 4 2 4 C2 3.34 2 2.68 2 2 C1.34 2 0.68 2 0 2 C0 1.34 0 0.68 0 0 Z " fill="#5B777B" transform="translate(14,44)"/>
<path d="M0 0 C0.99 0 1.98 0 3 0 C3 0.66 3 1.32 3 2 C4.32 2 5.64 2 7 2 C7 2.66 7 3.32 7 4 C5.02 4.99 5.02 4.99 3 6 C3 5.34 3 4.68 3 4 C1.35 3.67 -0.3 3.34 -2 3 C-1.34 2.67 -0.68 2.34 0 2 C0 1.34 0 0.68 0 0 Z " fill="#2D5056" transform="translate(23,42)"/>
<path d="M0 0 C0.99 0 1.98 0 3 0 C3 4 3 4 1.6875 5.484375 C0.125 6.65625 -1.4375 7.828125 -3 9 C-3 7.35 -3 5.7 -3 4 C-2.34 4 -1.68 4 -1 4 C-0.67 2.68 -0.34 1.36 0 0 Z " fill="#F6E190" transform="translate(75,14)"/>
<path d="M0 0 C2.97 0.495 2.97 0.495 6 1 C6 2.65 6 4.3 6 6 C5.34 6 4.68 6 4 6 C4 5.34 4 4.68 4 4 C2.02 4 0.04 4 -2 4 C-2 3.34 -2 2.68 -2 2 C-1.34 2 -0.68 2 0 2 C0 1.34 0 0.68 0 0 Z " fill="#62A1A4" transform="translate(62,10)"/>
<path d="M0 0 C2.5 1.3125 2.5 1.3125 5 3 C5 3.99 5 4.98 5 6 C2.69 6 0.38 6 -2 6 C-2 5.34 -2 4.68 -2 4 C-1.34 4 -0.68 4 0 4 C0 2.68 0 1.36 0 0 Z " fill="#153436" transform="translate(42,90)"/>
<path d="M0 0 C1.32 0 2.64 0 4 0 C4 1.98 4 3.96 4 6 C2.68 6 1.36 6 0 6 C-0.33 6.66 -0.66 7.32 -1 8 C-0.67 5.36 -0.34 2.72 0 0 Z " fill="#9EE4E9" transform="translate(30,88)"/>
<path d="M0 0 C0.33 0.99 0.66 1.98 1 3 C1.66 3 2.32 3 3 3 C3 4.98 3 6.96 3 9 C2.34 9 1.68 9 1 9 C0.67 10.32 0.34 11.64 0 13 C0 8.71 0 4.42 0 0 Z " fill="#5F561A" transform="translate(71,27)"/>
<path d="M0 0 C2.64 0 5.28 0 8 0 C8 1.32 8 2.64 8 4 C6.68 4 5.36 4 4 4 C4 3.34 4 2.68 4 2 C2.68 2 1.36 2 0 2 C0 1.34 0 0.68 0 0 Z " fill="#3F3413" transform="translate(48,114)"/>
<path d="M0 0 C2.64 0 5.28 0 8 0 C8 0.66 8 1.32 8 2 C6.68 2 5.36 2 4 2 C4 2.66 4 3.32 4 4 C2.68 4 1.36 4 0 4 C0 2.68 0 1.36 0 0 Z " fill="#413315" transform="translate(24,114)"/>
<path d="M0 0 C1.32 0 2.64 0 4 0 C4 1.98 4 3.96 4 6 C2.68 6 1.36 6 0 6 C0 4.02 0 2.04 0 0 Z " fill="#8A807D" transform="translate(76,70)"/>
<path d="M0 0 C1.32 0 2.64 0 4 0 C4 1.98 4 3.96 4 6 C2.68 6 1.36 6 0 6 C0 4.02 0 2.04 0 0 Z " fill="#898077" transform="translate(0,70)"/>
<path d="M0 0 C2.97 0.495 2.97 0.495 6 1 C6 1.66 6 2.32 6 3 C4.68 3 3.36 3 2 3 C2 3.66 2 4.32 2 5 C0.68 5 -0.64 5 -2 5 C-2 4.01 -2 3.02 -2 2 C-1.34 2 -0.68 2 0 2 C0 1.34 0 0.68 0 0 Z " fill="#446064" transform="translate(28,67)"/>
<path d="M0 0 C0.33 0.99 0.66 1.98 1 3 C0.34 3 -0.32 3 -1 3 C-1 3.66 -1 4.32 -1 5 C-2.65 5 -4.3 5 -6 5 C-6 3.68 -6 2.36 -6 1 C-4.02 0.67 -2.04 0.34 0 0 Z " fill="#94CCD0" transform="translate(17,61)"/>
<path d="M0 0 C1.32 0 2.64 0 4 0 C4 2.64 4 5.28 4 8 C3.34 8 2.68 8 2 8 C2 6.68 2 5.36 2 4 C1.34 4 0.68 4 0 4 C0 2.68 0 1.36 0 0 Z " fill="#466060" transform="translate(66,58)"/>
<path d="M0 0 C2.64 0 5.28 0 8 0 C8 0.66 8 1.32 8 2 C7.34 2 6.68 2 6 2 C6 2.66 6 3.32 6 4 C4.68 4 3.36 4 2 4 C2 3.34 2 2.68 2 2 C1.34 2 0.68 2 0 2 C0 1.34 0 0.68 0 0 Z " fill="#082C34" transform="translate(28,32)"/>
<path d="M0 0 C0.66 0 1.32 0 2 0 C2 1.98 2 3.96 2 6 C1.34 6 0.68 6 0 6 C0 6.66 0 7.32 0 8 C-0.66 8 -1.32 8 -2 8 C-2 6.02 -2 4.04 -2 2 C-1.34 2 -0.68 2 0 2 C0 1.34 0 0.68 0 0 Z " fill="#F4E397" transform="translate(74,22)"/>
<path d="M0 0 C1.32 0 2.64 0 4 0 C4 1.32 4 2.64 4 4 C1.36 4 -1.28 4 -4 4 C-4 3.34 -4 2.68 -4 2 C-2.68 2 -1.36 2 0 2 C0 1.34 0 0.68 0 0 Z " fill="#443116" transform="translate(52,2)"/>
<path d="M0 0 C1.32 0 2.64 0 4 0 C4 0.66 4 1.32 4 2 C5.32 2 6.64 2 8 2 C8 2.66 8 3.32 8 4 C5.36 4 2.72 4 0 4 C0 2.68 0 1.36 0 0 Z " fill="#453019" transform="translate(24,2)"/>
<path d="M0 0 C1.32 0 2.64 0 4 0 C4 2.64 4 5.28 4 8 C3.34 8 2.68 8 2 8 C2 6.68 2 5.36 2 4 C1.34 4 0.68 4 0 4 C0 2.68 0 1.36 0 0 Z " fill="#605655" transform="translate(76,0)"/>
<path d="M0 0 C0.66 0 1.32 0 2 0 C4 3 4 3 4 6 C3.34 6 2.68 6 2 6 C2 6.66 2 7.32 2 8 C1.34 8 0.68 8 0 8 C0 5.36 0 2.72 0 0 Z " fill="#7AADB1" transform="translate(46,54)"/>
<path d="M0 0 C0.99 0 1.98 0 3 0 C3 1.98 3 3.96 3 6 C1.02 6 -0.96 6 -3 6 C-3 5.34 -3 4.68 -3 4 C-1.68 4 -0.36 4 1 4 C1 3.34 1 2.68 1 2 C0.34 1.67 -0.32 1.34 -1 1 C-0.67 0.67 -0.34 0.34 0 0 Z " fill="#022E30" transform="translate(39,44)"/>
<path d="M0 0 C0.33 0.66 0.66 1.32 1 2 C1.99 2 2.98 2 4 2 C4 3.98 4 5.96 4 8 C3.01 8.33 2.02 8.66 1 9 C0.67 6.03 0.34 3.06 0 0 Z " fill="#F0E09C" transform="translate(4,41)"/>
<path d="M0 0 C0.66 0 1.32 0 2 0 C2.433125 0.9590625 2.433125 0.9590625 2.875 1.9375 C3.82823451 4.15206079 3.82823451 4.15206079 6 5 C5.01 6.485 5.01 6.485 4 8 C3.34 8 2.68 8 2 8 C2 7.34 2 6.68 2 6 C1.34 6 0.68 6 0 6 C0 4.02 0 2.04 0 0 Z " fill="#F9E496" transform="translate(2,32)"/>
<path d="M0 0 C0.66 0 1.32 0 2 0 C2 0.66 2 1.32 2 2 C2.66 2 3.32 2 4 2 C4 3.32 4 4.64 4 6 C2.68 6 1.36 6 0 6 C0 5.34 0 4.68 0 4 C-0.66 3.67 -1.32 3.34 -2 3 C-1.34 2.01 -0.68 1.02 0 0 Z " fill="#B8EBEA" transform="translate(48,22)"/>
<path d="M0 0 C1.32 0 2.64 0 4 0 C4 0.66 4 1.32 4 2 C3.34 2 2.68 2 2 2 C2 2.66 2 3.32 2 4 C1.34 4 0.68 4 0 4 C-0.33 4.66 -0.66 5.32 -1 6 C-1.66 5.67 -2.32 5.34 -3 5 C-3 4.01 -3 3.02 -3 2 C-2.01 2 -1.02 2 0 2 C0 1.34 0 0.68 0 0 Z " fill="#0F2E33" transform="translate(58,36)"/>
<path d="M0 0 C0.66 0 1.32 0 2 0 C2 0.99 2 1.98 2 3 C3.98 3 5.96 3 8 3 C8 3.66 8 4.32 8 5 C5.36 5 2.72 5 0 5 C0 3.35 0 1.7 0 0 Z " fill="#063036" transform="translate(28,21)"/>
<path d="M0 0 C0.99 0.33 1.98 0.66 3 1 C3 3.64 3 6.28 3 9 C2.34 9 1.68 9 1 9 C0.15818587 5.84319701 0 3.27427197 0 0 Z " fill="#2C4C4F" transform="translate(17,89)"/>
<path d="M0 0 C1.98 0 3.96 0 6 0 C6 0.66 6 1.32 6 2 C6.66 2 7.32 2 8 2 C8 2.66 8 3.32 8 4 C6.68 4 5.36 4 4 4 C4 3.34 4 2.68 4 2 C2.68 2 1.36 2 0 2 C0 1.34 0 0.68 0 0 Z " fill="#589393" transform="translate(22,86)"/>
<path d="M0 0 C1.65 1.32 3.3 2.64 5 4 C4.360625 4.12375 3.72125 4.2475 3.0625 4.375 C2.0415625 4.684375 2.0415625 4.684375 1 5 C0.67 5.66 0.34 6.32 0 7 C-2 6 -2 6 -3 3 C-2.01 2.01 -1.02 1.02 0 0 Z " fill="#232E30" transform="translate(23,79)"/>
<path d="M0 0 C2 0 4 0 6 0 C5.67 0.99 5.34 1.98 5 3 C4.01 3 3.02 3 2 3 C2 3.99 2 4.98 2 6 C1.34 6 0.68 6 0 6 C0 4.02 0 2.04 0 0 Z " fill="#2D3F3E" transform="translate(48,74)"/>
<path d="M0 0 C1.32 0 2.64 0 4 0 C4 0.66 4 1.32 4 2 C3.34 2 2.68 2 2 2 C2 2.66 2 3.32 2 4 C0.02 4.99 0.02 4.99 -2 6 C-2 4.68 -2 3.36 -2 2 C-1.34 2 -0.68 2 0 2 C0 1.34 0 0.68 0 0 Z " fill="#506363" transform="translate(52,70)"/>
<path d="M0 0 C0.66 0 1.32 0 2 0 C2 0.99 2 1.98 2 3 C2.66 3.33 3.32 3.66 4 4 C4 4.66 4 5.32 4 6 C3.34 6 2.68 6 2 6 C2 6.66 2 7.32 2 8 C1.34 8 0.68 8 0 8 C0 5.36 0 2.72 0 0 Z " fill="#647A7B" transform="translate(10,48)"/>
<path d="M0 0 C0.99 0.33 1.98 0.66 3 1 C3 1.66 3 2.32 3 3 C2.34 3 1.68 3 1 3 C0.67 4.32 0.34 5.64 0 7 C-0.99 6.34 -1.98 5.68 -3 5 C-3 3 -3 3 -1.5 1.375 C-1.005 0.92125 -0.51 0.4675 0 0 Z " fill="#F6E19E" transform="translate(75,5)"/>
<path d="M0 0 C0.99 0 1.98 0 3 0 C2.67 1.32 2.34 2.64 2 4 C2.66 4 3.32 4 4 4 C4 4.66 4 5.32 4 6 C2.68 6 1.36 6 0 6 C0 4.02 0 2.04 0 0 Z " fill="#73B5B5" transform="translate(12,22)"/>
<path d="M0 0 C1.32 0 2.64 0 4 0 C4 0.66 4 1.32 4 2 C4.66 2 5.32 2 6 2 C6 2.66 6 3.32 6 4 C3.36 3.67 0.72 3.34 -2 3 C-1.34 2.67 -0.68 2.34 0 2 C0 1.34 0 0.68 0 0 Z " fill="#AC831A" transform="translate(68,4)"/>
<path d="M0 0 C1.65 0 3.3 0 5 0 C5 1.32 5 2.64 5 4 C3.68 4 2.36 4 1 4 C0.67 2.68 0.34 1.36 0 0 Z " fill="#F5E396" transform="translate(57,114)"/>
<path d="M0 0 C1.65 0 3.3 0 5 0 C4.67 1.32 4.34 2.64 4 4 C2.68 4 1.36 4 0 4 C0 2.68 0 1.36 0 0 Z " fill="#F7E19D" transform="translate(18,114)"/>
<path d="M0 0 C-0.33 0.99 -0.66 1.98 -1 3 C-1.66 2.67 -2.32 2.34 -3 2 C-2.67 3.32 -2.34 4.64 -2 6 C-2.66 6 -3.32 6 -4 6 C-4 4.68 -4 3.36 -4 2 C-4.66 1.67 -5.32 1.34 -6 1 C-4 0 -4 0 0 0 Z " fill="#E0C96D" transform="translate(60,112)"/>
<path d="M0 0 C1.32 0 2.64 0 4 0 C4 1.32 4 2.64 4 4 C2.68 4.33 1.36 4.66 0 5 C0 3.35 0 1.7 0 0 Z " fill="#CCB955" transform="translate(74,96)"/>
<path d="M0 0 C2.475 0.99 2.475 0.99 5 2 C4.34 3.32 3.68 4.64 3 6 C3 5.34 3 4.68 3 4 C2.01 4 1.02 4 0 4 C0 2.68 0 1.36 0 0 Z " fill="#CFB861" transform="translate(2,96)"/>
<path d="M0 0 C1.98 0 3.96 0 6 0 C5.67 1.32 5.34 2.64 5 4 C4.01 4 3.02 4 2 4 C2 3.34 2 2.68 2 2 C1.34 2 0.68 2 0 2 C0 1.34 0 0.68 0 0 Z " fill="#86B8C3" transform="translate(18,88)"/>
<path d="M0 0 C1.98 0.99 1.98 0.99 4 2 C4 2.66 4 3.32 4 4 C3.34 4 2.68 4 2 4 C2 4.66 2 5.32 2 6 C1.34 6 0.68 6 0 6 C0 4.02 0 2.04 0 0 Z " fill="#2C3E30" transform="translate(66,86)"/>
<path d="M0 0 C0 1.32 0 2.64 0 4 C-1.98 4 -3.96 4 -6 4 C-6 3.34 -6 2.68 -6 2 C-2.25 0 -2.25 0 0 0 Z " fill="#0A292B" transform="translate(34,84)"/>
<path d="M0 0 C0.99 0.495 0.99 0.495 2 1 C2.59355614 3.64860427 2.74209269 6.29197322 3 9 C2.67 8.34 2.34 7.68 2 7 C1.34 7 0.68 7 0 7 C0 4.69 0 2.38 0 0 Z " fill="#172F31" transform="translate(16,67)"/>
<path d="M0 0 C0.66 0 1.32 0 2 0 C2 1.32 2 2.64 2 4 C0.68 4 -0.64 4 -2 4 C-2 4.66 -2 5.32 -2 6 C-2.66 6 -3.32 6 -4 6 C-3.34 4.68 -2.68 3.36 -2 2 C-1.34 2 -0.68 2 0 2 C0 1.34 0 0.68 0 0 Z " fill="#9BD1D6" transform="translate(44,60)"/>
<path d="M0 0 C0.66 0 1.32 0 2 0 C2 1.32 2 2.64 2 4 C0.68 4 -0.64 4 -2 4 C-2 4.66 -2 5.32 -2 6 C-2.66 5.67 -3.32 5.34 -4 5 C-2.71937515 3.2925002 -1.38232443 1.62626404 0 0 Z " fill="#C5B572" transform="translate(76,18)"/>
</svg>
