<?xml version="1.0" encoding="UTF-8"?>
<svg version="1.1" xmlns="http://www.w3.org/2000/svg" width="1280" height="720">
<path d="M0 0 C422.4 0 844.8 0 1280 0 C1280 237.6 1280 475.2 1280 720 C857.6 720 435.2 720 0 720 C0 482.4 0 244.8 0 0 Z " fill="#6B8C80" transform="translate(0,0)"/>
<path d="M0 0 C1.03919334 -0.00021904 1.03919334 -0.00021904 2.09938049 -0.0004425 C4.3935965 0.00025521 6.68773173 0.00804097 8.98193359 0.01586914 C10.57091223 0.01773382 12.15989144 0.01915749 13.74887085 0.02015686 C17.93446434 0.02397808 22.12002323 0.033805 26.30560303 0.04486084 C30.57531262 0.05508345 34.8450278 0.0596563 39.11474609 0.06469727 C47.49497032 0.07542761 55.87516641 0.09249931 64.25537109 0.11352539 C64.75037109 2.09352539 64.75037109 2.09352539 65.25537109 4.11352539 C64.59537109 4.11352539 63.93537109 4.11352539 63.25537109 4.11352539 C63.25537109 4.77352539 63.25537109 5.43352539 63.25537109 6.11352539 C64.24537109 6.11352539 65.23537109 6.11352539 66.25537109 6.11352539 C66.28004577 11.77351562 66.29821898 17.43347471 66.31030273 23.09350586 C66.31533896 25.0199437 66.32216821 26.9463777 66.33081055 28.87280273 C66.34290717 31.63794907 66.34860642 34.40304497 66.35302734 37.16821289 C66.35818863 38.03284149 66.36334991 38.89747009 66.3686676 39.78829956 C66.3692428 45.88578198 66.3692428 45.88578198 65.25537109 48.11352539 C62.94537109 48.11352539 60.63537109 48.11352539 58.25537109 48.11352539 C58.25537109 106.85352539 58.25537109 165.59352539 58.25537109 226.11352539 C59.90537109 226.11352539 61.55537109 226.11352539 63.25537109 226.11352539 C65.04559326 227.19735718 65.04559326 227.19735718 66.25537109 229.11352539 C66.62286377 232.08706665 66.62286377 232.08706665 66.61181641 235.7722168 C66.61386078 236.44404495 66.61590515 237.11587311 66.61801147 237.80805969 C66.62101827 240.02734648 66.60254939 242.24588951 66.58349609 244.46508789 C66.58043872 246.00539974 66.57856243 247.54571435 66.57781982 249.08602905 C66.57321774 252.31242467 66.55879341 255.53857056 66.53662109 258.76489258 C66.50829131 262.90909195 66.49740483 267.05309496 66.492939 271.19738197 C66.48879138 274.37657653 66.47898021 277.55573106 66.4670639 280.73490524 C66.46135117 282.26359103 66.4565958 283.7922807 66.45279694 285.32097244 C66.44595515 287.45192558 66.43233416 289.58272015 66.41650391 291.71362305 C66.4096759 292.92813141 66.4028479 294.14263977 66.39581299 295.39395142 C66.25537109 298.11352539 66.25537109 298.11352539 65.25537109 299.11352539 C63.06270954 299.21312546 60.86679707 299.24152295 58.671875 299.24291992 C57.98404434 299.24467224 57.29621368 299.24642456 56.58753967 299.24822998 C54.30231235 299.25264913 52.01716177 299.24970966 49.73193359 299.24633789 C48.14871201 299.24701107 46.56549052 299.24798121 44.98226929 299.24923706 C41.65825419 299.25071424 38.3342659 299.2485594 35.01025391 299.24389648 C30.74738229 299.23820846 26.48457376 299.24147218 22.22170448 299.24746895 C18.94979375 299.25108193 15.67789797 299.24993241 12.40598679 299.24734116 C10.83429329 299.24667345 9.26259844 299.24749487 7.69090652 299.24982071 C5.49311986 299.25235827 3.29543531 299.24849061 1.09765625 299.24291992 C-0.77978775 299.24172653 -0.77978775 299.24172653 -2.69515991 299.24050903 C-5.74462891 299.11352539 -5.74462891 299.11352539 -8.74462891 298.11352539 C-8.81404969 289.02123888 -8.86739962 279.92904318 -8.90006542 270.83654976 C-8.91574107 266.61481511 -8.93701362 262.39326137 -8.97094727 258.17163086 C-9.00347353 254.09974253 -9.0214676 250.02802854 -9.02926064 245.95602036 C-9.03481632 244.400219 -9.04566486 242.84442751 -9.06181908 241.2887001 C-9.08350465 239.1143739 -9.08659967 236.94077385 -9.08520508 234.76635742 C-9.09186691 233.52725616 -9.09852875 232.28815491 -9.10539246 231.01150513 C-8.9268145 229.57700516 -8.9268145 229.57700516 -8.74462891 228.11352539 C-5.74462891 226.11352539 -5.74462891 226.11352539 -0.74462891 226.11352539 C-0.74462891 167.37352539 -0.74462891 108.63352539 -0.74462891 48.11352539 C-3.05462891 48.11352539 -5.36462891 48.11352539 -7.74462891 48.11352539 C-8.9206292 45.76152479 -8.86547431 44.37618138 -8.8581543 41.75561523 C-8.85807877 40.85483246 -8.85800323 39.95404968 -8.85792542 39.02597046 C-8.85276413 38.05197296 -8.84760284 37.07797546 -8.84228516 36.07446289 C-8.84087021 35.07847076 -8.83945526 34.08247864 -8.83799744 33.05630493 C-8.83238827 29.86701486 -8.8198342 26.67779433 -8.80712891 23.48852539 C-8.80211509 21.32967224 -8.79755198 19.17081798 -8.79345703 17.01196289 C-8.78241586 11.71245989 -8.76566878 6.41299761 -8.74462891 1.11352539 C-5.82380435 -0.34688689 -3.26161522 -0.00576257 0 0 Z " fill="#9F554C" transform="translate(611.74462890625,96.886474609375)"/>
<path d="M0 0 C18.15 0 36.3 0 55 0 C55.495 2.475 55.495 2.475 56 5 C55.34 5 54.68 5 54 5 C54 63.08 54 121.16 54 181 C36.51 181 19.02 181 1 181 C-0.65301145 179.34698855 -0.12209025 177.36834047 -0.12908131 175.15975803 C-0.12616847 174.46230018 -0.12325563 173.76484233 -0.12025452 173.04624939 C-0.12110894 172.31035554 -0.12196337 171.57446169 -0.12284368 170.81626803 C-0.12450067 168.33183354 -0.11897356 165.84746545 -0.11352539 163.36303711 C-0.11324354 161.58951316 -0.11340121 159.81598909 -0.1139679 158.04246521 C-0.11425595 153.21208983 -0.1083579 148.38173906 -0.10139394 143.55136943 C-0.09516176 138.50914683 -0.09455671 133.46692373 -0.09336853 128.42469788 C-0.09025481 118.86949773 -0.08204088 109.31430897 -0.07201904 99.75911385 C-0.06085916 88.88384567 -0.05534777 78.00857695 -0.05032361 67.13330448 C-0.03985829 44.75552855 -0.02151231 22.37776823 0 0 Z " fill="#9F554C" transform="translate(613,398)"/>
<path d="M0 0 C1.00292336 -0.0076664 1.00292336 -0.0076664 2.02610779 -0.01548767 C4.23559526 -0.02938471 6.4447709 -0.02842709 8.65429688 -0.02612305 C10.18982052 -0.03000952 11.72534309 -0.03434409 13.26086426 -0.03910828 C16.47879523 -0.04657041 19.69661648 -0.04627899 22.91455078 -0.04101562 C27.04075487 -0.03521654 31.16651073 -0.05216224 35.29264069 -0.0753603 C38.46334463 -0.09008169 41.63394018 -0.09097162 44.80467224 -0.08785057 C46.32613514 -0.08836444 47.84760401 -0.09361459 49.36903381 -0.10366249 C51.49501827 -0.11598121 53.62012367 -0.10926412 55.74609375 -0.09765625 C57.56119446 -0.09860039 57.56119446 -0.09860039 59.41296387 -0.0995636 C62.37304688 0.2746582 62.37304688 0.2746582 64.26495361 1.38175964 C65.93961864 4.24250353 65.73937775 6.63575059 65.72949219 9.93334961 C65.73153656 10.60517776 65.73358093 11.27700592 65.73568726 11.9691925 C65.73869405 14.18847929 65.72022517 16.40702233 65.70117188 18.6262207 C65.6981145 20.16653255 65.69623821 21.70684716 65.69549561 23.24716187 C65.69089352 26.47355749 65.6764692 29.69970337 65.65429688 32.92602539 C65.62596709 37.07022477 65.61508061 41.21422777 65.61061478 45.35851479 C65.60646716 48.53770935 65.59665599 51.71686387 65.58473969 54.89603806 C65.57902695 56.42472384 65.57427158 57.95341351 65.57047272 59.48210526 C65.56363094 61.61305839 65.55000994 63.74385297 65.53417969 65.87475586 C65.52735168 67.08926422 65.52052368 68.30377258 65.51348877 69.55508423 C65.37304688 72.2746582 65.37304688 72.2746582 64.37304688 73.2746582 C62.18038532 73.37425827 59.98447286 73.40265576 57.78955078 73.40405273 C57.10172012 73.40580505 56.41388947 73.40755737 55.70521545 73.40936279 C53.41998813 73.41378195 51.13483756 73.41084247 48.84960938 73.4074707 C47.26638779 73.40814388 45.6831663 73.40911402 44.09994507 73.41036987 C40.77592997 73.41184706 37.45194168 73.40969221 34.12792969 73.4050293 C29.86505807 73.39934127 25.60224954 73.40260499 21.33938026 73.40860176 C18.06746953 73.41221474 14.79557375 73.41106522 11.52366257 73.40847397 C9.95196907 73.40780626 8.38027422 73.40862769 6.80858231 73.41095352 C4.61079564 73.41349108 2.41311109 73.40962342 0.21533203 73.40405273 C-1.66211197 73.40285934 -1.66211197 73.40285934 -3.57748413 73.40164185 C-6.62695312 73.2746582 -6.62695312 73.2746582 -9.62695312 72.2746582 C-9.69637391 63.18237169 -9.74972384 54.09017599 -9.78238964 44.99768257 C-9.79806529 40.77594792 -9.81933784 36.55439418 -9.85327148 32.33276367 C-9.88579775 28.26087535 -9.90379182 24.18916135 -9.91158485 20.11715317 C-9.91714053 18.56135182 -9.92798908 17.00556032 -9.9441433 15.44983292 C-9.96582887 13.27550671 -9.96892389 11.10190666 -9.9675293 8.92749023 C-9.97419113 7.68838898 -9.98085297 6.44928772 -9.98771667 5.17263794 C-9.80913872 3.73813797 -9.80913872 3.73813797 -9.62695312 2.2746582 C-6.0036695 -0.14086422 -4.31323554 0.01642286 0 0 Z " fill="#262625" transform="translate(612.626953125,322.725341796875)"/>
<path d="M0 0 C1.03919334 -0.00021904 1.03919334 -0.00021904 2.09938049 -0.0004425 C4.3935965 0.00025521 6.68773173 0.00804097 8.98193359 0.01586914 C10.57091223 0.01773382 12.15989144 0.01915749 13.74887085 0.02015686 C17.93446434 0.02397808 22.12002323 0.033805 26.30560303 0.04486084 C30.57531262 0.05508345 34.8450278 0.0596563 39.11474609 0.06469727 C47.49497032 0.07542761 55.87516641 0.09249931 64.25537109 0.11352539 C64.75037109 2.09352539 64.75037109 2.09352539 65.25537109 4.11352539 C64.59537109 4.11352539 63.93537109 4.11352539 63.25537109 4.11352539 C63.25537109 4.77352539 63.25537109 5.43352539 63.25537109 6.11352539 C64.24537109 6.11352539 65.23537109 6.11352539 66.25537109 6.11352539 C66.28004577 11.77351562 66.29821898 17.43347471 66.31030273 23.09350586 C66.31533896 25.0199437 66.32216821 26.9463777 66.33081055 28.87280273 C66.34290717 31.63794907 66.34860642 34.40304497 66.35302734 37.16821289 C66.35818863 38.03284149 66.36334991 38.89747009 66.3686676 39.78829956 C66.3692428 45.88578198 66.3692428 45.88578198 65.25537109 48.11352539 C41.16537109 48.11352539 17.07537109 48.11352539 -7.74462891 48.11352539 C-8.9206292 45.76152479 -8.86547431 44.37618138 -8.8581543 41.75561523 C-8.85807877 40.85483246 -8.85800323 39.95404968 -8.85792542 39.02597046 C-8.85276413 38.05197296 -8.84760284 37.07797546 -8.84228516 36.07446289 C-8.84087021 35.07847076 -8.83945526 34.08247864 -8.83799744 33.05630493 C-8.83238827 29.86701486 -8.8198342 26.67779433 -8.80712891 23.48852539 C-8.80211509 21.32967224 -8.79755198 19.17081798 -8.79345703 17.01196289 C-8.78241586 11.71245989 -8.76566878 6.41299761 -8.74462891 1.11352539 C-5.82380435 -0.34688689 -3.26161522 -0.00576257 0 0 Z " fill="#252524" transform="translate(611.74462890625,96.886474609375)"/>
<path d="M0 0 C23.43 0 46.86 0 71 0 C71 0.66 71 1.32 71 2 C69.68 2.33 68.36 2.66 67 3 C67.00184359 3.94128942 67.00368717 4.88257885 67.00558662 5.8523922 C67.0499321 28.72728104 67.08282599 51.60216432 67.10362434 74.47708702 C67.1139489 85.53910217 67.12803168 96.60108898 67.15087891 107.66308594 C67.17077677 117.30165488 67.18370785 126.9402033 67.18817699 136.57879221 C67.1907905 141.68511598 67.1969577 146.79138101 67.21146011 151.897686 C67.22498716 156.69925281 67.22923258 161.50073643 67.22621536 166.30232048 C67.22676772 168.0688478 67.2307741 169.83537776 67.23841095 171.60188866 C67.24829603 174.00539734 67.24599268 176.40858792 67.24050903 178.81210327 C67.24633472 179.51832113 67.2521604 180.22453898 67.25816262 180.95215738 C67.22824242 185.77175758 67.22824242 185.77175758 65 188 C62.68493652 188.25396729 62.68493652 188.25396729 59.75585938 188.25878906 C58.11405701 188.26824554 58.11405701 188.26824554 56.43908691 188.27789307 C55.25262573 188.2738446 54.06616455 188.26979614 52.84375 188.265625 C51.63054077 188.26753845 50.41733154 188.2694519 49.1673584 188.27142334 C46.59838657 188.27278634 44.02940788 188.26908192 41.46044922 188.26074219 C37.51644496 188.2500446 33.57289625 188.26063394 29.62890625 188.2734375 C27.13801982 188.27211593 24.64713368 188.26955358 22.15625 188.265625 C20.37655823 188.27169769 20.37655823 188.27169769 18.56091309 188.27789307 C17.46637817 188.27158875 16.37184326 188.26528442 15.24414062 188.25878906 C14.27754517 188.25719788 13.31094971 188.25560669 12.31506348 188.25396729 C10 188 10 188 8 186 C7.80704263 183.56617386 7.73940797 181.24666286 7.75949097 178.81210327 C7.75692769 177.68860487 7.75692769 177.68860487 7.75431263 176.54240954 C7.7510047 174.01955099 7.76204269 171.49695535 7.77294922 168.97412109 C7.77351305 167.17089342 7.77319732 165.36766528 7.77206421 163.56443787 C7.7714886 158.65764808 7.78327642 153.75095537 7.79721212 148.84418821 C7.80968498 143.72056281 7.81088726 138.59693536 7.81326294 133.47329712 C7.81948787 123.76582554 7.83591234 114.05839882 7.85596192 104.35094702 C7.87828947 93.30154036 7.88930643 82.2521316 7.89935279 71.20270801 C7.92027772 48.4684471 7.95547331 25.73422606 8 3 C5.36 2.67 2.72 2.34 0 2 C0 1.34 0 0.68 0 0 Z M10 2 C9.97745518 25.45181519 9.95902212 48.90362165 9.94818783 72.35544491 C9.94302431 83.24372177 9.93598056 94.13199143 9.92456055 105.02026367 C9.9146154 114.50683569 9.90814698 123.99340249 9.90591151 133.47997957 C9.90460411 138.50632755 9.90151644 143.53266062 9.89426994 148.55900383 C9.88751239 153.28421897 9.88538249 158.00941298 9.88689232 162.73463249 C9.88661587 164.47416295 9.88460918 166.21369407 9.88079453 167.95322037 C9.87586141 170.31758985 9.87700028 172.68187825 9.87974548 175.04624939 C9.87683264 175.74370724 9.8739198 176.44116509 9.87091869 177.15975803 C9.61244915 180.35766451 9.61244915 180.35766451 11 183 C28.49 183 45.98 183 64 183 C64 124.92 64 66.84 64 7 C64.66 7 65.32 7 66 7 C65.505 4.525 65.505 4.525 65 2 C46.85 2 28.7 2 10 2 Z " fill="#BB665B" transform="translate(603,396)"/>
<path d="M0 0 C0.66 0 1.32 0 2 0 C2 57.42 2 114.84 2 174 C1.01 174 0.02 174 -1 174 C-1.02332662 151.46087424 -1.04097801 128.92175046 -1.05181217 106.38261509 C-1.05697564 95.91807719 -1.06401929 85.45354677 -1.07543945 74.98901367 C-1.08538476 65.87160565 -1.09185306 56.75420304 -1.09408849 47.63678974 C-1.09539586 42.80606124 -1.09848336 37.97534825 -1.10573006 33.14462471 C-1.11248785 28.60326313 -1.11461746 24.06192353 -1.11310768 19.5205574 C-1.11338412 17.84875431 -1.11539066 16.17695052 -1.11920547 14.50515175 C-1.12413898 12.23274147 -1.12299958 9.96041554 -1.12025452 7.68800354 C-1.12117631 6.41316384 -1.1220981 5.13832415 -1.12304783 3.82485294 C-1 1 -1 1 0 0 Z " fill="#C46B60" transform="translate(668,149)"/>
<path d="M0 0 C6.27 0 12.54 0 19 0 C19 8.58 19 17.16 19 26 C12.73 26 6.46 26 0 26 C0 17.42 0 8.84 0 0 Z " fill="#5C796F" transform="translate(644,104)"/>
<path d="M0 0 C6.27 0 12.54 0 19 0 C19 8.58 19 17.16 19 26 C12.73 26 6.46 26 0 26 C0 17.42 0 8.84 0 0 Z " fill="#5D796F" transform="translate(618,104)"/>
<path d="M0 0 C23.43 0 46.86 0 71 0 C71 0.66 71 1.32 71 2 C69.68 2.33 68.36 2.66 67 3 C67 38.64 67 74.28 67 111 C66.34 110.67 65.68 110.34 65 110 C65 74.36 65 38.72 65 2 C43.55 2 22.1 2 0 2 C0 1.34 0 0.68 0 0 Z " fill="#D9A199" transform="translate(603,396)"/>
<path d="M0 0 C19.47 0 38.94 0 59 0 C58.34 1.32 57.68 2.64 57 4 C38.85 4 20.7 4 2 4 C1.34 2.68 0.68 1.36 0 0 Z " fill="#F8CBC3" transform="translate(611,580)"/>
<path d="M0 0 C0.33 0 0.66 0 1 0 C1 58.74 1 117.48 1 178 C-0.32 177.67 -1.64 177.34 -3 177 C-2.01 176.01 -2.01 176.01 -1 175 C-0.68346942 171.870944 -0.68346942 171.870944 -0.7215271 168.11581421 C-0.7157347 167.3994837 -0.7099423 166.68315318 -0.70397437 165.94511569 C-0.68690167 163.53286421 -0.68409168 161.12080321 -0.68115234 158.70849609 C-0.67185916 156.98408027 -0.66169142 155.25966897 -0.65071106 153.53526306 C-0.62332811 148.84339199 -0.60823717 144.15155107 -0.59528303 139.45962095 C-0.57968866 134.56017298 -0.55288675 129.66078693 -0.5272522 124.76138306 C-0.4803988 115.47894785 -0.44368652 106.19650108 -0.41057932 96.91400778 C-0.37240419 86.34822339 -0.32298203 75.78250109 -0.27259517 65.21676898 C-0.16917777 43.47789179 -0.07994936 21.73897533 0 0 Z " fill="#7B7568" transform="translate(610,145)"/>
<path d="M0 0 C0.495 1.485 0.495 1.485 1 3 C-3.16453175 6.42086537 -6.48436347 7.08157087 -11.7890625 7.31640625 C-12.72234375 7.35846191 -13.655625 7.40051758 -14.6171875 7.44384766 C-15.60976563 7.48300293 -16.60234375 7.5221582 -17.625 7.5625 C-18.6459375 7.6042334 -19.666875 7.6459668 -20.71875 7.68896484 C-27.14559838 7.9343791 -33.56841298 8.10242583 -40 8.125 C-40.70979004 8.12959229 -41.41958008 8.13418457 -42.15087891 8.13891602 C-46.5405117 8.1257608 -50.68180771 7.70845342 -55 7 C-55.33 6.01 -55.66 5.02 -56 4 C-54.99188766 3.99120064 -54.99188766 3.99120064 -53.96340942 3.98222351 C-46.98818241 3.91844525 -40.01342349 3.83406671 -33.03857422 3.73754883 C-30.43316812 3.70422954 -27.82768862 3.67621974 -25.22216797 3.65356445 C-21.48373027 3.62014746 -17.74596959 3.56783754 -14.0078125 3.51171875 C-12.25152023 3.50213387 -12.25152023 3.50213387 -10.45974731 3.49235535 C-8.838293 3.46266411 -8.838293 3.46266411 -7.18408203 3.43237305 C-6.22921906 3.42126999 -5.27435608 3.41016693 -4.29055786 3.39872742 C-3.15673172 3.20135735 -3.15673172 3.20135735 -2 3 C-1.34 2.01 -0.68 1.02 0 0 Z " fill="#929082" transform="translate(670,580)"/>
<path d="M0 0 C0.33 0 0.66 0 1 0 C1.02505615 1.29212402 1.0501123 2.58424805 1.07592773 3.91552734 C1.16991624 8.69769656 1.27015766 13.47971762 1.37231445 18.26171875 C1.41569577 20.33362366 1.45736846 22.40556507 1.49731445 24.47753906 C1.55493965 27.45128391 1.61865625 30.42484448 1.68359375 33.3984375 C1.70030624 34.32868744 1.71701874 35.25893738 1.73423767 36.21737671 C1.75418289 37.07811798 1.77412811 37.93885925 1.79467773 38.82568359 C1.81022202 39.58513275 1.8257663 40.34458191 1.84178162 41.12704468 C1.89127127 43.09115721 1.89127127 43.09115721 3 45 C26.43 45 49.86 45 74 45 C74 45.66 74 46.32 74 47 C49.91 47 25.82 47 1 47 C-0.1760003 44.6479994 -0.12084541 43.26265599 -0.11352539 40.64208984 C-0.11344986 39.74130707 -0.11337433 38.84052429 -0.11329651 37.91244507 C-0.10813522 36.93844757 -0.10297394 35.96445007 -0.09765625 34.9609375 C-0.0962413 33.96494537 -0.09482635 32.96895325 -0.09336853 31.94277954 C-0.08775936 28.75348947 -0.0752053 25.56426894 -0.0625 22.375 C-0.05748618 20.21614685 -0.05292307 18.05729259 -0.04882812 15.8984375 C-0.03778695 10.5989345 -0.02103988 5.29947222 0 0 Z " fill="#4C302D" transform="translate(603,98)"/>
<path d="M0 0 C2 2 2 2 2.23046875 3.91015625 C2.11111111 9.88888889 2.11111111 9.88888889 1 11 C-2.5 10.6875 -2.5 10.6875 -6 10 C-7.4783226 7.04335481 -7.06032783 4.25770263 -7 1 C-4.48718205 -0.25640898 -2.78302919 -0.20872719 0 0 Z " fill="#AB726C" transform="translate(643,430)"/>
<path d="M0 0 C2.375 0.6875 2.375 0.6875 3.375 1.6875 C3.5625 5.125 3.5625 5.125 3.375 8.6875 C1.375 10.6875 1.375 10.6875 -1.75 10.8125 C-3.173125 10.750625 -3.173125 10.750625 -4.625 10.6875 C-6.14650158 7.64449684 -5.86399393 5.033415 -5.625 1.6875 C-2.625 -0.3125 -2.625 -0.3125 0 0 Z " fill="#9E6B65" transform="translate(641.625,541.3125)"/>
<path d="M0 0 C2.32891212 3.49336818 2.23551143 4.86007865 2.1953125 8.98046875 C2.18886719 10.14384766 2.18242188 11.30722656 2.17578125 12.50585938 C2.15902344 13.72080078 2.14226563 14.93574219 2.125 16.1875 C2.11597656 17.41404297 2.10695313 18.64058594 2.09765625 19.90429688 C2.07406017 22.93639295 2.04113841 25.96809938 2 29 C1.01 28.67 0.02 28.34 -1 28 C-1.02891949 23.70834738 -1.04677118 19.41671964 -1.0625 15.125 C-1.07087891 13.90167969 -1.07925781 12.67835937 -1.08789062 11.41796875 C-1.09111328 10.25136719 -1.09433594 9.08476563 -1.09765625 7.8828125 C-1.10289307 6.80402832 -1.10812988 5.72524414 -1.11352539 4.61376953 C-1 2 -1 2 0 0 Z " fill="#2B2D2B" transform="translate(616,102)"/>
<path d="M0 0 C0.33 0 0.66 0 1 0 C1 22.44 1 44.88 1 68 C-0.32 67.67 -1.64 67.34 -3 67 C-2.01 66.01 -2.01 66.01 -1 65 C-0.66735445 62.1676097 -0.66735445 62.1676097 -0.68115234 58.80615234 C-0.66128265 57.50495453 -0.64141296 56.20375671 -0.62094116 54.86312866 C-0.6090638 53.4374 -0.597401 52.01166955 -0.5859375 50.5859375 C-0.56723326 49.13146862 -0.54766041 47.67701067 -0.5272522 46.2225647 C-0.47584606 42.39215531 -0.43626601 38.56171072 -0.39910889 34.73114014 C-0.35912218 30.82327503 -0.3080056 26.91555748 -0.2578125 23.0078125 C-0.1609529 15.33864277 -0.07658053 7.66940187 0 0 Z " fill="#796F63" transform="translate(610,255)"/>
<path d="M0 0 C0.33 0 0.66 0 1 0 C1.02505615 1.28165039 1.0501123 2.56330078 1.07592773 3.88378906 C1.17011595 8.6399125 1.2703089 13.39589379 1.37231445 18.15185547 C1.41562009 20.21008987 1.45729829 22.26835918 1.49731445 24.32666016 C1.55512275 27.28558879 1.61878696 30.2443424 1.68359375 33.203125 C1.70030624 34.12305237 1.71701874 35.04297974 1.73423767 35.99078369 C1.75418289 36.8513739 1.77412811 37.71196411 1.79467773 38.59863281 C1.81022202 39.35364075 1.8257663 40.10864868 1.84178162 40.88653564 C2.00185633 43.02479671 2.41816368 44.93989084 3 47 C2.34 47 1.68 47 1 47 C-0.1760003 44.6479994 -0.12084541 43.26265599 -0.11352539 40.64208984 C-0.11344986 39.74130707 -0.11337433 38.84052429 -0.11329651 37.91244507 C-0.10813522 36.93844757 -0.10297394 35.96445007 -0.09765625 34.9609375 C-0.0962413 33.96494537 -0.09482635 32.96895325 -0.09336853 31.94277954 C-0.08775936 28.75348947 -0.0752053 25.56426894 -0.0625 22.375 C-0.05748618 20.21614685 -0.05292307 18.05729259 -0.04882812 15.8984375 C-0.03778695 10.5989345 -0.02103988 5.29947222 0 0 Z " fill="#44554E" transform="translate(603,98)"/>
<path d="M0 0 C1.66611905 -0.042721 3.33382885 -0.04063832 5 0 C6 1 6 1 6.0625 3.5625 C6.041875 4.366875 6.02125 5.17125 6 6 C3.625 6.625 3.625 6.625 1 7 C0.34 6.34 -0.32 5.68 -1 5 C-0.625 2.375 -0.625 2.375 0 0 Z " fill="#59655E" transform="translate(638,506)"/>
<path d="M0 0 C1.66611905 -0.042721 3.33382885 -0.04063832 5 0 C6 1 6 1 6.0625 3.5625 C6.041875 4.366875 6.02125 5.17125 6 6 C3.625 6.625 3.625 6.625 1 7 C0.34 6.34 -0.32 5.68 -1 5 C-0.625 2.375 -0.625 2.375 0 0 Z " fill="#57625A" transform="translate(638,469)"/>
<path d="M0 0 C2.375 0.6875 2.375 0.6875 3.375 1.6875 C3.5625 5.125 3.5625 5.125 3.375 8.6875 C1.375 10.6875 1.375 10.6875 -1.75 10.8125 C-3.173125 10.750625 -3.173125 10.750625 -4.625 10.6875 C-4.955 7.7175 -5.285 4.7475 -5.625 1.6875 C-2.625 -0.3125 -2.625 -0.3125 0 0 Z M-3.625 1.6875 C-4.30458603 4.08469432 -4.30458603 4.08469432 -4.625 6.6875 C-3.965 7.3475 -3.305 8.0075 -2.625 8.6875 C-0.02219432 8.36708603 -0.02219432 8.36708603 2.375 7.6875 C2.417721 6.02138095 2.41563832 4.35367115 2.375 2.6875 C1.30854885 1.39116379 1.30854885 1.39116379 -1.1875 1.625 C-1.991875 1.645625 -2.79625 1.66625 -3.625 1.6875 Z " fill="#B07670" transform="translate(641.625,504.3125)"/>
<path d="M0 0 C5.56818182 0.56818182 5.56818182 0.56818182 7 2 C7.1875 5.4375 7.1875 5.4375 7 9 C5 11 5 11 2.5 11.3125 C1.2625 11.1578125 1.2625 11.1578125 0 11 C-2.30163882 7.54754176 -2.34490322 6.05261287 -2 2 C-1.34 1.34 -0.68 0.68 0 0 Z M0 2 C-0.67958603 4.39719432 -0.67958603 4.39719432 -1 7 C-0.34 7.66 0.32 8.32 1 9 C3.60280568 8.67958603 3.60280568 8.67958603 6 8 C6.042721 6.33388095 6.04063832 4.66617115 6 3 C4.93354885 1.70366379 4.93354885 1.70366379 2.4375 1.9375 C1.633125 1.958125 0.82875 1.97875 0 2 Z " fill="#B07770" transform="translate(638,467)"/>
<path d="M0 0 C2.125 0.375 2.125 0.375 4 1 C4.38218767 2.65614657 4.71395102 4.32457024 5 6 C4 7 4 7 1.4375 7.0625 C0.2309375 7.0315625 0.2309375 7.0315625 -1 7 C-1.625 4.625 -1.625 4.625 -2 2 C-1.34 1.34 -0.68 0.68 0 0 Z " fill="#545E57" transform="translate(639,431)"/>
<path d="M0 0 C1.65 0.33 3.3 0.66 5 1 C5.33 2.65 5.66 4.3 6 6 C3.625 6.625 3.625 6.625 1 7 C0.34 6.34 -0.32 5.68 -1 5 C-0.625 2.375 -0.625 2.375 0 0 Z " fill="#596860" transform="translate(638,543)"/>
<path d="M0 0 C0.33 0 0.66 0 1 0 C1 9.24 1 18.48 1 28 C-0.32 27.67 -1.64 27.34 -3 27 C-2.34 26.34 -1.68 25.68 -1 25 C-0.62826984 22.3817233 -0.62826984 22.3817233 -0.5859375 19.3359375 C-0.54726563 18.21445312 -0.50859375 17.09296875 -0.46875 15.9375 C-0.4378125 14.761875 -0.406875 13.58625 -0.375 12.375 C-0.33632813 11.19164062 -0.29765625 10.00828125 -0.2578125 8.7890625 C-0.16331155 5.85953309 -0.07775442 2.93001403 0 0 Z " fill="#6B675C" transform="translate(610,295)"/>
<path d="M0 0 C1.32 0 2.64 0 4 0 C3.67 1.65 3.34 3.3 3 5 C0.125 5.1875 0.125 5.1875 -3 5 C-3.66 4.01 -4.32 3.02 -5 2 C-3.35 2 -1.7 2 0 2 C0 1.34 0 0.68 0 0 Z " fill="#97AEA3" transform="translate(674,396)"/>
<path d="M0 0 C2.97 0 5.94 0 9 0 C8.67 1.32 8.34 2.64 8 4 C6.68 4.33 5.36 4.66 4 5 C4 4.34 4 3.68 4 3 C2.68 2.67 1.36 2.34 0 2 C0 1.34 0 0.68 0 0 Z " fill="#8BA597" transform="translate(603,398)"/>
<path d="M0 0 C0.99 0.33 1.98 0.66 3 1 C3 1.66 3 2.32 3 3 C5.97 3 8.94 3 12 3 C12 3.33 12 3.66 12 4 C8.7 4 5.4 4 2 4 C1.34 2.68 0.68 1.36 0 0 Z " fill="#EAAB9A" transform="translate(611,580)"/>
<path d="M0 0 C0.33 1.32 0.66 2.64 1 4 C0.01 3.34 -0.98 2.68 -2 2 C-4.62531524 1.83286431 -4.62531524 1.83286431 -7 2 C-7 1.34 -7 0.68 -7 0 C-4.3333581 -1.33332095 -2.83319697 -0.67102033 0 0 Z " fill="#C98B83" transform="translate(644,542)"/>
</svg>
