<?xml version="1.0" encoding="UTF-8"?>
<svg version="1.1" xmlns="http://www.w3.org/2000/svg" width="1280" height="720">
<path d="M0 0 C422.4 0 844.8 0 1280 0 C1280 237.6 1280 475.2 1280 720 C857.6 720 435.2 720 0 720 C0 482.4 0 244.8 0 0 Z " fill="#6B8C80" transform="translate(0,0)"/>
<path d="M0 0 C1.03919334 -0.00021904 1.03919334 -0.00021904 2.09938049 -0.0004425 C4.3935965 0.00025521 6.68773173 0.00804097 8.98193359 0.01586914 C10.57091223 0.01773382 12.15989144 0.01915749 13.74887085 0.02015686 C17.93446434 0.02397808 22.12002323 0.033805 26.30560303 0.04486084 C30.57531262 0.05508345 34.8450278 0.0596563 39.11474609 0.06469727 C47.49497032 0.07542761 55.87516641 0.09249931 64.25537109 0.11352539 C64.75037109 2.09352539 64.75037109 2.09352539 65.25537109 4.11352539 C64.59537109 4.11352539 63.93537109 4.11352539 63.25537109 4.11352539 C63.25537109 4.77352539 63.25537109 5.43352539 63.25537109 6.11352539 C64.24537109 6.11352539 65.23537109 6.11352539 66.25537109 6.11352539 C66.30472035 11.77350585 66.34106638 17.43336175 66.36523438 23.09350586 C66.37530691 25.01996033 66.38896553 26.94639947 66.40625 28.87280273 C66.4304435 31.63797791 66.44184145 34.40295139 66.45068359 37.16821289 C66.46100616 38.03284149 66.47132874 38.89747009 66.48196411 39.78829956 C66.48236215 41.8980606 66.37802352 44.00733257 66.25537109 46.11352539 C65.26537109 47.10352539 65.26537109 47.10352539 64.25537109 48.11352539 C62.27537109 48.11352539 60.29537109 48.11352539 58.25537109 48.11352539 C58.25537109 106.85352539 58.25537109 165.59352539 58.25537109 226.11352539 C60.23537109 226.44352539 62.21537109 226.77352539 64.25537109 227.11352539 C66.25537109 229.11352539 66.25537109 229.11352539 66.50260925 231.96681213 C66.50118423 233.18513229 66.49975922 234.40345245 66.49829102 235.65869141 C66.50018936 236.33037354 66.50208771 237.00205566 66.50404358 237.6940918 C66.50775433 239.91865639 66.49704412 242.14289597 66.48583984 244.36743164 C66.48464821 245.90917421 66.48419485 247.45091751 66.48445129 248.99266052 C66.48288597 252.2249709 66.47459193 255.45717059 66.46118164 258.68945312 C66.44417748 262.84152229 66.44036767 266.99346989 66.44112682 271.1455698 C66.44085548 274.32904734 66.43538034 277.51249807 66.42812538 280.69596672 C66.42493398 282.22744481 66.42297021 283.75892595 66.42223167 285.29040718 C66.42007388 287.42624257 66.41134238 289.56194655 66.40063477 291.69775391 C66.39682297 292.91527847 66.39301117 294.13280304 66.38908386 295.38722229 C66.25537109 298.11352539 66.25537109 298.11352539 65.25537109 299.11352539 C63.06270954 299.21312546 60.86679707 299.24152295 58.671875 299.24291992 C57.98404434 299.24467224 57.29621368 299.24642456 56.58753967 299.24822998 C54.30231235 299.25264913 52.01716177 299.24970966 49.73193359 299.24633789 C48.14871201 299.24701107 46.56549052 299.24798121 44.98226929 299.24923706 C41.65825419 299.25071424 38.3342659 299.2485594 35.01025391 299.24389648 C30.74738229 299.23820846 26.48457376 299.24147218 22.22170448 299.24746895 C18.94979375 299.25108193 15.67789797 299.24993241 12.40598679 299.24734116 C10.83429329 299.24667345 9.26259844 299.24749487 7.69090652 299.24982071 C5.49311986 299.25235827 3.29543531 299.24849061 1.09765625 299.24291992 C-0.77978775 299.24172653 -0.77978775 299.24172653 -2.69515991 299.24050903 C-5.74462891 299.11352539 -5.74462891 299.11352539 -8.74462891 298.11352539 C-8.81409657 289.16889408 -8.86742355 280.22435543 -8.90006542 271.27951336 C-8.9157308 267.12618682 -8.93698473 262.97304464 -8.97094727 258.81982422 C-9.00351001 254.81276954 -9.02147535 250.80589235 -9.02926064 246.79871559 C-9.03480973 245.26886004 -9.04564566 243.73901436 -9.06181908 242.20923424 C-9.08355306 240.06863684 -9.08659763 237.92877566 -9.08520508 235.78808594 C-9.09186691 234.56897018 -9.09852875 233.34985443 -9.10539246 232.09379578 C-8.74462891 229.11352539 -8.74462891 229.11352539 -7.5358429 227.25886536 C-5.74462891 226.11352539 -5.74462891 226.11352539 -0.74462891 225.11352539 C-0.74462891 166.70352539 -0.74462891 108.29352539 -0.74462891 48.11352539 C-3.05462891 48.11352539 -5.36462891 48.11352539 -7.74462891 48.11352539 C-8.9206292 45.76152479 -8.86547431 44.37618138 -8.8581543 41.75561523 C-8.85807877 40.85483246 -8.85800323 39.95404968 -8.85792542 39.02597046 C-8.85276413 38.05197296 -8.84760284 37.07797546 -8.84228516 36.07446289 C-8.84087021 35.07847076 -8.83945526 34.08247864 -8.83799744 33.05630493 C-8.83238827 29.86701486 -8.8198342 26.67779433 -8.80712891 23.48852539 C-8.80211509 21.32967224 -8.79755198 19.17081798 -8.79345703 17.01196289 C-8.78241586 11.71245989 -8.76566878 6.41299761 -8.74462891 1.11352539 C-5.82380435 -0.34688689 -3.26161522 -0.00576257 0 0 Z " fill="#524F9A" transform="translate(611.74462890625,96.886474609375)"/>
<path d="M0 0 C0.99261337 0.00222061 1.98522675 0.00444122 3.00791931 0.00672913 C4.12900589 0.00680466 5.25009247 0.00688019 6.40515137 0.00695801 C8.2348069 0.01469994 8.2348069 0.01469994 10.10142517 0.02259827 C11.96377052 0.02472069 11.96377052 0.02472069 13.86373901 0.02688599 C17.16982383 0.03154861 20.47584039 0.04053955 23.78190613 0.05158997 C27.15338042 0.06180625 30.52486175 0.06638407 33.89634705 0.07142639 C40.51550667 0.08248056 47.13463385 0.09923715 53.75376892 0.12025452 C54.76251569 4.28370108 54.86334158 8.16391832 54.83605957 12.44113159 C54.83283044 13.16819248 54.82960132 13.89525338 54.82627434 14.64434642 C54.81423275 17.07492802 54.79485308 19.50539482 54.77549744 21.93592834 C54.76535109 23.68048353 54.75565781 25.4250414 54.74638367 27.16960144 C54.71993828 31.9026625 54.6871515 36.63566095 54.65323377 41.36867356 C54.61885549 46.31609307 54.59029869 51.26354608 54.56112671 56.21099854 C54.50500742 65.57838458 54.44364597 74.94572867 54.38040537 84.31306905 C54.30865935 94.9780119 54.24275085 105.64298833 54.1773349 116.3079716 C54.04264584 138.24544437 53.89984822 160.18285443 53.75376892 182.12025452 C34.94376892 182.12025452 16.13376892 182.12025452 -3.24623108 182.12025452 C-3.26877587 158.53805552 -3.28720895 134.9558652 -3.29804325 111.37365818 C-3.30320677 100.42484718 -3.31025054 89.47604334 -3.32167053 78.52723694 C-3.33161566 68.98792721 -3.3380841 59.44862266 -3.34031957 49.9093079 C-3.34162697 44.85501428 -3.34471466 39.80073549 -3.35196114 34.74644661 C-3.35871865 29.99496668 -3.36084859 25.24350775 -3.35933876 20.49202347 C-3.35961521 18.74281767 -3.36162192 16.99361122 -3.36543655 15.24440956 C-3.37036962 12.86690304 -3.36923082 10.48947716 -3.3664856 8.11196899 C-3.36939844 7.41062019 -3.37231128 6.70927139 -3.37531239 5.9866696 C-3.35703227 0.17972251 -3.35703227 0.17972251 0 0 Z " fill="#53509C" transform="translate(614.2462310791016,397.87974548339844)"/>
<path d="M0 0 C1.82285774 -0.00450165 1.82285774 -0.00450165 3.68254089 -0.00909424 C5.65593193 0.00942596 5.65593193 0.00942596 7.66918945 0.02832031 C9.03578992 0.03138026 10.4023935 0.03325459 11.76899719 0.03399658 C14.63648385 0.03860087 17.50368989 0.05302284 20.37109375 0.07519531 C24.02809303 0.10334399 27.68487027 0.11439389 31.34196758 0.11887741 C34.84690288 0.12406487 38.35178371 0.1385943 41.85668945 0.15332031 C43.16216232 0.15757019 44.46763519 0.16182007 45.81266785 0.16619873 C63.0391713 0.30064591 63.0391713 0.30064591 66.0949707 3.35644531 C66.34220886 6.20973206 66.34220886 6.20973206 66.33789062 9.90161133 C66.33978897 10.57329346 66.34168732 11.24497559 66.34364319 11.93701172 C66.34735394 14.16157632 66.33664373 16.38581589 66.32543945 18.61035156 C66.32424782 20.15209413 66.32379446 21.69383744 66.3240509 23.23558044 C66.32248558 26.46789082 66.31419154 29.70009051 66.30078125 32.93237305 C66.28377709 37.08444222 66.27996728 41.23638981 66.28072643 45.38848972 C66.28045509 48.57196726 66.27497995 51.755418 66.26772499 54.93888664 C66.26453359 56.47036473 66.26256982 58.00184587 66.26183128 59.5333271 C66.25967349 61.66916249 66.25094199 63.80486647 66.24023438 65.94067383 C66.23642258 67.15819839 66.23261078 68.37572296 66.22868347 69.63014221 C66.0949707 72.35644531 66.0949707 72.35644531 65.0949707 73.35644531 C62.90230915 73.45604538 60.70639668 73.48444287 58.51147461 73.48583984 C57.82364395 73.48759216 57.13581329 73.48934448 56.42713928 73.4911499 C54.14191196 73.49556906 51.85676138 73.49262958 49.5715332 73.48925781 C47.98831162 73.48993099 46.40509013 73.49090113 44.8218689 73.49215698 C41.49785379 73.49363417 38.17386551 73.49147932 34.84985352 73.48681641 C30.5869819 73.48112838 26.32417337 73.4843921 22.06130409 73.49038887 C18.78939336 73.49400185 15.51749758 73.49285233 12.2455864 73.49026108 C10.6738929 73.48959337 9.10219805 73.4904148 7.53050613 73.49274063 C5.33271947 73.49527819 3.13503492 73.49141053 0.93725586 73.48583984 C-0.94018814 73.48464645 -0.94018814 73.48464645 -2.8555603 73.48342896 C-5.9050293 73.35644531 -5.9050293 73.35644531 -8.9050293 72.35644531 C-8.97449696 63.411814 -9.02782394 54.46727536 -9.06046581 45.52243328 C-9.07613119 41.36910674 -9.09738512 37.21596457 -9.13134766 33.06274414 C-9.1639104 29.05568946 -9.18187574 25.04881228 -9.18966103 21.04163551 C-9.19521012 19.51177996 -9.20604606 17.98193428 -9.22221947 16.45215416 C-9.24395345 14.31155677 -9.24699802 12.17169559 -9.24560547 10.03100586 C-9.2522673 8.81189011 -9.25892914 7.59277435 -9.26579285 6.3367157 C-8.9050293 3.35644531 -8.9050293 3.35644531 -7.75280762 1.46156311 C-5.10631725 -0.12124776 -3.07476285 -0.01046994 0 0 Z " fill="#262625" transform="translate(611.905029296875,322.6435546875)"/>
<path d="M0 0 C1.03919334 -0.00021904 1.03919334 -0.00021904 2.09938049 -0.0004425 C4.3935965 0.00025521 6.68773173 0.00804097 8.98193359 0.01586914 C10.57091223 0.01773382 12.15989144 0.01915749 13.74887085 0.02015686 C17.93446434 0.02397808 22.12002323 0.033805 26.30560303 0.04486084 C30.57531262 0.05508345 34.8450278 0.0596563 39.11474609 0.06469727 C47.49497032 0.07542761 55.87516641 0.09249931 64.25537109 0.11352539 C64.75037109 2.09352539 64.75037109 2.09352539 65.25537109 4.11352539 C64.59537109 4.11352539 63.93537109 4.11352539 63.25537109 4.11352539 C63.25537109 4.77352539 63.25537109 5.43352539 63.25537109 6.11352539 C64.24537109 6.11352539 65.23537109 6.11352539 66.25537109 6.11352539 C66.30472035 11.77350585 66.34106638 17.43336175 66.36523438 23.09350586 C66.37530691 25.01996033 66.38896553 26.94639947 66.40625 28.87280273 C66.4304435 31.63797791 66.44184145 34.40295139 66.45068359 37.16821289 C66.46100616 38.03284149 66.47132874 38.89747009 66.48196411 39.78829956 C66.48236215 41.8980606 66.37802352 44.00733257 66.25537109 46.11352539 C64.25537109 48.11352539 64.25537109 48.11352539 61.28146362 48.35403442 C60.00683258 48.3495932 58.73220154 48.34515198 57.41894531 48.34057617 C56.71639618 48.34086823 56.01384705 48.34116028 55.29000854 48.34146118 C52.96323378 48.34006562 50.63677755 48.32449411 48.31005859 48.30883789 C46.69866104 48.30510856 45.08726122 48.30226121 43.4758606 48.30026245 C39.23103596 48.2926197 34.9863478 48.27296579 30.74157715 48.25085449 C26.4115585 48.23040982 22.08151783 48.22126369 17.75146484 48.21118164 C9.25270424 48.18972043 0.75405463 48.15557684 -7.74462891 48.11352539 C-8.9206292 45.76152479 -8.86547431 44.37618138 -8.8581543 41.75561523 C-8.85807877 40.85483246 -8.85800323 39.95404968 -8.85792542 39.02597046 C-8.85276413 38.05197296 -8.84760284 37.07797546 -8.84228516 36.07446289 C-8.84087021 35.07847076 -8.83945526 34.08247864 -8.83799744 33.05630493 C-8.83238827 29.86701486 -8.8198342 26.67779433 -8.80712891 23.48852539 C-8.80211509 21.32967224 -8.79755198 19.17081798 -8.79345703 17.01196289 C-8.78241586 11.71245989 -8.76566878 6.41299761 -8.74462891 1.11352539 C-5.82380435 -0.34688689 -3.26161522 -0.00576257 0 0 Z " fill="#242423" transform="translate(611.74462890625,96.886474609375)"/>
<path d="M0 0 C24.75 0 49.5 0 75 0 C74.67 0.99 74.34 1.98 74 3 C71.69 3 69.38 3 67 3 C67.00184359 3.94128942 67.00368717 4.88257885 67.00558662 5.8523922 C67.0499321 28.72728104 67.08282599 51.60216432 67.10362434 74.47708702 C67.1139489 85.53910217 67.12803168 96.60108898 67.15087891 107.66308594 C67.17077677 117.30165488 67.18370785 126.9402033 67.18817699 136.57879221 C67.1907905 141.68511598 67.1969577 146.79138101 67.21146011 151.897686 C67.22498716 156.69925281 67.22923258 161.50073643 67.22621536 166.30232048 C67.22676772 168.0688478 67.2307741 169.83537776 67.23841095 171.60188866 C67.24829603 174.00539734 67.24599268 176.40858792 67.24050903 178.81210327 C67.24633472 179.51832113 67.2521604 180.22453898 67.25816262 180.95215738 C67.22824242 185.77175758 67.22824242 185.77175758 65 188 C62.72962952 188.25396729 62.72962952 188.25396729 59.86352539 188.25878906 C58.79223892 188.26509338 57.72095245 188.27139771 56.61720276 188.27789307 C55.45575241 188.2738446 54.29430206 188.26979614 53.09765625 188.265625 C51.90901474 188.26753845 50.72037323 188.2694519 49.49571228 188.27142334 C46.97801502 188.27278641 44.46031077 188.26908154 41.94262695 188.26074219 C38.08203367 188.25005408 34.22190676 188.26062884 30.36132812 188.2734375 C27.9192698 188.27211574 25.47721177 188.26955301 23.03515625 188.265625 C21.87573013 188.26967346 20.71630402 188.27372192 19.52174377 188.27789307 C17.91008583 188.26843658 17.91008583 188.26843658 16.26586914 188.25878906 C15.31925919 188.25719788 14.37264923 188.25560669 13.39735413 188.25396729 C11 188 11 188 8 186 C8 185.34 8 184.68 8 184 C26.81 184 45.62 184 65 184 C65 123.94 65 63.88 65 2 C43.55 2 22.1 2 0 2 C0 1.34 0 0.68 0 0 Z " fill="#6866CA" transform="translate(603,396)"/>
<path d="M0 0 C0.66 0 1.32 0 2 0 C2 57.42 2 114.84 2 174 C1.01 174 0.02 174 -1 174 C-1.02332662 151.46087424 -1.04097801 128.92175046 -1.05181217 106.38261509 C-1.05697564 95.91807719 -1.06401929 85.45354677 -1.07543945 74.98901367 C-1.08538476 65.87160565 -1.09185306 56.75420304 -1.09408849 47.63678974 C-1.09539586 42.80606124 -1.09848336 37.97534825 -1.10573006 33.14462471 C-1.11248785 28.60326313 -1.11461746 24.06192353 -1.11310768 19.5205574 C-1.11338412 17.84875431 -1.11539066 16.17695052 -1.11920547 14.50515175 C-1.12413898 12.23274147 -1.12299958 9.96041554 -1.12025452 7.68800354 C-1.12117631 6.41316384 -1.1220981 5.13832415 -1.12304783 3.82485294 C-1 1 -1 1 0 0 Z " fill="#6563C2" transform="translate(668,149)"/>
<path d="M0 0 C6.27 0 12.54 0 19 0 C19 8.58 19 17.16 19 26 C12.73 26 6.46 26 0 26 C0 17.42 0 8.84 0 0 Z " fill="#5C796F" transform="translate(644,104)"/>
<path d="M0 0 C6.27 0 12.54 0 19 0 C19 8.58 19 17.16 19 26 C12.73 26 6.46 26 0 26 C0 17.42 0 8.84 0 0 Z " fill="#5D796F" transform="translate(618,104)"/>
<path d="M0 0 C0.85039667 2.38111068 1.07366994 3.71350578 0.4375 6.1875 C-1 8 -1 8 -3.375 8.75 C-7.75667807 9.05218469 -12.09828252 9.02389604 -16.48828125 8.9375 C-18.9395288 8.70976273 -18.9395288 8.70976273 -20 10 C-23.07174367 10.10249194 -26.11574127 10.14057574 -29.1875 10.125 C-30.08629883 10.12306641 -30.98509766 10.12113281 -31.91113281 10.11914062 C-39.3092008 10.07170022 -46.63143116 9.68317857 -54 9 C-54 8.34 -54 7.68 -54 7 C-55.65 6.67 -57.3 6.34 -59 6 C-59 5.34 -59 4.68 -59 4 C-57.95763435 4.01332367 -57.95763435 4.01332367 -56.89421082 4.0269165 C-50.34654031 4.10705206 -43.79900655 4.16795867 -37.25095654 4.20724869 C-33.88445817 4.22812738 -30.51836484 4.25644839 -27.15209961 4.30175781 C-23.28227945 4.35015726 -19.41303582 4.37294261 -15.54296875 4.390625 C-14.33352097 4.41127014 -13.12407318 4.43191528 -11.87797546 4.45318604 C-10.75703995 4.45348816 -9.63610443 4.45379028 -8.48120117 4.45410156 C-7.49302902 4.46298401 -6.50485687 4.47186646 -5.48674011 4.48101807 C-2.83543288 4.2257283 -2.83543288 4.2257283 -1.15742493 1.97161865 C-0.7754747 1.3209845 -0.39352448 0.67035034 0 0 Z " fill="#6B8CA7" transform="translate(671,579)"/>
<path d="M0 0 C19.47 0 38.94 0 59 0 C58.34 1.32 57.68 2.64 57 4 C49.36453069 4.05062418 41.7291045 4.08570152 34.09350586 4.10986328 C31.49485659 4.11993368 28.89621869 4.13359071 26.29760742 4.15087891 C22.56686603 4.17508139 18.83627419 4.18647266 15.10546875 4.1953125 C13.35691841 4.21079636 13.35691841 4.21079636 11.57304382 4.22659302 C10.49214981 4.22674408 9.4112558 4.22689514 8.29760742 4.22705078 C7.34496506 4.231492 6.39232269 4.23593323 5.41081238 4.24050903 C3 4 3 4 0 2 C0 1.34 0 0.68 0 0 Z " fill="#BFC4FD" transform="translate(611,580)"/>
<path d="M0 0 C0.33 0 0.66 0 1 0 C1 58.41 1 116.82 1 177 C1.66 177.33 2.32 177.66 3 178 C1.02 178 -0.96 178 -3 178 C-2.34 177.01 -1.68 176.02 -1 175 C-0.68584074 171.76859914 -0.68584074 171.76859914 -0.7215271 167.99555969 C-0.7157347 167.27837475 -0.7099423 166.56118982 -0.70397437 165.822272 C-0.68693533 163.41312634 -0.68409455 161.0041718 -0.68115234 158.5949707 C-0.67185685 156.87040739 -0.66168875 155.14584859 -0.65071106 153.42129517 C-0.62335425 148.73361538 -0.60824485 144.04596574 -0.59528303 139.35822701 C-0.57967731 134.46145424 -0.55287897 129.56474326 -0.5272522 124.66801453 C-0.48041902 115.39269579 -0.4436969 106.11736548 -0.41057932 96.84198874 C-0.37238997 86.28343622 -0.32297149 75.72494569 -0.27259517 65.16644537 C-0.16920782 43.44434266 -0.07996957 21.72220072 0 0 Z " fill="#5B7189" transform="translate(610,145)"/>
<path d="M0 0 C24.75 0 49.5 0 75 0 C74.67 0.99 74.34 1.98 74 3 C37.37 2.505 37.37 2.505 0 2 C0 1.34 0 0.68 0 0 Z " fill="#EEEFF0" transform="translate(603,396)"/>
<path d="M0 0 C0.33 0 0.66 0 1 0 C1.02505615 1.29212402 1.0501123 2.58424805 1.07592773 3.91552734 C1.16991624 8.69769656 1.27015766 13.47971762 1.37231445 18.26171875 C1.41569577 20.33362366 1.45736846 22.40556507 1.49731445 24.47753906 C1.55493965 27.45128391 1.61865625 30.42484448 1.68359375 33.3984375 C1.70030624 34.32868744 1.71701874 35.25893738 1.73423767 36.21737671 C1.75418289 37.07811798 1.77412811 37.93885925 1.79467773 38.82568359 C1.81022202 39.58513275 1.8257663 40.34458191 1.84178162 41.12704468 C1.89127127 43.09115721 1.89127127 43.09115721 3 45 C26.1 45.33 49.2 45.66 73 46 C73 46.33 73 46.66 73 47 C49.24 47 25.48 47 1 47 C-0.1760003 44.6479994 -0.12084541 43.26265599 -0.11352539 40.64208984 C-0.11344986 39.74130707 -0.11337433 38.84052429 -0.11329651 37.91244507 C-0.10813522 36.93844757 -0.10297394 35.96445007 -0.09765625 34.9609375 C-0.0962413 33.96494537 -0.09482635 32.96895325 -0.09336853 31.94277954 C-0.08775936 28.75348947 -0.0752053 25.56426894 -0.0625 22.375 C-0.05748618 20.21614685 -0.05292307 18.05729259 -0.04882812 15.8984375 C-0.03778695 10.5989345 -0.02103988 5.29947222 0 0 Z " fill="#2C2C4A" transform="translate(603,98)"/>
<path d="M0 0 C0.99 0 1.98 0 3 0 C3 13.2 3 26.4 3 40 C2.01 40.495 2.01 40.495 1 41 C-0.29487016 37.11538953 -0.1232604 33.44116044 -0.09765625 29.39453125 C-0.0962413 28.55532639 -0.09482635 27.71612152 -0.09336853 26.85148621 C-0.08777215 24.17178784 -0.07522035 21.4921731 -0.0625 18.8125 C-0.05748453 16.99544392 -0.05292171 15.17838652 -0.04882812 13.36132812 C-0.03780391 8.90751987 -0.02054178 4.45377411 0 0 Z " fill="#363C38" transform="translate(675,103)"/>
<path d="M0 0 C17.49 0 34.98 0 53 0 C52.67 0.66 52.34 1.32 52 2 C46.11807273 3.04846153 40.31679605 3.14707413 34.35546875 3.1328125 C33.46386551 3.13376923 32.57226227 3.13472595 31.65364075 3.13571167 C29.78382292 3.13638793 27.91400268 3.13457256 26.04418945 3.13037109 C23.17849515 3.12498307 20.31295532 3.13035109 17.44726562 3.13671875 C15.62499965 3.13605849 13.80273378 3.13477841 11.98046875 3.1328125 C11.12422409 3.13483673 10.26797943 3.13686096 9.38578796 3.13894653 C6.01002254 3.12555836 3.22465847 3.07488616 0 2 C0 1.34 0 0.68 0 0 Z " fill="#4B487A" transform="translate(614,398)"/>
<path d="M0 0 C0.1953125 6.0546875 0.1953125 6.0546875 0 8 C-2 10 -2 10 -5.125 10.125 C-6.548125 10.063125 -6.548125 10.063125 -8 10 C-9.1577506 6.52674819 -9.06866652 3.63932552 -9 0 C-5.93109813 -1.53445094 -3.29905734 -0.54984289 0 0 Z " fill="#706FA8" transform="translate(645,431)"/>
<path d="M0 0 C3.625 0.375 3.625 0.375 7 1 C7.02689216 2.47906892 7.04634621 3.95827483 7.0625 5.4375 C7.07410156 6.26121094 7.08570313 7.08492188 7.09765625 7.93359375 C7 10 7 10 6 11 C3.0625 11.25 3.0625 11.25 0 11 C-2.30163882 7.54754176 -2.34490322 6.05261287 -2 2 C-1.34 1.34 -0.68 0.68 0 0 Z " fill="#7170A8" transform="translate(638,467)"/>
<path d="M0 0 C2.375 0.6875 2.375 0.6875 3.375 1.6875 C3.5078125 3.5 3.5078125 3.5 3.5 5.6875 C3.50257813 6.409375 3.50515625 7.13125 3.5078125 7.875 C3.375 9.6875 3.375 9.6875 2.375 10.6875 C-0.5625 10.875 -0.5625 10.875 -3.625 10.6875 C-5.625 8.6875 -5.625 8.6875 -5.9375 5.1875 C-5.834375 4.0325 -5.73125 2.8775 -5.625 1.6875 C-2.625 -0.3125 -2.625 -0.3125 0 0 Z " fill="#7473AB" transform="translate(641.625,541.3125)"/>
<path d="M0 0 C2.375 0.6875 2.375 0.6875 3.375 1.6875 C3.5078125 3.5 3.5078125 3.5 3.5 5.6875 C3.50257813 6.409375 3.50515625 7.13125 3.5078125 7.875 C3.375 9.6875 3.375 9.6875 2.375 10.6875 C0.04202567 10.72842937 -2.29205225 10.72991723 -4.625 10.6875 C-4.955 7.7175 -5.285 4.7475 -5.625 1.6875 C-2.625 -0.3125 -2.625 -0.3125 0 0 Z " fill="#7372AC" transform="translate(641.625,504.3125)"/>
<path d="M0 0 C0.33 0 0.66 0 1 0 C1 22.11 1 44.22 1 67 C1.66 67.33 2.32 67.66 3 68 C1.02 68 -0.96 68 -3 68 C-2.34 67.01 -1.68 66.02 -1 65 C-0.6702078 62.06815971 -0.6702078 62.06815971 -0.68115234 58.69262695 C-0.66128265 57.39150467 -0.64141296 56.09038239 -0.62094116 54.74983215 C-0.60906469 53.32931691 -0.59740184 51.90879988 -0.5859375 50.48828125 C-0.56722765 49.03524167 -0.54765438 47.58221297 -0.5272522 46.12919617 C-0.47590536 42.30702123 -0.43629347 38.48481105 -0.39910889 34.66247559 C-0.35908513 30.761223 -0.30798539 26.8601173 -0.2578125 22.95898438 C-0.16102306 15.30609033 -0.07662811 7.65312528 0 0 Z " fill="#566B86" transform="translate(610,255)"/>
<path d="M0 0 C16.17 0 32.34 0 49 0 C49 0.33 49 0.66 49 1 C48.10692139 1.02505615 47.21384277 1.0501123 46.29370117 1.07592773 C42.97814546 1.17110186 39.66276271 1.27033283 36.34741211 1.37231445 C34.91288997 1.41560793 33.47831816 1.45728699 32.04370117 1.49731445 C29.9808048 1.55515267 27.91815717 1.61880753 25.85546875 1.68359375 C23.99378052 1.73858032 23.99378052 1.73858032 22.09448242 1.79467773 C18.96446653 1.87144121 18.96446653 1.87144121 16 3 C15.34 2.67 14.68 2.34 14 2 C11.7927077 1.92907158 9.58332548 1.91584975 7.375 1.9375 C5.59222656 1.95103516 5.59222656 1.95103516 3.7734375 1.96484375 C2.40058594 1.98224609 2.40058594 1.98224609 1 2 C0.67 1.34 0.34 0.68 0 0 Z " fill="#6F90BA" transform="translate(617,584)"/>
<path d="M0 0 C0.33 0 0.66 0 1 0 C1.02505615 1.28165039 1.0501123 2.56330078 1.07592773 3.88378906 C1.17011595 8.6399125 1.2703089 13.39589379 1.37231445 18.15185547 C1.41562009 20.21008987 1.45729829 22.26835918 1.49731445 24.32666016 C1.55512275 27.28558879 1.61878696 30.2443424 1.68359375 33.203125 C1.70030624 34.12305237 1.71701874 35.04297974 1.73423767 35.99078369 C1.75418289 36.8513739 1.77412811 37.71196411 1.79467773 38.59863281 C1.81022202 39.35364075 1.8257663 40.10864868 1.84178162 40.88653564 C2.00185633 43.02479671 2.41816368 44.93989084 3 47 C2.34 47 1.68 47 1 47 C-0.1760003 44.6479994 -0.12084541 43.26265599 -0.11352539 40.64208984 C-0.11344986 39.74130707 -0.11337433 38.84052429 -0.11329651 37.91244507 C-0.10813522 36.93844757 -0.10297394 35.96445007 -0.09765625 34.9609375 C-0.0962413 33.96494537 -0.09482635 32.96895325 -0.09336853 31.94277954 C-0.08775936 28.75348947 -0.0752053 25.56426894 -0.0625 22.375 C-0.05748618 20.21614685 -0.05292307 18.05729259 -0.04882812 15.8984375 C-0.03778695 10.5989345 -0.02103988 5.29947222 0 0 Z " fill="#43554E" transform="translate(603,98)"/>
<path d="M0 0 C1.66611905 -0.042721 3.33382885 -0.04063832 5 0 C6 1 6 1 6.0625 3.5625 C6.041875 4.366875 6.02125 5.17125 6 6 C3.625 6.625 3.625 6.625 1 7 C0.34 6.34 -0.32 5.68 -1 5 C-0.625 2.375 -0.625 2.375 0 0 Z " fill="#516565" transform="translate(638,506)"/>
<path d="M0 0 C2.125 0.375 2.125 0.375 4 1 C4.38218767 2.65614657 4.71395102 4.32457024 5 6 C4 7 4 7 1.4375 7.0625 C0.2309375 7.0315625 0.2309375 7.0315625 -1 7 C-1.625 4.625 -1.625 4.625 -2 2 C-1.34 1.34 -0.68 0.68 0 0 Z " fill="#4B5E5F" transform="translate(639,431)"/>
<path d="M0 0 C1.65 0.33 3.3 0.66 5 1 C5.33 2.65 5.66 4.3 6 6 C3.625 6.625 3.625 6.625 1 7 C0.34 6.34 -0.32 5.68 -1 5 C-0.625 2.375 -0.625 2.375 0 0 Z " fill="#536866" transform="translate(638,543)"/>
<path d="M0 0 C2.5 0.125 2.5 0.125 3.5 1.125 C3.54063832 2.79117115 3.542721 4.45888095 3.5 6.125 C1.52 6.125 -0.46 6.125 -2.5 6.125 C-2.88218767 4.46885343 -3.21395102 2.80042976 -3.5 1.125 C-2.5 0.125 -2.5 0.125 0 0 Z " fill="#4E6261" transform="translate(640.5,468.875)"/>
<path d="M0 0 C0.66 0 1.32 0 2 0 C2.33 5.61 2.66 11.22 3 17 C2.01 16.67 1.02 16.34 0 16 C0 10.72 0 5.44 0 0 Z " fill="#2E2E2C" transform="translate(615,114)"/>
<path d="M0 0 C-0.33 0.99 -0.66 1.98 -1 3 C-13.87 2.505 -13.87 2.505 -27 2 C-27 1.67 -27 1.34 -27 1 C-23.25006257 0.83190552 -19.50004074 0.66577241 -15.75 0.5 C-14.15478516 0.42845703 -14.15478516 0.42845703 -12.52734375 0.35546875 C-11.50253906 0.31035156 -10.47773437 0.26523437 -9.421875 0.21875 C-8.47924805 0.17685547 -7.53662109 0.13496094 -6.56542969 0.09179688 C-4.37813904 0.01353067 -2.18869047 0 0 0 Z " fill="#C6CFCF" transform="translate(678,396)"/>
<path d="M0 0 C0.33 0 0.66 0 1 0 C1 8.91 1 17.82 1 27 C1.66 27.33 2.32 27.66 3 28 C1.02 28 -0.96 28 -3 28 C-2.01 26.515 -2.01 26.515 -1 25 C-0.63201307 22.28924456 -0.63201307 22.28924456 -0.5859375 19.23828125 C-0.54726563 18.12001953 -0.50859375 17.00175781 -0.46875 15.84960938 C-0.4378125 14.68236328 -0.406875 13.51511719 -0.375 12.3125 C-0.33632813 11.13365234 -0.29765625 9.95480469 -0.2578125 8.74023438 C-0.16345609 5.82698023 -0.07786839 2.91373393 0 0 Z " fill="#506377" transform="translate(610,295)"/>
<path d="M0 0 C2.97 0 5.94 0 9 0 C9 0.99 9 1.98 9 3 C7.25 4.125 7.25 4.125 5 5 C2.8125 4.3125 2.8125 4.3125 1 3 C0.67 2.01 0.34 1.02 0 0 Z " fill="#789D9C" transform="translate(669,398)"/>
</svg>
