<?xml version="1.0" encoding="UTF-8"?>
<svg version="1.1" xmlns="http://www.w3.org/2000/svg" width="1280" height="720">
<path d="M0 0 C422.4 0 844.8 0 1280 0 C1280 237.6 1280 475.2 1280 720 C857.6 720 435.2 720 0 720 C0 482.4 0 244.8 0 0 Z " fill="#6B8C80" transform="translate(0,0)"/>
<path d="M0 0 C1.03919334 -0.00021904 1.03919334 -0.00021904 2.09938049 -0.0004425 C4.3935965 0.00025521 6.68773173 0.00804097 8.98193359 0.01586914 C10.57091223 0.01773382 12.15989144 0.01915749 13.74887085 0.02015686 C17.93446434 0.02397808 22.12002323 0.033805 26.30560303 0.04486084 C30.57531262 0.05508345 34.8450278 0.0596563 39.11474609 0.06469727 C47.49497032 0.07542761 55.87516641 0.09249931 64.25537109 0.11352539 C64.75037109 2.09352539 64.75037109 2.09352539 65.25537109 4.11352539 C64.59537109 4.11352539 63.93537109 4.11352539 63.25537109 4.11352539 C63.25537109 4.77352539 63.25537109 5.43352539 63.25537109 6.11352539 C64.24537109 6.11352539 65.23537109 6.11352539 66.25537109 6.11352539 C66.32939477 11.77348955 66.38391282 17.4331735 66.42016602 23.09350586 C66.43527504 25.01998806 66.45576323 26.94643575 66.48168945 28.87280273 C66.51798034 31.63802596 66.53507588 34.40279543 66.54833984 37.16821289 C66.5638237 38.03284149 66.57930756 38.89747009 66.59526062 39.78829956 C66.59594727 42.21459961 66.59594727 42.21459961 66.25537109 46.11352539 C63.25537109 48.11352539 63.25537109 48.11352539 58.25537109 48.11352539 C58.25537109 106.85352539 58.25537109 165.59352539 58.25537109 226.11352539 C59.90537109 226.11352539 61.55537109 226.11352539 63.25537109 226.11352539 C65.04559326 227.19735718 65.04559326 227.19735718 66.25537109 229.11352539 C66.62286377 232.08706665 66.62286377 232.08706665 66.61181641 235.7722168 C66.61386078 236.44404495 66.61590515 237.11587311 66.61801147 237.80805969 C66.62101827 240.02734648 66.60254939 242.24588951 66.58349609 244.46508789 C66.58043872 246.00539974 66.57856243 247.54571435 66.57781982 249.08602905 C66.57321774 252.31242467 66.55879341 255.53857056 66.53662109 258.76489258 C66.50829131 262.90909195 66.49740483 267.05309496 66.492939 271.19738197 C66.48879138 274.37657653 66.47898021 277.55573106 66.4670639 280.73490524 C66.46135117 282.26359103 66.4565958 283.7922807 66.45279694 285.32097244 C66.44595515 287.45192558 66.43233416 289.58272015 66.41650391 291.71362305 C66.4096759 292.92813141 66.4028479 294.14263977 66.39581299 295.39395142 C66.25537109 298.11352539 66.25537109 298.11352539 65.25537109 299.11352539 C63.06270954 299.21312546 60.86679707 299.24152295 58.671875 299.24291992 C57.98404434 299.24467224 57.29621368 299.24642456 56.58753967 299.24822998 C54.30231235 299.25264913 52.01716177 299.24970966 49.73193359 299.24633789 C48.14871201 299.24701107 46.56549052 299.24798121 44.98226929 299.24923706 C41.65825419 299.25071424 38.3342659 299.2485594 35.01025391 299.24389648 C30.74738229 299.23820846 26.48457376 299.24147218 22.22170448 299.24746895 C18.94979375 299.25108193 15.67789797 299.24993241 12.40598679 299.24734116 C10.83429329 299.24667345 9.26259844 299.24749487 7.69090652 299.24982071 C5.49311986 299.25235827 3.29543531 299.24849061 1.09765625 299.24291992 C-0.77978775 299.24172653 -0.77978775 299.24172653 -2.69515991 299.24050903 C-5.74462891 299.11352539 -5.74462891 299.11352539 -8.74462891 298.11352539 C-8.88364886 289.05589727 -8.99025859 279.99863629 -9.05550194 270.9401741 C-9.08681591 266.7339027 -9.12928773 262.5283611 -9.19726562 258.32250977 C-9.26245919 254.26352522 -9.29833445 250.20524252 -9.31389236 246.14577484 C-9.32497905 244.5971242 -9.34662985 243.04851202 -9.37900925 241.50016022 C-9.42257903 239.33039895 -9.42856375 237.16353653 -9.42578125 234.9934082 C-9.43910492 233.75874817 -9.45242859 232.52408813 -9.46615601 231.25201416 C-8.74462891 228.11352539 -8.74462891 228.11352539 -5.76455688 225.80853271 C-4.76798065 225.2491803 -3.77140442 224.68982788 -2.74462891 224.11352539 C-1.27389351 221.1720546 -1.60295447 218.55245911 -1.58641052 215.26730347 C-1.57900356 214.19893303 -1.57900356 214.19893303 -1.57144696 213.10897934 C-1.55602856 210.71059478 -1.54769964 208.31223706 -1.53930664 205.91381836 C-1.52973152 204.19925702 -1.51972166 202.48469806 -1.50930786 200.7701416 C-1.48221301 196.10513474 -1.46122829 191.44011771 -1.44130588 186.77507544 C-1.41947452 181.90367106 -1.39207191 177.03229818 -1.36524963 172.16091919 C-1.31528412 162.93160193 -1.27035964 153.70226722 -1.22722727 144.47291577 C-1.17788782 133.96760713 -1.12295751 123.46233009 -1.06754768 112.95705199 C-0.95366842 91.34257254 -0.84684235 69.72806295 -0.74462891 48.11352539 C-2.44619141 48.14446289 -2.44619141 48.14446289 -4.18212891 48.17602539 C-7.74462891 48.11352539 -7.74462891 48.11352539 -8.74462891 47.11352539 C-8.83758706 45.67062752 -8.86209403 44.22322755 -8.8581543 42.77734375 C-8.85807877 41.85646469 -8.85800323 40.93558563 -8.85792542 39.98680115 C-8.85276413 38.98576859 -8.84760284 37.98473602 -8.84228516 36.95336914 C-8.84087021 35.93376602 -8.83945526 34.9141629 -8.83799744 33.86366272 C-8.83237987 30.59275432 -8.81982441 27.32191326 -8.80712891 24.05102539 C-8.80211617 21.83943783 -8.79755287 19.62784921 -8.79345703 17.41625977 C-8.78240474 11.98199182 -8.76564954 6.54776342 -8.74462891 1.11352539 C-5.82380435 -0.34688689 -3.26161522 -0.00576257 0 0 Z " fill="#81984B" transform="translate(611.74462890625,96.886474609375)"/>
<path d="M0 0 C18.81 0 37.62 0 57 0 C57.87276912 4.36384558 58.11291108 7.86492141 58.08901978 12.27618408 C58.08649621 12.99845586 58.08397265 13.72072763 58.08137262 14.46488643 C58.07166886 16.87931025 58.05463227 19.29362541 58.03759766 21.70800781 C58.02908856 23.44108886 58.02101743 25.1741721 58.01335144 26.90725708 C57.99117662 31.60939257 57.9625037 36.3114678 57.93239641 41.01355839 C57.90173397 45.92981862 57.87611327 50.84610558 57.84970093 55.76239014 C57.80453071 64.0141441 57.75504801 72.26586408 57.703125 80.51757812 C57.64307872 90.07031717 57.59032729 99.62307605 57.54135668 109.17587781 C57.49916529 117.37042897 57.45311451 125.56495172 57.40379179 133.75946307 C57.3743126 138.6571718 57.34617892 143.55487839 57.32149124 148.45261383 C57.29808542 153.05234672 57.26984969 157.65202461 57.23780251 162.25170517 C57.22680951 163.94446414 57.21752922 165.63723518 57.21003914 167.33001328 C57.19958634 169.63065013 57.18308003 171.93116328 57.16494751 174.23175049 C57.15719614 175.52221912 57.14944477 176.81268776 57.14145851 178.14226151 C57 181 57 181 56 182 C37.52 182 19.04 182 0 182 C0 121.94 0 61.88 0 0 Z " fill="#839A4B" transform="translate(611,398)"/>
<path d="M0 0 C0.37157227 0.48706421 0.74314453 0.97412842 1.12597656 1.47595215 C3.76661624 3.62344995 5.60609808 3.37837307 8.984375 3.38476562 C10.21575195 3.39487671 11.44712891 3.40498779 12.71582031 3.41540527 C13.37312134 3.41384933 14.03042236 3.4122934 14.7076416 3.41069031 C16.76732492 3.40621233 18.82614898 3.42020942 20.88574219 3.43908691 C25.25714747 3.47586783 29.62846273 3.48958131 34 3.5 C39.06583542 3.51207341 44.13125225 3.53357193 49.19689941 3.58000183 C51.22615917 3.59359035 53.25489215 3.58939838 55.28417969 3.58459473 C56.51555664 3.59470581 57.74693359 3.60481689 59.015625 3.61523438 C60.10133789 3.61728882 61.18705078 3.61934326 62.30566406 3.62145996 C65 4 65 4 66.85174561 5.10787964 C68.58399823 7.9623259 68.36639775 10.33878337 68.35644531 13.65869141 C68.35848969 14.33051956 68.36053406 15.00234772 68.36264038 15.6945343 C68.36564718 17.91382109 68.3471783 20.13236412 68.328125 22.3515625 C68.32506762 23.89187435 68.32319134 25.43218896 68.32244873 26.97250366 C68.31784665 30.19889928 68.30342232 33.42504517 68.28125 36.65136719 C68.25292021 40.79556656 68.24203374 44.93956957 68.2375679 49.08385658 C68.23342028 52.26305114 68.22360912 55.44220567 68.21169281 58.62137985 C68.20598007 60.15006564 68.20122471 61.67875531 68.19742584 63.20744705 C68.19058406 65.33840019 68.17696306 67.46919476 68.16113281 69.60009766 C68.15430481 70.81460602 68.14747681 72.02911438 68.14044189 73.28042603 C68 76 68 76 67 77 C64.80733845 77.09960006 62.61142598 77.12799756 60.41650391 77.12939453 C59.72867325 77.13114685 59.04084259 77.13289917 58.33216858 77.13470459 C56.04694126 77.13912374 53.76179068 77.13618427 51.4765625 77.1328125 C49.89334091 77.13348568 48.31011943 77.13445582 46.72689819 77.13571167 C43.40288309 77.13718885 40.0788948 77.13503401 36.75488281 77.13037109 C32.4920112 77.12468307 28.22920267 77.12794679 23.96633339 77.13394356 C20.69442265 77.13755654 17.42252688 77.13640702 14.15061569 77.13381577 C12.5789222 77.13314806 11.00722735 77.13396948 9.43553543 77.13629532 C7.23774877 77.13883288 5.04006421 77.13496522 2.84228516 77.12939453 C0.96484116 77.12820114 0.96484116 77.12820114 -0.95053101 77.12698364 C-4 77 -4 77 -7 76 C-7.13901995 66.94237188 -7.24562968 57.8851109 -7.31087303 48.82664871 C-7.34218701 44.62037731 -7.38465883 40.41483571 -7.45263672 36.20898438 C-7.51783028 32.14999983 -7.55370555 28.09171713 -7.56926346 24.03224945 C-7.58035014 22.48359881 -7.60200094 20.93498662 -7.63438034 19.38663483 C-7.67795012 17.21687356 -7.68393485 15.05001114 -7.68115234 12.87988281 C-7.69447601 11.64522278 -7.70779968 10.41056274 -7.7215271 9.13848877 C-7 6 -7 6 -4.01992798 3.69500732 C-3.02335175 3.13565491 -2.02677551 2.57630249 -1 2 C-0.67 1.34 -0.34 0.68 0 0 Z " fill="#262525" transform="translate(610,319)"/>
<path d="M0 0 C1.03919334 -0.00021904 1.03919334 -0.00021904 2.09938049 -0.0004425 C4.3935965 0.00025521 6.68773173 0.00804097 8.98193359 0.01586914 C10.57091223 0.01773382 12.15989144 0.01915749 13.74887085 0.02015686 C17.93446434 0.02397808 22.12002323 0.033805 26.30560303 0.04486084 C30.57531262 0.05508345 34.8450278 0.0596563 39.11474609 0.06469727 C47.49497032 0.07542761 55.87516641 0.09249931 64.25537109 0.11352539 C64.75037109 2.09352539 64.75037109 2.09352539 65.25537109 4.11352539 C64.59537109 4.11352539 63.93537109 4.11352539 63.25537109 4.11352539 C63.25537109 4.77352539 63.25537109 5.43352539 63.25537109 6.11352539 C64.24537109 6.11352539 65.23537109 6.11352539 66.25537109 6.11352539 C66.32939477 11.77348955 66.38391282 17.4331735 66.42016602 23.09350586 C66.43527504 25.01998806 66.45576323 26.94643575 66.48168945 28.87280273 C66.51798034 31.63802596 66.53507588 34.40279543 66.54833984 37.16821289 C66.5638237 38.03284149 66.57930756 38.89747009 66.59526062 39.78829956 C66.59594727 42.21459961 66.59594727 42.21459961 66.25537109 46.11352539 C62.57928807 48.56424741 60.79677275 48.36143627 56.41308594 48.35644531 C55.72175064 48.35834366 55.03041534 48.360242 54.31813049 48.36219788 C52.03407435 48.36590137 49.75033644 48.3552095 47.46630859 48.34399414 C45.88115476 48.3428022 44.29600021 48.34234921 42.71084595 48.34260559 C39.39035617 48.34104158 36.06997435 48.33275677 32.74951172 48.31933594 C28.48425081 48.30231851 24.21910825 48.29852242 19.95381737 48.29928112 C16.68198508 48.29900982 13.41017889 48.29353554 10.13835526 48.28627968 C8.56501081 48.28308868 6.9916634 48.2811246 5.41831589 48.28038597 C3.22511454 48.27822851 1.03204123 48.26949812 -1.16113281 48.25878906 C-3.03619003 48.25307137 -3.03619003 48.25307137 -4.9491272 48.24723816 C-7.74462891 48.11352539 -7.74462891 48.11352539 -8.74462891 47.11352539 C-8.83758706 45.67062752 -8.86209403 44.22322755 -8.8581543 42.77734375 C-8.85807877 41.85646469 -8.85800323 40.93558563 -8.85792542 39.98680115 C-8.85276413 38.98576859 -8.84760284 37.98473602 -8.84228516 36.95336914 C-8.84087021 35.93376602 -8.83945526 34.9141629 -8.83799744 33.86366272 C-8.83237987 30.59275432 -8.81982441 27.32191326 -8.80712891 24.05102539 C-8.80211617 21.83943783 -8.79755287 19.62784921 -8.79345703 17.41625977 C-8.78240474 11.98199182 -8.76564954 6.54776342 -8.74462891 1.11352539 C-5.82380435 -0.34688689 -3.26161522 -0.00576257 0 0 Z " fill="#252524" transform="translate(611.74462890625,96.886474609375)"/>
<path d="M0 0 C24.75 0 49.5 0 75 0 C74.67 1.65 74.34 3.3 74 5 C72.02 5.33 70.04 5.66 68 6 C67.99668985 6.92582823 67.99337971 7.85165646 67.98996925 8.80554008 C67.9090721 31.30495927 67.81678659 53.8043096 67.71247292 76.30363274 C67.66229343 87.18401551 67.61585123 98.06439055 67.578125 108.94482422 C67.54524379 118.42522127 67.50543423 127.90555919 67.45720994 137.38589108 C67.43190633 142.40834951 67.41013657 147.43076853 67.39665604 152.45327377 C67.38387059 157.17609378 67.36185463 161.89877887 67.33261681 166.62152481 C67.32351339 168.35900671 67.3178444 170.09651036 67.31578636 171.83401489 C67.31248322 174.19816332 67.2970595 176.56192464 67.2784729 178.92599487 C67.28040763 179.62053988 67.28234237 180.31508489 67.28433573 181.03067672 C67.22824242 185.77175758 67.22824242 185.77175758 65 188 C62.72962952 188.25396729 62.72962952 188.25396729 59.86352539 188.25878906 C58.79223892 188.26509338 57.72095245 188.27139771 56.61720276 188.27789307 C55.45575241 188.2738446 54.29430206 188.26979614 53.09765625 188.265625 C51.90901474 188.26753845 50.72037323 188.2694519 49.49571228 188.27142334 C46.97801502 188.27278641 44.46031077 188.26908154 41.94262695 188.26074219 C38.08203367 188.25005408 34.22190676 188.26062884 30.36132812 188.2734375 C27.9192698 188.27211574 25.47721177 188.26955301 23.03515625 188.265625 C21.87573013 188.26967346 20.71630402 188.27372192 19.52174377 188.27789307 C17.91008583 188.26843658 17.91008583 188.26843658 16.26586914 188.25878906 C15.31925919 188.25719788 14.37264923 188.25560669 13.39735413 188.25396729 C11 188 11 188 8 186 C8 185.34 8 184.68 8 184 C26.48 183.67 44.96 183.34 64 183 C64.33 123.27 64.66 63.54 65 2 C43.55 2 22.1 2 0 2 C0 1.34 0 0.68 0 0 Z " fill="#BAD18B" transform="translate(603,396)"/>
<path d="M0 0 C0.66 0 1.32 0 2 0 C2 57.42 2 114.84 2 174 C1.01 174 0.02 174 -1 174 C-1.02332662 151.46087424 -1.04097801 128.92175046 -1.05181217 106.38261509 C-1.05697564 95.91807719 -1.06401929 85.45354677 -1.07543945 74.98901367 C-1.08538476 65.87160565 -1.09185306 56.75420304 -1.09408849 47.63678974 C-1.09539586 42.80606124 -1.09848336 37.97534825 -1.10573006 33.14462471 C-1.11248785 28.60326313 -1.11461746 24.06192353 -1.11310768 19.5205574 C-1.11338412 17.84875431 -1.11539066 16.17695052 -1.11920547 14.50515175 C-1.12413898 12.23274147 -1.12299958 9.96041554 -1.12025452 7.68800354 C-1.12117631 6.41316384 -1.1220981 5.13832415 -1.12304783 3.82485294 C-1 1 -1 1 0 0 Z " fill="#A2C35F" transform="translate(668,149)"/>
<path d="M0 0 C6.27 0 12.54 0 19 0 C19 8.58 19 17.16 19 26 C12.73 26 6.46 26 0 26 C0 17.42 0 8.84 0 0 Z " fill="#5C796F" transform="translate(644,104)"/>
<path d="M0 0 C6.27 0 12.54 0 19 0 C19 8.58 19 17.16 19 26 C12.73 26 6.46 26 0 26 C0 17.42 0 8.84 0 0 Z " fill="#5D796F" transform="translate(618,104)"/>
<path d="M0 0 C19.47 0 38.94 0 59 0 C58.34 1.32 57.68 2.64 57 4 C49.36453069 4.05062418 41.7291045 4.08570152 34.09350586 4.10986328 C31.49485659 4.11993368 28.89621869 4.13359071 26.29760742 4.15087891 C22.56686603 4.17508139 18.83627419 4.18647266 15.10546875 4.1953125 C13.35691841 4.21079636 13.35691841 4.21079636 11.57304382 4.22659302 C10.49214981 4.22674408 9.4112558 4.22689514 8.29760742 4.22705078 C7.34496506 4.231492 6.39232269 4.23593323 5.41081238 4.24050903 C3 4 3 4 0 2 C0 1.34 0 0.68 0 0 Z " fill="#DEF8B9" transform="translate(611,580)"/>
<path d="M0 0 C0 0.99 0 1.98 0 3 C-4.96304793 5.53432235 -8.51425229 6.29530539 -14.08203125 6.0078125 C-16.08675863 5.85552384 -16.08675863 5.85552384 -18 7 C-19.57321406 7.09603818 -21.15042116 7.13074601 -22.7265625 7.1328125 C-24.15162109 7.13474609 -24.15162109 7.13474609 -25.60546875 7.13671875 C-26.60191406 7.13285156 -27.59835937 7.12898437 -28.625 7.125 C-30.08486328 7.13080078 -30.08486328 7.13080078 -31.57421875 7.13671875 C-37.14796234 7.12921708 -42.48710469 6.81923472 -48 6 C-49.093125 5.855625 -50.18625 5.71125 -51.3125 5.5625 C-54 5 -54 5 -57 3 C-57 2.34 -57 1.68 -57 1 C-56.30064835 1.00222061 -55.60129669 1.00444122 -54.88075256 1.00672913 C-48.30295079 1.0267328 -41.72515746 1.04197452 -35.14733219 1.05181217 C-31.76528187 1.05703975 -28.3832566 1.06413511 -25.0012207 1.07543945 C-21.11670223 1.08834267 -17.23219403 1.09322924 -13.34765625 1.09765625 C-11.51800072 1.10539818 -11.51800072 1.10539818 -9.65138245 1.11329651 C-8.53029587 1.11337204 -7.40920929 1.11344757 -6.25415039 1.11352539 C-5.26153702 1.115746 -4.26892365 1.11796661 -3.24623108 1.12025452 C-1.02973475 1.25249942 -1.02973475 1.25249942 0 0 Z " fill="#7EB77E" transform="translate(669,582)"/>
<path d="M0 0 C0.66 0 1.32 0 2 0 C1.67 0.99 1.34 1.98 1 3 C0.89588046 5.28243009 0.8534984 7.56781117 0.84178162 9.85258484 C0.83684364 10.55343557 0.83190566 11.2542863 0.82681805 11.97637492 C0.81143184 14.3301948 0.8030794 16.68398738 0.79467773 19.0378418 C0.78510009 20.72299439 0.77509008 22.40814458 0.76467896 24.09329224 C0.73761149 28.67353164 0.71661189 33.25378136 0.69667697 37.83405662 C0.67482878 42.61870445 0.64743438 47.40332039 0.62062073 52.1879425 C0.57067805 61.25077119 0.52574506 70.31361757 0.48259836 79.37648088 C0.43323945 89.69318294 0.37831633 100.00985301 0.32291877 110.32652414 C0.20907454 131.55098629 0.10224081 152.77547899 0 174 C-0.33 174 -0.66 174 -1 174 C-1.02332662 151.46087424 -1.04097801 128.92175046 -1.05181217 106.38261509 C-1.05697564 95.91807719 -1.06401929 85.45354677 -1.07543945 74.98901367 C-1.08538476 65.87160565 -1.09185306 56.75420304 -1.09408849 47.63678974 C-1.09539586 42.80606124 -1.09848336 37.97534825 -1.10573006 33.14462471 C-1.11248785 28.60326313 -1.11461746 24.06192353 -1.11310768 19.5205574 C-1.11338412 17.84875431 -1.11539066 16.17695052 -1.11920547 14.50515175 C-1.12413898 12.23274147 -1.12299958 9.96041554 -1.12025452 7.68800354 C-1.12117631 6.41316384 -1.1220981 5.13832415 -1.12304783 3.82485294 C-1 1 -1 1 0 0 Z " fill="#94AE55" transform="translate(668,149)"/>
<path d="M0 0 C0.33 0 0.66 0 1 0 C1.02505615 1.29212402 1.0501123 2.58424805 1.07592773 3.91552734 C1.16991624 8.69769656 1.27015766 13.47971762 1.37231445 18.26171875 C1.41569577 20.33362366 1.45736846 22.40556507 1.49731445 24.47753906 C1.55493965 27.45128391 1.61865625 30.42484448 1.68359375 33.3984375 C1.70030624 34.32868744 1.71701874 35.25893738 1.73423767 36.21737671 C1.75418289 37.07811798 1.77412811 37.93885925 1.79467773 38.82568359 C1.81022202 39.58513275 1.8257663 40.34458191 1.84178162 41.12704468 C1.89127127 43.09115721 1.89127127 43.09115721 3 45 C25.77 45.33 48.54 45.66 72 46 C72 46.33 72 46.66 72 47 C62.76002448 47.02312524 53.52005886 47.04091601 44.28006077 47.05181217 C39.99000085 47.05704061 35.69996067 47.06413753 31.40991211 47.07543945 C27.273206 47.08626975 23.13651892 47.09227714 18.99979973 47.09487724 C17.41807696 47.09673124 15.83635529 47.10035136 14.25464058 47.10573006 C12.04677162 47.1129424 9.83898227 47.11399086 7.63110352 47.11352539 C5.74247337 47.11685631 5.74247337 47.11685631 3.81568909 47.12025452 C1 47 1 47 0 46 C-0.09295815 44.55710213 -0.11746513 43.10970215 -0.11352539 41.66381836 C-0.11344986 40.7429393 -0.11337433 39.82206024 -0.11329651 38.87327576 C-0.10813522 37.87224319 -0.10297394 36.87121063 -0.09765625 35.83984375 C-0.0962413 34.82024063 -0.09482635 33.80063751 -0.09336853 32.75013733 C-0.08775097 29.47922893 -0.0751955 26.20838787 -0.0625 22.9375 C-0.05748726 20.72591244 -0.05292396 18.51432382 -0.04882812 16.30273438 C-0.03777584 10.86846643 -0.02102063 5.43423803 0 0 Z " fill="#414C2C" transform="translate(603,98)"/>
<path d="M0 0 C17.49 0 34.98 0 53 0 C53 1.32 53 2.64 53 4 C50.35375716 3.85978195 47.70815422 3.71310224 45.0625 3.5625 C44.30775391 3.52318359 43.55300781 3.48386719 42.77539062 3.44335938 C37.11328125 3.11328125 37.11328125 3.11328125 36 2 C34.45044441 1.90100477 32.89646327 1.86920476 31.34375 1.8671875 C29.93416016 1.86525391 29.93416016 1.86525391 28.49609375 1.86328125 C27.50738281 1.86714844 26.51867187 1.87101562 25.5 1.875 C24.51128906 1.87113281 23.52257812 1.86726563 22.50390625 1.86328125 C21.09431641 1.86521484 21.09431641 1.86521484 19.65625 1.8671875 C18.35397461 1.86887939 18.35397461 1.86887939 17.02539062 1.87060547 C15.00395846 1.7758463 15.00395846 1.7758463 14 3 C12.02287193 3.09900199 10.04209962 3.12970773 8.0625 3.125 C6.44021484 3.12886719 6.44021484 3.12886719 4.78515625 3.1328125 C2 3 2 3 0 2 C0 1.34 0 0.68 0 0 Z " fill="#6B7847" transform="translate(614,398)"/>
<path d="M0 0 C1.32 0 2.64 0 4 0 C3.67 1.65 3.34 3.3 3 5 C1.02 5.33 -0.96 5.66 -3 6 C-3.02505615 6.77077881 -3.0501123 7.54155762 -3.07592773 8.33569336 C-3.19285494 11.86975836 -3.31513823 15.40361916 -3.4375 18.9375 C-3.49647461 20.75604492 -3.49647461 20.75604492 -3.55664062 22.61132812 C-3.7861147 29.12486148 -4.17004815 35.53474481 -5 42 C-5.33 42 -5.66 42 -6 42 C-6 28.8 -6 15.6 -6 2 C-4.02 2 -2.04 2 0 2 C0 1.34 0 0.68 0 0 Z " fill="#A2C460" transform="translate(674,396)"/>
<path d="M0 0 C0.02689216 1.47906892 0.04634621 2.95827483 0.0625 4.4375 C0.07410156 5.26121094 0.08570313 6.08492188 0.09765625 6.93359375 C0 9 0 9 -1 10 C-3.33297433 10.04092937 -5.66705225 10.04241723 -8 10 C-9.1577506 6.52674819 -9.06866652 3.63932552 -9 0 C-5.93109813 -1.53445094 -3.29905734 -0.54984289 0 0 Z " fill="#91A468" transform="translate(645,431)"/>
<path d="M0 0 C3.625 0.375 3.625 0.375 7 1 C7.02689216 2.47906892 7.04634621 3.95827483 7.0625 5.4375 C7.07410156 6.26121094 7.08570313 7.08492188 7.09765625 7.93359375 C7 10 7 10 6 11 C3.0625 11.25 3.0625 11.25 0 11 C-2.30163882 7.54754176 -2.34490322 6.05261287 -2 2 C-1.34 1.34 -0.68 0.68 0 0 Z " fill="#95AA6C" transform="translate(638,467)"/>
<path d="M0 0 C0.37059036 0.48608231 0.74118073 0.97216461 1.1230011 1.47297668 C3.77021899 3.62660791 5.64413239 3.39801351 9.03198242 3.43237305 C10.89357246 3.46206429 10.89357246 3.46206429 12.79277039 3.49235535 C14.14700163 3.49912509 15.50123453 3.50557196 16.85546875 3.51171875 C18.24125261 3.52856405 19.62702118 3.54671409 21.01277161 3.56611633 C24.65741192 3.61363938 28.30199023 3.64343344 31.94683838 3.66955566 C35.66715746 3.69934983 39.38726284 3.745884 43.10742188 3.79101562 C50.40484194 3.87707478 57.7022775 3.94440803 65 4 C65 4.33 65 4.66 65 5 C42.23 5 19.46 5 -4 5 C-2.68 3.35 -1.36 1.7 0 0 Z " fill="#515E38" transform="translate(610,319)"/>
<path d="M0 0 C2.32891212 3.49336818 2.23551143 4.86007865 2.1953125 8.98046875 C2.18886719 10.14384766 2.18242188 11.30722656 2.17578125 12.50585938 C2.15902344 13.72080078 2.14226563 14.93574219 2.125 16.1875 C2.11597656 17.41404297 2.10695313 18.64058594 2.09765625 19.90429688 C2.07406017 22.93639295 2.04113841 25.96809938 2 29 C1.34 29 0.68 29 0 29 C-0.93854981 25.82086058 -1.12879879 22.95745608 -1.1328125 19.6484375 C-1.13410156 18.63265625 -1.13539063 17.616875 -1.13671875 16.5703125 C-1.13285156 15.51585938 -1.12898437 14.46140625 -1.125 13.375 C-1.12886719 12.3128125 -1.13273438 11.250625 -1.13671875 10.15625 C-1.13542969 9.14304687 -1.13414062 8.12984375 -1.1328125 7.0859375 C-1.13168457 6.1582959 -1.13055664 5.2306543 -1.12939453 4.27490234 C-1 2 -1 2 0 0 Z " fill="#2C2D2B" transform="translate(616,102)"/>
<path d="M0 0 C18.48 0 36.96 0 56 0 C56 0.99 56 1.98 56 3 C55.01 3 54.02 3 53 3 C53 2.34 53 1.68 53 1 C35.51 1 18.02 1 0 1 C0 0.67 0 0.34 0 0 Z " fill="#6C7F3F" transform="translate(614,145)"/>
<path d="M0 0 C0.33 0 0.66 0 1 0 C1.02505615 1.28165039 1.0501123 2.56330078 1.07592773 3.88378906 C1.17011595 8.6399125 1.2703089 13.39589379 1.37231445 18.15185547 C1.41562009 20.21008987 1.45729829 22.26835918 1.49731445 24.32666016 C1.55512275 27.28558879 1.61878696 30.2443424 1.68359375 33.203125 C1.70030624 34.12305237 1.71701874 35.04297974 1.73423767 35.99078369 C1.75418289 36.8513739 1.77412811 37.71196411 1.79467773 38.59863281 C1.81022202 39.35364075 1.8257663 40.10864868 1.84178162 40.88653564 C2.00185633 43.02479671 2.41816368 44.93989084 3 47 C2.01 46.67 1.02 46.34 0 46 C0 30.82 0 15.64 0 0 Z " fill="#44564F" transform="translate(603,98)"/>
<path d="M0 0 C0.763125 0.20625 1.52625 0.4125 2.3125 0.625 C2.6425 1.615 2.9725 2.605 3.3125 3.625 C1.0025 2.965 -1.3075 2.305 -3.6875 1.625 C-3.6875 3.275 -3.6875 4.925 -3.6875 6.625 C-1.29030568 7.30458603 -1.29030568 7.30458603 1.3125 7.625 C1.9725 6.965 2.6325 6.305 3.3125 5.625 C2.9825 7.275 2.6525 8.925 2.3125 10.625 C0.3325 10.625 -1.6475 10.625 -3.6875 10.625 C-3.6875 9.965 -3.6875 9.305 -3.6875 8.625 C-4.3475 8.625 -5.0075 8.625 -5.6875 8.625 C-5.875 5.25 -5.875 5.25 -5.6875 1.625 C-2.6875 -0.375 -2.6875 -0.375 0 0 Z " fill="#95A96D" transform="translate(641.6875,541.375)"/>
<path d="M0 0 C1.66611905 -0.042721 3.33382885 -0.04063832 5 0 C6 1 6 1 6.0625 3.5625 C6.041875 4.366875 6.02125 5.17125 6 6 C3.625 6.625 3.625 6.625 1 7 C0.34 6.34 -0.32 5.68 -1 5 C-0.625 2.375 -0.625 2.375 0 0 Z " fill="#556C5E" transform="translate(638,506)"/>
<path d="M0 0 C1.66611905 -0.042721 3.33382885 -0.04063832 5 0 C6 1 6 1 6.0625 3.5625 C6.041875 4.366875 6.02125 5.17125 6 6 C3.625 6.625 3.625 6.625 1 7 C0.34 6.34 -0.32 5.68 -1 5 C-0.625 2.375 -0.625 2.375 0 0 Z " fill="#536A5A" transform="translate(638,469)"/>
<path d="M0 0 C2.375 0.6875 2.375 0.6875 3.375 1.6875 C3.5078125 3.5 3.5078125 3.5 3.5 5.6875 C3.50257813 6.409375 3.50515625 7.13125 3.5078125 7.875 C3.375 9.6875 3.375 9.6875 2.375 10.6875 C-0.5625 10.9375 -0.5625 10.9375 -3.625 10.6875 C-5.92519361 7.23720958 -6.05632515 5.74195642 -5.625 1.6875 C-2.625 -0.3125 -2.625 -0.3125 0 0 Z M-3.625 1.6875 C-4.30458603 4.08469432 -4.30458603 4.08469432 -4.625 6.6875 C-3.965 7.3475 -3.305 8.0075 -2.625 8.6875 C-0.02219432 8.36708603 -0.02219432 8.36708603 2.375 7.6875 C2.417721 6.02138095 2.41563832 4.35367115 2.375 2.6875 C1.30854885 1.39116379 1.30854885 1.39116379 -1.1875 1.625 C-1.991875 1.645625 -2.79625 1.66625 -3.625 1.6875 Z " fill="#95AA6C" transform="translate(641.625,504.3125)"/>
<path d="M0 0 C2.125 0.375 2.125 0.375 4 1 C4.38218767 2.65614657 4.71395102 4.32457024 5 6 C4 7 4 7 1.4375 7.0625 C0.2309375 7.0315625 0.2309375 7.0315625 -1 7 C-1.625 4.625 -1.625 4.625 -2 2 C-1.34 1.34 -0.68 0.68 0 0 Z " fill="#506657" transform="translate(639,431)"/>
<path d="M0 0 C1.65 0.33 3.3 0.66 5 1 C5.33 2.65 5.66 4.3 6 6 C3.625 6.625 3.625 6.625 1 7 C0.34 6.34 -0.32 5.68 -1 5 C-0.625 2.375 -0.625 2.375 0 0 Z " fill="#566D60" transform="translate(638,543)"/>
<path d="M0 0 C1.32 0 2.64 0 4 0 C3.67 1.65 3.34 3.3 3 5 C1.02 5.33 -0.96 5.66 -3 6 C-3.66 4.68 -4.32 3.36 -5 2 C-3.35 2 -1.7 2 0 2 C0 1.34 0 0.68 0 0 Z " fill="#8FB49F" transform="translate(674,396)"/>
<path d="M0 0 C5.61 0 11.22 0 17 0 C17 0.99 17 1.98 17 3 C14.35319096 2.88660796 11.70822482 2.75987127 9.0625 2.625 C8.30775391 2.5940625 7.55300781 2.563125 6.77539062 2.53125 C4.84492605 2.4273685 2.92057919 2.22104386 1 2 C0.67 1.34 0.34 0.68 0 0 Z " fill="#708442" transform="translate(650,399)"/>
<path d="M0 0 C2.64 0 5.28 0 8 0 C8 1.65 8 3.3 8 5 C4.5625 4.1875 4.5625 4.1875 1 3 C0.67 2.01 0.34 1.02 0 0 Z " fill="#83B194" transform="translate(603,398)"/>
<path d="M0 0 C0.39832031 0.48082031 0.79664063 0.96164062 1.20703125 1.45703125 C3.43450247 3.37391825 4.78834669 3.47741643 7.6875 3.6875 C8.49574219 3.75324219 9.30398438 3.81898438 10.13671875 3.88671875 C10.75160156 3.92410156 11.36648438 3.96148437 12 4 C12 4.33 12 4.66 12 5 C6.72 5 1.44 5 -4 5 C-2.68 3.35 -1.36 1.7 0 0 Z " fill="#4A5A40" transform="translate(610,319)"/>
</svg>
