<?xml version="1.0" encoding="UTF-8"?>
<svg version="1.1" xmlns="http://www.w3.org/2000/svg" width="1280" height="720">
<path d="M0 0 C422.4 0 844.8 0 1280 0 C1280 237.6 1280 475.2 1280 720 C857.6 720 435.2 720 0 720 C0 482.4 0 244.8 0 0 Z " fill="#6B8C80" transform="translate(0,0)"/>
<path d="M0 0 C1.03919334 -0.00021904 1.03919334 -0.00021904 2.09938049 -0.0004425 C4.3935965 0.00025521 6.68773173 0.00804097 8.98193359 0.01586914 C10.57091223 0.01773382 12.15989144 0.01915749 13.74887085 0.02015686 C17.93446434 0.02397808 22.12002323 0.033805 26.30560303 0.04486084 C30.57531262 0.05508345 34.8450278 0.0596563 39.11474609 0.06469727 C47.49497032 0.07542761 55.87516641 0.09249931 64.25537109 0.11352539 C64.75037109 2.09352539 64.75037109 2.09352539 65.25537109 4.11352539 C64.59537109 4.11352539 63.93537109 4.11352539 63.25537109 4.11352539 C63.25537109 4.77352539 63.25537109 5.43352539 63.25537109 6.11352539 C64.24537109 6.11352539 65.23537109 6.11352539 66.25537109 6.11352539 C66.32939477 11.77348955 66.38391282 17.4331735 66.42016602 23.09350586 C66.43527504 25.01998806 66.45576323 26.94643575 66.48168945 28.87280273 C66.51798034 31.63802596 66.53507588 34.40279543 66.54833984 37.16821289 C66.5638237 38.03284149 66.57930756 38.89747009 66.59526062 39.78829956 C66.59594727 42.21459961 66.59594727 42.21459961 66.25537109 46.11352539 C63.02745555 48.26546909 61.971363 48.31438982 58.25537109 48.11352539 C58.58537109 48.77352539 58.91537109 49.43352539 59.25537109 50.11352539 C59.36405445 52.32954045 59.4064943 54.54888154 59.4203186 56.76751709 C59.42596215 57.45919645 59.43160569 58.1508758 59.43742025 58.86351514 C59.45518851 61.19261299 59.46585471 63.52168983 59.4765625 65.85083008 C59.48777449 67.51624834 59.49940657 69.18166381 59.51142883 70.84707642 C59.54281413 75.38025385 59.56790809 79.91344631 59.59162569 84.44666958 C59.61202136 88.22888772 59.63557096 92.0110834 59.65916288 95.79328275 C59.71482715 104.71771669 59.76554065 113.64216923 59.81298828 122.56665039 C59.86200841 131.77450025 59.91831489 140.98228428 59.97840941 150.19006801 C60.0297778 158.09160247 60.07710884 165.99315371 60.12109697 173.89473271 C60.14738727 178.61549489 60.17509336 183.33623734 60.20647049 188.05696869 C60.23577784 192.49903624 60.26001617 196.94110336 60.28037071 201.38322067 C60.28866313 203.0126203 60.29871255 204.64201208 60.31065941 206.27138901 C60.32669883 208.49813181 60.33633918 210.72481513 60.34439087 212.95159912 C60.35488685 214.81986422 60.35488685 214.81986422 60.36559486 216.72587204 C60.26074889 219.94824254 59.8677962 222.95206361 59.25537109 226.11352539 C60.43099609 226.29915039 60.43099609 226.29915039 61.63037109 226.48852539 C64.25537109 227.11352539 64.25537109 227.11352539 66.25537109 229.11352539 C66.50260925 231.96681213 66.50260925 231.96681213 66.49829102 235.65869141 C66.50018936 236.33037354 66.50208771 237.00205566 66.50404358 237.6940918 C66.50775433 239.91865639 66.49704412 242.14289597 66.48583984 244.36743164 C66.48464821 245.90917421 66.48419485 247.45091751 66.48445129 248.99266052 C66.48288597 252.2249709 66.47459193 255.45717059 66.46118164 258.68945312 C66.44417748 262.84152229 66.44036767 266.99346989 66.44112682 271.1455698 C66.44085548 274.32904734 66.43538034 277.51249807 66.42812538 280.69596672 C66.42493398 282.22744481 66.42297021 283.75892595 66.42223167 285.29040718 C66.42007388 287.42624257 66.41134238 289.56194655 66.40063477 291.69775391 C66.39682297 292.91527847 66.39301117 294.13280304 66.38908386 295.38722229 C66.25537109 298.11352539 66.25537109 298.11352539 65.25537109 299.11352539 C63.06270954 299.21312546 60.86679707 299.24152295 58.671875 299.24291992 C57.98404434 299.24467224 57.29621368 299.24642456 56.58753967 299.24822998 C54.30231235 299.25264913 52.01716177 299.24970966 49.73193359 299.24633789 C48.14871201 299.24701107 46.56549052 299.24798121 44.98226929 299.24923706 C41.65825419 299.25071424 38.3342659 299.2485594 35.01025391 299.24389648 C30.74738229 299.23820846 26.48457376 299.24147218 22.22170448 299.24746895 C18.94979375 299.25108193 15.67789797 299.24993241 12.40598679 299.24734116 C10.83429329 299.24667345 9.26259844 299.24749487 7.69090652 299.24982071 C5.49311986 299.25235827 3.29543531 299.24849061 1.09765625 299.24291992 C-0.77978775 299.24172653 -0.77978775 299.24172653 -2.69515991 299.24050903 C-5.74462891 299.11352539 -5.74462891 299.11352539 -8.74462891 298.11352539 C-8.88364886 289.05589727 -8.99025859 279.99863629 -9.05550194 270.9401741 C-9.08681591 266.7339027 -9.12928773 262.5283611 -9.19726562 258.32250977 C-9.26245919 254.26352522 -9.29833445 250.20524252 -9.31389236 246.14577484 C-9.32497905 244.5971242 -9.34662985 243.04851202 -9.37900925 241.50016022 C-9.42257903 239.33039895 -9.42856375 237.16353653 -9.42578125 234.9934082 C-9.43910492 233.75874817 -9.45242859 232.52408813 -9.46615601 231.25201416 C-9.22805206 230.21631287 -8.98994812 229.18061157 -8.74462891 228.11352539 C-7.75619492 227.5365239 -6.76776093 226.9595224 -5.74937439 226.36503601 C-2.44492561 224.38947932 -2.44492561 224.38947932 -1.97510719 220.87267685 C-1.96588926 219.5784795 -1.95667133 218.28428215 -1.94717407 216.9508667 C-1.93388042 216.22874378 -1.92058676 215.50662087 -1.90689027 214.76261544 C-1.86957537 212.342229 -1.87484265 209.92381512 -1.87988281 207.50317383 C-1.86185118 205.76858725 -1.84119759 204.03402623 -1.81811523 202.29949951 C-1.76287733 197.58907585 -1.74439366 192.87913501 -1.73240709 188.16842937 C-1.71366452 183.24614448 -1.66126018 178.32422207 -1.61239624 173.40216064 C-1.52498923 164.080883 -1.46794321 154.75967554 -1.42174947 145.4381125 C-1.36768688 134.82616364 -1.27986174 124.21457875 -1.18917203 113.60288954 C-1.00336969 91.77329716 -0.86005877 69.94359583 -0.74462891 48.11352539 C-2.44619141 48.14446289 -2.44619141 48.14446289 -4.18212891 48.17602539 C-7.74462891 48.11352539 -7.74462891 48.11352539 -8.74462891 47.11352539 C-8.83758706 45.67062752 -8.86209403 44.22322755 -8.8581543 42.77734375 C-8.85807877 41.85646469 -8.85800323 40.93558563 -8.85792542 39.98680115 C-8.85276413 38.98576859 -8.84760284 37.98473602 -8.84228516 36.95336914 C-8.84087021 35.93376602 -8.83945526 34.9141629 -8.83799744 33.86366272 C-8.83237987 30.59275432 -8.81982441 27.32191326 -8.80712891 24.05102539 C-8.80211617 21.83943783 -8.79755287 19.62784921 -8.79345703 17.41625977 C-8.78240474 11.98199182 -8.76564954 6.54776342 -8.74462891 1.11352539 C-5.82380435 -0.34688689 -3.26161522 -0.00576257 0 0 Z " fill="#4F8597" transform="translate(611.74462890625,96.886474609375)"/>
<path d="M0 0 C21.45 0 42.9 0 65 0 C65.495 2.475 65.495 2.475 66 5 C65.34 5 64.68 5 64 5 C64 63.08 64 121.16 64 181 C46.18 181 28.36 181 10 181 C9.93941406 176.14925781 9.87882813 171.29851562 9.81640625 166.30078125 C9.77590309 163.22460069 9.73512535 160.14842867 9.69335938 157.07226562 C9.62711814 152.19151758 9.5618843 147.31077085 9.50268555 142.42993164 C9.45488551 138.49414692 9.40253762 134.55844639 9.34705925 130.62276268 C9.32670639 129.12252084 9.30798192 127.62225598 9.29092598 126.12197304 C9.26672476 124.01783576 9.23669276 121.91385539 9.20532227 119.80981445 C9.18200584 118.01445 9.18200584 118.01445 9.15821838 116.18281555 C9.09339421 113.12732198 9.09339421 113.12732198 8.5 110.70080566 C7.71844927 106.47917241 7.8207692 102.26197996 7.79467773 97.97729492 C7.78477814 96.97194702 7.77487854 95.96659912 7.76467896 94.93078613 C7.73313935 91.61403747 7.70833629 88.2972745 7.68359375 84.98046875 C7.66301772 82.67832572 7.64202107 80.37618642 7.62062073 78.0740509 C7.56546715 72.01932798 7.51602824 65.96457135 7.46777344 59.90979004 C7.4175094 53.7295431 7.36184893 47.54934503 7.30664062 41.36914062 C7.19914116 29.24613552 7.09767794 17.12308794 7 5 C5.5459375 4.5978125 5.5459375 4.5978125 4.0625 4.1875 C3.051875 3.795625 2.04125 3.40375 1 3 C0.67 2.01 0.34 1.02 0 0 Z " fill="#508597" transform="translate(603,398)"/>
<path d="M0 0 C0.68958298 -0.00335861 1.37916595 -0.00671722 2.08964539 -0.01017761 C4.37423492 -0.01969429 6.65875124 -0.02163095 8.94335938 -0.02270508 C10.52754751 -0.0259167 12.11173535 -0.0292807 13.69592285 -0.03279114 C17.01815479 -0.03878387 20.3403607 -0.04063084 23.66259766 -0.04003906 C27.92670678 -0.03993733 32.19064983 -0.05360073 36.45471954 -0.07081127 C39.7265907 -0.08190974 42.99842139 -0.08395895 46.27030945 -0.08342934 C47.84283522 -0.08461228 49.41536195 -0.08905156 50.98786926 -0.0967617 C53.18343883 -0.10652022 55.37864376 -0.10370043 57.57421875 -0.09765625 C58.82505249 -0.09908127 60.07588623 -0.10050629 61.36462402 -0.10197449 C64.28710938 0.14526367 64.28710938 0.14526367 66.28710938 2.14526367 C66.53434753 4.99855042 66.53434753 4.99855042 66.5300293 8.69042969 C66.53192764 9.36211182 66.53382599 10.03379395 66.53578186 10.72583008 C66.53949261 12.95039468 66.5287824 15.17463425 66.51757812 17.39916992 C66.51638649 18.94091249 66.51593313 20.48265579 66.51618958 22.0243988 C66.51462425 25.25670918 66.50633021 28.48890887 66.49291992 31.72119141 C66.47591576 35.87326057 66.47210595 40.02520817 66.4728651 44.17730808 C66.47259377 47.36078562 66.46711862 50.54423636 66.45986366 53.727705 C66.45667226 55.25918309 66.45470849 56.79066423 66.45396996 58.32214546 C66.45181216 60.45798085 66.44308066 62.59368483 66.43237305 64.72949219 C66.42856125 65.94701675 66.42474945 67.16454132 66.42082214 68.41896057 C66.28710938 71.14526367 66.28710938 71.14526367 65.28710938 72.14526367 C63.09444782 72.24486374 60.89853536 72.27326123 58.70361328 72.2746582 C58.01578262 72.27641052 57.32795197 72.27816284 56.61927795 72.27996826 C54.33405063 72.28438742 52.04890006 72.28144794 49.76367188 72.27807617 C48.18045029 72.27874935 46.5972288 72.27971949 45.01400757 72.28097534 C41.68999247 72.28245253 38.36600418 72.28029768 35.04199219 72.27563477 C30.77912057 72.26994674 26.51631204 72.27321046 22.25344276 72.27920723 C18.98153203 72.28282021 15.70963625 72.28167069 12.43772507 72.27907944 C10.86603157 72.27841173 9.29433672 72.27923315 7.72264481 72.28155899 C5.52485814 72.28409655 3.32717359 72.28022889 1.12939453 72.2746582 C-0.74804947 72.27346481 -0.74804947 72.27346481 -2.66342163 72.27224731 C-5.71289062 72.14526367 -5.71289062 72.14526367 -8.71289062 71.14526367 C-8.71289062 48.04526367 -8.71289062 24.94526367 -8.71289062 1.14526367 C-5.80281476 -0.30977426 -3.25039403 0.00990527 0 0 Z " fill="#262525" transform="translate(611.712890625,323.854736328125)"/>
<path d="M0 0 C1.03919334 -0.00021904 1.03919334 -0.00021904 2.09938049 -0.0004425 C4.3935965 0.00025521 6.68773173 0.00804097 8.98193359 0.01586914 C10.57091223 0.01773382 12.15989144 0.01915749 13.74887085 0.02015686 C17.93446434 0.02397808 22.12002323 0.033805 26.30560303 0.04486084 C30.57531262 0.05508345 34.8450278 0.0596563 39.11474609 0.06469727 C47.49497032 0.07542761 55.87516641 0.09249931 64.25537109 0.11352539 C64.75037109 2.09352539 64.75037109 2.09352539 65.25537109 4.11352539 C64.59537109 4.11352539 63.93537109 4.11352539 63.25537109 4.11352539 C63.25537109 4.77352539 63.25537109 5.43352539 63.25537109 6.11352539 C64.24537109 6.11352539 65.23537109 6.11352539 66.25537109 6.11352539 C66.32939477 11.77348955 66.38391282 17.4331735 66.42016602 23.09350586 C66.43527504 25.01998806 66.45576323 26.94643575 66.48168945 28.87280273 C66.51798034 31.63802596 66.53507588 34.40279543 66.54833984 37.16821289 C66.5638237 38.03284149 66.57930756 38.89747009 66.59526062 39.78829956 C66.59594727 42.21459961 66.59594727 42.21459961 66.25537109 46.11352539 C62.57928807 48.56424741 60.79677275 48.36143627 56.41308594 48.35644531 C55.72175064 48.35834366 55.03041534 48.360242 54.31813049 48.36219788 C52.03407435 48.36590137 49.75033644 48.3552095 47.46630859 48.34399414 C45.88115476 48.3428022 44.29600021 48.34234921 42.71084595 48.34260559 C39.39035617 48.34104158 36.06997435 48.33275677 32.74951172 48.31933594 C28.48425081 48.30231851 24.21910825 48.29852242 19.95381737 48.29928112 C16.68198508 48.29900982 13.41017889 48.29353554 10.13835526 48.28627968 C8.56501081 48.28308868 6.9916634 48.2811246 5.41831589 48.28038597 C3.22511454 48.27822851 1.03204123 48.26949812 -1.16113281 48.25878906 C-3.03619003 48.25307137 -3.03619003 48.25307137 -4.9491272 48.24723816 C-7.74462891 48.11352539 -7.74462891 48.11352539 -8.74462891 47.11352539 C-8.83758706 45.67062752 -8.86209403 44.22322755 -8.8581543 42.77734375 C-8.85807877 41.85646469 -8.85800323 40.93558563 -8.85792542 39.98680115 C-8.85276413 38.98576859 -8.84760284 37.98473602 -8.84228516 36.95336914 C-8.84087021 35.93376602 -8.83945526 34.9141629 -8.83799744 33.86366272 C-8.83237987 30.59275432 -8.81982441 27.32191326 -8.80712891 24.05102539 C-8.80211617 21.83943783 -8.79755287 19.62784921 -8.79345703 17.41625977 C-8.78240474 11.98199182 -8.76564954 6.54776342 -8.74462891 1.11352539 C-5.82380435 -0.34688689 -3.26161522 -0.00576257 0 0 Z " fill="#242423" transform="translate(611.74462890625,96.886474609375)"/>
<path d="M0 0 C24.75 0 49.5 0 75 0 C74.67 1.65 74.34 3.3 74 5 C70.98968256 5.93423645 70.13349732 6.04449911 67 5 C67.00184359 5.93098196 67.00368717 6.86196392 67.00558662 7.82115746 C67.04993235 30.44569015 67.08282611 53.07021723 67.10362434 75.69478416 C67.11394884 86.63573117 67.12803152 97.57664951 67.15087891 108.51757812 C67.17077694 118.05067165 67.18370789 127.58374442 67.18817699 137.11685812 C67.19079047 142.16729082 67.19695749 147.21766414 67.21146011 152.26807785 C67.22498743 157.01711525 67.22923252 161.76606853 67.22621536 166.51512337 C67.22676771 168.26230005 67.23077393 170.0094794 67.23841095 171.75663948 C67.24829646 174.13387493 67.24599253 176.5107888 67.24050903 178.88803101 C67.24633472 179.58646696 67.2521604 180.28490292 67.25816262 181.00450361 C67.22824242 185.77175758 67.22824242 185.77175758 65 188 C62.72962952 188.25396729 62.72962952 188.25396729 59.86352539 188.25878906 C58.79223892 188.26509338 57.72095245 188.27139771 56.61720276 188.27789307 C55.45575241 188.2738446 54.29430206 188.26979614 53.09765625 188.265625 C51.90901474 188.26753845 50.72037323 188.2694519 49.49571228 188.27142334 C46.97801502 188.27278641 44.46031077 188.26908154 41.94262695 188.26074219 C38.08203367 188.25005408 34.22190676 188.26062884 30.36132812 188.2734375 C27.9192698 188.27211574 25.47721177 188.26955301 23.03515625 188.265625 C21.87573013 188.26967346 20.71630402 188.27372192 19.52174377 188.27789307 C17.91008583 188.26843658 17.91008583 188.26843658 16.26586914 188.25878906 C15.31925919 188.25719788 14.37264923 188.25560669 13.39735413 188.25396729 C11 188 11 188 8 186 C7.71327639 183.51574117 7.6213227 181.28139108 7.65942383 178.79638672 C7.65898575 178.0548233 7.65854767 177.31325989 7.65809631 176.54922485 C7.66019021 174.09244669 7.68354875 171.63634678 7.70703125 169.1796875 C7.71262509 167.47861097 7.71689619 165.77752962 7.71989441 164.07644653 C7.73135996 159.5948151 7.76084165 155.11347441 7.79400635 150.63195801 C7.82467052 146.06066827 7.83839191 141.48933165 7.85351562 136.91796875 C7.88570987 127.94518461 7.93692671 118.97261646 8 110 C8.33 110 8.66 110 9 110 C9.94930129 113.99512934 10.12113477 117.70835954 10.11352539 121.80981445 C10.11367142 122.47378738 10.11381744 123.13776031 10.1139679 123.82185364 C10.11327483 126.00236349 10.10551099 128.18278644 10.09765625 130.36328125 C10.09578992 131.8807114 10.09436703 133.39814215 10.09336853 134.91557312 C10.08956032 138.89891235 10.07974459 142.8822148 10.06866455 146.86553955 C10.05660991 151.65051768 10.05204011 156.43550814 10.04621124 161.22049713 C10.03653187 168.48035696 10.01736348 175.74013617 10 183 C27.82 183 45.64 183 64 183 C64 124.92 64 66.84 64 7 C64.66 7 65.32 7 66 7 C65.505 4.525 65.505 4.525 65 2 C43.55 2 22.1 2 0 2 C0 1.34 0 0.68 0 0 Z " fill="#5DA0B6" transform="translate(603,396)"/>
<path d="M0 0 C0.33 0 0.66 0 1 0 C1.15395719 22.06158339 1.30198889 44.12319945 1.4429636 66.18486977 C1.50855854 76.42844336 1.57609353 86.6719973 1.64819336 96.91552734 C1.71102945 105.84361767 1.77022788 114.77172342 1.82505554 123.69986665 C1.85421422 128.42737189 1.8851962 133.15484935 1.92053413 137.88231277 C1.95374239 142.332558 1.9820841 146.78280777 2.00670624 151.23310852 C2.01659457 152.86573342 2.02825537 154.4983487 2.04183006 156.13094711 C2.06011568 158.36217115 2.07198784 160.59334233 2.08229065 162.82461548 C2.09058679 164.07272318 2.09888292 165.32083088 2.10743046 166.60676003 C2.00531618 169.83208616 1.61365485 172.83592538 1 176 C2.32 176.33 3.64 176.66 5 177 C2.66705225 177.04241723 0.33297433 177.04092937 -2 177 C-3 176 -3 176 -3.12304783 173.17514706 C-3.12212604 171.90030736 -3.12120424 170.62546766 -3.12025452 169.31199646 C-3.12110894 168.60468748 -3.12196337 167.89737849 -3.12284368 167.1686359 C-3.12450055 164.78093718 -3.11897377 162.39330757 -3.11352539 160.00561523 C-3.11324354 158.30105593 -3.11340122 156.59649649 -3.1139679 154.89193726 C-3.11425594 150.249572 -3.10835806 145.60723235 -3.10139394 140.96487308 C-3.09516159 136.11884105 -3.0945567 131.27280849 -3.09336853 126.42677307 C-3.09025486 117.24344036 -3.082041 108.0601195 -3.07201904 98.87679201 C-3.060859 88.42473229 -3.05534773 77.97267202 -3.05032361 67.52060783 C-3.03985841 46.01373193 -3.02225829 24.50686671 -3 3 C-2.01 2.67 -1.02 2.34 0 2 C0 1.34 0 0.68 0 0 Z " fill="#5F9FAF" transform="translate(670,147)"/>
<path d="M0 0 C6.27 0 12.54 0 19 0 C19 8.58 19 17.16 19 26 C12.73 26 6.46 26 0 26 C0 17.42 0 8.84 0 0 Z " fill="#5C796F" transform="translate(644,104)"/>
<path d="M0 0 C6.27 0 12.54 0 19 0 C19 8.58 19 17.16 19 26 C12.73 26 6.46 26 0 26 C0 17.42 0 8.84 0 0 Z " fill="#5D796F" transform="translate(618,104)"/>
<path d="M0 0 C24.75 0 49.5 0 75 0 C74.67 1.65 74.34 3.3 74 5 C70.98968256 5.93423645 70.13349732 6.04449911 67 5 C67 41.96 67 78.92 67 117 C66.67 117 66.34 117 66 117 C65.8673105 106.58318057 65.73680818 96.16633602 65.60884857 85.74945736 C65.5493222 80.90872322 65.48913439 76.06799949 65.42724609 71.22729492 C65.36717248 66.52637787 65.3090823 61.8254396 65.25218201 57.12448311 C65.23052388 55.36101014 65.20823535 53.59754475 65.18519592 51.83408928 C64.96896854 35.22058102 65 18.61778096 65 2 C43.55 2 22.1 2 0 2 C0 1.34 0 0.68 0 0 Z " fill="#B4D4DE" transform="translate(603,396)"/>
<path d="M0 0 C3.3 0 6.6 0 10 0 C10 37.29 10 74.58 10 113 C9.67 113 9.34 113 9 113 C7.70723007 108.02817862 7.82573387 103.07726667 7.79467773 97.97729492 C7.78477814 96.97194702 7.77487854 95.96659912 7.76467896 94.93078613 C7.73313935 91.61403747 7.70833629 88.2972745 7.68359375 84.98046875 C7.66301772 82.67832572 7.64202107 80.37618642 7.62062073 78.0740509 C7.56546715 72.01932798 7.51602824 65.96457135 7.46777344 59.90979004 C7.4175094 53.7295431 7.36184893 47.54934503 7.30664062 41.36914062 C7.19914116 29.24613552 7.09767794 17.12308794 7 5 C5.5459375 4.5978125 5.5459375 4.5978125 4.0625 4.1875 C3.051875 3.795625 2.04125 3.40375 1 3 C0.67 2.01 0.34 1.02 0 0 Z " fill="#599BB0" transform="translate(603,398)"/>
<path d="M0 0 C19.47 0 38.94 0 59 0 C58.34 1.32 57.68 2.64 57 4 C49.36453069 4.05062418 41.7291045 4.08570152 34.09350586 4.10986328 C31.49485659 4.11993368 28.89621869 4.13359071 26.29760742 4.15087891 C22.56686603 4.17508139 18.83627419 4.18647266 15.10546875 4.1953125 C13.35691841 4.21079636 13.35691841 4.21079636 11.57304382 4.22659302 C10.49214981 4.22674408 9.4112558 4.22689514 8.29760742 4.22705078 C7.34496506 4.231492 6.39232269 4.23593323 5.41081238 4.24050903 C3 4 3 4 0 2 C0 1.34 0 0.68 0 0 Z " fill="#B9ECF9" transform="translate(611,580)"/>
<path d="M0 0 C0 0.99 0 1.98 0 3 C-4.46526398 7.00480017 -9.6888288 6.43412606 -15.33984375 6.3984375 C-16.33955704 6.40130768 -17.33927032 6.40417786 -18.36927795 6.40713501 C-20.47983365 6.40917303 -22.59040835 6.40366153 -24.70092773 6.39111328 C-27.92279557 6.37507321 -31.14340574 6.39096259 -34.36523438 6.41015625 C-36.41927359 6.40817344 -38.47331203 6.40432899 -40.52734375 6.3984375 C-41.96665504 6.40754654 -41.96665504 6.40754654 -43.43504333 6.4168396 C-48.72827241 6.36149089 -52.38610492 5.90175435 -57 3 C-57 2.34 -57 1.68 -57 1 C-56.30064835 1.00222061 -55.60129669 1.00444122 -54.88075256 1.00672913 C-48.30295079 1.0267328 -41.72515746 1.04197452 -35.14733219 1.05181217 C-31.76528187 1.05703975 -28.3832566 1.06413511 -25.0012207 1.07543945 C-21.11670223 1.08834267 -17.23219403 1.09322924 -13.34765625 1.09765625 C-11.51800072 1.10539818 -11.51800072 1.10539818 -9.65138245 1.11329651 C-8.53029587 1.11337204 -7.40920929 1.11344757 -6.25415039 1.11352539 C-5.26153702 1.115746 -4.26892365 1.11796661 -3.24623108 1.12025452 C-1.02973475 1.25249942 -1.02973475 1.25249942 0 0 Z " fill="#6BB0B2" transform="translate(669,582)"/>
<path d="M0 0 C0.33 0 0.66 0 1 0 C1 24.42 1 48.84 1 74 C1.99 74 2.98 74 4 74 C4.33 74.99 4.66 75.98 5 77 C22.49 77.33 39.98 77.66 58 78 C58 78.33 58 78.66 58 79 C37.54 79 17.08 79 -4 79 C-3.01 78.01 -2.02 77.02 -1 76 C-0.69061019 73.48127497 -0.56245768 71.20383219 -0.56762695 68.68286133 C-0.55233948 67.57029716 -0.55233948 67.57029716 -0.53674316 66.43525696 C-0.50655337 63.98410549 -0.49733837 61.53334441 -0.48828125 59.08203125 C-0.47143895 57.38236689 -0.45328932 55.68271503 -0.43388367 53.983078 C-0.38632858 49.50985619 -0.35655498 45.036685 -0.33044434 40.56329346 C-0.30066651 35.99847411 -0.25412669 31.43382932 -0.20898438 26.86914062 C-0.12288867 17.91285162 -0.05557135 8.95652676 0 0 Z " fill="#537F82" transform="translate(610,245)"/>
<path d="M0 0 C0.33 0 0.66 0 1 0 C1.02505615 1.29212402 1.0501123 2.58424805 1.07592773 3.91552734 C1.16991624 8.69769656 1.27015766 13.47971762 1.37231445 18.26171875 C1.41569577 20.33362366 1.45736846 22.40556507 1.49731445 24.47753906 C1.55493965 27.45128391 1.61865625 30.42484448 1.68359375 33.3984375 C1.70030624 34.32868744 1.71701874 35.25893738 1.73423767 36.21737671 C1.75418289 37.07811798 1.77412811 37.93885925 1.79467773 38.82568359 C1.81022202 39.58513275 1.8257663 40.34458191 1.84178162 41.12704468 C1.89127127 43.09115721 1.89127127 43.09115721 3 45 C25.77 45.33 48.54 45.66 72 46 C72 46.33 72 46.66 72 47 C62.76002448 47.02312524 53.52005886 47.04091601 44.28006077 47.05181217 C39.99000085 47.05704061 35.69996067 47.06413753 31.40991211 47.07543945 C27.273206 47.08626975 23.13651892 47.09227714 18.99979973 47.09487724 C17.41807696 47.09673124 15.83635529 47.10035136 14.25464058 47.10573006 C12.04677162 47.1129424 9.83898227 47.11399086 7.63110352 47.11352539 C5.74247337 47.11685631 5.74247337 47.11685631 3.81568909 47.12025452 C1 47 1 47 0 46 C-0.09295815 44.55710213 -0.11746513 43.10970215 -0.11352539 41.66381836 C-0.11344986 40.7429393 -0.11337433 39.82206024 -0.11329651 38.87327576 C-0.10813522 37.87224319 -0.10297394 36.87121063 -0.09765625 35.83984375 C-0.0962413 34.82024063 -0.09482635 33.80063751 -0.09336853 32.75013733 C-0.08775097 29.47922893 -0.0751955 26.20838787 -0.0625 22.9375 C-0.05748726 20.72591244 -0.05292396 18.51432382 -0.04882812 16.30273438 C-0.03777584 10.86846643 -0.02102063 5.43423803 0 0 Z " fill="#2B4349" transform="translate(603,98)"/>
<path d="M0 0 C0.99 0 1.98 0 3 0 C3 13.2 3 26.4 3 40 C2.01 40.495 2.01 40.495 1 41 C-0.29487016 37.11538953 -0.1232604 33.44116044 -0.09765625 29.39453125 C-0.0962413 28.55532639 -0.09482635 27.71612152 -0.09336853 26.85148621 C-0.08777215 24.17178784 -0.07522035 21.4921731 -0.0625 18.8125 C-0.05748453 16.99544392 -0.05292171 15.17838652 -0.04882812 13.36132812 C-0.03780391 8.90751987 -0.02054178 4.45377411 0 0 Z " fill="#363C38" transform="translate(675,103)"/>
<path d="M0 0 C3.3 0 6.6 0 10 0 C10.02913072 4.37498593 10.04684286 8.74994674 10.0625 13.125 C10.07087891 14.3625 10.07925781 15.6 10.08789062 16.875 C10.09111328 18.07382812 10.09433594 19.27265625 10.09765625 20.5078125 C10.10289307 21.60754395 10.10812988 22.70727539 10.11352539 23.84033203 C10.0008558 26.97618105 9.58626376 29.92059383 9 33 C8.67 33 8.34 33 8 33 C7.67 23.76 7.34 14.52 7 5 C5.02 4.34 3.04 3.68 1 3 C0.67 2.01 0.34 1.02 0 0 Z " fill="#5B9FB5" transform="translate(603,398)"/>
<path d="M0 0 C1.32 0 2.64 0 4 0 C3.67 1.65 3.34 3.3 3 5 C-0.01031744 5.93423645 -0.86650268 6.04449911 -4 5 C-3.99476318 5.64026123 -3.98952637 6.28052246 -3.98413086 6.94018555 C-3.96327571 9.85594695 -3.95031271 12.77169262 -3.9375 15.6875 C-3.92912109 16.69490234 -3.92074219 17.70230469 -3.91210938 18.74023438 C-3.90888672 19.71669922 -3.90566406 20.69316406 -3.90234375 21.69921875 C-3.89710693 22.59471436 -3.89187012 23.49020996 -3.88647461 24.4128418 C-4.00159802 27.03641759 -4.41765715 29.44293053 -5 32 C-5.33 32 -5.66 32 -6 32 C-6 22.1 -6 12.2 -6 2 C-4.02 2 -2.04 2 0 2 C0 1.34 0 0.68 0 0 Z " fill="#64ADC5" transform="translate(674,396)"/>
<path d="M0 0 C0 0.99 0 1.98 0 3 C-4.4767508 7.02943074 -9.77385353 6.43390802 -15.4453125 6.3984375 C-16.95555496 6.40274277 -16.95555496 6.40274277 -18.49630737 6.40713501 C-20.61945154 6.40917252 -22.74261461 6.40366462 -24.86572266 6.39111328 C-28.12054167 6.37502204 -31.3741252 6.39099024 -34.62890625 6.41015625 C-36.69271108 6.40817442 -38.75651514 6.404332 -40.8203125 6.3984375 C-41.79533722 6.40451019 -42.77036194 6.41058289 -43.77493286 6.4168396 C-44.6795224 6.40738312 -45.58411194 6.39792664 -46.51611328 6.38818359 C-47.31155548 6.38579681 -48.10699768 6.38341003 -48.92654419 6.38095093 C-51.47984025 5.91184013 -52.37262145 4.96890452 -54 3 C-52.99324219 3.0721875 -51.98648438 3.144375 -50.94921875 3.21875 C-34.74365094 4.31733334 -18.0150443 5.34766087 -2 2 C-1.34 1.34 -0.68 0.68 0 0 Z " fill="#69A4A3" transform="translate(669,582)"/>
<path d="M0 0 C0.99 0.33 1.98 0.66 3 1 C3 1.66 3 2.32 3 3 C21.15 3 39.3 3 58 3 C58 3.33 58 3.66 58 4 C37.54 4 17.08 4 -4 4 C-2.68 2.68 -1.36 1.36 0 0 Z " fill="#395158" transform="translate(610,320)"/>
<path d="M0 0 C0.66 0 1.32 0 2 0 C2 8.91 2 17.82 2 27 C1.01 26.67 0.02 26.34 -1 26 C-1 20.72 -1 15.44 -1 10 C-0.34 10 0.32 10 1 10 C0.67 6.7 0.34 3.4 0 0 Z " fill="#2B2D2B" transform="translate(616,104)"/>
<path d="M0 0 C0.33 0 0.66 0 1 0 C1.02505615 1.28165039 1.0501123 2.56330078 1.07592773 3.88378906 C1.17011595 8.6399125 1.2703089 13.39589379 1.37231445 18.15185547 C1.41562009 20.21008987 1.45729829 22.26835918 1.49731445 24.32666016 C1.55512275 27.28558879 1.61878696 30.2443424 1.68359375 33.203125 C1.70030624 34.12305237 1.71701874 35.04297974 1.73423767 35.99078369 C1.75418289 36.8513739 1.77412811 37.71196411 1.79467773 38.59863281 C1.81022202 39.35364075 1.8257663 40.10864868 1.84178162 40.88653564 C2.00185633 43.02479671 2.41816368 44.93989084 3 47 C2.01 46.67 1.02 46.34 0 46 C0 30.82 0 15.64 0 0 Z " fill="#44554F" transform="translate(603,98)"/>
<path d="M0 0 C1.66611905 -0.042721 3.33382885 -0.04063832 5 0 C6 1 6 1 6.0625 3.5625 C6.041875 4.366875 6.02125 5.17125 6 6 C3.625 6.625 3.625 6.625 1 7 C0.34 6.34 -0.32 5.68 -1 5 C-0.625 2.375 -0.625 2.375 0 0 Z " fill="#516A65" transform="translate(638,506)"/>
<path d="M0 0 C1.66611905 -0.042721 3.33382885 -0.04063832 5 0 C6 1 6 1 6.0625 3.5625 C6.041875 4.366875 6.02125 5.17125 6 6 C3.625 6.625 3.625 6.625 1 7 C0.34 6.34 -0.32 5.68 -1 5 C-0.625 2.375 -0.625 2.375 0 0 Z " fill="#4E6762" transform="translate(638,469)"/>
<path d="M0 0 C1.65 0 3.3 0 5 0 C5.33 1.98 5.66 3.96 6 6 C3.625 6.625 3.625 6.625 1 7 C0.34 6.34 -0.32 5.68 -1 5 C-0.625 2.375 -0.625 2.375 0 0 Z " fill="#546D68" transform="translate(638,543)"/>
<path d="M0 0 C0.763125 0.20625 1.52625 0.4125 2.3125 0.625 C2.3125 1.615 2.3125 2.605 2.3125 3.625 C1.9825 3.295 1.6525 2.965 1.3125 2.625 C-0.35367115 2.58436168 -2.02138095 2.582279 -3.6875 2.625 C-3.3575 4.275 -3.0275 5.925 -2.6875 7.625 C-1.3675 7.625 -0.0475 7.625 1.3125 7.625 C1.9725 6.635 2.6325 5.645 3.3125 4.625 C3.355221 6.29111905 3.35313832 7.95882885 3.3125 9.625 C2.3125 10.625 2.3125 10.625 -0.625 10.875 C-1.635625 10.7925 -2.64625 10.71 -3.6875 10.625 C-5.98769361 7.17470958 -6.11882515 5.67945642 -5.6875 1.625 C-2.6875 -0.375 -2.6875 -0.375 0 0 Z " fill="#719AAA" transform="translate(641.6875,504.375)"/>
<path d="M0 0 C2.125 0.375 2.125 0.375 4 1 C4.38218767 2.65614657 4.71395102 4.32457024 5 6 C4 7 4 7 1.4375 7.0625 C0.2309375 7.0315625 0.2309375 7.0315625 -1 7 C-1.625 4.625 -1.625 4.625 -2 2 C-1.34 1.34 -0.68 0.68 0 0 Z " fill="#4B635F" transform="translate(639,431)"/>
<path d="M0 0 C1.32 0 2.64 0 4 0 C3.67 1.65 3.34 3.3 3 5 C-0.01031744 5.93423645 -0.86650268 6.04449911 -4 5 C-4 4.01 -4 3.02 -4 2 C-2.68 2 -1.36 2 0 2 C0 1.34 0 0.68 0 0 Z " fill="#8CB1A9" transform="translate(674,396)"/>
<path d="M0 0 C2.97 0 5.94 0 9 0 C8.67 0.99 8.34 1.98 8 3 C5.36 2.34 2.72 1.68 0 1 C0 0.67 0 0.34 0 0 Z " fill="#83BCBB" transform="translate(604,398)"/>
<path d="M0 0 C2.64 0.99 5.28 1.98 8 3 C7.67 3.66 7.34 4.32 7 5 C4.0625 4.1875 4.0625 4.1875 1 3 C0.67 2.01 0.34 1.02 0 0 Z " fill="#75A39B" transform="translate(603,398)"/>
</svg>
