<?xml version="1.0" encoding="UTF-8"?>
<svg version="1.1" xmlns="http://www.w3.org/2000/svg" width="1280" height="720">
<path d="M0 0 C422.4 0 844.8 0 1280 0 C1280 237.6 1280 475.2 1280 720 C857.6 720 435.2 720 0 720 C0 482.4 0 244.8 0 0 Z " fill="#6B8C80" transform="translate(0,0)"/>
<path d="M0 0 C1.03919334 -0.00021904 1.03919334 -0.00021904 2.09938049 -0.0004425 C4.3935965 0.00025521 6.68773173 0.00804097 8.98193359 0.01586914 C10.57091223 0.01773382 12.15989144 0.01915749 13.74887085 0.02015686 C17.93446434 0.02397808 22.12002323 0.033805 26.30560303 0.04486084 C30.57531262 0.05508345 34.8450278 0.0596563 39.11474609 0.06469727 C47.49497032 0.07542761 55.87516641 0.09249931 64.25537109 0.11352539 C64.75037109 2.09352539 64.75037109 2.09352539 65.25537109 4.11352539 C64.59537109 4.11352539 63.93537109 4.11352539 63.25537109 4.11352539 C63.25537109 4.77352539 63.25537109 5.43352539 63.25537109 6.11352539 C64.24537109 6.11352539 65.23537109 6.11352539 66.25537109 6.11352539 C66.28004577 11.77351562 66.29821898 17.43347471 66.31030273 23.09350586 C66.31533896 25.0199437 66.32216821 26.9463777 66.33081055 28.87280273 C66.34290717 31.63794907 66.34860642 34.40304497 66.35302734 37.16821289 C66.35818863 38.03284149 66.36334991 38.89747009 66.3686676 39.78829956 C66.3692428 45.88578198 66.3692428 45.88578198 65.25537109 48.11352539 C63.60537109 48.11352539 61.95537109 48.11352539 60.25537109 48.11352539 C60.25759171 49.32586349 60.25981232 50.5382016 60.26210022 51.78727722 C60.28956379 67.29185221 60.307205 82.7964299 60.31787109 98.30102539 C60.31872711 99.53658047 60.31958313 100.77213554 60.32046509 102.04513168 C60.34013156 134.17546434 60.28079385 166.29950079 59.75537109 198.42602539 C59.74341328 199.1578088 59.73145546 199.88959221 59.71913528 200.64355087 C59.57914276 209.1338224 59.42626016 217.62381444 59.25537109 226.11352539 C60.43099609 226.29915039 60.43099609 226.29915039 61.63037109 226.48852539 C64.25537109 227.11352539 64.25537109 227.11352539 66.25537109 229.11352539 C66.50260925 231.96681213 66.50260925 231.96681213 66.49829102 235.65869141 C66.50018936 236.33037354 66.50208771 237.00205566 66.50404358 237.6940918 C66.50775433 239.91865639 66.49704412 242.14289597 66.48583984 244.36743164 C66.48464821 245.90917421 66.48419485 247.45091751 66.48445129 248.99266052 C66.48288597 252.2249709 66.47459193 255.45717059 66.46118164 258.68945312 C66.44417748 262.84152229 66.44036767 266.99346989 66.44112682 271.1455698 C66.44085548 274.32904734 66.43538034 277.51249807 66.42812538 280.69596672 C66.42493398 282.22744481 66.42297021 283.75892595 66.42223167 285.29040718 C66.42007388 287.42624257 66.41134238 289.56194655 66.40063477 291.69775391 C66.39682297 292.91527847 66.39301117 294.13280304 66.38908386 295.38722229 C66.25537109 298.11352539 66.25537109 298.11352539 65.25537109 299.11352539 C63.06270954 299.21312546 60.86679707 299.24152295 58.671875 299.24291992 C57.98404434 299.24467224 57.29621368 299.24642456 56.58753967 299.24822998 C54.30231235 299.25264913 52.01716177 299.24970966 49.73193359 299.24633789 C48.14871201 299.24701107 46.56549052 299.24798121 44.98226929 299.24923706 C41.65825419 299.25071424 38.3342659 299.2485594 35.01025391 299.24389648 C30.74738229 299.23820846 26.48457376 299.24147218 22.22170448 299.24746895 C18.94979375 299.25108193 15.67789797 299.24993241 12.40598679 299.24734116 C10.83429329 299.24667345 9.26259844 299.24749487 7.69090652 299.24982071 C5.49311986 299.25235827 3.29543531 299.24849061 1.09765625 299.24291992 C-0.77978775 299.24172653 -0.77978775 299.24172653 -2.69515991 299.24050903 C-5.74462891 299.11352539 -5.74462891 299.11352539 -8.74462891 298.11352539 C-8.88373963 289.07316841 -8.9903047 280.0331806 -9.05550194 270.99198627 C-9.08679612 266.79358898 -9.12923176 262.59592465 -9.19726562 258.39794922 C-9.26252983 254.34544376 -9.29834935 250.29364256 -9.31389236 246.24065208 C-9.32496637 244.6956187 -9.34659254 243.15062325 -9.37900925 241.60589027 C-9.42267295 239.43872911 -9.42855983 237.27446489 -9.42578125 235.10693359 C-9.43910492 233.87449417 -9.45242859 232.64205475 -9.46615601 231.37226868 C-8.74462891 228.11352539 -8.74462891 228.11352539 -5.74700165 225.86266327 C-3.07994675 223.7406449 -2.78864732 223.30902226 -1.99072456 219.76524639 C-1.98888098 218.47934518 -1.98703739 217.19344397 -1.98513794 215.86857605 C-1.97132279 214.79023537 -1.97132279 214.79023537 -1.95722854 213.69011003 C-1.93367428 211.28647332 -1.95274313 208.88509451 -1.97167969 206.48144531 C-1.96350806 204.75657773 -1.95270517 203.03172091 -1.93946838 201.30688477 C-1.91101462 196.6273555 -1.91939 191.94852942 -1.93433619 187.26896453 C-1.94370986 182.3775024 -1.91927141 177.48621263 -1.89840698 172.59480286 C-1.86404715 163.33362864 -1.86013221 154.07270128 -1.86713207 144.81147605 C-1.87362096 134.26735018 -1.84620528 123.72339798 -1.81592965 113.17932355 C-1.75441444 91.49070497 -1.73551574 69.80222172 -1.74462891 48.11352539 C-2.71400391 48.13415039 -3.68337891 48.15477539 -4.68212891 48.17602539 C-7.74462891 48.11352539 -7.74462891 48.11352539 -8.74462891 47.11352539 C-8.83758706 45.67062752 -8.86209403 44.22322755 -8.8581543 42.77734375 C-8.85807877 41.85646469 -8.85800323 40.93558563 -8.85792542 39.98680115 C-8.85276413 38.98576859 -8.84760284 37.98473602 -8.84228516 36.95336914 C-8.84087021 35.93376602 -8.83945526 34.9141629 -8.83799744 33.86366272 C-8.83237987 30.59275432 -8.81982441 27.32191326 -8.80712891 24.05102539 C-8.80211617 21.83943783 -8.79755287 19.62784921 -8.79345703 17.41625977 C-8.78240474 11.98199182 -8.76564954 6.54776342 -8.74462891 1.11352539 C-5.82380435 -0.34688689 -3.26161522 -0.00576257 0 0 Z " fill="#56994C" transform="translate(611.74462890625,96.886474609375)"/>
<path d="M0 0 C2.32852173 -0.36076355 2.32852173 -0.36076355 5.27587891 -0.34057617 C6.92736435 -0.34023628 6.92736435 -0.34023628 8.61221313 -0.33988953 C9.80494843 -0.32440567 10.99768372 -0.30892181 12.2265625 -0.29296875 C13.44451508 -0.28872391 14.66246765 -0.28447906 15.91732788 -0.28010559 C19.82010704 -0.26326831 23.72237604 -0.22560595 27.625 -0.1875 C30.26561756 -0.17245974 32.90624319 -0.15877019 35.546875 -0.14648438 C42.03142504 -0.11334822 48.51567608 -0.06309861 55 0 C55 0.66 55 1.32 55 2 C55.66 2 56.32 2 57 2 C57 61.4 57 120.8 57 182 C37.53 182 18.06 182 -2 182 C-2.04511013 158.71310939 -2.08196775 135.42625404 -2.10362434 112.13933086 C-2.11394619 101.32732774 -2.12802385 90.51535364 -2.15087891 79.70336914 C-2.170785 70.28196739 -2.18370982 60.86058666 -2.18817699 51.43916446 C-2.19078909 46.4485033 -2.19694747 41.45790228 -2.21146011 36.46726036 C-2.22500013 31.77321157 -2.22922992 27.07924789 -2.22621536 22.38518143 C-2.22676713 20.65938798 -2.23076585 18.93359178 -2.23841095 17.20781517 C-2.24831625 14.85720298 -2.24598518 12.50691499 -2.24050903 10.15629578 C-2.24235262 8.8390536 -2.24419621 7.52181143 -2.24609566 6.16465282 C-2 3 -2 3 0 0 Z " fill="#56994B" transform="translate(613,398)"/>
<path d="M0 0 C1.00292336 -0.0076664 1.00292336 -0.0076664 2.02610779 -0.01548767 C4.23559526 -0.02938471 6.4447709 -0.02842709 8.65429688 -0.02612305 C10.18982052 -0.03000952 11.72534309 -0.03434409 13.26086426 -0.03910828 C16.47879523 -0.04657041 19.69661648 -0.04627899 22.91455078 -0.04101562 C27.04075487 -0.03521654 31.16651073 -0.05216224 35.29264069 -0.0753603 C38.46334463 -0.09008169 41.63394018 -0.09097162 44.80467224 -0.08785057 C46.32613514 -0.08836444 47.84760401 -0.09361459 49.36903381 -0.10366249 C51.49501827 -0.11598121 53.62012367 -0.10926412 55.74609375 -0.09765625 C57.56119446 -0.09860039 57.56119446 -0.09860039 59.41296387 -0.0995636 C62.37304688 0.2746582 62.37304688 0.2746582 64.26495361 1.38175964 C65.93961864 4.24250353 65.73937775 6.63575059 65.72949219 9.93334961 C65.73153656 10.60517776 65.73358093 11.27700592 65.73568726 11.9691925 C65.73869405 14.18847929 65.72022517 16.40702233 65.70117188 18.6262207 C65.6981145 20.16653255 65.69623821 21.70684716 65.69549561 23.24716187 C65.69089352 26.47355749 65.6764692 29.69970337 65.65429688 32.92602539 C65.62596709 37.07022477 65.61508061 41.21422777 65.61061478 45.35851479 C65.60646716 48.53770935 65.59665599 51.71686387 65.58473969 54.89603806 C65.57902695 56.42472384 65.57427158 57.95341351 65.57047272 59.48210526 C65.56363094 61.61305839 65.55000994 63.74385297 65.53417969 65.87475586 C65.52735168 67.08926422 65.52052368 68.30377258 65.51348877 69.55508423 C65.37304688 72.2746582 65.37304688 72.2746582 64.37304688 73.2746582 C62.18038532 73.37425827 59.98447286 73.40265576 57.78955078 73.40405273 C57.10172012 73.40580505 56.41388947 73.40755737 55.70521545 73.40936279 C53.41998813 73.41378195 51.13483756 73.41084247 48.84960938 73.4074707 C47.26638779 73.40814388 45.6831663 73.40911402 44.09994507 73.41036987 C40.77592997 73.41184706 37.45194168 73.40969221 34.12792969 73.4050293 C29.86505807 73.39934127 25.60224954 73.40260499 21.33938026 73.40860176 C18.06746953 73.41221474 14.79557375 73.41106522 11.52366257 73.40847397 C9.95196907 73.40780626 8.38027422 73.40862769 6.80858231 73.41095352 C4.61079564 73.41349108 2.41311109 73.40962342 0.21533203 73.40405273 C-1.66211197 73.40285934 -1.66211197 73.40285934 -3.57748413 73.40164185 C-6.62695312 73.2746582 -6.62695312 73.2746582 -9.62695312 72.2746582 C-9.69637391 63.18237169 -9.74972384 54.09017599 -9.78238964 44.99768257 C-9.79806529 40.77594792 -9.81933784 36.55439418 -9.85327148 32.33276367 C-9.88579775 28.26087535 -9.90379182 24.18916135 -9.91158485 20.11715317 C-9.91714053 18.56135182 -9.92798908 17.00556032 -9.9441433 15.44983292 C-9.96582887 13.27550671 -9.96892389 11.10190666 -9.9675293 8.92749023 C-9.97419113 7.68838898 -9.98085297 6.44928772 -9.98771667 5.17263794 C-9.80913872 3.73813797 -9.80913872 3.73813797 -9.62695312 2.2746582 C-6.0036695 -0.14086422 -4.31323554 0.01642286 0 0 Z " fill="#262625" transform="translate(612.626953125,322.725341796875)"/>
<path d="M0 0 C1.03919334 -0.00021904 1.03919334 -0.00021904 2.09938049 -0.0004425 C4.3935965 0.00025521 6.68773173 0.00804097 8.98193359 0.01586914 C10.57091223 0.01773382 12.15989144 0.01915749 13.74887085 0.02015686 C17.93446434 0.02397808 22.12002323 0.033805 26.30560303 0.04486084 C30.57531262 0.05508345 34.8450278 0.0596563 39.11474609 0.06469727 C47.49497032 0.07542761 55.87516641 0.09249931 64.25537109 0.11352539 C64.75037109 2.09352539 64.75037109 2.09352539 65.25537109 4.11352539 C64.59537109 4.11352539 63.93537109 4.11352539 63.25537109 4.11352539 C63.25537109 4.77352539 63.25537109 5.43352539 63.25537109 6.11352539 C64.24537109 6.11352539 65.23537109 6.11352539 66.25537109 6.11352539 C66.28004577 11.77351562 66.29821898 17.43347471 66.31030273 23.09350586 C66.31533896 25.0199437 66.32216821 26.9463777 66.33081055 28.87280273 C66.34290717 31.63794907 66.34860642 34.40304497 66.35302734 37.16821289 C66.35818863 38.03284149 66.36334991 38.89747009 66.3686676 39.78829956 C66.3692428 45.88578198 66.3692428 45.88578198 65.25537109 48.11352539 C55.75462784 48.13665023 46.25389421 48.1544412 36.75312901 48.16533756 C32.34200105 48.17056608 27.93089229 48.17766316 23.51977539 48.18896484 C19.26635994 48.19979483 15.012963 48.20580246 10.75953484 48.20840263 C9.13315476 48.21025668 7.50677575 48.21387691 5.88040352 48.21925545 C3.61026916 48.22646737 1.34021224 48.22751627 -0.92993164 48.22705078 C-2.87185646 48.2303817 -2.87185646 48.2303817 -4.85301208 48.23377991 C-7.74462891 48.11352539 -7.74462891 48.11352539 -8.74462891 47.11352539 C-8.83758706 45.67062752 -8.86209403 44.22322755 -8.8581543 42.77734375 C-8.85807877 41.85646469 -8.85800323 40.93558563 -8.85792542 39.98680115 C-8.85276413 38.98576859 -8.84760284 37.98473602 -8.84228516 36.95336914 C-8.84087021 35.93376602 -8.83945526 34.9141629 -8.83799744 33.86366272 C-8.83237987 30.59275432 -8.81982441 27.32191326 -8.80712891 24.05102539 C-8.80211617 21.83943783 -8.79755287 19.62784921 -8.79345703 17.41625977 C-8.78240474 11.98199182 -8.76564954 6.54776342 -8.74462891 1.11352539 C-5.82380435 -0.34688689 -3.26161522 -0.00576257 0 0 Z " fill="#252524" transform="translate(611.74462890625,96.886474609375)"/>
<path d="M0 0 C0.33 0 0.66 0 1 0 C1 59.07 1 118.14 1 179 C18.82 179 36.64 179 55 179 C54.99476318 173.68414795 54.98952637 168.3682959 54.98413086 162.89135742 C54.9675915 145.36516868 54.95647653 127.83897964 54.94818783 110.31278515 C54.94302698 99.68239635 54.93598827 89.05201492 54.92456055 78.42163086 C54.9146073 69.15844239 54.90814504 59.89525926 54.90591151 50.63206559 C54.90460549 45.7252612 54.90152651 40.8184721 54.89426994 35.91167259 C54.88749964 31.29643504 54.88538511 26.68121914 54.88689232 22.0659771 C54.88661645 20.36921318 54.8846173 18.67244857 54.88079453 16.97568893 C54.87584154 14.66456713 54.87700769 12.35352776 54.87974548 10.04240417 C54.87882369 8.74728503 54.8779019 7.45216589 54.87695217 6.11780071 C55 3 55 3 56 0 C56.66 0 57.32 0 58 0 C58 59.4 58 118.8 58 180 C38.53 180 19.06 180 -1 180 C-1.02254485 156.67856862 -1.0409779 133.35714602 -1.05181217 110.03570652 C-1.05697568 99.2079638 -1.06401942 88.38022831 -1.07543945 77.55249023 C-1.08538462 68.11865593 -1.09185303 58.68482687 -1.09408849 49.25098747 C-1.09539589 44.25258514 -1.09848353 39.25419779 -1.10573006 34.25580025 C-1.11248764 29.5568499 -1.1146175 24.85792081 -1.11310768 20.15896606 C-1.11338413 18.42911094 -1.1153908 16.69925516 -1.11920547 14.96940422 C-1.12413864 12.61817177 -1.1229997 10.26702085 -1.12025452 7.91578674 C-1.12117631 6.59670098 -1.1220981 5.27761522 -1.12304783 3.91855717 C-1 1 -1 1 0 0 Z " fill="#64B95A" transform="translate(612,400)"/>
<path d="M0 0 C0.66 0 1.32 0 2 0 C2 57.42 2 114.84 2 174 C1.01 174 0.02 174 -1 174 C-1.02332662 151.46087424 -1.04097801 128.92175046 -1.05181217 106.38261509 C-1.05697564 95.91807719 -1.06401929 85.45354677 -1.07543945 74.98901367 C-1.08538476 65.87160565 -1.09185306 56.75420304 -1.09408849 47.63678974 C-1.09539586 42.80606124 -1.09848336 37.97534825 -1.10573006 33.14462471 C-1.11248785 28.60326313 -1.11461746 24.06192353 -1.11310768 19.5205574 C-1.11338412 17.84875431 -1.11539066 16.17695052 -1.11920547 14.50515175 C-1.12413898 12.23274147 -1.12299958 9.96041554 -1.12025452 7.68800354 C-1.12117631 6.41316384 -1.1220981 5.13832415 -1.12304783 3.82485294 C-1 1 -1 1 0 0 Z " fill="#68BD5C" transform="translate(668,149)"/>
<path d="M0 0 C6.27 0 12.54 0 19 0 C19 8.58 19 17.16 19 26 C12.73 26 6.46 26 0 26 C0 17.42 0 8.84 0 0 Z " fill="#5C796F" transform="translate(644,104)"/>
<path d="M0 0 C6.27 0 12.54 0 19 0 C19 8.58 19 17.16 19 26 C12.73 26 6.46 26 0 26 C0 17.42 0 8.84 0 0 Z " fill="#5D796F" transform="translate(618,104)"/>
<path d="M0 0 C19.8 0 39.6 0 60 0 C59 5 59 5 57.4375 6.25 C51.13124456 8.19038629 44.05326593 8.34206767 37.5 9.0625 C36.67757812 9.15337891 35.85515625 9.24425781 35.0078125 9.33789062 C33.00526445 9.55910233 31.00264019 9.779624 29 10 C29 9.34 29 8.68 29 8 C27.50146484 8.25523437 27.50146484 8.25523437 25.97265625 8.515625 C22.07998606 9.06794349 18.36693173 8.99181118 14.4375 8.75 C12.54837891 8.64945313 12.54837891 8.64945313 10.62109375 8.546875 C6.76605126 7.96466794 4.22556555 7.19241448 1 5 C0.67 3.35 0.34 1.7 0 0 Z " fill="#6AB07D" transform="translate(611,580)"/>
<path d="M0 0 C19.47 0 38.94 0 59 0 C58.34 1.32 57.68 2.64 57 4 C49.36453069 4.05062418 41.7291045 4.08570152 34.09350586 4.10986328 C31.49485659 4.11993368 28.89621869 4.13359071 26.29760742 4.15087891 C22.56686603 4.17508139 18.83627419 4.18647266 15.10546875 4.1953125 C13.35691841 4.21079636 13.35691841 4.21079636 11.57304382 4.22659302 C10.49214981 4.22674408 9.4112558 4.22689514 8.29760742 4.22705078 C7.34496506 4.231492 6.39232269 4.23593323 5.41081238 4.24050903 C3 4 3 4 0 2 C0 1.34 0 0.68 0 0 Z " fill="#DCFBD8" transform="translate(611,580)"/>
<path d="M0 0 C0.33 0 0.66 0 1 0 C1 58.74 1 117.48 1 178 C0.01 178.33 -0.98 178.66 -2 179 C-1.83826325 178.32364408 -1.67652651 177.64728815 -1.50988865 176.95043659 C-0.91683878 173.51879317 -0.8593639 170.27681768 -0.84178162 166.79301453 C-0.83684364 166.07820429 -0.83190566 165.36339406 -0.82681805 164.62692291 C-0.81149126 162.23785647 -0.80309554 159.84881681 -0.79467773 157.4597168 C-0.78509542 155.74471299 -0.77508513 154.02971153 -0.76467896 152.31471252 C-0.73766214 147.66227944 -0.71663512 143.00983624 -0.69667697 138.35736823 C-0.67479754 133.49398952 -0.64741842 128.63064186 -0.62062073 123.76728821 C-0.57072032 114.55932022 -0.52577164 105.35133497 -0.48259836 96.14333326 C-0.43320334 85.65972033 -0.3782936 75.17613856 -0.32291877 64.69255579 C-0.20913943 43.12839956 -0.10229156 21.56421358 0 0 Z " fill="#5A8F66" transform="translate(610,404)"/>
<path d="M0 0 C24.75 0 49.5 0 75 0 C74.67 0.99 74.34 1.98 74 3 C37.37 2.505 37.37 2.505 0 2 C0 1.34 0 0.68 0 0 Z " fill="#EEF1EE" transform="translate(603,396)"/>
<path d="M0 0 C17.49 0 34.98 0 53 0 C52.67 0.99 52.34 1.98 52 3 C49.52076199 3.02685095 47.0418116 3.04676547 44.5625 3.0625 C43.85544922 3.07087891 43.14839844 3.07925781 42.41992188 3.08789062 C40.61306441 3.09653588 38.80612397 3.05220011 37 3 C36.505 2.505 36.505 2.505 36 2 C34.12678052 1.83946185 34.12678052 1.83946185 32 1.875 C31.278125 1.87242187 30.55625 1.86984375 29.8125 1.8671875 C27.97910585 1.80304724 27.97910585 1.80304724 27 3 C25.17014378 3.09962237 23.33647122 3.13080452 21.50390625 3.1328125 C20.38822266 3.13410156 19.27253906 3.13539063 18.12304688 3.13671875 C16.36057617 3.13091797 16.36057617 3.13091797 14.5625 3.125 C13.39138672 3.12886719 12.22027344 3.13273437 11.01367188 3.13671875 C9.89669922 3.13542969 8.77972656 3.13414062 7.62890625 3.1328125 C6.59838135 3.13168457 5.56785645 3.13055664 4.50610352 3.12939453 C2 3 2 3 0 2 C0 1.34 0 0.68 0 0 Z " fill="#4D7D45" transform="translate(614,398)"/>
<path d="M0 0 C0.33 0 0.66 0 1 0 C1.02505615 1.29212402 1.0501123 2.58424805 1.07592773 3.91552734 C1.16991624 8.69769656 1.27015766 13.47971762 1.37231445 18.26171875 C1.41569577 20.33362366 1.45736846 22.40556507 1.49731445 24.47753906 C1.55493965 27.45128391 1.61865625 30.42484448 1.68359375 33.3984375 C1.70030624 34.32868744 1.71701874 35.25893738 1.73423767 36.21737671 C1.75418289 37.07811798 1.77412811 37.93885925 1.79467773 38.82568359 C1.81022202 39.58513275 1.8257663 40.34458191 1.84178162 41.12704468 C1.89127127 43.09115721 1.89127127 43.09115721 3 45 C26.43 45 49.86 45 74 45 C74 45.66 74 46.32 74 47 C64.49925675 47.02312484 54.99852312 47.0409158 45.49775791 47.05181217 C41.08662996 47.05704069 36.6755212 47.06413777 32.2644043 47.07543945 C28.01098885 47.08626944 23.75759191 47.09227707 19.50416374 47.09487724 C17.87778367 47.09673129 16.25140466 47.10035152 14.62503242 47.10573006 C12.35489807 47.11294198 10.08484115 47.11399088 7.81469727 47.11352539 C5.87277245 47.11685631 5.87277245 47.11685631 3.89161682 47.12025452 C1 47 1 47 0 46 C-0.09295815 44.55710213 -0.11746513 43.10970215 -0.11352539 41.66381836 C-0.11344986 40.7429393 -0.11337433 39.82206024 -0.11329651 38.87327576 C-0.10813522 37.87224319 -0.10297394 36.87121063 -0.09765625 35.83984375 C-0.0962413 34.82024063 -0.09482635 33.80063751 -0.09336853 32.75013733 C-0.08775097 29.47922893 -0.0751955 26.20838787 -0.0625 22.9375 C-0.05748726 20.72591244 -0.05292396 18.51432382 -0.04882812 16.30273438 C-0.03777584 10.86846643 -0.02102063 5.43423803 0 0 Z " fill="#2F4C2E" transform="translate(603,98)"/>
<path d="M0 0 C0.495 1.98 0.495 1.98 1 4 C-2.05401084 6.67506107 -3.87736751 7.36744145 -7.92041016 7.28051758 C-8.89466949 7.26672562 -9.86892883 7.25293365 -10.87271118 7.23872375 C-11.91760712 7.20764023 -12.96250305 7.1765567 -14.0390625 7.14453125 C-15.11626556 7.12283371 -16.19346863 7.10113617 -17.30331421 7.07878113 C-19.57803207 7.02953861 -21.85259705 6.97273708 -24.12695312 6.90893555 C-27.61833072 6.81268386 -31.10948931 6.7433767 -34.6015625 6.67773438 C-36.80993338 6.62659642 -39.01826917 6.57391492 -41.2265625 6.51953125 C-42.2755069 6.49856888 -43.32445129 6.47760651 -44.40518188 6.45600891 C-45.3731369 6.42645615 -46.34109192 6.39690338 -47.33837891 6.36645508 C-48.61933945 6.33289665 -48.61933945 6.33289665 -49.92617798 6.29866028 C-52 6 -52 6 -54 4 C-53.35298126 3.99413376 -52.70596252 3.98826752 -52.03933716 3.98222351 C-45.32362084 3.91844082 -38.6083905 3.83406123 -31.89306641 3.73754883 C-29.38466791 3.70423137 -26.87619322 3.67622098 -24.36767578 3.65356445 C-20.76822333 3.62014401 -17.16947361 3.56783414 -13.5703125 3.51171875 C-11.87964157 3.50213387 -11.87964157 3.50213387 -10.15481567 3.49235535 C-9.11388763 3.47256119 -8.07295959 3.45276703 -7.00048828 3.43237305 C-6.08115509 3.42126999 -5.1618219 3.41016693 -4.21463013 3.39872742 C-3.48380219 3.26714737 -2.75297424 3.13556732 -2 3 C-1.34 2.01 -0.68 1.02 0 0 Z " fill="#6CC17F" transform="translate(670,580)"/>
<path d="M0 0 C3.625 0.375 3.625 0.375 7 1 C7.02689216 2.47906892 7.04634621 3.95827483 7.0625 5.4375 C7.07410156 6.26121094 7.08570313 7.08492188 7.09765625 7.93359375 C7 10 7 10 6 11 C3.0625 11.25 3.0625 11.25 0 11 C-2.30163882 7.54754176 -2.34490322 6.05261287 -2 2 C-1.34 1.34 -0.68 0.68 0 0 Z " fill="#73A96B" transform="translate(638,467)"/>
<path d="M0 0 C2.375 0.6875 2.375 0.6875 3.375 1.6875 C3.5078125 3.5 3.5078125 3.5 3.5 5.6875 C3.50257813 6.409375 3.50515625 7.13125 3.5078125 7.875 C3.375 9.6875 3.375 9.6875 2.375 10.6875 C-0.5625 10.875 -0.5625 10.875 -3.625 10.6875 C-5.625 8.6875 -5.625 8.6875 -5.9375 5.1875 C-5.834375 4.0325 -5.73125 2.8775 -5.625 1.6875 C-2.625 -0.3125 -2.625 -0.3125 0 0 Z " fill="#74A96D" transform="translate(641.625,541.3125)"/>
<path d="M0 0 C2.375 0.6875 2.375 0.6875 3.375 1.6875 C3.5078125 3.5 3.5078125 3.5 3.5 5.6875 C3.50257813 6.409375 3.50515625 7.13125 3.5078125 7.875 C3.375 9.6875 3.375 9.6875 2.375 10.6875 C-0.5625 10.9375 -0.5625 10.9375 -3.625 10.6875 C-5.92519361 7.23720958 -6.05632515 5.74195642 -5.625 1.6875 C-2.625 -0.3125 -2.625 -0.3125 0 0 Z " fill="#73AA6C" transform="translate(641.625,504.3125)"/>
<path d="M0 0 C2.32891212 3.49336818 2.23551143 4.86007865 2.1953125 8.98046875 C2.18886719 10.14384766 2.18242188 11.30722656 2.17578125 12.50585938 C2.15902344 13.72080078 2.14226563 14.93574219 2.125 16.1875 C2.11597656 17.41404297 2.10695313 18.64058594 2.09765625 19.90429688 C2.07406017 22.93639295 2.04113841 25.96809938 2 29 C1.34 29 0.68 29 0 29 C-0.93854981 25.82086058 -1.12879879 22.95745608 -1.1328125 19.6484375 C-1.13410156 18.63265625 -1.13539063 17.616875 -1.13671875 16.5703125 C-1.13285156 15.51585938 -1.12898437 14.46140625 -1.125 13.375 C-1.12886719 12.3128125 -1.13273438 11.250625 -1.13671875 10.15625 C-1.13542969 9.14304687 -1.13414062 8.12984375 -1.1328125 7.0859375 C-1.13168457 6.1582959 -1.13055664 5.2306543 -1.12939453 4.27490234 C-1 2 -1 2 0 0 Z " fill="#2C2D2B" transform="translate(616,102)"/>
<path d="M0 0 C0.66 0 1.32 0 2 0 C1.34 1.32 0.68 2.64 0 4 C-17.82 4 -35.64 4 -54 4 C-54 3.67 -54 3.34 -54 3 C-53.35298126 2.99191315 -52.70596252 2.98382629 -52.03933716 2.97549438 C-45.32370872 2.88964128 -38.60838204 2.79014685 -31.89306641 2.68261719 C-29.38465429 2.64426127 -26.87618592 2.60942025 -24.36767578 2.578125 C-20.76834971 2.53261791 -17.16941317 2.4746 -13.5703125 2.4140625 C-12.44319855 2.40251129 -11.31608459 2.39096008 -10.15481567 2.37905884 C-9.11388763 2.35918915 -8.07295959 2.33931946 -7.00048828 2.31884766 C-6.08115509 2.30552399 -5.1618219 2.29220032 -4.21463013 2.2784729 C-1.79533048 2.20423949 -1.79533048 2.20423949 0 0 Z " fill="#87F78C" transform="translate(668,580)"/>
<path d="M0 0 C0.33 0 0.66 0 1 0 C1.02505615 1.28165039 1.0501123 2.56330078 1.07592773 3.88378906 C1.17011595 8.6399125 1.2703089 13.39589379 1.37231445 18.15185547 C1.41562009 20.21008987 1.45729829 22.26835918 1.49731445 24.32666016 C1.55512275 27.28558879 1.61878696 30.2443424 1.68359375 33.203125 C1.70030624 34.12305237 1.71701874 35.04297974 1.73423767 35.99078369 C1.75418289 36.8513739 1.77412811 37.71196411 1.79467773 38.59863281 C1.81022202 39.35364075 1.8257663 40.10864868 1.84178162 40.88653564 C2.00185633 43.02479671 2.41816368 44.93989084 3 47 C2.01 46.67 1.02 46.34 0 46 C0 30.82 0 15.64 0 0 Z " fill="#44564F" transform="translate(603,98)"/>
<path d="M0 0 C1.66611905 -0.042721 3.33382885 -0.04063832 5 0 C6 1 6 1 6.0625 3.5625 C6.041875 4.366875 6.02125 5.17125 6 6 C3.625 6.625 3.625 6.625 1 7 C0.34 6.34 -0.32 5.68 -1 5 C-0.625 2.375 -0.625 2.375 0 0 Z " fill="#516D5E" transform="translate(638,506)"/>
<path d="M0 0 C1.66611905 -0.042721 3.33382885 -0.04063832 5 0 C6 1 6 1 6.0625 3.5625 C6.041875 4.366875 6.02125 5.17125 6 6 C3.625 6.625 3.625 6.625 1 7 C0.34 6.34 -0.32 5.68 -1 5 C-0.625 2.375 -0.625 2.375 0 0 Z " fill="#4F695A" transform="translate(638,469)"/>
<path d="M0 0 C2.125 0.375 2.125 0.375 4 1 C4.38218767 2.65614657 4.71395102 4.32457024 5 6 C4 7 4 7 1.4375 7.0625 C0.2309375 7.0315625 0.2309375 7.0315625 -1 7 C-1.625 4.625 -1.625 4.625 -2 2 C-1.34 1.34 -0.68 0.68 0 0 Z " fill="#4B6657" transform="translate(639,431)"/>
<path d="M0 0 C1.65 0.33 3.3 0.66 5 1 C5.33 2.65 5.66 4.3 6 6 C3.625 6.625 3.625 6.625 1 7 C0.34 6.34 -0.32 5.68 -1 5 C-0.625 2.375 -0.625 2.375 0 0 Z " fill="#536E60" transform="translate(638,543)"/>
<path d="M0 0 C-0.33 0.99 -0.66 1.98 -1 3 C-13.87 2.505 -13.87 2.505 -27 2 C-27 1.67 -27 1.34 -27 1 C-23.25006257 0.83190552 -19.50004074 0.66577241 -15.75 0.5 C-14.15478516 0.42845703 -14.15478516 0.42845703 -12.52734375 0.35546875 C-11.50253906 0.31035156 -10.47773437 0.26523437 -9.421875 0.21875 C-8.47924805 0.17685547 -7.53662109 0.13496094 -6.56542969 0.09179688 C-4.37813904 0.01353067 -2.18869047 0 0 0 Z " fill="#C5D2CA" transform="translate(678,396)"/>
<path d="M0 0 C3.3 0 6.6 0 10 0 C9.34 1.32 8.68 2.64 8 4 C4.28400809 4.20086443 3.22791555 4.1519437 0 2 C0 1.34 0 0.68 0 0 Z " fill="#79B08E" transform="translate(668,398)"/>
<path d="M0 0 C0.33 0 0.66 0 1 0 C1 6.27 1 12.54 1 19 C0.01 19.33 -0.98 19.66 -2 20 C-1.84660156 19.33613281 -1.69320312 18.67226563 -1.53515625 17.98828125 C-0.89226979 14.39844078 -0.64966009 10.82204581 -0.4375 7.1875 C-0.39431641 6.49462891 -0.35113281 5.80175781 -0.30664062 5.08789062 C-0.20138547 3.39211314 -0.10027137 1.69607948 0 0 Z " fill="#619670" transform="translate(610,563)"/>
<path d="M0 0 C5.94 0 11.88 0 18 0 C18 0.33 18 0.66 18 1 C15.75013201 1.16843931 13.50009983 1.33468654 11.25 1.5 C9.99703125 1.5928125 8.7440625 1.685625 7.453125 1.78125 C4.97265229 1.93838402 2.48544483 2 0 2 C0 1.34 0 0.68 0 0 Z " fill="#8EF682" transform="translate(611,580)"/>
<path d="M0 0 C0.33 0 0.66 0 1 0 C1.04241723 2.33294775 1.04092937 4.66702567 1 7 C0 8 0 8 -3.0625 8.0625 C-4.031875 8.041875 -5.00125 8.02125 -6 8 C-6.33 7.34 -6.66 6.68 -7 6 C-5 5.33333333 -3 4.66666667 -1 4 C-0.26676204 1.98491642 -0.26676204 1.98491642 0 0 Z " fill="#608F59" transform="translate(644,433)"/>
<path d="M0 0 C1.32 0 2.64 0 4 0 C4 1.32 4 2.64 4 4 C1.69 4 -0.62 4 -3 4 C-1.75 2 -1.75 2 0 0 Z " fill="#4A704C" transform="translate(610,319)"/>
<path d="M0 0 C0.33 1.32 0.66 2.64 1 4 C-0.8125 5.5625 -0.8125 5.5625 -3 7 C-3.99 6.67 -4.98 6.34 -6 6 C-5.195625 5.38125 -4.39125 4.7625 -3.5625 4.125 C-0.96125481 2.25835959 -0.96125481 2.25835959 0 0 Z " fill="#6CAD7E" transform="translate(670,580)"/>
<path d="M0 0 C2.97 0 5.94 0 9 0 C8.67 0.99 8.34 1.98 8 3 C5.6568787 2.74438677 3.32156597 2.40729228 1 2 C0.67 1.34 0.34 0.68 0 0 Z " fill="#85C698" transform="translate(604,398)"/>
</svg>
